<svg xmlns="http://www.w3.org/2000/svg" width="25" height="25" viewBox="-1192.5 -4210.5 25 25"><g fill="none"><path fill="#fff" d="M-1188.16-4210h16.32a3.84 3.84 0 0 1 3.84 3.84v16.32a3.84 3.84 0 0 1-3.84 3.84h-16.32a3.84 3.84 0 0 1-3.84-3.84v-16.32a3.84 3.84 0 0 1 3.84-3.84Z"/><path stroke="#000" stroke-linecap="round" stroke-linejoin="round" stroke-width=".25" d="M-1188.16-4210h16.32a3.84 3.84 0 0 1 3.84 3.84v16.32a3.84 3.84 0 0 1-3.84 3.84h-16.32a3.84 3.84 0 0 1-3.84-3.84v-16.32a3.84 3.84 0 0 1 3.84-3.84Z"/><path fill="#ff0" d="M-1184.08-4204h8.16c1.06 0 1.92.86 1.92 1.92v8.16c0 1.06-.86 1.92-1.92 1.92h-8.16a1.92 1.92 0 0 1-1.92-1.92v-8.16c0-1.06.86-1.92 1.92-1.92Z"/><path stroke="#000" stroke-linecap="round" stroke-linejoin="round" stroke-width=".25" d="M-1184.08-4204h8.16c1.06 0 1.92.86 1.92 1.92v8.16c0 1.06-.86 1.92-1.92 1.92h-8.16a1.92 1.92 0 0 1-1.92-1.92v-8.16c0-1.06.86-1.92 1.92-1.92Z"/></g></svg>