<?xml version="1.0" encoding="UTF-8" standalone="no"?>
<!DOCTYPE svg PUBLIC "-//W3C//DTD SVG 1.1//EN" "http://www.w3.org/Graphics/SVG/1.1/DTD/svg11.dtd">
<svg xmlns:dc="http://purl.org/dc/elements/1.1/" xmlns:xl="http://www.w3.org/1999/xlink" version="1.1" xmlns="http://www.w3.org/2000/svg" viewBox="-633.4173 -3351.9594 14 10.111111" width="14" height="10.111111">
  <defs/>
  <g id="SOURCES" stroke-dasharray="none" stroke="none" stroke-opacity="1" fill="none" fill-opacity="1">
    <title>SOURCES</title>
    <g id="SOURCES_Calque_2">
      <title>Calque 2</title>
      <g id="Group_9828">
        <title>list-bullet</title>
        <g id="Graphic_9829">
          <path d="M -633.4173 -3351.1816 C -633.4173 -3351.6094 -633.0673 -3351.9594 -632.6395 -3351.9594 L -631.86175 -3351.9594 C -631.434 -3351.9594 -631.084 -3351.6094 -631.084 -3351.1816 L -631.084 -3350.404 C -631.084 -3349.976 -631.434 -3349.626 -631.86175 -3349.626 L -632.6395 -3349.626 C -633.0673 -3349.626 -633.4173 -3349.976 -633.4173 -3350.404 Z M -629.1395 -3350.404 C -629.3573 -3350.404 -629.5284 -3350.575 -629.5284 -3350.7927 C -629.5284 -3351.0105 -629.3573 -3351.1816 -629.1395 -3351.1816 L -619.8062 -3351.1816 C -619.5884 -3351.1816 -619.4173 -3351.0105 -619.4173 -3350.7927 C -619.4173 -3350.575 -619.5884 -3350.404 -619.8062 -3350.404 Z M -633.4173 -3347.2927 C -633.4173 -3347.7205 -633.0673 -3348.0705 -632.6395 -3348.0705 L -631.86175 -3348.0705 C -631.434 -3348.0705 -631.084 -3347.7205 -631.084 -3347.2927 L -631.084 -3346.515 C -631.084 -3346.087 -631.434 -3345.737 -631.86175 -3345.737 L -632.6395 -3345.737 C -633.0673 -3345.737 -633.4173 -3346.087 -633.4173 -3346.515 Z M -629.1395 -3346.515 C -629.3573 -3346.515 -629.5284 -3346.686 -629.5284 -3346.904 C -629.5284 -3347.1216 -629.3573 -3347.2927 -629.1395 -3347.2927 L -619.8062 -3347.2927 C -619.5884 -3347.2927 -619.4173 -3347.1216 -619.4173 -3346.904 C -619.4173 -3346.686 -619.5884 -3346.515 -619.8062 -3346.515 Z M -633.4173 -3343.404 C -633.4173 -3343.8316 -633.0673 -3344.1816 -632.6395 -3344.1816 L -631.86175 -3344.1816 C -631.434 -3344.1816 -631.084 -3343.8316 -631.084 -3343.404 L -631.084 -3342.626 C -631.084 -3342.1983 -631.434 -3341.8483 -631.86175 -3341.8483 L -632.6395 -3341.8483 C -633.0673 -3341.8483 -633.4173 -3342.1983 -633.4173 -3342.626 Z M -632.6395 -3351.1816 L -632.6395 -3350.404 L -631.86175 -3350.404 L -631.86175 -3351.1816 Z M -632.6395 -3347.2927 L -632.6395 -3346.515 L -631.86175 -3346.515 L -631.86175 -3347.2927 Z M -632.6395 -3343.404 L -632.6395 -3342.626 L -631.86175 -3342.626 L -631.86175 -3343.404 Z M -629.1395 -3342.626 C -629.3573 -3342.626 -629.5284 -3342.797 -629.5284 -3343.015 C -629.5284 -3343.2327 -629.3573 -3343.404 -629.1395 -3343.404 L -619.8062 -3343.404 C -619.5884 -3343.404 -619.4173 -3343.2327 -619.4173 -3343.015 C -619.4173 -3342.797 -619.5884 -3342.626 -619.8062 -3342.626 Z" fill="#5c76a2"/>
        </g>
      </g>
    </g>
  </g>
</svg>
