<?xml version="1.0" encoding="UTF-8" standalone="no"?>
<!DOCTYPE svg PUBLIC "-//W3C//DTD SVG 1.1//EN" "http://www.w3.org/Graphics/SVG/1.1/DTD/svg11.dtd">
<svg xmlns:dc="http://purl.org/dc/elements/1.1/" xmlns:xl="http://www.w3.org/1999/xlink" version="1.1" xmlns="http://www.w3.org/2000/svg" viewBox="-831.3957 -3357.2045 14 14" width="14" height="14">
  <defs/>
  <g id="SOURCES" stroke-dasharray="none" stroke="none" stroke-opacity="1" fill="none" fill-opacity="1">
    <title>SOURCES</title>
    <g id="SOURCES_Calque_2">
      <title>Calque 2</title>
      <g id="Group_9826">
        <title>exclamation-triangle</title>
        <g id="Graphic_9827">
          <path d="M -824.3957 -3343.2045 C -828.2623 -3343.2045 -831.3957 -3346.338 -831.3957 -3350.2045 C -831.3957 -3354.071 -828.2623 -3357.2045 -824.3957 -3357.2045 C -820.529 -3357.2045 -817.3957 -3354.071 -817.3957 -3350.2045 C -817.3957 -3346.338 -820.529 -3343.2045 -824.3957 -3343.2045 Z M -824.3957 -3343.871 C -820.8957 -3343.871 -818.0623 -3346.7045 -818.0623 -3350.2045 C -818.0623 -3353.7045 -820.8957 -3356.538 -824.3957 -3356.538 C -827.8957 -3356.538 -830.729 -3353.7045 -830.729 -3350.2045 C -830.729 -3346.7045 -827.8957 -3343.871 -824.3957 -3343.871 Z M -824.0623 -3350.2045 C -824.0623 -3350.018 -824.209 -3349.871 -824.3957 -3349.871 C -824.5823 -3349.871 -824.729 -3350.018 -824.729 -3350.2045 L -824.729 -3352.871 C -824.729 -3353.058 -824.5823 -3353.2045 -824.3957 -3353.2045 C -824.209 -3353.2045 -824.0623 -3353.058 -824.0623 -3352.871 Z M -824.729 -3348.538 L -824.0623 -3348.538 L -824.0623 -3347.871 L -824.729 -3347.871 Z" fill="#9f4c4d"/>
        </g>
      </g>
    </g>
  </g>
</svg>
