<?xml version="1.0" encoding="UTF-8" standalone="no"?>
<!DOCTYPE svg PUBLIC "-//W3C//DTD SVG 1.1//EN" "http://www.w3.org/Graphics/SVG/1.1/DTD/svg11.dtd">
<svg xmlns:dc="http://purl.org/dc/elements/1.1/" xmlns:xl="http://www.w3.org/1999/xlink" version="1.1" xmlns="http://www.w3.org/2000/svg" viewBox="-551 -3350.715 14.00004 11.6667" width="14.00004" height="11.6667">
  <defs/>
  <g id="SOURCES" stroke-dasharray="none" stroke="none" stroke-opacity="1" fill="none" fill-opacity="1">
    <title>SOURCES</title>
    <g id="SOURCES_Calque_2">
      <title>Calque 2</title>
      <g id="Group_9832">
        <title>slider-circle-h</title>
        <g id="Graphic_9833">
          <path d="M -543.2611 -3340.604 C -543.44 -3339.717 -544.22556 -3339.0483 -545.1667 -3339.0483 C -546.1078 -3339.0483 -546.89334 -3339.717 -547.0722 -3340.604 L -550.6111 -3340.604 C -550.8289 -3340.604 -551 -3340.775 -551 -3340.9927 C -551 -3341.2105 -550.8289 -3341.3816 -550.6111 -3341.3816 L -547.0722 -3341.3816 C -546.89334 -3342.2683 -546.1078 -3342.937 -545.1667 -3342.937 C -544.22556 -3342.937 -543.44 -3342.2683 -543.2611 -3341.3816 L -537.3889 -3341.3816 C -537.1711 -3341.3816 -537 -3341.2105 -537 -3340.9927 C -537 -3340.775 -537.1711 -3340.604 -537.3889 -3340.604 L -543.2611 -3340.604 Z M -538.5944 -3344.4927 C -538.7733 -3343.606 -539.5589 -3342.937 -540.5 -3342.937 C -541.4411 -3342.937 -542.22666 -3343.606 -542.40555 -3344.4927 L -550.6111 -3344.4927 C -550.8289 -3344.4927 -551 -3344.664 -551 -3344.8816 C -551 -3345.0994 -550.8289 -3345.2705 -550.6111 -3345.2705 L -542.40555 -3345.2705 C -542.22666 -3346.157 -541.4411 -3346.826 -540.5 -3346.826 C -539.5589 -3346.826 -538.7733 -3346.157 -538.5944 -3345.2705 L -537.3889 -3345.2705 C -537.1711 -3345.2705 -537 -3345.0994 -537 -3344.8816 C -537 -3344.664 -537.1711 -3344.4927 -537.3889 -3344.4927 Z M -545.59445 -3348.3816 C -545.77334 -3347.495 -546.5589 -3346.826 -547.5 -3346.826 C -548.4411 -3346.826 -549.2267 -3347.495 -549.4056 -3348.3816 L -550.6111 -3348.3816 C -550.8289 -3348.3816 -551 -3348.5528 -551 -3348.7705 C -551 -3348.9883 -550.8289 -3349.1594 -550.6111 -3349.1594 L -549.4056 -3349.1594 C -549.2267 -3350.046 -548.4411 -3350.715 -547.5 -3350.715 C -546.5589 -3350.715 -545.77334 -3350.046 -545.59445 -3349.1594 L -537.3889 -3349.1594 C -537.1711 -3349.1594 -537 -3348.9883 -537 -3348.7705 C -537 -3348.5528 -537.1711 -3348.3816 -537.3889 -3348.3816 Z M -547.5 -3347.604 C -546.85445 -3347.604 -546.33334 -3348.125 -546.33334 -3348.7705 C -546.33334 -3349.416 -546.85445 -3349.9372 -547.5 -3349.9372 C -548.1456 -3349.9372 -548.6667 -3349.416 -548.6667 -3348.7705 C -548.6667 -3348.125 -548.1456 -3347.604 -547.5 -3347.604 Z M -540.5 -3343.715 C -539.85443 -3343.715 -539.3333 -3344.236 -539.3333 -3344.8816 C -539.3333 -3345.527 -539.85443 -3346.0483 -540.5 -3346.0483 C -541.14555 -3346.0483 -541.66666 -3345.527 -541.66666 -3344.8816 C -541.66666 -3344.236 -541.14555 -3343.715 -540.5 -3343.715 Z M -545.1667 -3339.826 C -544.5211 -3339.826 -544 -3340.347 -544 -3340.9927 C -544 -3341.6383 -544.5211 -3342.1594 -545.1667 -3342.1594 C -545.8122 -3342.1594 -546.33334 -3341.6383 -546.33334 -3340.9927 C -546.33334 -3340.347 -545.8122 -3339.826 -545.1667 -3339.826 Z" fill="#5c76a2"/>
        </g>
      </g>
    </g>
  </g>
</svg>
