<?xml version="1.0" encoding="UTF-8" standalone="no"?>
<!DOCTYPE svg PUBLIC "-//W3C//DTD SVG 1.1//EN" "http://www.w3.org/Graphics/SVG/1.1/DTD/svg11.dtd">
<svg xmlns:dc="http://purl.org/dc/elements/1.1/" xmlns:xl="http://www.w3.org/1999/xlink" version="1.1" xmlns="http://www.w3.org/2000/svg" viewBox="-752 -3355.848 14 13.999627" width="14" height="13.999627">
  <defs/>
  <g id="SOURCES" stroke-dasharray="none" stroke="none" stroke-opacity="1" fill="none" fill-opacity="1">
    <title>SOURCES</title>
    <g id="SOURCES_Calque_2">
      <title>Calque 2</title>
      <g id="Group_9817">
        <title>chat</title>
        <g id="Graphic_9818">
          <path d="M -749.3468 -3346.7204 C -749.2558 -3346.7484 -749.1578 -3346.7344 -749.0738 -3346.6854 C -748.3738 -3346.2724 -747.58286 -3346.0484 -746.7499 -3346.0484 C -744.237 -3346.0484 -742.2001 -3348.0853 -742.2001 -3350.598 C -742.2001 -3353.111 -744.237 -3355.148 -746.7499 -3355.148 C -749.2628 -3355.148 -751.2997 -3353.111 -751.2997 -3350.598 C -751.2997 -3349.7722 -751.0757 -3348.9743 -750.6627 -3348.2743 C -750.6137 -3348.1903 -750.5997 -3348.0923 -750.6277 -3348.0013 L -751.1387 -3346.2094 Z M -741.7242 -3352.124 C -739.5333 -3351.459 -738.0004 -3349.4293 -738.0004 -3347.0984 C -738.0004 -3346.1954 -738.23135 -3345.3205 -738.6583 -3344.5505 L -738.0144 -3342.2966 C -737.9374 -3342.0306 -738.18236 -3341.7857 -738.4483 -3341.8627 L -740.7022 -3342.5066 C -741.4722 -3342.0796 -742.3471 -3341.8487 -743.2501 -3341.8487 C -745.581 -3341.8487 -747.61085 -3343.3816 -748.2758 -3345.5725 C -748.6328 -3345.6775 -748.9758 -3345.8244 -749.2978 -3346.0064 L -751.5516 -3345.3625 C -751.8176 -3345.2855 -752.0626 -3345.5305 -751.9856 -3345.7964 L -751.34165 -3348.0503 C -751.7686 -3348.8203 -751.9996 -3349.6952 -751.9996 -3350.598 C -751.9996 -3353.496 -749.64775 -3355.848 -746.7499 -3355.848 C -744.384 -3355.848 -742.3751 -3354.28 -741.7242 -3352.124 Z M -741.5492 -3351.319 C -741.5142 -3351.081 -741.5002 -3350.843 -741.5002 -3350.598 C -741.5002 -3347.7003 -743.85205 -3345.3485 -746.7499 -3345.3485 C -746.9949 -3345.3485 -747.2329 -3345.3625 -747.4709 -3345.3975 C -746.7849 -3343.7036 -745.133 -3342.5486 -743.2501 -3342.5486 C -742.4241 -3342.5486 -741.6262 -3342.7726 -740.9262 -3343.1856 C -740.8422 -3343.2346 -740.7442 -3343.2486 -740.6532 -3343.2206 L -738.8613 -3342.7096 L -739.3723 -3344.5015 C -739.4003 -3344.5925 -739.3863 -3344.6905 -739.3373 -3344.7745 C -738.9243 -3345.4745 -738.7003 -3346.2654 -738.7003 -3347.0984 C -738.7003 -3348.9813 -739.8553 -3350.64 -741.5492 -3351.319 Z" fill="#5c76a2"/>
        </g>
      </g>
    </g>
  </g>
</svg>
