<?xml version="1.0" encoding="UTF-8" standalone="no"?>
<!DOCTYPE svg PUBLIC "-//W3C//DTD SVG 1.1//EN" "http://www.w3.org/Graphics/SVG/1.1/DTD/svg11.dtd">
<svg xmlns:dc="http://purl.org/dc/elements/1.1/" xmlns:xl="http://www.w3.org/1999/xlink" version="1.1" xmlns="http://www.w3.org/2000/svg" viewBox="-548.2741 -2967.9252 14 14" width="14" height="14">
  <defs/>
  <g id="SOURCES" stroke-dasharray="none" stroke="none" stroke-opacity="1" fill="none" fill-opacity="1">
    <title>SOURCES</title>
    <g id="SOURCES_New">
      <title>New</title>
      <g id="Graphic_10429">
        <path d="M -539.89626 -2959.7524 C -539.91326 -2959.707 -539.94004 -2959.6643 -539.9766 -2959.6277 C -540.0132 -2959.591 -540.0558 -2959.5644 -540.1013 -2959.5474 L -543.5941 -2958.1503 C -543.8798 -2958.036 -544.16335 -2958.3195 -544.04906 -2958.6052 L -542.65194 -2962.098 C -542.63494 -2962.1435 -542.60815 -2962.186 -542.5716 -2962.2227 C -542.535 -2962.2593 -542.4924 -2962.286 -542.4469 -2962.303 L -538.9541 -2963.7002 C -538.6684 -2963.8145 -538.38485 -2963.531 -538.4991 -2963.2452 L -539.89626 -2959.7524 Z M -541.7013 -2961.8474 L -540.35193 -2960.498 L -539.45237 -2962.747 L -541.7013 -2961.8474 Z M -540.8469 -2960.003 L -542.19626 -2961.3524 L -543.0958 -2959.1035 L -540.8469 -2960.003 Z M -541.2741 -2953.9252 C -545.1401 -2953.9252 -548.2741 -2957.0592 -548.2741 -2960.9252 C -548.2741 -2964.7912 -545.1401 -2967.9252 -541.2741 -2967.9252 C -537.4081 -2967.9252 -534.2741 -2964.7912 -534.2741 -2960.9252 C -534.2741 -2957.0592 -537.4081 -2953.9252 -541.2741 -2953.9252 Z M -541.2741 -2954.6252 C -537.7947 -2954.6252 -534.9741 -2957.446 -534.9741 -2960.9252 C -534.9741 -2964.4046 -537.7947 -2967.2252 -541.2741 -2967.2252 C -544.7535 -2967.2252 -547.5741 -2964.4046 -547.5741 -2960.9252 C -547.5741 -2957.446 -544.7535 -2954.6252 -541.2741 -2954.6252 Z" fill="#5c76a1"/>
      </g>
    </g>
  </g>
</svg>
