<?xml version="1.0" encoding="UTF-8" standalone="no"?>
<!DOCTYPE svg PUBLIC "-//W3C//DTD SVG 1.1//EN" "http://www.w3.org/Graphics/SVG/1.1/DTD/svg11.dtd">
<svg xmlns:dc="http://purl.org/dc/elements/1.1/" xmlns:xl="http://www.w3.org/1999/xlink" version="1.1" xmlns="http://www.w3.org/2000/svg" viewBox="-872 -3357.2045 14 14" width="14" height="14">
  <defs/>
  <g id="SOURCES" stroke-dasharray="none" stroke="none" stroke-opacity="1" fill="none" fill-opacity="1">
    <title>SOURCES</title>
    <g id="SOURCES_Calque_2">
      <title>Calque 2</title>
      <g id="Group_9824">
        <title>image-circle</title>
        <g id="Graphic_9825">
          <path d="M -871.076 -3348.5385 C -870.341 -3345.8715 -867.898 -3343.9045 -865 -3343.9045 C -862.669 -3343.9045 -860.632 -3345.1715 -859.547 -3347.0545 L -861.85 -3349.3575 L -863.705 -3347.5025 C -863.845 -3347.3625 -864.062 -3347.3625 -864.202 -3347.5025 L -868.157 -3351.4575 L -871.055 -3348.5595 C -871.055 -3348.5595 -871.069 -3348.5455 -871.076 -3348.5385 Z M -871.244 -3349.3575 L -868.395 -3352.2065 C -868.255 -3352.3465 -868.038 -3352.3465 -867.898 -3352.2065 L -863.943 -3348.2515 L -862.088 -3350.1065 C -861.948 -3350.2465 -861.731 -3350.2465 -861.591 -3350.1065 L -859.204 -3347.7195 C -858.875 -3348.4825 -858.693 -3349.3295 -858.693 -3350.2115 C -858.693 -3353.6905 -861.514 -3356.5115 -864.993 -3356.5115 C -868.472 -3356.5115 -871.3 -3353.6835 -871.3 -3350.2045 C -871.3 -3349.9175 -871.279 -3349.6305 -871.244 -3349.3575 Z M -865 -3343.2045 C -868.864 -3343.2045 -872 -3346.3405 -872 -3350.2045 C -872 -3354.0685 -868.864 -3357.2045 -865 -3357.2045 C -861.136 -3357.2045 -858 -3354.0685 -858 -3350.2045 C -858 -3346.3405 -861.136 -3343.2045 -865 -3343.2045 Z M -862.9 -3354.4045 L -861.5 -3354.4045 C -861.115 -3354.4045 -860.8 -3354.0895 -860.8 -3353.7045 L -860.8 -3352.3045 C -860.8 -3351.9195 -861.115 -3351.6045 -861.5 -3351.6045 L -862.9 -3351.6045 C -863.285 -3351.6045 -863.6 -3351.9195 -863.6 -3352.3045 L -863.6 -3353.7045 C -863.6 -3354.0895 -863.285 -3354.4045 -862.9 -3354.4045 Z M -862.9 -3353.7045 L -862.9 -3352.3045 L -861.5 -3352.3045 L -861.5 -3353.7045 Z" fill="#5c76a1"/>
        </g>
      </g>
    </g>
  </g>
</svg>
