<?xml version="1.0" encoding="UTF-8" standalone="no"?>
<!DOCTYPE svg PUBLIC "-//W3C//DTD SVG 1.1//EN" "http://www.w3.org/Graphics/SVG/1.1/DTD/svg11.dtd">
<svg xmlns:dc="http://purl.org/dc/elements/1.1/" xmlns:xl="http://www.w3.org/1999/xlink" version="1.1" xmlns="http://www.w3.org/2000/svg" viewBox="-910.5 -3357.9808 14 13.997" width="14" height="13.997">
  <defs/>
  <g id="SOURCES" stroke-dasharray="none" stroke="none" stroke-opacity="1" fill="none" fill-opacity="1">
    <title>SOURCES</title>
    <g id="SOURCES_Calque_2">
      <title>Calque 2</title>
      <g id="Group_9815">
        <title>comment</title>
        <g id="Graphic_9816">
          <path d="M -906.3834 -3345.3835 C -906.3057 -3345.399 -906.2279 -3345.3835 -906.1502 -3345.3524 C -905.3259 -3344.9636 -904.4239 -3344.7614 -903.4907 -3344.7614 C -900.0537 -3344.7614 -897.2698 -3347.5452 -897.2698 -3350.9823 C -897.2698 -3354.4193 -900.0615 -3357.203 -903.4985 -3357.203 C -906.9355 -3357.203 -909.7194 -3354.4193 -909.7194 -3350.9823 C -909.7194 -3349.6526 -909.2995 -3348.393 -908.5452 -3347.343 C -908.4597 -3347.2264 -908.4519 -3347.0787 -908.5063 -3346.9543 L -909.455 -3344.878 L -906.3912 -3345.3913 Z M -910.046 -3343.9916 C -910.357 -3343.937 -910.5903 -3344.256 -910.4659 -3344.536 L -909.3073 -3347.071 C -910.0771 -3348.214 -910.497 -3349.567 -910.497 -3350.9823 C -910.497 -3354.847 -907.3632 -3357.9808 -903.4985 -3357.9808 C -899.6338 -3357.9808 -896.5 -3354.847 -896.5 -3350.9823 C -896.5 -3347.1176 -899.6338 -3343.9838 -903.4985 -3343.9838 C -904.5016 -3343.9838 -905.4814 -3344.1937 -906.3757 -3344.598 L -910.046 -3343.9838 Z" fill="#5c76a1"/>
        </g>
      </g>
    </g>
  </g>
</svg>
