<?xml version="1.0" encoding="UTF-8" standalone="no"?>
<!DOCTYPE svg PUBLIC "-//W3C//DTD SVG 1.1//EN" "http://www.w3.org/Graphics/SVG/1.1/DTD/svg11.dtd">
<svg xmlns:dc="http://purl.org/dc/elements/1.1/" xmlns:xl="http://www.w3.org/1999/xlink" version="1.1" xmlns="http://www.w3.org/2000/svg" viewBox="-792.2086 -3353.753 14 9.809536" width="14" height="9.809536">
  <defs/>
  <g id="SOURCES" stroke-dasharray="none" stroke="none" stroke-opacity="1" fill="none" fill-opacity="1">
    <title>SOURCES</title>
    <g id="SOURCES_Calque_2">
      <title>Calque 2</title>
      <g id="Group_9819">
        <title>eye</title>
        <g id="Graphic_9820">
          <path d="M -792.1824 -3348.9736 C -790.6848 -3352.8297 -786.35285 -3354.74 -782.5038 -3353.2426 C -780.5443 -3352.4798 -778.9907 -3350.933 -778.2349 -3348.9736 C -778.1999 -3348.8897 -778.1999 -3348.7987 -778.2349 -3348.7217 C -779.7255 -3344.8727 -784.0644 -3342.955 -787.9135 -3344.4528 C -789.873 -3345.2156 -791.4196 -3346.762 -792.1824 -3348.7217 C -792.2174 -3348.8057 -792.2174 -3348.8967 -792.1824 -3348.9736 Z M -787.6545 -3345.1036 C -784.2044 -3343.767 -780.3274 -3345.4395 -778.9347 -3348.8477 C -779.6415 -3350.5622 -781.0202 -3351.92 -782.75575 -3352.5917 C -786.2059 -3353.9284 -790.0759 -3352.256 -791.4756 -3348.8477 C -790.76875 -3347.133 -789.3901 -3345.7754 -787.6545 -3345.1036 Z M -785.2051 -3346.0484 C -786.7518 -3346.0484 -788.0044 -3347.301 -788.0044 -3348.8477 C -788.0044 -3350.3943 -786.7518 -3351.647 -785.2051 -3351.647 C -783.6585 -3351.647 -782.4058 -3350.3943 -782.4058 -3348.8477 C -782.4058 -3347.301 -783.6585 -3346.0484 -785.2051 -3346.0484 Z M -785.2051 -3346.748 C -784.0434 -3346.748 -783.1057 -3347.686 -783.1057 -3348.8477 C -783.1057 -3350.0094 -784.0434 -3350.947 -785.2051 -3350.947 C -786.36685 -3350.947 -787.3046 -3350.0094 -787.3046 -3348.8477 C -787.3046 -3347.686 -786.36685 -3346.748 -785.2051 -3346.748 Z" fill="#5c76a1"/>
        </g>
      </g>
    </g>
  </g>
</svg>
