<?xml version="1.0" encoding="UTF-8" standalone="no"?>
<!DOCTYPE svg PUBLIC "-//W3C//DTD SVG 1.1//EN" "http://www.w3.org/Graphics/SVG/1.1/DTD/svg11.dtd">
<svg xmlns:dc="http://purl.org/dc/elements/1.1/" xmlns:xl="http://www.w3.org/1999/xlink" version="1.1" xmlns="http://www.w3.org/2000/svg" viewBox="-711.79135 -3354.6483 14 11.2" width="14" height="11.2">
  <defs/>
  <g id="SOURCES" stroke-dasharray="none" stroke="none" stroke-opacity="1" fill="none" fill-opacity="1">
    <title>SOURCES</title>
    <g id="SOURCES_Calque_2">
      <title>Calque 2</title>
      <g id="Group_9821">
        <title>desktop</title>
        <g id="Graphic_9822">
          <path d="M -705.49135 -3344.1483 L -704.09135 -3344.1483 L -704.09135 -3345.5483 L -705.49135 -3345.5483 Z M -706.19135 -3344.1483 L -706.19135 -3345.5483 L -710.04135 -3345.5483 C -711.00735 -3345.5483 -711.79135 -3346.3323 -711.79135 -3347.2983 L -711.79135 -3352.8983 C -711.79135 -3353.8643 -711.00735 -3354.6483 -710.04135 -3354.6483 L -699.54135 -3354.6483 C -698.57535 -3354.6483 -697.79135 -3353.8643 -697.79135 -3352.8983 L -697.79135 -3347.2983 C -697.79135 -3346.3323 -698.57535 -3345.5483 -699.54135 -3345.5483 L -703.39135 -3345.5483 L -703.39135 -3344.1483 L -702.34135 -3344.1483 C -702.14535 -3344.1483 -701.99135 -3343.9943 -701.99135 -3343.7983 C -701.99135 -3343.6023 -702.14535 -3343.4483 -702.34135 -3343.4483 L -707.24135 -3343.4483 C -707.43735 -3343.4483 -707.59135 -3343.6023 -707.59135 -3343.7983 C -707.59135 -3343.9943 -707.43735 -3344.1483 -707.24135 -3344.1483 Z M -710.04135 -3353.9483 C -710.62235 -3353.9483 -711.09135 -3353.4793 -711.09135 -3352.8983 L -711.09135 -3347.2983 C -711.09135 -3346.7173 -710.62235 -3346.2483 -710.04135 -3346.2483 L -699.54135 -3346.2483 C -698.96035 -3346.2483 -698.49135 -3346.7173 -698.49135 -3347.2983 L -698.49135 -3352.8983 C -698.49135 -3353.4793 -698.96035 -3353.9483 -699.54135 -3353.9483 Z" fill="#5c76a2"/>
        </g>
      </g>
    </g>
  </g>
</svg>
