<?xml version="1.0" encoding="UTF-8" standalone="no"?>
<!DOCTYPE svg PUBLIC "-//W3C//DTD SVG 1.1//EN" "http://www.w3.org/Graphics/SVG/1.1/DTD/svg11.dtd">
<svg xmlns:dc="http://purl.org/dc/elements/1.1/" xmlns:xl="http://www.w3.org/1999/xlink" version="1.1" xmlns="http://www.w3.org/2000/svg" viewBox="-508.70576 -3353.0483 14 14" width="14" height="14">
  <defs/>
  <g id="SOURCES" stroke-dasharray="none" stroke="none" stroke-opacity="1" fill="none" fill-opacity="1">
    <title>SOURCES</title>
    <g id="SOURCES_Calque_2">
      <title>Calque 2</title>
      <g id="Group_9834">
        <title>checkmark-circle</title>
        <g id="Graphic_9835">
          <path d="M -501.70576 -3339.0483 C -505.56976 -3339.0483 -508.70576 -3342.1843 -508.70576 -3346.0483 C -508.70576 -3349.9123 -505.56976 -3353.0483 -501.70576 -3353.0483 C -497.84176 -3353.0483 -494.70576 -3349.9123 -494.70576 -3346.0483 C -494.70576 -3342.1843 -497.84176 -3339.0483 -501.70576 -3339.0483 Z M -501.70576 -3339.7483 C -498.22676 -3339.7483 -495.40576 -3342.5693 -495.40576 -3346.0483 C -495.40576 -3349.5273 -498.22676 -3352.3483 -501.70576 -3352.3483 C -505.18476 -3352.3483 -508.00576 -3349.5273 -508.00576 -3346.0483 C -508.00576 -3342.5693 -505.18476 -3339.7483 -501.70576 -3339.7483 Z M -499.50076 -3348.0433 C -499.36076 -3348.1833 -499.14376 -3348.1833 -499.00376 -3348.0433 C -498.86376 -3347.9033 -498.86376 -3347.6863 -499.00376 -3347.5463 L -502.50376 -3344.0463 C -502.64376 -3343.9063 -502.86076 -3343.9063 -503.00076 -3344.0463 L -504.40076 -3345.4463 C -504.54076 -3345.5863 -504.54076 -3345.8033 -504.40076 -3345.9433 C -504.26076 -3346.0833 -504.04376 -3346.0833 -503.90376 -3345.9433 L -502.74876 -3344.7883 L -499.49376 -3348.0433 Z" fill="#5c76a2"/>
        </g>
      </g>
    </g>
  </g>
</svg>
