<?xml version="1.0" encoding="UTF-8" standalone="no"?>
<!DOCTYPE svg PUBLIC "-//W3C//DTD SVG 1.1//EN" "http://www.w3.org/Graphics/SVG/1.1/DTD/svg11.dtd">
<svg xmlns:dc="http://purl.org/dc/elements/1.1/" xmlns:xl="http://www.w3.org/1999/xlink" version="1.1" xmlns="http://www.w3.org/2000/svg" viewBox="-951 -3357.2045 14 12.444444" width="14" height="12.444444">
  <defs/>
  <g id="SOURCES" stroke-dasharray="none" stroke="none" stroke-opacity="1" fill="none" fill-opacity="1">
    <title>SOURCES</title>
    <g id="SOURCES_Calque_2">
      <title>Calque 2</title>
      <g id="Group_9813">
        <title>table</title>
        <g id="Graphic_9814">
          <path d="M -941.6666 -3349.4267 L -941.6666 -3352.538 L -946.3333 -3352.538 L -946.3333 -3349.4267 Z M -941.6666 -3348.649 L -946.3333 -3348.649 L -946.3333 -3345.538 L -941.6666 -3345.538 Z M -950.2222 -3349.4267 L -947.1111 -3349.4267 L -947.1111 -3352.538 L -950.2222 -3352.538 Z M -950.2222 -3348.649 L -950.2222 -3346.7045 C -950.2222 -3346.059 -949.7011 -3345.538 -949.0555 -3345.538 L -947.1111 -3345.538 L -947.1111 -3348.649 Z M -937.7778 -3349.4267 L -937.7778 -3352.538 L -940.8889 -3352.538 L -940.8889 -3349.4267 Z M -937.7778 -3348.649 L -940.8889 -3348.649 L -940.8889 -3345.538 L -938.9444 -3345.538 C -938.2989 -3345.538 -937.7778 -3346.059 -937.7778 -3346.7045 Z M -941.6666 -3353.3156 L -941.6666 -3356.4267 L -946.3333 -3356.4267 L -946.3333 -3353.3156 Z M -950.2222 -3353.3156 L -947.1111 -3353.3156 L -947.1111 -3356.4267 L -949.0555 -3356.4267 C -949.7011 -3356.4267 -950.2222 -3355.9056 -950.2222 -3355.26 Z M -937.7778 -3353.3156 L -937.7778 -3355.26 C -937.7778 -3355.9056 -938.2989 -3356.4267 -938.9444 -3356.4267 L -940.8889 -3356.4267 L -940.8889 -3353.3156 Z M -949.0555 -3357.2045 L -938.9444 -3357.2045 C -937.8711 -3357.2045 -937 -3356.3334 -937 -3355.26 L -937 -3346.7045 C -937 -3345.631 -937.8711 -3344.76 -938.9444 -3344.76 L -949.0555 -3344.76 C -950.1289 -3344.76 -951 -3345.631 -951 -3346.7045 L -951 -3355.26 C -951 -3356.3334 -950.1289 -3357.2045 -949.0555 -3357.2045 Z" fill="#5c76a1"/>
        </g>
      </g>
    </g>
  </g>
</svg>
