<?xml version="1.0" encoding="UTF-8" standalone="no"?>
<!DOCTYPE svg PUBLIC "-//W3C//DTD SVG 1.1//EN" "http://www.w3.org/Graphics/SVG/1.1/DTD/svg11.dtd">
<svg xmlns:dc="http://purl.org/dc/elements/1.1/" xmlns:xl="http://www.w3.org/1999/xlink" version="1.1" xmlns="http://www.w3.org/2000/svg" viewBox="-671 -3353.0483 14 11.2" width="14" height="11.2">
  <defs/>
  <g id="SOURCES" stroke-dasharray="none" stroke="none" stroke-opacity="1" fill="none" fill-opacity="1">
    <title>SOURCES</title>
    <g id="SOURCES_Calque_2">
      <title>Calque 2</title>
      <g id="Graphic_9823">
        <path d="M -669.25 -3352.3483 C -669.8299 -3352.3483 -670.3 -3351.878 -670.3 -3351.2983 L -670.3 -3343.5983 C -670.3 -3343.0184 -669.8299 -3342.5483 -669.25 -3342.5483 L -658.75 -3342.5483 C -658.1701 -3342.5483 -657.7 -3343.0184 -657.7 -3343.5983 L -657.7 -3349.1983 C -657.7 -3349.778 -658.1701 -3350.2483 -658.75 -3350.2483 L -662.6 -3350.2483 C -663.3732 -3350.2483 -664 -3350.875 -664 -3351.6483 C -664 -3352.035 -664.3134 -3352.3483 -664.7 -3352.3483 Z M -669.25 -3353.0483 L -664.7 -3353.0483 C -663.9268 -3353.0483 -663.3 -3352.4215 -663.3 -3351.6483 C -663.3 -3351.2617 -662.9866 -3350.9483 -662.6 -3350.9483 L -658.75 -3350.9483 C -657.7835 -3350.9483 -657 -3350.1648 -657 -3349.1983 L -657 -3343.5983 C -657 -3342.6318 -657.7835 -3341.8483 -658.75 -3341.8483 L -669.25 -3341.8483 C -670.2165 -3341.8483 -671 -3342.6318 -671 -3343.5983 L -671 -3351.2983 C -671 -3352.2648 -670.2165 -3353.0483 -669.25 -3353.0483 Z" fill="#5c76a1"/>
      </g>
    </g>
  </g>
</svg>
