<?xml version="1.0" encoding="UTF-8" standalone="no"?>
<!DOCTYPE svg PUBLIC "-//W3C//DTD SVG 1.1//EN" "http://www.w3.org/Graphics/SVG/1.1/DTD/svg11.dtd">
<svg xmlns:dc="http://purl.org/dc/elements/1.1/" xmlns:xl="http://www.w3.org/1999/xlink" version="1.1" xmlns="http://www.w3.org/2000/svg" viewBox="-521.9827 -2966.838 14 10.888889" width="14" height="10.888889">
  <defs/>
  <g id="SOURCES" stroke-dasharray="none" stroke="none" stroke-opacity="1" fill="none" fill-opacity="1">
    <title>SOURCES</title>
    <g id="SOURCES_New">
      <title>New</title>
      <g id="Graphic_10430">
        <path d="M -510.31605 -2964.5047 L -508.3716 -2964.5047 C -508.1568 -2964.5047 -507.9827 -2964.3305 -507.9827 -2964.1158 C -507.9827 -2963.901 -508.1568 -2963.727 -508.3716 -2963.727 L -510.31605 -2963.727 L -510.31605 -2961.7824 C -510.31605 -2961.5677 -510.49016 -2961.3935 -510.70494 -2961.3935 C -510.9197 -2961.3935 -511.0938 -2961.5677 -511.0938 -2961.7824 L -511.0938 -2963.727 L -513.0383 -2963.727 C -513.25305 -2963.727 -513.42716 -2963.901 -513.42716 -2964.1158 C -513.42716 -2964.3305 -513.25305 -2964.5047 -513.0383 -2964.5047 L -511.0938 -2964.5047 L -511.0938 -2966.449 C -511.0938 -2966.664 -510.9197 -2966.838 -510.70494 -2966.838 C -510.49016 -2966.838 -510.31605 -2966.664 -510.31605 -2966.449 Z M -515.3716 -2964.5047 C -515.1568 -2964.5047 -514.9827 -2964.3305 -514.9827 -2964.1158 C -514.9827 -2963.901 -515.1568 -2963.727 -515.3716 -2963.727 L -521.5938 -2963.727 C -521.8086 -2963.727 -521.9827 -2963.901 -521.9827 -2964.1158 C -521.9827 -2964.3305 -521.8086 -2964.5047 -521.5938 -2964.5047 Z M -513.0383 -2960.6158 C -512.8235 -2960.6158 -512.6494 -2960.4417 -512.6494 -2960.227 C -512.6494 -2960.012 -512.8235 -2959.838 -513.0383 -2959.838 L -521.5938 -2959.838 C -521.8086 -2959.838 -521.9827 -2960.012 -521.9827 -2960.227 C -521.9827 -2960.4417 -521.8086 -2960.6158 -521.5938 -2960.6158 Z M -508.3716 -2956.727 C -508.1568 -2956.727 -507.9827 -2956.5528 -507.9827 -2956.338 C -507.9827 -2956.1232 -508.1568 -2955.949 -508.3716 -2955.949 L -521.5938 -2955.949 C -521.8086 -2955.949 -521.9827 -2956.1232 -521.9827 -2956.338 C -521.9827 -2956.5528 -521.8086 -2956.727 -521.5938 -2956.727 Z" fill="#5c76a1"/>
      </g>
    </g>
  </g>
</svg>
