<?xml version="1.0" encoding="UTF-8" standalone="no"?>
<!DOCTYPE svg PUBLIC "-//W3C//DTD SVG 1.1//EN" "http://www.w3.org/Graphics/SVG/1.1/DTD/svg11.dtd">
<svg xmlns:dc="http://purl.org/dc/elements/1.1/" xmlns:xl="http://www.w3.org/1999/xlink" version="1.1" xmlns="http://www.w3.org/2000/svg" viewBox="-591 -3353.0483 14 14" width="14" height="14">
  <defs/>
  <g id="SOURCES" stroke-dasharray="none" stroke="none" stroke-opacity="1" fill="none" fill-opacity="1">
    <title>SOURCES</title>
    <g id="SOURCES_Calque_2">
      <title>Calque 2</title>
      <g id="Group_9830">
        <title>user-circle</title>
        <g id="Graphic_9831">
          <path d="M -579.422 -3342.8913 L -581.844 -3343.9903 C -581.025 -3344.6273 -580.5 -3345.6283 -580.5 -3346.7483 C -580.5 -3348.6803 -582.068 -3350.2483 -584 -3350.2483 C -585.932 -3350.2483 -587.5 -3348.6803 -587.5 -3346.7483 C -587.5 -3345.6283 -586.975 -3344.6273 -586.156 -3343.9903 L -588.578 -3342.8913 C -588.809 -3342.7863 -589.012 -3342.6323 -589.173 -3342.4503 C -589.887 -3343.4723 -590.307 -3344.7113 -590.307 -3346.0553 C -590.3 -3349.5273 -587.479 -3352.3483 -584 -3352.3483 C -580.521 -3352.3483 -577.7 -3349.5273 -577.7 -3346.0483 C -577.7 -3344.7113 -578.12 -3343.4653 -578.827 -3342.4433 C -578.988 -3342.6323 -579.191 -3342.7793 -579.422 -3342.8843 M -586.8 -3346.7483 C -586.8 -3348.2953 -585.547 -3349.5483 -584 -3349.5483 C -582.453 -3349.5483 -581.2 -3348.2953 -581.2 -3346.7483 C -581.2 -3345.2013 -582.453 -3343.9483 -584 -3343.9483 C -585.547 -3343.9483 -586.8 -3345.2013 -586.8 -3346.7483 M -584 -3339.7483 C -585.883 -3339.7483 -587.57 -3340.5743 -588.725 -3341.8763 C -588.62 -3342.0373 -588.466 -3342.1703 -588.284 -3342.2473 L -585.428 -3343.5493 C -584.994 -3343.3533 -584.511 -3343.2483 -584 -3343.2483 C -583.489 -3343.2483 -583.006 -3343.3533 -582.572 -3343.5493 L -579.716 -3342.2473 C -579.534 -3342.1633 -579.387 -3342.0373 -579.275 -3341.8763 C -580.43 -3340.5673 -582.117 -3339.7483 -584 -3339.7483 M -584 -3353.0483 C -587.864 -3353.0483 -591 -3349.9123 -591 -3346.0483 C -591 -3342.1843 -587.864 -3339.0483 -584 -3339.0483 C -580.136 -3339.0483 -577 -3342.1843 -577 -3346.0483 C -577 -3349.9123 -580.136 -3353.0483 -584 -3353.0483" fill="#5c76a2"/>
        </g>
      </g>
    </g>
  </g>
</svg>
