<svg xmlns="http://www.w3.org/2000/svg" xmlns:xl="http://www.w3.org/1999/xlink" width="17" height="17" version="1.1" viewBox="-884.027 -2776.202 17 17"><g id="SOURCES" fill="none" fill-opacity="1" stroke="none" stroke-dasharray="none" stroke-opacity="1"><title>SOURCES</title><g id="SOURCES_Dark"><title>Dark</title><g id="Graphic_11778"><title>views/view.other</title><path fill="#666766" d="M -880.9673 -2775.7024 L -870.0873 -2775.7024 C -868.6734 -2775.7024 -867.5273 -2774.5563 -867.5273 -2773.1424 L -867.5273 -2762.2624 C -867.5273 -2760.8486 -868.6734 -2759.7024 -870.0873 -2759.7024 L -880.9673 -2759.7024 C -882.3811 -2759.7024 -883.5273 -2760.8486 -883.5273 -2762.2624 L -883.5273 -2773.1424 C -883.5273 -2774.5563 -882.3811 -2775.7024 -880.9673 -2775.7024 Z"/><path stroke="#fff" stroke-linecap="round" stroke-linejoin="round" stroke-width=".25" d="M -880.9673 -2775.7024 L -870.0873 -2775.7024 C -868.6734 -2775.7024 -867.5273 -2774.5563 -867.5273 -2773.1424 L -867.5273 -2762.2624 C -867.5273 -2760.8486 -868.6734 -2759.7024 -870.0873 -2759.7024 L -880.9673 -2759.7024 C -882.3811 -2759.7024 -883.5273 -2760.8486 -883.5273 -2762.2624 L -883.5273 -2773.1424 C -883.5273 -2774.5563 -882.3811 -2775.7024 -880.9673 -2775.7024 Z"/></g></g></g></svg>