<?xml version="1.0" encoding="UTF-8" standalone="no"?>
<!DOCTYPE svg PUBLIC "-//W3C//DTD SVG 1.1//EN" "http://www.w3.org/Graphics/SVG/1.1/DTD/svg11.dtd">
<svg xmlns="http://www.w3.org/2000/svg" xmlns:xl="http://www.w3.org/1999/xlink" xmlns:dc="http://purl.org/dc/elements/1.1/" version="1.1" viewBox="452.5 -343 980.5001 980.5002" width="980.5001" height="980.5002">
  <defs/>
  <metadata> Produced by OmniGraffle 7.18.3\n2021-03-05 01:54:33 +0000</metadata>
  <g id="Canevas_1" fill="none" stroke-opacity="1" stroke="none" stroke-dasharray="none" fill-opacity="1">
    <title>Canevas 1</title>
    <g id="Canevas_1_Calque_1">
      <title>Calque 1</title>
      <g id="Graphic_133">
        <path d="M 1289.4087 -199.40852 C 1097.9543 -390.86383 787.5458 -390.86383 596.0915 -199.40852 C 404.63617 -7.954197 404.63617 302.45435 596.0915 493.9087 C 787.5458 685.364 1097.9543 685.364 1289.4087 493.9087 C 1480.864 302.45435 1480.864 -7.954197 1289.4087 -199.40852 M 1243.1875 -153.18738 C 1409.1155 12.739706 1409.1155 281.76044 1243.1875 447.6875 C 1077.2604 613.61546 808.2397 613.61546 642.3126 447.6875 C 476.3847 281.76044 476.3847 12.739706 642.3126 -153.18738 C 808.2397 -319.1153 1077.2604 -319.1153 1243.1875 -153.18738" fill="#efb54f" fill-opacity=".25239327"/>
        <path d="M 1289.4087 -199.40852 C 1097.9543 -390.86383 787.5458 -390.86383 596.0915 -199.40852 C 404.63617 -7.954197 404.63617 302.45435 596.0915 493.9087 C 787.5458 685.364 1097.9543 685.364 1289.4087 493.9087 C 1480.864 302.45435 1480.864 -7.954197 1289.4087 -199.40852 M 1243.1875 -153.18738 C 1409.1155 12.739706 1409.1155 281.76044 1243.1875 447.6875 C 1077.2604 613.61546 808.2397 613.61546 642.3126 447.6875 C 476.3847 281.76044 476.3847 12.739706 642.3126 -153.18738 C 808.2397 -319.1153 1077.2604 -319.1153 1243.1875 -153.18738" stroke="#efb64f" stroke-linecap="round" stroke-linejoin="round" stroke-width="0"/>
      </g>
      <g id="Graphic_136">
        <path d="M 1202.744 -112.74388 C 1059.1533 -256.33536 826.3469 -256.33536 682.7561 -112.74388 C 539.16465 30.84687 539.16465 263.65328 682.7561 407.24403 C 826.3469 550.8355 1059.1533 550.8355 1202.744 407.24403 C 1346.3355 263.65328 1346.3355 30.84687 1202.744 -112.74388 M 1156.5229 -66.52273 C 1274.587 51.54077 1274.587 242.95938 1156.5229 361.0229 C 1038.4594 479.087 847.0408 479.087 728.9773 361.0229 C 610.9132 242.95938 610.9132 51.54077 728.9773 -66.52273 C 847.0408 -184.58684 1038.4594 -184.58684 1156.5229 -66.52273" fill="#d3673a" fill-opacity=".24884463"/>
        <path d="M 1202.744 -112.74388 C 1059.1533 -256.33536 826.3469 -256.33536 682.7561 -112.74388 C 539.16465 30.84687 539.16465 263.65328 682.7561 407.24403 C 826.3469 550.8355 1059.1533 550.8355 1202.744 407.24403 C 1346.3355 263.65328 1346.3355 30.84687 1202.744 -112.74388 M 1156.5229 -66.52273 C 1274.587 51.54077 1274.587 242.95938 1156.5229 361.0229 C 1038.4594 479.087 847.0408 479.087 728.9773 361.0229 C 610.9132 242.95938 610.9132 51.54077 728.9773 -66.52273 C 847.0408 -184.58684 1038.4594 -184.58684 1156.5229 -66.52273" stroke="#d2673a" stroke-linecap="round" stroke-linejoin="round" stroke-width="0"/>
      </g>
      <g id="Graphic_138">
        <path d="M 1116.0794 -26.079243 C 1020.3522 -121.8069 865.1479 -121.8069 769.4208 -26.079243 C 673.6931 69.64793 673.6931 224.85222 769.4208 320.5794 C 865.1479 416.30706 1020.3522 416.30706 1116.0794 320.5794 C 1211.807 224.85222 1211.807 69.64793 1116.0794 -26.079243 M 1069.8582 20.141923 C 1140.0585 90.34184 1140.0585 204.1583 1069.8582 274.35823 C 999.6583 344.5585 885.8418 344.5585 815.6419 274.35823 C 745.4417 204.1583 745.4417 90.34184 815.6419 20.141923 C 885.8418 -50.058355 999.6583 -50.058355 1069.8582 20.141923" fill="#3570a0" fill-opacity=".2496699"/>
        <path d="M 1116.0794 -26.079243 C 1020.3522 -121.8069 865.1479 -121.8069 769.4208 -26.079243 C 673.6931 69.64793 673.6931 224.85222 769.4208 320.5794 C 865.1479 416.30706 1020.3522 416.30706 1116.0794 320.5794 C 1211.807 224.85222 1211.807 69.64793 1116.0794 -26.079243 M 1069.8582 20.141923 C 1140.0585 90.34184 1140.0585 204.1583 1069.8582 274.35823 C 999.6583 344.5585 885.8418 344.5585 815.6419 274.35823 C 745.4417 204.1583 745.4417 90.34184 815.6419 20.141923 C 885.8418 -50.058355 999.6583 -50.058355 1069.8582 20.141923" stroke="#3770a0" stroke-linecap="round" stroke-linejoin="round" stroke-width="0"/>
      </g>
      <g id="Graphic_146">
        <path d="M 1089.1894 -190.13784 C 954.681 -248.70826 792.2905 -222.98457 682.27324 -112.96677 C 538.68177 30.623973 538.68177 263.43038 682.27324 407.02113 C 717.59895 442.347 758.3244 468.98215 801.7926 486.92653 L 827.3416 426.73694 C 791.3849 411.9806 757.6959 390.0016 728.4944 360.8 C 610.4303 242.73648 610.4303 51.317876 728.4944 -66.745626 C 819.1086 -157.36032 952.9336 -178.42786 1063.6405 -129.94825 Z" fill="#d3673a"/>
        <path d="M 1089.1894 -190.13784 C 954.681 -248.70826 792.2905 -222.98457 682.27324 -112.96677 C 538.68177 30.623973 538.68177 263.43038 682.27324 407.02113 C 717.59895 442.347 758.3244 468.98215 801.7926 486.92653 L 827.3416 426.73694 C 791.3849 411.9806 757.6959 390.0016 728.4944 360.8 C 610.4303 242.73648 610.4303 51.317876 728.4944 -66.745626 C 819.1086 -157.36032 952.9336 -178.42786 1063.6405 -129.94825 Z" stroke="#d2673a" stroke-linecap="round" stroke-linejoin="round" stroke-width="0"/>
      </g>
      <g id="Graphic_143">
        <path d="M 1112.7333 427.34593 L 1182.1772 427.34593 L 1182.1772 201.831 L 944.3317 201.831 L 944.3317 267.67478 L 1112.7333 267.67478 Z" fill="#3770a1"/>
        <path d="M 1112.7333 427.34593 L 1182.1772 427.34593 L 1182.1772 201.831 L 944.3317 201.831 L 944.3317 267.67478 L 1112.7333 267.67478 Z" stroke="black" stroke-linecap="round" stroke-linejoin="round" stroke-width="0"/>
      </g>
      <g id="Graphic_153">
        <path d="M 1079.6807 264.20413 C 1076.9315 267.36403 1074.0536 270.45077 1071.0468 273.4575 C 1000.8469 343.6578 887.0305 343.6578 816.8305 273.4575 C 746.6303 203.25758 746.6303 89.44112 816.8305 19.2412 C 849.4358 -13.364245 891.4503 -30.82566 934.1336 -33.14305 L 934.1336 -98.58075 C 874.7081 -96.21649 815.9787 -72.34956 770.6094 -26.979966 C 674.8817 68.74721 674.8817 223.9515 770.6094 319.67867 C 866.3365 415.40633 1021.5408 415.40633 1117.268 319.67867 C 1134.1307 302.816 1148.023 284.10775 1158.945 264.20413 Z" fill="#3570a0"/>
        <path d="M 1079.6807 264.20413 C 1076.9315 267.36403 1074.0536 270.45077 1071.0468 273.4575 C 1000.8469 343.6578 887.0305 343.6578 816.8305 273.4575 C 746.6303 203.25758 746.6303 89.44112 816.8305 19.2412 C 849.4358 -13.364245 891.4503 -30.82566 934.1336 -33.14305 L 934.1336 -98.58075 C 874.7081 -96.21649 815.9787 -72.34956 770.6094 -26.979966 C 674.8817 68.74721 674.8817 223.9515 770.6094 319.67867 C 866.3365 415.40633 1021.5408 415.40633 1117.268 319.67867 C 1134.1307 302.816 1148.023 284.10775 1158.945 264.20413 Z" stroke="#3770a0" stroke-linecap="round" stroke-linejoin="round" stroke-width="0"/>
      </g>
      <g id="Graphic_156">
        <path d="M 1349.7278 -126.2536 C 1332.3434 -152.0609 1312.237 -176.5803 1289.4087 -199.40852 C 1097.9543 -390.86383 787.5458 -390.86383 596.0915 -199.40852 C 443.95234 -47.27016 412.7099 179.98325 502.3642 362.972 L 559.14055 330.19216 C 483.84567 172.30443 511.5697 -22.445114 642.3126 -153.18738 C 808.2397 -319.1153 1077.2604 -319.1153 1243.1875 -153.18738 C 1261.8818 -134.49321 1278.4699 -114.49044 1292.9517 -93.47393 Z" fill="#efb54f"/>
        <path d="M 1349.7278 -126.2536 C 1332.3434 -152.0609 1312.237 -176.5803 1289.4087 -199.40852 C 1097.9543 -390.86383 787.5458 -390.86383 596.0915 -199.40852 C 443.95234 -47.27016 412.7099 179.98325 502.3642 362.972 L 559.14055 330.19216 C 483.84567 172.30443 511.5697 -22.445114 642.3126 -153.18738 C 808.2397 -319.1153 1077.2604 -319.1153 1243.1875 -153.18738 C 1261.8818 -134.49321 1278.4699 -114.49044 1292.9517 -93.47393 Z" stroke="#efb64f" stroke-linecap="round" stroke-linejoin="round" stroke-width="0"/>
      </g>
    </g>
  </g>
</svg>
