<?xml version="1.0" encoding="UTF-8" standalone="no"?>
<!DOCTYPE svg PUBLIC "-//W3C//DTD SVG 1.1//EN" "http://www.w3.org/Graphics/SVG/1.1/DTD/svg11.dtd">
<svg version="1.1" xmlns="http://www.w3.org/2000/svg" xmlns:xl="http://www.w3.org/1999/xlink" xmlns:dc="http://purl.org/dc/elements/1.1/" viewBox="1837 -356 980.5001 980.5002" width="980.5001" height="980.5002">
  <defs/>
  <metadata> Produced by OmniGraffle 7.21.2\n2022-12-16 02:04:20 +0000</metadata>
  <g id="Canevas_1" stroke="none" fill-opacity="1" stroke-dasharray="none" stroke-opacity="1" fill="none">
    <title>Canevas 1</title>
    <g id="Canevas_1_Calque_1">
      <title>Calque 1</title>
      <g id="Graphic_133">
        <path d="M 2673.9087 -212.40852 C 2482.4543 -403.86383 2172.0458 -403.86383 1980.5915 -212.40852 C 1789.1362 -20.954197 1789.1362 289.45435 1980.5915 480.90867 C 2172.0458 672.364 2482.4543 672.364 2673.9087 480.90867 C 2865.364 289.45435 2865.364 -20.954197 2673.9087 -212.40852 M 2627.6875 -166.18738 C 2793.6155 -.26029376 2793.6155 268.76044 2627.6875 434.6875 C 2461.7604 600.61546 2192.7397 600.61546 2026.8126 434.6875 C 1860.8847 268.76044 1860.8847 -.26029376 2026.8126 -166.18738 C 2192.7397 -332.1153 2461.7604 -332.1153 2627.6875 -166.18738" fill="#efb54f" fill-opacity=".25239327"/>
        <path d="M 2673.9087 -212.40852 C 2482.4543 -403.86383 2172.0458 -403.86383 1980.5915 -212.40852 C 1789.1362 -20.954197 1789.1362 289.45435 1980.5915 480.90867 C 2172.0458 672.364 2482.4543 672.364 2673.9087 480.90867 C 2865.364 289.45435 2865.364 -20.954197 2673.9087 -212.40852 M 2627.6875 -166.18738 C 2793.6155 -.26029376 2793.6155 268.76044 2627.6875 434.6875 C 2461.7604 600.61546 2192.7397 600.61546 2026.8126 434.6875 C 1860.8847 268.76044 1860.8847 -.26029376 2026.8126 -166.18738 C 2192.7397 -332.1153 2461.7604 -332.1153 2627.6875 -166.18738" stroke="#efb64f" stroke-linecap="round" stroke-linejoin="round" stroke-width="0"/>
      </g>
      <g id="Graphic_136">
        <path d="M 2587.244 -125.74388 C 2443.6533 -269.33536 2210.847 -269.33536 2067.2561 -125.74388 C 1923.6646 17.84687 1923.6646 250.65328 2067.2561 394.24403 C 2210.847 537.8355 2443.6533 537.8355 2587.244 394.24403 C 2730.8355 250.65328 2730.8355 17.84687 2587.244 -125.74388 M 2541.023 -79.52273 C 2659.087 38.540773 2659.087 229.95938 2541.023 348.02288 C 2422.9594 466.087 2231.5408 466.087 2113.4773 348.02288 C 1995.4132 229.95938 1995.4132 38.540773 2113.4773 -79.52273 C 2231.5408 -197.58684 2422.9594 -197.58684 2541.023 -79.52273" fill="#d3673a" fill-opacity=".24884463"/>
        <path d="M 2587.244 -125.74388 C 2443.6533 -269.33536 2210.847 -269.33536 2067.2561 -125.74388 C 1923.6646 17.84687 1923.6646 250.65328 2067.2561 394.24403 C 2210.847 537.8355 2443.6533 537.8355 2587.244 394.24403 C 2730.8355 250.65328 2730.8355 17.84687 2587.244 -125.74388 M 2541.023 -79.52273 C 2659.087 38.540773 2659.087 229.95938 2541.023 348.02288 C 2422.9594 466.087 2231.5408 466.087 2113.4773 348.02288 C 1995.4132 229.95938 1995.4132 38.540773 2113.4773 -79.52273 C 2231.5408 -197.58684 2422.9594 -197.58684 2541.023 -79.52273" stroke="#d2673a" stroke-linecap="round" stroke-linejoin="round" stroke-width="0"/>
      </g>
      <g id="Graphic_138">
        <path d="M 2500.5794 -39.079243 C 2404.8522 -134.8069 2249.648 -134.8069 2153.9208 -39.079243 C 2058.1931 56.64793 2058.1931 211.85222 2153.9208 307.5794 C 2249.648 403.30706 2404.8522 403.30706 2500.5794 307.5794 C 2596.307 211.85222 2596.307 56.64793 2500.5794 -39.079243 M 2454.3582 7.141923 C 2524.5585 77.34184 2524.5585 191.1583 2454.3582 261.35823 C 2384.1583 331.5585 2270.3418 331.5585 2200.142 261.35823 C 2129.9417 191.1583 2129.9417 77.34184 2200.142 7.141923 C 2270.3418 -63.058355 2384.1583 -63.058355 2454.3582 7.141923" fill="#3570a0" fill-opacity=".2496699"/>
        <path d="M 2500.5794 -39.079243 C 2404.8522 -134.8069 2249.648 -134.8069 2153.9208 -39.079243 C 2058.1931 56.64793 2058.1931 211.85222 2153.9208 307.5794 C 2249.648 403.30706 2404.8522 403.30706 2500.5794 307.5794 C 2596.307 211.85222 2596.307 56.64793 2500.5794 -39.079243 M 2454.3582 7.141923 C 2524.5585 77.34184 2524.5585 191.1583 2454.3582 261.35823 C 2384.1583 331.5585 2270.3418 331.5585 2200.142 261.35823 C 2129.9417 191.1583 2129.9417 77.34184 2200.142 7.141923 C 2270.3418 -63.058355 2384.1583 -63.058355 2454.3582 7.141923" stroke="#3770a0" stroke-linecap="round" stroke-linejoin="round" stroke-width="0"/>
      </g>
      <g id="Graphic_146">
        <path d="M 2473.6894 -203.13784 C 2339.181 -261.70826 2176.7905 -235.98457 2066.7732 -125.96677 C 1923.1818 17.623973 1923.1818 250.43038 2066.7732 394.02113 C 2102.099 429.347 2142.8244 455.98215 2186.2926 473.92653 L 2211.8416 413.73694 C 2175.885 398.9806 2142.196 377.0016 2112.9944 347.8 C 1994.9303 229.73648 1994.9303 38.317876 2112.9944 -79.74563 C 2203.6086 -170.36032 2337.4336 -191.42786 2448.1405 -142.94825 Z" fill="#d3673a"/>
        <path d="M 2473.6894 -203.13784 C 2339.181 -261.70826 2176.7905 -235.98457 2066.7732 -125.96677 C 1923.1818 17.623973 1923.1818 250.43038 2066.7732 394.02113 C 2102.099 429.347 2142.8244 455.98215 2186.2926 473.92653 L 2211.8416 413.73694 C 2175.885 398.9806 2142.196 377.0016 2112.9944 347.8 C 1994.9303 229.73648 1994.9303 38.317876 2112.9944 -79.74563 C 2203.6086 -170.36032 2337.4336 -191.42786 2448.1405 -142.94825 Z" stroke="#d2673a" stroke-linecap="round" stroke-linejoin="round" stroke-width="0"/>
      </g>
      <g id="Graphic_143">
        <path d="M 2497.2333 414.34593 L 2566.6772 414.34593 L 2566.6772 188.831 L 2328.8317 188.831 L 2328.8317 254.67478 L 2497.2333 254.67478 Z" fill="#3770a1"/>
        <path d="M 2497.2333 414.34593 L 2566.6772 414.34593 L 2566.6772 188.831 L 2328.8317 188.831 L 2328.8317 254.67478 L 2497.2333 254.67478 Z" stroke="black" stroke-linecap="round" stroke-linejoin="round" stroke-width="0"/>
      </g>
      <g id="Graphic_153">
        <path d="M 2464.1807 251.20413 C 2461.4315 254.36403 2458.5536 257.45077 2455.5468 260.4575 C 2385.347 330.6578 2271.5305 330.6578 2201.3305 260.4575 C 2131.1303 190.25758 2131.1303 76.44112 2201.3305 6.2412 C 2233.9358 -26.364245 2275.9503 -43.82566 2318.6336 -46.14305 L 2318.6336 -111.58075 C 2259.208 -109.21649 2200.4787 -85.34956 2155.1094 -39.979966 C 2059.3817 55.74721 2059.3817 210.9515 2155.1094 306.67867 C 2250.8365 402.40633 2406.0408 402.40633 2501.768 306.67867 C 2518.6307 289.816 2532.523 271.10775 2543.445 251.20413 Z" fill="#3570a0"/>
        <path d="M 2464.1807 251.20413 C 2461.4315 254.36403 2458.5536 257.45077 2455.5468 260.4575 C 2385.347 330.6578 2271.5305 330.6578 2201.3305 260.4575 C 2131.1303 190.25758 2131.1303 76.44112 2201.3305 6.2412 C 2233.9358 -26.364245 2275.9503 -43.82566 2318.6336 -46.14305 L 2318.6336 -111.58075 C 2259.208 -109.21649 2200.4787 -85.34956 2155.1094 -39.979966 C 2059.3817 55.74721 2059.3817 210.9515 2155.1094 306.67867 C 2250.8365 402.40633 2406.0408 402.40633 2501.768 306.67867 C 2518.6307 289.816 2532.523 271.10775 2543.445 251.20413 Z" stroke="#3770a0" stroke-linecap="round" stroke-linejoin="round" stroke-width="0"/>
      </g>
      <g id="Graphic_156">
        <path d="M 2734.2278 -139.2536 C 2716.8434 -165.0609 2696.737 -189.5803 2673.9087 -212.40852 C 2482.4543 -403.86383 2172.0458 -403.86383 1980.5915 -212.40852 C 1828.4523 -60.27016 1797.21 166.98325 1886.8642 349.972 L 1943.6406 317.19216 C 1868.3457 159.30443 1896.0697 -35.445114 2026.8126 -166.18738 C 2192.7397 -332.1153 2461.7604 -332.1153 2627.6875 -166.18738 C 2646.3818 -147.49321 2662.97 -127.49044 2677.4517 -106.47393 Z" fill="#efb54f"/>
        <path d="M 2734.2278 -139.2536 C 2716.8434 -165.0609 2696.737 -189.5803 2673.9087 -212.40852 C 2482.4543 -403.86383 2172.0458 -403.86383 1980.5915 -212.40852 C 1828.4523 -60.27016 1797.21 166.98325 1886.8642 349.972 L 1943.6406 317.19216 C 1868.3457 159.30443 1896.0697 -35.445114 2026.8126 -166.18738 C 2192.7397 -332.1153 2461.7604 -332.1153 2627.6875 -166.18738 C 2646.3818 -147.49321 2662.97 -127.49044 2677.4517 -106.47393 Z" stroke="#efb64f" stroke-linecap="round" stroke-linejoin="round" stroke-width="0"/>
      </g>
    </g>
  </g>
</svg>
