<?xml version="1.0" encoding="UTF-8" standalone="no"?>
<!DOCTYPE svg PUBLIC "-//W3C//DTD SVG 1.1//EN" "http://www.w3.org/Graphics/SVG/1.1/DTD/svg11.dtd">
<svg xmlns:xl="http://www.w3.org/1999/xlink" xmlns="http://www.w3.org/2000/svg" xmlns:dc="http://purl.org/dc/elements/1.1/" version="1.1" viewBox="-593.43075 -3654.7066 24.75 24.75" width="24.75" height="24.75">
  <defs/>
  <g id="SOURCES" fill-opacity="1" stroke-opacity="1" stroke="none" stroke-dasharray="none" fill="none">
    <title>SOURCES</title>
    <g id="SOURCES_Calque_1">
      <title>Calque 1</title>
      <g id="Graphic_4424">
        <rect x="-593.05575" y="-3654.3316" width="24" height="24" stroke="gray" stroke-opacity="0" stroke-linecap="round" stroke-linejoin="round" stroke-width="0"/>
      </g>
      <g id="Graphic_1382">
        <rect x="-592.55574" y="-3648.4403" width="22.999983" height="17.81696" fill="white"/>
        <rect x="-592.55574" y="-3648.4403" width="22.999983" height="17.81696" stroke="black" stroke-linecap="round" stroke-linejoin="round" stroke-width=".25"/>
      </g>
      <g id="Group_1377">
        <g id="Line_1380">
          <line x1="-592.55575" y1="-3644.678" x2="-569.5558" y2="-3644.678" stroke="black" stroke-linecap="round" stroke-linejoin="round" stroke-width=".25"/>
        </g>
        <g id="Line_1379">
          <line x1="-592.5557" y1="-3639.7364" x2="-569.55575" y2="-3639.7364" stroke="black" stroke-linecap="round" stroke-linejoin="round" stroke-width=".25"/>
        </g>
        <g id="Line_1378">
          <line x1="-592.5557" y1="-3634.837" x2="-569.55575" y2="-3634.837" stroke="black" stroke-linecap="round" stroke-linejoin="round" stroke-width=".25"/>
        </g>
      </g>
      <g id="Graphic_1381">
        <path d="M -573.49534 -3644.455 L -573.49534 -3646.7344 L -588.61616 -3646.7344 L -588.61616 -3644.455 L -573.49534 -3644.455 Z" fill="white"/>
      </g>
      <g id="Graphic_1375">
        <path d="M -576.0671 -3644.23 L -577.0586 -3645.2463 L -580.40765 -3641.9793 L -580.2634 -3653.615 L -581.67896 -3653.6326 L -581.8232 -3641.997 L -585.0902 -3645.346 L -586.1066 -3644.3544 L -581.1491 -3639.2724 Z" fill="#5b76a2"/>
        <path d="M -576.0671 -3644.23 L -577.0586 -3645.2463 L -580.40765 -3641.9793 L -580.2634 -3653.615 L -581.67896 -3653.6326 L -581.8232 -3641.997 L -585.0902 -3645.346 L -586.1066 -3644.3544 L -581.1491 -3639.2724 Z" stroke="#5c76a2" stroke-linecap="round" stroke-linejoin="round" stroke-width="1"/>
      </g>
    </g>
  </g>
</svg>
