<?xml version="1.0" encoding="UTF-8" standalone="no"?>
<!DOCTYPE svg PUBLIC "-//W3C//DTD SVG 1.1//EN" "http://www.w3.org/Graphics/SVG/1.1/DTD/svg11.dtd">
<svg version="1.1" xmlns="http://www.w3.org/2000/svg" xmlns:xl="http://www.w3.org/1999/xlink" xmlns:dc="http://purl.org/dc/elements/1.1/" viewBox="-663 -3457 16.000008 16.000008" width="16.000008" height="16.000008">
  <defs/>
  <g id="SOURCES" stroke-dasharray="none" fill="none" stroke="none" fill-opacity="1" stroke-opacity="1">
    <title>SOURCES</title>
    <g id="SOURCES_Calque_2">
      <title>Calque 2</title>
      <g id="Group_9595">
        <g id="Graphic_9593"/>
        <g id="Group_9591">
          <title>clock</title>
          <g id="Graphic_9592">
            <path d="M -655 -3443 C -658.312 -3443 -661 -3445.688 -661 -3449 C -661 -3452.312 -658.312 -3455 -655 -3455 C -651.688 -3455 -649 -3452.312 -649 -3449 C -649 -3445.688 -651.688 -3443 -655 -3443 Z M -655 -3443.6 C -652.018 -3443.6 -649.6 -3446.018 -649.6 -3449 C -649.6 -3451.982 -652.018 -3454.4 -655 -3454.4 C -657.982 -3454.4 -660.4 -3451.982 -660.4 -3449 C -660.4 -3446.018 -657.982 -3443.6 -655 -3443.6 Z M -652.726 -3447.746 C -652.594 -3447.65 -652.558 -3447.464 -652.654 -3447.326 C -652.75 -3447.194 -652.936 -3447.158 -653.074 -3447.254 L -655.174 -3448.754 C -655.228 -3448.796 -655.27 -3448.85 -655.288 -3448.922 L -656.188 -3452.222 C -656.23 -3452.384 -656.14 -3452.546 -655.978 -3452.588 C -655.816 -3452.63 -655.654 -3452.54 -655.612 -3452.378 L -654.742 -3449.18 L -652.726 -3447.74 Z" fill="white"/>
          </g>
        </g>
      </g>
    </g>
  </g>
</svg>
