<?xml version="1.0" encoding="UTF-8" standalone="no"?>
<!DOCTYPE svg PUBLIC "-//W3C//DTD SVG 1.1//EN" "http://www.w3.org/Graphics/SVG/1.1/DTD/svg11.dtd">
<svg version="1.1" xmlns="http://www.w3.org/2000/svg" xmlns:xl="http://www.w3.org/1999/xlink" xmlns:dc="http://purl.org/dc/elements/1.1/" viewBox="-271.93502 -3778.5825 25 25" width="25" height="25">
  <defs/>
  <g id="SOURCES" stroke-dasharray="none" fill="none" stroke="none" fill-opacity="1" stroke-opacity="1">
    <title>SOURCES</title>
    <g id="SOURCES_Calque_1">
      <title>Calque 1</title>
      <g id="Graphic_6347">
        <title>views/view.other</title>
        <path d="M -267.59502 -3778.0825 L -251.27503 -3778.0825 C -249.15425 -3778.0825 -247.43502 -3776.3632 -247.43502 -3774.2425 L -247.43502 -3757.9225 C -247.43502 -3755.8017 -249.15425 -3754.0825 -251.27503 -3754.0825 L -267.59502 -3754.0825 C -269.7158 -3754.0825 -271.43502 -3755.8017 -271.43502 -3757.9225 L -271.43502 -3774.2425 C -271.43502 -3776.3632 -269.7158 -3778.0825 -267.59502 -3778.0825 Z" fill="white"/>
        <path d="M -267.59502 -3778.0825 L -251.27503 -3778.0825 C -249.15425 -3778.0825 -247.43502 -3776.3632 -247.43502 -3774.2425 L -247.43502 -3757.9225 C -247.43502 -3755.8017 -249.15425 -3754.0825 -251.27503 -3754.0825 L -267.59502 -3754.0825 C -269.7158 -3754.0825 -271.43502 -3755.8017 -271.43502 -3757.9225 L -271.43502 -3774.2425 C -271.43502 -3776.3632 -269.7158 -3778.0825 -267.59502 -3778.0825 Z" stroke="black" stroke-linecap="round" stroke-linejoin="round" stroke-width=".25"/>
      </g>
      <g id="Graphic_6346">
        <path d="M -265.43512 -3762.883 C -265.21422 -3762.883 -265.03514 -3762.704 -265.03514 -3762.483 L -265.03514 -3760.0824 C -265.03514 -3759.4197 -264.4979 -3758.8824 -263.8352 -3758.8824 L -255.03565 -3758.8824 C -254.37294 -3758.8824 -253.8357 -3759.4197 -253.8357 -3760.0824 L -253.8357 -3770.082 L -256.63557 -3770.082 C -256.85647 -3770.082 -257.03555 -3770.261 -257.03555 -3770.482 L -257.03555 -3773.2817 L -263.8352 -3773.2817 C -264.4979 -3773.2817 -265.03514 -3772.7445 -265.03514 -3772.0818 L -265.03514 -3770.4826 C -265.03514 -3770.2617 -265.21422 -3770.0827 -265.43512 -3770.0827 C -265.65603 -3770.0827 -265.8351 -3770.2617 -265.8351 -3770.4826 L -265.8351 -3772.0818 C -265.8351 -3773.1863 -264.93972 -3774.0817 -263.8352 -3774.0817 L -256.65795 -3774.0817 C -256.55176 -3774.0884 -256.44122 -3774.053 -256.35274 -3773.9645 L -253.1529 -3770.7647 C -253.06442 -3770.676 -253.029 -3770.5657 -253.03575 -3770.4595 L -253.03575 -3760.0824 C -253.03575 -3758.978 -253.93113 -3758.0825 -255.03565 -3758.0825 L -263.8352 -3758.0825 C -264.93972 -3758.0825 -265.8351 -3758.978 -265.8351 -3760.0824 L -265.8351 -3762.483 C -265.8351 -3762.704 -265.65603 -3762.883 -265.43512 -3762.883 Z M -256.2356 -3772.716 L -256.2356 -3770.882 L -254.40136 -3770.882 Z M -259.20112 -3766.883 L -260.9182 -3768.6 C -261.0744 -3768.756 -261.0744 -3769.0094 -260.9182 -3769.1656 C -260.762 -3769.3218 -260.50874 -3769.3218 -260.35254 -3769.1656 L -257.95266 -3766.7657 C -257.79646 -3766.6095 -257.79646 -3766.356 -257.95266 -3766.2 L -260.35254 -3763.8 C -260.50874 -3763.644 -260.762 -3763.644 -260.9182 -3763.8 C -261.0744 -3763.9563 -261.0744 -3764.2096 -260.9182 -3764.366 L -259.20112 -3766.083 L -265.43512 -3766.083 C -265.65603 -3766.083 -265.8351 -3766.262 -265.8351 -3766.483 C -265.8351 -3766.7038 -265.65603 -3766.883 -265.43512 -3766.883 Z" fill="#5c76a2"/>
      </g>
      <g id="Graphic_6363">
        <path d="M -256.6642 -3761.1626 C -256.6642 -3761.272 -256.7528 -3761.3606 -256.8621 -3761.3606 L -257.25794 -3761.3606 C -257.36725 -3761.3606 -257.45586 -3761.272 -257.45586 -3761.1626 L -257.45586 -3760.767 C -257.45586 -3760.6575 -257.36725 -3760.569 -257.25794 -3760.569 L -256.8621 -3760.569 C -256.7528 -3760.569 -256.6642 -3760.6575 -256.6642 -3760.767 Z M -256.26836 -3761.1626 L -256.26836 -3760.767 C -256.26836 -3760.439 -256.5342 -3760.173 -256.8621 -3760.173 L -257.25794 -3760.173 C -257.58586 -3760.173 -257.8517 -3760.439 -257.8517 -3760.767 L -257.8517 -3761.1626 C -257.8517 -3761.4906 -257.58586 -3761.7564 -257.25794 -3761.7564 L -256.8621 -3761.7564 C -256.5342 -3761.7564 -256.26836 -3761.4906 -256.26836 -3761.1626 Z M -259.0392 -3761.1626 C -259.0392 -3761.272 -259.1278 -3761.3606 -259.2371 -3761.3606 L -259.63294 -3761.3606 C -259.74225 -3761.3606 -259.83086 -3761.272 -259.83086 -3761.1626 L -259.83086 -3760.767 C -259.83086 -3760.6575 -259.74225 -3760.569 -259.63294 -3760.569 L -259.2371 -3760.569 C -259.1278 -3760.569 -259.0392 -3760.6575 -259.0392 -3760.767 Z M -258.64336 -3761.1626 L -258.64336 -3760.767 C -258.64336 -3760.439 -258.9092 -3760.173 -259.2371 -3760.173 L -259.63294 -3760.173 C -259.96086 -3760.173 -260.2267 -3760.439 -260.2267 -3760.767 L -260.2267 -3761.1626 C -260.2267 -3761.4906 -259.96086 -3761.7564 -259.63294 -3761.7564 L -259.2371 -3761.7564 C -258.9092 -3761.7564 -258.64336 -3761.4906 -258.64336 -3761.1626 Z M -261.4142 -3761.1626 C -261.4142 -3761.272 -261.5028 -3761.3606 -261.6121 -3761.3606 L -262.00794 -3761.3606 C -262.11725 -3761.3606 -262.20586 -3761.272 -262.20586 -3761.1626 L -262.20586 -3760.767 C -262.20586 -3760.6575 -262.11725 -3760.569 -262.00794 -3760.569 L -261.6121 -3760.569 C -261.5028 -3760.569 -261.4142 -3760.6575 -261.4142 -3760.767 Z M -261.01836 -3761.1626 L -261.01836 -3760.767 C -261.01836 -3760.439 -261.2842 -3760.173 -261.6121 -3760.173 L -262.00794 -3760.173 C -262.33586 -3760.173 -262.6017 -3760.439 -262.6017 -3760.767 L -262.6017 -3761.1626 C -262.6017 -3761.4906 -262.33586 -3761.7564 -262.00794 -3761.7564 L -261.6121 -3761.7564 C -261.2842 -3761.7564 -261.01836 -3761.4906 -261.01836 -3761.1626 Z" fill="black"/>
      </g>
    </g>
  </g>
</svg>
