<svg xmlns="http://www.w3.org/2000/svg" viewBox="-872.5 -3810.104 25 25" width="25" height="25"><g fill="none"><path d="M-868.16-3809.604h16.32a3.84 3.84 0 0 1 3.84 3.84v16.32a3.84 3.84 0 0 1-3.84 3.84h-16.32a3.84 3.84 0 0 1-3.84-3.84v-16.32a3.84 3.84 0 0 1 3.84-3.84z" fill="#fff"/><path d="M-868.16-3809.604h16.32a3.84 3.84 0 0 1 3.84 3.84v16.32a3.84 3.84 0 0 1-3.84 3.84h-16.32a3.84 3.84 0 0 1-3.84-3.84v-16.32a3.84 3.84 0 0 1 3.84-3.84z" stroke="#000" stroke-linecap="round" stroke-linejoin="round" stroke-width=".25"/><g><path d="M-853.212-3804.393a9.6 9.6 0 1 0-13.576 13.577 9.6 9.6 0 0 0 13.576-13.577m-.905.905a8.32 8.32 0 1 1-11.768 11.767 8.32 8.32 0 0 1 11.768-11.767" fill="#efb54f" fill-opacity=".252"/><path d="M-854.909-3802.695a7.2 7.2 0 0 0-10.182 0 7.2 7.2 0 0 0 0 10.182 7.2 7.2 0 0 0 10.182 0 7.2 7.2 0 0 0 0-10.182m-.905.905a5.92 5.92 0 1 1-8.373 8.372 5.92 5.92 0 0 1 8.373-8.372" fill="#d3673a" fill-opacity=".249"/><path d="M-856.606-3800.999a4.8 4.8 0 1 0-6.788 6.789 4.8 4.8 0 0 0 6.788-6.789m-.905.906a3.52 3.52 0 1 1-4.96 4.997 3.52 3.52 0 0 1 4.96-4.997" fill="#3570a0" fill-opacity=".25"/><path d="M-857.132-3804.211a7.202 7.202 0 1 0-5.628 13.258l.5-1.179a5.92 5.92 0 1 1 4.627-10.9z" fill="#d3673a"/><path d="M-856.672-3792.12h1.36v-4.416h-4.657v1.29h3.298z" fill="#3770a1"/><path d="M-857.319-3795.314a3.52 3.52 0 1 1-2.85-5.823v-1.281a4.8 4.8 0 1 0 4.402 7.104z" fill="#3570a0"/><path d="M-852.03-3802.96a9.6 9.6 0 0 0-14.758-1.432 9.605 9.605 0 0 0-1.836 11.012l1.112-.642a8.32 8.32 0 0 1 14.37-8.296z" fill="#efb54f"/></g></g></svg>