<?xml version="1.0" encoding="UTF-8" standalone="no"?>
<!DOCTYPE svg PUBLIC "-//W3C//DTD SVG 1.1//EN" "http://www.w3.org/Graphics/SVG/1.1/DTD/svg11.dtd">
<svg version="1.1" xmlns="http://www.w3.org/2000/svg" xmlns:xl="http://www.w3.org/1999/xlink" xmlns:dc="http://purl.org/dc/elements/1.1/" viewBox="-432.375 -3448.5096 24.38641 24.75" width="24.38641" height="24.75">
  <defs/>
  <g id="SOURCES" stroke-dasharray="none" fill="none" stroke="none" fill-opacity="1" stroke-opacity="1">
    <title>SOURCES</title>
    <g id="SOURCES_Calque_2">
      <title>Calque 2</title>
      <g id="Group_9771">
        <g id="Graphic_9753">
          <path d="M -415.2 -3448.1346 L -428.8 -3448.1346 C -430.5673 -3448.1346 -432 -3446.702 -432 -3444.9346 L -432 -3431.3346 C -432 -3429.5672 -430.5673 -3428.1346 -428.8 -3428.1346 L -415.2 -3428.1346 C -413.4327 -3428.1346 -412 -3429.5672 -412 -3431.3346 L -412 -3444.9346 C -412 -3446.702 -413.4327 -3448.1346 -415.2 -3448.1346 Z" fill="#8797a7"/>
        </g>
        <g id="Graphic_9769">
          <path d="M -411.5636 -3444.1346 L -425.1636 -3444.1346 C -426.9309 -3444.1346 -428.3636 -3442.702 -428.3636 -3440.9346 L -428.3636 -3427.3346 C -428.3636 -3425.5672 -426.9309 -3424.1346 -425.1636 -3424.1346 L -411.5636 -3424.1346 C -409.7963 -3424.1346 -408.3636 -3425.5672 -408.3636 -3427.3346 L -408.3636 -3440.9346 C -408.3636 -3442.702 -409.7963 -3444.1346 -411.5636 -3444.1346 Z" fill="#66727e"/>
        </g>
        <g id="Graphic_9757">
          <path d="M -416.0336 -3438.0437 L -423.70026 -3430.377 L -423.70026 -3428.8504 L -422.1736 -3428.8504 L -414.5069 -3436.517 Z M -415.56026 -3438.517 L -414.0336 -3436.9904 L -413.1736 -3437.8504 L -414.70026 -3439.377 Z M -424.3669 -3428.517 L -424.3669 -3430.517 C -424.3669 -3430.6037 -424.3336 -3430.6904 -424.2669 -3430.7504 L -414.9336 -3440.0837 C -414.80026 -3440.217 -414.5936 -3440.217 -414.46026 -3440.0837 L -412.46026 -3438.0837 C -412.3269 -3437.9504 -412.3269 -3437.7437 -412.46026 -3437.6104 L -421.80026 -3428.2837 C -421.86026 -3428.2237 -421.9469 -3428.1837 -422.0336 -3428.1837 L -424.0336 -3428.1837 C -424.22026 -3428.1837 -424.3669 -3428.3304 -424.3669 -3428.517 Z" fill="white"/>
        </g>
      </g>
    </g>
  </g>
</svg>
