<svg xmlns="http://www.w3.org/2000/svg" xmlns:xl="http://www.w3.org/1999/xlink" width="25" height="25" version="1.1" viewBox="-245.227 -3851.813 25 25"><g id="SOURCES" fill="none" fill-opacity="1" stroke="none" stroke-dasharray="none" stroke-opacity="1"><title>SOURCES</title><g id="SOURCES_Calque_1"><title>Calque 1</title><g id="Group_4904"><g id="Graphic_4906"><path fill="#fff" d="M -224.56708 -3851.313 L -240.88708 -3851.313 C -243.00785 -3851.313 -244.72708 -3849.594 -244.72708 -3847.473 L -244.72708 -3831.153 C -244.72708 -3829.0323 -243.00785 -3827.313 -240.88708 -3827.313 L -224.56708 -3827.313 C -222.4463 -3827.313 -220.72708 -3829.0323 -220.72708 -3831.153 L -220.72708 -3847.473 C -220.72708 -3849.594 -222.4463 -3851.313 -224.56708 -3851.313 Z"/><path stroke="#000" stroke-linecap="round" stroke-linejoin="round" stroke-width=".25" d="M -224.56708 -3851.313 L -240.88708 -3851.313 C -243.00785 -3851.313 -244.72708 -3849.594 -244.72708 -3847.473 L -244.72708 -3831.153 C -244.72708 -3829.0323 -243.00785 -3827.313 -240.88708 -3827.313 L -224.56708 -3827.313 C -222.4463 -3827.313 -220.72708 -3829.0323 -220.72708 -3831.153 L -220.72708 -3847.473 C -220.72708 -3849.594 -222.4463 -3851.313 -224.56708 -3851.313 Z"/></g><g id="Graphic_4905"><rect width="24" height="24" x="-244.727" y="-3851.313" stroke="gray" stroke-linecap="round" stroke-linejoin="round" stroke-opacity="0" stroke-width=".25"/></g></g><g id="Group_4902"><g id="Graphic_4903"><path fill="#9da8b5" d="M -239.2986 -3831.7846 C -237.95207 -3830.706 -236.254 -3830.438 -234.73762 -3831.037 C -233.1453 -3831.679 -232.13983 -3833.176 -232.0981 -3834.9216 L -232.04296 -3837.6967 L -233.4461 -3837.67 L -233.4789 -3835.081 C -233.4983 -3833.849 -234.22818 -3832.7915 -235.34534 -3832.33 C -236.38654 -3831.911 -237.56626 -3832.108 -238.47488 -3832.8377 C -238.60447 -3832.9375 -238.71916 -3833.052 -238.83386 -3833.167 C -238.94855 -3833.2816 -239.04835 -3833.411 -239.16304 -3833.526 C -239.9093 -3834.451 -240.08952 -3835.614 -239.67095 -3836.6554 C -239.20917 -3837.7725 -238.18138 -3838.4726 -236.9823 -3838.525 C -236.951 -3838.5233 -236.951 -3838.5233 -236.91973 -3838.522 L -229.12492 -3838.6813 L -228.3295 -3838.69 C -226.58375 -3838.732 -225.10164 -3839.7225 -224.44473 -3841.3297 C -223.8608 -3842.831 -224.11402 -3844.544 -225.20733 -3845.876 C -225.3414 -3846.0695 -225.48885 -3846.217 -225.6527 -3846.381 C -225.80017 -3846.5283 -225.96401 -3846.692 -226.14127 -3846.81 C -227.4878 -3847.888 -229.20228 -3848.1727 -230.70226 -3847.5575 C -232.2946 -3846.9155 -233.30005 -3845.4185 -233.34178 -3843.6727 L -233.35073 -3842.8773 L -234.5081 -3842.9324 L -232.60895 -3840.7353 L -230.8334 -3842.773 L -231.9595 -3842.8267 L -231.94607 -3843.5282 C -231.9267 -3844.76 -231.2117 -3845.803 -230.07964 -3846.2795 C -229.03844 -3846.698 -227.8751 -3846.518 -226.9501 -3845.7715 C -226.8354 -3845.657 -226.70582 -3845.557 -226.59113 -3845.4424 C -226.47643 -3845.3277 -226.36025 -3845.1817 -226.26194 -3845.0834 C -225.53207 -3844.1748 -225.33546 -3842.995 -225.75404 -3841.954 C -225.90747 -3841.571 -226.14133 -3841.239 -226.40945 -3840.9707 C -226.9457 -3840.4345 -227.69494 -3840.1113 -228.49036 -3840.1023 L -229.28578 -3840.0934 L -237.0657 -3839.949 L -237.11187 -3839.9354 C -238.26627 -3839.928 -239.30598 -3839.478 -240.06565 -3838.7184 C -240.45294 -3838.331 -240.7732 -3837.847 -240.98174 -3837.3108 C -241.59694 -3835.811 -241.31246 -3834.0963 -240.23404 -3832.75 C -240.10147 -3832.5874 -239.95252 -3832.4087 -239.80505 -3832.261 C -239.63971 -3832.066 -239.47736 -3831.9335 -239.2986 -3831.7846 Z"/><path stroke="#528637" stroke-linecap="butt" stroke-linejoin="round" stroke-width="0" d="M -239.2986 -3831.7846 C -237.95207 -3830.706 -236.254 -3830.438 -234.73762 -3831.037 C -233.1453 -3831.679 -232.13983 -3833.176 -232.0981 -3834.9216 L -232.04296 -3837.6967 L -233.4461 -3837.67 L -233.4789 -3835.081 C -233.4983 -3833.849 -234.22818 -3832.7915 -235.34534 -3832.33 C -236.38654 -3831.911 -237.56626 -3832.108 -238.47488 -3832.8377 C -238.60447 -3832.9375 -238.71916 -3833.052 -238.83386 -3833.167 C -238.94855 -3833.2816 -239.04835 -3833.411 -239.16304 -3833.526 C -239.9093 -3834.451 -240.08952 -3835.614 -239.67095 -3836.6554 C -239.20917 -3837.7725 -238.18138 -3838.4726 -236.9823 -3838.525 C -236.951 -3838.5233 -236.951 -3838.5233 -236.91973 -3838.522 L -229.12492 -3838.6813 L -228.3295 -3838.69 C -226.58375 -3838.732 -225.10164 -3839.7225 -224.44473 -3841.3297 C -223.8608 -3842.831 -224.11402 -3844.544 -225.20733 -3845.876 C -225.3414 -3846.0695 -225.48885 -3846.217 -225.6527 -3846.381 C -225.80017 -3846.5283 -225.96401 -3846.692 -226.14127 -3846.81 C -227.4878 -3847.888 -229.20228 -3848.1727 -230.70226 -3847.5575 C -232.2946 -3846.9155 -233.30005 -3845.4185 -233.34178 -3843.6727 L -233.35073 -3842.8773 L -234.5081 -3842.9324 L -232.60895 -3840.7353 L -230.8334 -3842.773 L -231.9595 -3842.8267 L -231.94607 -3843.5282 C -231.9267 -3844.76 -231.2117 -3845.803 -230.07964 -3846.2795 C -229.03844 -3846.698 -227.8751 -3846.518 -226.9501 -3845.7715 C -226.8354 -3845.657 -226.70582 -3845.557 -226.59113 -3845.4424 C -226.47643 -3845.3277 -226.36025 -3845.1817 -226.26194 -3845.0834 C -225.53207 -3844.1748 -225.33546 -3842.995 -225.75404 -3841.954 C -225.90747 -3841.571 -226.14133 -3841.239 -226.40945 -3840.9707 C -226.9457 -3840.4345 -227.69494 -3840.1113 -228.49036 -3840.1023 L -229.28578 -3840.0934 L -237.0657 -3839.949 L -237.11187 -3839.9354 C -238.26627 -3839.928 -239.30598 -3839.478 -240.06565 -3838.7184 C -240.45294 -3838.331 -240.7732 -3837.847 -240.98174 -3837.3108 C -241.59694 -3835.811 -241.31246 -3834.0963 -240.23404 -3832.75 C -240.10147 -3832.5874 -239.95252 -3832.4087 -239.80505 -3832.261 C -239.63971 -3832.066 -239.47736 -3831.9335 -239.2986 -3831.7846 Z"/></g></g></g></g></svg>