<?xml version="1.0" encoding="UTF-8" standalone="no"?>
<!DOCTYPE svg PUBLIC "-//W3C//DTD SVG 1.1//EN" "http://www.w3.org/Graphics/SVG/1.1/DTD/svg11.dtd">
<svg xmlns:dc="http://purl.org/dc/elements/1.1/" xmlns:xl="http://www.w3.org/1999/xlink" version="1.1" xmlns="http://www.w3.org/2000/svg" viewBox="-367.38244 -3635.113 25 25" width="25" height="25">
  <defs/>
  <g id="SOURCES" stroke-dasharray="none" stroke="none" stroke-opacity="1" fill="none" fill-opacity="1">
    <title>SOURCES</title>
    <g id="SOURCES_Calque_2">
      <title>Calque 2</title>
      <g id="Group_6694">
        <g id="Graphic_6696">
          <path d="M -346.72244 -3634.613 L -363.04244 -3634.613 C -365.1632 -3634.613 -366.88244 -3632.8936 -366.88244 -3630.773 L -366.88244 -3614.4528 C -366.88244 -3612.332 -365.1632 -3610.6128 -363.04244 -3610.6128 L -346.72244 -3610.6128 C -344.60166 -3610.6128 -342.88244 -3612.332 -342.88244 -3614.4528 L -342.88244 -3630.773 C -342.88244 -3632.8936 -344.60166 -3634.613 -346.72244 -3634.613 Z" fill="white"/>
          <path d="M -346.72244 -3634.613 L -363.04244 -3634.613 C -365.1632 -3634.613 -366.88244 -3632.8936 -366.88244 -3630.773 L -366.88244 -3614.4528 C -366.88244 -3612.332 -365.1632 -3610.6128 -363.04244 -3610.6128 L -346.72244 -3610.6128 C -344.60166 -3610.6128 -342.88244 -3612.332 -342.88244 -3614.4528 L -342.88244 -3630.773 C -342.88244 -3632.8936 -344.60166 -3634.613 -346.72244 -3634.613 Z" stroke="black" stroke-linecap="round" stroke-linejoin="round" stroke-width=".25"/>
        </g>
        <g id="Graphic_6695">
          <rect x="-366.88244" y="-3634.613" width="24" height="24" stroke="gray" stroke-opacity="0" stroke-linecap="round" stroke-linejoin="round" stroke-width=".25"/>
        </g>
      </g>
      <g id="Graphic_6691">
        <path d="M -345.94446 -3628.6703 L -348.51587 -3628.6703 L -348.51587 -3626.099 L -349.373 -3626.099 L -349.373 -3628.6703 L -351.9444 -3628.6703 L -351.9444 -3629.5274 L -349.373 -3629.5274 L -349.373 -3632.099 L -348.51587 -3632.099 L -348.51587 -3629.5274 L -345.94446 -3629.5274 L -345.94446 -3628.6703 Z" fill="#cf7837"/>
        <path d="M -345.94446 -3628.6703 L -348.51587 -3628.6703 L -348.51587 -3626.099 L -349.373 -3626.099 L -349.373 -3628.6703 L -351.9444 -3628.6703 L -351.9444 -3629.5274 L -349.373 -3629.5274 L -349.373 -3632.099 L -348.51587 -3632.099 L -348.51587 -3629.5274 L -345.94446 -3629.5274 L -345.94446 -3628.6703 Z" stroke="#cf7839" stroke-linecap="round" stroke-linejoin="round" stroke-width=".25"/>
      </g>
      <g id="Graphic_10010">
        <path d="M -358.55317 -3621.3597 C -362.14675 -3621.793 -364.10422 -3625.8844 -362.0896 -3628.9177 C -359.20736 -3633.2608 -352.63374 -3630.775 -353.03387 -3625.4868 C -353.1914 -3623.3934 -354.6903 -3622.2323 -355.06376 -3620.3397 C -355.93897 -3615.9077 -350.393 -3613.7787 -347.91344 -3617.4117 C -346.2278 -3619.8824 -347.996 -3623.3527 -350.96334 -3623.566 C -351.3457 -3623.593 -352.01893 -3623.3946 -352.13707 -3623.8913 C -352.27045 -3624.4515 -351.64675 -3624.486 -351.2593 -3624.4845 C -347.56793 -3624.4693 -345.16205 -3620.4807 -346.9112 -3617.235 C -349.3971 -3612.6203 -356.4852 -3614.518 -356.05075 -3619.894 C -355.82337 -3622.705 -353.1304 -3624.1708 -354.09836 -3627.2905 C -355.17554 -3630.7584 -359.66465 -3631.3224 -361.4519 -3628.1785 C -362.86445 -3625.694 -361.19405 -3622.5525 -358.3601 -3622.2616 C -358.56333 -3622.678 -358.98506 -3623.049 -359.20355 -3623.4454 C -359.47284 -3623.9332 -358.8936 -3624.4693 -358.4198 -3623.9497 C -357.90407 -3623.383 -357.4849 -3622.626 -356.95264 -3622.0558 C -356.82053 -3621.817 -356.88404 -3621.568 -357.0314 -3621.352 C -357.71607 -3620.957 -358.3982 -3620.1707 -359.0689 -3619.805 C -359.4538 -3619.5953 -359.93776 -3619.9395 -359.73198 -3620.369 C -359.5897 -3620.666 -358.5608 -3621.2835 -358.55063 -3621.3597 Z" fill="#5c76a1"/>
      </g>
    </g>
  </g>
</svg>
