<?xml version="1.0" encoding="UTF-8" standalone="no"?>
<!DOCTYPE svg PUBLIC "-//W3C//DTD SVG 1.1//EN" "http://www.w3.org/Graphics/SVG/1.1/DTD/svg11.dtd">
<svg xmlns="http://www.w3.org/2000/svg" xmlns:xl="http://www.w3.org/1999/xlink" version="1.1" xmlns:dc="http://purl.org/dc/elements/1.1/" viewBox="-169.0821 -3851.055 25 25" width="25" height="25">
  <defs/>
  <g id="SOURCES" stroke-dasharray="none" stroke-opacity="1" fill-opacity="1" fill="none" stroke="none">
    <title>SOURCES</title>
    <g id="SOURCES_Calque_1">
      <title>Calque 1</title>
      <g id="Group_4863">
        <g id="Graphic_4842">
          <path d="M -148.42209 -3850.555 L -164.7421 -3850.555 C -166.86286 -3850.555 -168.5821 -3848.836 -168.5821 -3846.715 L -168.5821 -3830.395 C -168.5821 -3828.2744 -166.86286 -3826.555 -164.7421 -3826.555 L -148.42209 -3826.555 C -146.30132 -3826.555 -144.58209 -3828.2744 -144.58209 -3830.395 L -144.58209 -3846.715 C -144.58209 -3848.836 -146.30132 -3850.555 -148.42209 -3850.555 Z" fill="white"/>
          <path d="M -148.42209 -3850.555 L -164.7421 -3850.555 C -166.86286 -3850.555 -168.5821 -3848.836 -168.5821 -3846.715 L -168.5821 -3830.395 C -168.5821 -3828.2744 -166.86286 -3826.555 -164.7421 -3826.555 L -148.42209 -3826.555 C -146.30132 -3826.555 -144.58209 -3828.2744 -144.58209 -3830.395 L -144.58209 -3846.715 C -144.58209 -3848.836 -146.30132 -3850.555 -148.42209 -3850.555 Z" stroke="black" stroke-linecap="round" stroke-linejoin="round" stroke-width=".25"/>
        </g>
        <g id="Graphic_4841">
          <rect x="-168.5821" y="-3850.555" width="24" height="24" stroke="gray" stroke-opacity="0" stroke-linecap="round" stroke-linejoin="round" stroke-width=".25"/>
        </g>
      </g>
      <g id="Group_4839">
        <g id="Graphic_4840">
          <path d="M -149.05362 -3831.9836 C -147.9752 -3833.33 -147.7071 -3835.0283 -148.30591 -3836.5446 C -148.94793 -3838.137 -150.44493 -3839.1424 -152.19068 -3839.184 L -154.96571 -3839.2393 L -154.93889 -3837.836 L -152.35005 -3837.8033 C -151.1182 -3837.784 -150.0606 -3837.054 -149.59884 -3835.937 C -149.18026 -3834.8957 -149.37687 -3833.716 -150.10674 -3832.8074 C -150.20654 -3832.678 -150.32123 -3832.563 -150.43592 -3832.4484 C -150.55062 -3832.3337 -150.6802 -3832.234 -150.7949 -3832.119 C -151.7199 -3831.373 -152.88324 -3831.1927 -153.92444 -3831.6113 C -155.0416 -3832.073 -155.7417 -3833.101 -155.79385 -3834.3 C -155.79236 -3834.3312 -155.79236 -3834.3312 -155.79087 -3834.3625 L -155.95034 -3842.1573 L -155.95928 -3842.9527 C -156.001 -3844.6985 -156.99157 -3846.1806 -158.5988 -3846.8375 C -160.10028 -3847.4214 -161.81325 -3847.168 -163.1449 -3846.075 C -163.33854 -3845.941 -163.486 -3845.7934 -163.64985 -3845.6295 C -163.79731 -3845.482 -163.96116 -3845.3182 -164.07883 -3845.141 C -165.15725 -3843.7944 -165.44174 -3842.08 -164.82654 -3840.58 C -164.18453 -3838.9877 -162.68752 -3837.982 -160.94177 -3837.9405 L -160.14635 -3837.9315 L -160.20145 -3836.774 L -158.00439 -3838.6733 L -160.0421 -3840.449 L -160.09572 -3839.3228 L -160.7973 -3839.336 C -162.02915 -3839.3555 -163.07185 -3840.0705 -163.54851 -3841.2026 C -163.96709 -3842.244 -163.78686 -3843.407 -163.04061 -3844.332 C -162.92592 -3844.447 -162.82612 -3844.5764 -162.71142 -3844.691 C -162.59673 -3844.806 -162.45076 -3844.922 -162.35245 -3845.0203 C -161.44383 -3845.75 -160.26411 -3845.947 -159.22291 -3845.528 C -158.8401 -3845.375 -158.50792 -3845.141 -158.2398 -3844.873 C -157.70356 -3844.3366 -157.38032 -3843.5873 -157.37137 -3842.792 L -157.36243 -3841.9965 L -157.21786 -3834.2166 L -157.20445 -3834.1704 C -157.197 -3833.016 -156.74714 -3831.9763 -155.98746 -3831.2166 C -155.60017 -3830.8293 -155.11607 -3830.509 -154.57983 -3830.3005 C -153.07984 -3829.6853 -151.36538 -3829.97 -150.01884 -3831.048 C -149.85648 -3831.181 -149.67773 -3831.3297 -149.53027 -3831.477 C -149.33514 -3831.6425 -149.20257 -3831.805 -149.05362 -3831.9836 Z" fill="#9da8b5"/>
          <path d="M -149.05362 -3831.9836 C -147.9752 -3833.33 -147.7071 -3835.0283 -148.30591 -3836.5446 C -148.94793 -3838.137 -150.44493 -3839.1424 -152.19068 -3839.184 L -154.96571 -3839.2393 L -154.93889 -3837.836 L -152.35005 -3837.8033 C -151.1182 -3837.784 -150.0606 -3837.054 -149.59884 -3835.937 C -149.18026 -3834.8957 -149.37687 -3833.716 -150.10674 -3832.8074 C -150.20654 -3832.678 -150.32123 -3832.563 -150.43592 -3832.4484 C -150.55062 -3832.3337 -150.6802 -3832.234 -150.7949 -3832.119 C -151.7199 -3831.373 -152.88324 -3831.1927 -153.92444 -3831.6113 C -155.0416 -3832.073 -155.7417 -3833.101 -155.79385 -3834.3 C -155.79236 -3834.3312 -155.79236 -3834.3312 -155.79087 -3834.3625 L -155.95034 -3842.1573 L -155.95928 -3842.9527 C -156.001 -3844.6985 -156.99157 -3846.1806 -158.5988 -3846.8375 C -160.10028 -3847.4214 -161.81325 -3847.168 -163.1449 -3846.075 C -163.33854 -3845.941 -163.486 -3845.7934 -163.64985 -3845.6295 C -163.79731 -3845.482 -163.96116 -3845.3182 -164.07883 -3845.141 C -165.15725 -3843.7944 -165.44174 -3842.08 -164.82654 -3840.58 C -164.18453 -3838.9877 -162.68752 -3837.982 -160.94177 -3837.9405 L -160.14635 -3837.9315 L -160.20145 -3836.774 L -158.00439 -3838.6733 L -160.0421 -3840.449 L -160.09572 -3839.3228 L -160.7973 -3839.336 C -162.02915 -3839.3555 -163.07185 -3840.0705 -163.54851 -3841.2026 C -163.96709 -3842.244 -163.78686 -3843.407 -163.04061 -3844.332 C -162.92592 -3844.447 -162.82612 -3844.5764 -162.71142 -3844.691 C -162.59673 -3844.806 -162.45076 -3844.922 -162.35245 -3845.0203 C -161.44383 -3845.75 -160.26411 -3845.947 -159.22291 -3845.528 C -158.8401 -3845.375 -158.50792 -3845.141 -158.2398 -3844.873 C -157.70356 -3844.3366 -157.38032 -3843.5873 -157.37137 -3842.792 L -157.36243 -3841.9965 L -157.21786 -3834.2166 L -157.20445 -3834.1704 C -157.197 -3833.016 -156.74714 -3831.9763 -155.98746 -3831.2166 C -155.60017 -3830.8293 -155.11607 -3830.509 -154.57983 -3830.3005 C -153.07984 -3829.6853 -151.36538 -3829.97 -150.01884 -3831.048 C -149.85648 -3831.181 -149.67773 -3831.3297 -149.53027 -3831.477 C -149.33514 -3831.6425 -149.20257 -3831.805 -149.05362 -3831.9836 Z" stroke="#528637" stroke-linecap="butt" stroke-linejoin="round" stroke-width="0"/>
        </g>
      </g>
      <g id="Graphic_4860">
        <path d="M -150.19762 -3841.708 L -150.19762 -3845.86 L -148.11078 -3843.6094 L -147.47745 -3844.2925 L -150.64412 -3847.708 L -153.81078 -3844.2925 L -153.17745 -3843.6094 L -151.09062 -3845.86 L -151.09062 -3841.708 Z" fill="#5c76a2"/>
        <path d="M -150.19762 -3841.708 L -150.19762 -3845.86 L -148.11078 -3843.6094 L -147.47745 -3844.2925 L -150.64412 -3847.708 L -153.81078 -3844.2925 L -153.17745 -3843.6094 L -151.09062 -3845.86 L -151.09062 -3841.708 Z" stroke="#5a77a1" stroke-linecap="round" stroke-linejoin="round" stroke-width=".5"/>
      </g>
    </g>
  </g>
</svg>
