<?xml version="1.0" encoding="UTF-8" standalone="no"?>
<!DOCTYPE svg PUBLIC "-//W3C//DTD SVG 1.1//EN" "http://www.w3.org/Graphics/SVG/1.1/DTD/svg11.dtd">
<svg xmlns:dc="http://purl.org/dc/elements/1.1/" xmlns:xl="http://www.w3.org/1999/xlink" version="1.1" xmlns="http://www.w3.org/2000/svg" viewBox="-475.38244 -3635.113 25 25" width="25" height="25">
  <defs/>
  <g id="SOURCES" stroke-dasharray="none" stroke="none" stroke-opacity="1" fill="none" fill-opacity="1">
    <title>SOURCES</title>
    <g id="SOURCES_Calque_2">
      <title>Calque 2</title>
      <g id="Group_7154">
        <g id="Graphic_7156">
          <path d="M -454.72244 -3634.613 L -471.04244 -3634.613 C -473.1632 -3634.613 -474.88244 -3632.8936 -474.88244 -3630.773 L -474.88244 -3614.4528 C -474.88244 -3612.332 -473.1632 -3610.6128 -471.04244 -3610.6128 L -454.72244 -3610.6128 C -452.60166 -3610.6128 -450.88244 -3612.332 -450.88244 -3614.4528 L -450.88244 -3630.773 C -450.88244 -3632.8936 -452.60166 -3634.613 -454.72244 -3634.613 Z" fill="white"/>
          <path d="M -454.72244 -3634.613 L -471.04244 -3634.613 C -473.1632 -3634.613 -474.88244 -3632.8936 -474.88244 -3630.773 L -474.88244 -3614.4528 C -474.88244 -3612.332 -473.1632 -3610.6128 -471.04244 -3610.6128 L -454.72244 -3610.6128 C -452.60166 -3610.6128 -450.88244 -3612.332 -450.88244 -3614.4528 L -450.88244 -3630.773 C -450.88244 -3632.8936 -452.60166 -3634.613 -454.72244 -3634.613 Z" stroke="black" stroke-linecap="round" stroke-linejoin="round" stroke-width=".25"/>
        </g>
        <g id="Graphic_7155">
          <rect x="-474.88244" y="-3634.613" width="24" height="24" stroke="gray" stroke-opacity="0" stroke-linecap="round" stroke-linejoin="round" stroke-width=".25"/>
        </g>
      </g>
      <g id="Graphic_7151">
        <path d="M -457.5576 -3631.7655 L -457.5576 -3627.6132 L -459.64446 -3629.864 L -460.2778 -3629.181 L -457.1111 -3625.7655 L -453.94446 -3629.181 L -454.5778 -3629.864 L -456.6646 -3627.6132 L -456.6646 -3631.7655 Z" fill="#508737"/>
        <path d="M -457.5576 -3631.7655 L -457.5576 -3627.6132 L -459.64446 -3629.864 L -460.2778 -3629.181 L -457.1111 -3625.7655 L -453.94446 -3629.181 L -454.5778 -3629.864 L -456.6646 -3627.6132 L -456.6646 -3631.7655 Z" stroke="#518737" stroke-linecap="round" stroke-linejoin="round" stroke-width=".25"/>
      </g>
      <g id="Graphic_10007">
        <path d="M -466.55317 -3621.3597 C -470.14675 -3621.793 -472.1042 -3625.8844 -470.0896 -3628.9177 C -467.20736 -3633.2608 -460.63374 -3630.775 -461.0339 -3625.4868 C -461.1914 -3623.3934 -462.6903 -3622.2323 -463.06376 -3620.3397 C -463.93897 -3615.9077 -458.393 -3613.7787 -455.91344 -3617.4117 C -454.2278 -3619.8824 -455.996 -3623.3527 -458.96334 -3623.566 C -459.3457 -3623.593 -460.01893 -3623.3946 -460.13707 -3623.8913 C -460.27045 -3624.4515 -459.64675 -3624.486 -459.2593 -3624.4845 C -455.56793 -3624.4693 -453.16205 -3620.4807 -454.9112 -3617.235 C -457.3971 -3612.6203 -464.4852 -3614.518 -464.05075 -3619.894 C -463.8234 -3622.705 -461.1304 -3624.1708 -462.09836 -3627.2905 C -463.17554 -3630.7584 -467.66465 -3631.3224 -469.4519 -3628.1785 C -470.86445 -3625.694 -469.19405 -3622.5525 -466.3601 -3622.2616 C -466.56333 -3622.678 -466.98506 -3623.049 -467.20355 -3623.4454 C -467.47284 -3623.9332 -466.8936 -3624.4693 -466.4198 -3623.9497 C -465.90407 -3623.383 -465.4849 -3622.626 -464.95264 -3622.0558 C -464.82053 -3621.817 -464.88404 -3621.568 -465.0314 -3621.352 C -465.71607 -3620.957 -466.3982 -3620.1707 -467.0689 -3619.805 C -467.4538 -3619.5953 -467.93776 -3619.9395 -467.732 -3620.369 C -467.5897 -3620.666 -466.5608 -3621.2835 -466.55063 -3621.3597 Z" fill="#5c76a1"/>
      </g>
    </g>
  </g>
</svg>
