<?xml version="1.0" encoding="UTF-8" standalone="no"?>
<!DOCTYPE svg PUBLIC "-//W3C//DTD SVG 1.1//EN" "http://www.w3.org/Graphics/SVG/1.1/DTD/svg11.dtd">
<svg xmlns:dc="http://purl.org/dc/elements/1.1/" xmlns:xl="http://www.w3.org/1999/xlink" version="1.1" xmlns="http://www.w3.org/2000/svg" viewBox="-295.38244 -3635.113 25 25" width="25" height="25">
  <defs/>
  <g id="SOURCES" stroke-dasharray="none" stroke="none" stroke-opacity="1" fill="none" fill-opacity="1">
    <title>SOURCES</title>
    <g id="SOURCES_Calque_2">
      <title>Calque 2</title>
      <g id="Group_7143">
        <g id="Graphic_7145">
          <path d="M -274.72244 -3634.613 L -291.04244 -3634.613 C -293.1632 -3634.613 -294.88244 -3632.8936 -294.88244 -3630.773 L -294.88244 -3614.4528 C -294.88244 -3612.332 -293.1632 -3610.6128 -291.04244 -3610.6128 L -274.72244 -3610.6128 C -272.60166 -3610.6128 -270.88244 -3612.332 -270.88244 -3614.4528 L -270.88244 -3630.773 C -270.88244 -3632.8936 -272.60166 -3634.613 -274.72244 -3634.613 Z" fill="white"/>
          <path d="M -274.72244 -3634.613 L -291.04244 -3634.613 C -293.1632 -3634.613 -294.88244 -3632.8936 -294.88244 -3630.773 L -294.88244 -3614.4528 C -294.88244 -3612.332 -293.1632 -3610.6128 -291.04244 -3610.6128 L -274.72244 -3610.6128 C -272.60166 -3610.6128 -270.88244 -3612.332 -270.88244 -3614.4528 L -270.88244 -3630.773 C -270.88244 -3632.8936 -272.60166 -3634.613 -274.72244 -3634.613 Z" stroke="black" stroke-linecap="round" stroke-linejoin="round" stroke-width=".25"/>
        </g>
        <g id="Graphic_7144">
          <rect x="-294.88244" y="-3634.613" width="24" height="24" stroke="gray" stroke-opacity="0" stroke-linecap="round" stroke-linejoin="round" stroke-width=".25"/>
        </g>
      </g>
      <g id="Graphic_7140">
        <path d="M -285.82045 -3615.985 L -288.39186 -3615.985 L -288.39186 -3613.4137 L -289.249 -3613.4137 L -289.249 -3615.985 L -291.8204 -3615.985 L -291.8204 -3616.8422 L -289.249 -3616.8422 L -289.249 -3619.4137 L -288.39186 -3619.4137 L -288.39186 -3616.8422 L -285.82045 -3616.8422 L -285.82045 -3615.985 Z" fill="#cf7837"/>
        <path d="M -285.82045 -3615.985 L -288.39186 -3615.985 L -288.39186 -3613.4137 L -289.249 -3613.4137 L -289.249 -3615.985 L -291.8204 -3615.985 L -291.8204 -3616.8422 L -289.249 -3616.8422 L -289.249 -3619.4137 L -288.39186 -3619.4137 L -288.39186 -3616.8422 L -285.82045 -3616.8422 L -285.82045 -3615.985 Z" stroke="#cf7839" stroke-linecap="round" stroke-linejoin="round" stroke-width=".25"/>
      </g>
      <g id="Graphic_10012">
        <path d="M -286.394 -3621.3597 C -289.98758 -3621.793 -291.94506 -3625.8844 -289.9304 -3628.9177 C -287.0482 -3633.2608 -280.47457 -3630.775 -280.8747 -3625.4868 C -281.03222 -3623.3934 -282.53113 -3622.2323 -282.9046 -3620.3397 C -283.7798 -3615.9077 -278.23383 -3613.7787 -275.75427 -3617.4117 C -274.06863 -3619.8824 -275.83684 -3623.3527 -278.80417 -3623.566 C -279.18652 -3623.593 -279.85976 -3623.3946 -279.9779 -3623.8913 C -280.11128 -3624.4515 -279.48758 -3624.486 -279.10015 -3624.4845 C -275.40876 -3624.4693 -273.00288 -3620.4807 -274.75203 -3617.235 C -277.23794 -3612.6203 -284.326 -3614.518 -283.89158 -3619.894 C -283.6642 -3622.705 -280.97124 -3624.1708 -281.9392 -3627.2905 C -283.01637 -3630.7584 -287.50548 -3631.3224 -289.29274 -3628.1785 C -290.70528 -3625.694 -289.03488 -3622.5525 -286.20092 -3622.2616 C -286.40416 -3622.678 -286.8259 -3623.049 -287.04438 -3623.4454 C -287.31367 -3623.9332 -286.73443 -3624.4693 -286.26062 -3623.9497 C -285.7449 -3623.383 -285.3257 -3622.626 -284.79347 -3622.0558 C -284.66136 -3621.817 -284.72487 -3621.568 -284.87223 -3621.352 C -285.5569 -3620.957 -286.23903 -3620.1707 -286.90973 -3619.805 C -287.29462 -3619.5953 -287.7786 -3619.9395 -287.5728 -3620.369 C -287.43054 -3620.666 -286.40162 -3621.2835 -286.39146 -3621.3597 Z" fill="#5c76a1"/>
      </g>
      <g id="Graphic_10014">
        <path d="M -275.9058 -3631.3978 C -275.9058 -3632.027 -276.31394 -3632.537 -276.8174 -3632.537 L -279.856 -3632.537 C -280.35948 -3632.537 -280.7676 -3632.027 -280.7676 -3631.3978 L -280.7676 -3629.119 C -280.7676 -3628.4896 -280.35948 -3627.9795 -279.856 -3627.9795 L -276.8174 -3627.9795 C -276.31394 -3627.9795 -275.9058 -3628.4896 -275.9058 -3629.119 Z" fill="white"/>
        <path d="M -275.9058 -3631.3978 C -275.9058 -3632.027 -276.31394 -3632.537 -276.8174 -3632.537 L -279.856 -3632.537 C -280.35948 -3632.537 -280.7676 -3632.027 -280.7676 -3631.3978 L -280.7676 -3629.119 C -280.7676 -3628.4896 -280.35948 -3627.9795 -279.856 -3627.9795 L -276.8174 -3627.9795 C -276.31394 -3627.9795 -275.9058 -3628.4896 -275.9058 -3629.119 Z" stroke="#528636" stroke-linecap="butt" stroke-linejoin="round" stroke-width=".5"/>
      </g>
      <g id="Graphic_7138">
        <path d="M -273.61113 -3629.1838 C -273.61113 -3629.813 -274.01926 -3630.323 -274.5227 -3630.323 L -277.56133 -3630.323 C -278.0648 -3630.323 -278.4729 -3629.813 -278.4729 -3629.1838 L -278.4729 -3626.905 C -278.4729 -3626.2756 -278.0648 -3625.7655 -277.56133 -3625.7655 L -274.5227 -3625.7655 C -274.01926 -3625.7655 -273.61113 -3626.2756 -273.61113 -3626.905 Z" fill="white"/>
        <path d="M -273.61113 -3629.1838 C -273.61113 -3629.813 -274.01926 -3630.323 -274.5227 -3630.323 L -277.56133 -3630.323 C -278.0648 -3630.323 -278.4729 -3629.813 -278.4729 -3629.1838 L -278.4729 -3626.905 C -278.4729 -3626.2756 -278.0648 -3625.7655 -277.56133 -3625.7655 L -274.5227 -3625.7655 C -274.01926 -3625.7655 -273.61113 -3626.2756 -273.61113 -3626.905 Z" stroke="#528636" stroke-linecap="butt" stroke-linejoin="round" stroke-width=".5"/>
      </g>
    </g>
  </g>
</svg>
