<?xml version="1.0" encoding="UTF-8" standalone="no"?>
<!DOCTYPE svg PUBLIC "-//W3C//DTD SVG 1.1//EN" "http://www.w3.org/Graphics/SVG/1.1/DTD/svg11.dtd">
<svg xmlns:xl="http://www.w3.org/1999/xlink" xmlns="http://www.w3.org/2000/svg" xmlns:dc="http://purl.org/dc/elements/1.1/" version="1.1" viewBox="-8.867006 -3851.055 25 25" width="25" height="25">
  <defs/>
  <g id="SOURCES" fill-opacity="1" stroke-opacity="1" stroke="none" stroke-dasharray="none" fill="none">
    <title>SOURCES</title>
    <g id="SOURCES_Calque_1">
      <title>Calque 1</title>
      <g id="Graphic_4887">
        <path d="M 11.792994 -3850.555 L -4.5270066 -3850.555 C -6.64778 -3850.555 -8.367006 -3848.836 -8.367006 -3846.715 L -8.367006 -3830.395 C -8.367006 -3828.2744 -6.64778 -3826.555 -4.5270066 -3826.555 L 11.792994 -3826.555 C 13.913767 -3826.555 15.632994 -3828.2744 15.632994 -3830.395 L 15.632994 -3846.715 C 15.632994 -3848.836 13.913767 -3850.555 11.792994 -3850.555 Z" fill="white"/>
        <path d="M 11.792994 -3850.555 L -4.5270066 -3850.555 C -6.64778 -3850.555 -8.367006 -3848.836 -8.367006 -3846.715 L -8.367006 -3830.395 C -8.367006 -3828.2744 -6.64778 -3826.555 -4.5270066 -3826.555 L 11.792994 -3826.555 C 13.913767 -3826.555 15.632994 -3828.2744 15.632994 -3830.395 L 15.632994 -3846.715 C 15.632994 -3848.836 13.913767 -3850.555 11.792994 -3850.555 Z" stroke="black" stroke-linecap="round" stroke-linejoin="round" stroke-width=".25"/>
      </g>
      <g id="Graphic_4886">
        <rect x="-8.367006" y="-3850.555" width="24" height="24" stroke="gray" stroke-opacity="0" stroke-linecap="round" stroke-linejoin="round" stroke-width=".25"/>
      </g>
      <g id="Graphic_4884">
        <path d="M 11.161465 -3831.9836 C 12.239884 -3833.33 12.507984 -3835.0283 11.90917 -3836.5446 C 11.267157 -3838.137 9.77015 -3839.1424 8.024399 -3839.184 L 5.24937 -3839.2393 L 5.276197 -3837.836 L 7.865032 -3837.8033 C 9.096889 -3837.784 10.154476 -3837.054 10.616248 -3835.937 C 11.034823 -3834.8957 10.838215 -3833.716 10.108346 -3832.8074 C 10.008547 -3832.678 9.893853 -3832.563 9.779159 -3832.4484 C 9.664465 -3832.3337 9.534876 -3832.234 9.420182 -3832.119 C 8.49518 -3831.373 7.331845 -3831.1927 6.290646 -3831.6113 C 5.1734796 -3832.073 4.473381 -3833.101 4.421234 -3834.3 C 4.422723 -3834.3312 4.422723 -3834.3312 4.4242123 -3834.3625 L 4.2647473 -3842.1573 L 4.2558015 -3842.9527 C 4.2140755 -3844.6985 3.22351 -3846.1806 1.6162802 -3846.8375 C .11480913 -3847.4214 -1.5981689 -3847.168 -2.9298135 -3846.075 C -3.1234533 -3845.941 -3.270917 -3845.7934 -3.4347656 -3845.6295 C -3.5822293 -3845.482 -3.746078 -3845.3182 -3.8637503 -3845.141 C -4.942169 -3843.7944 -5.2266544 -3842.08 -4.611455 -3840.58 C -3.9694425 -3838.9877 -2.4724356 -3837.982 -.7266844 -3837.9405 L .068734545 -3837.9315 L .013633621 -3836.774 L 2.2106973 -3838.6733 L .17297603 -3840.449 L .11936432 -3839.3228 L -.5822131 -3839.336 C -1.8140699 -3839.3555 -2.8567614 -3840.0705 -3.333429 -3841.2026 C -3.7520033 -3842.244 -3.5717803 -3843.407 -2.8255265 -3844.332 C -2.7108324 -3844.447 -2.611034 -3844.5764 -2.49634 -3844.691 C -2.381646 -3844.806 -2.2356716 -3844.922 -2.1373624 -3845.0203 C -1.2287457 -3845.75 -.049025437 -3845.947 .9921734 -3845.528 C 1.374989 -3845.375 1.7071608 -3845.141 1.9752824 -3844.873 C 2.5115255 -3844.3366 2.8347655 -3843.5873 2.8437113 -3842.792 L 2.852657 -3841.9965 L 2.9972265 -3834.2166 L 3.010633 -3834.1704 C 3.018093 -3833.016 3.4679477 -3831.9763 4.2276255 -3831.2166 C 4.614912 -3830.8293 5.099019 -3830.509 5.6352586 -3830.3005 C 7.13524 -3829.6853 8.849708 -3829.97 10.196248 -3831.048 C 10.358607 -3831.181 10.537351 -3831.3297 10.684815 -3831.477 C 10.879944 -3831.6425 11.012512 -3831.805 11.161465 -3831.9836 Z" fill="#9da8b5"/>
        <path d="M 11.161465 -3831.9836 C 12.239884 -3833.33 12.507984 -3835.0283 11.90917 -3836.5446 C 11.267157 -3838.137 9.77015 -3839.1424 8.024399 -3839.184 L 5.24937 -3839.2393 L 5.276197 -3837.836 L 7.865032 -3837.8033 C 9.096889 -3837.784 10.154476 -3837.054 10.616248 -3835.937 C 11.034823 -3834.8957 10.838215 -3833.716 10.108346 -3832.8074 C 10.008547 -3832.678 9.893853 -3832.563 9.779159 -3832.4484 C 9.664465 -3832.3337 9.534876 -3832.234 9.420182 -3832.119 C 8.49518 -3831.373 7.331845 -3831.1927 6.290646 -3831.6113 C 5.1734796 -3832.073 4.473381 -3833.101 4.421234 -3834.3 C 4.422723 -3834.3312 4.422723 -3834.3312 4.4242123 -3834.3625 L 4.2647473 -3842.1573 L 4.2558015 -3842.9527 C 4.2140755 -3844.6985 3.22351 -3846.1806 1.6162802 -3846.8375 C .11480913 -3847.4214 -1.5981689 -3847.168 -2.9298135 -3846.075 C -3.1234533 -3845.941 -3.270917 -3845.7934 -3.4347656 -3845.6295 C -3.5822293 -3845.482 -3.746078 -3845.3182 -3.8637503 -3845.141 C -4.942169 -3843.7944 -5.2266544 -3842.08 -4.611455 -3840.58 C -3.9694425 -3838.9877 -2.4724356 -3837.982 -.7266844 -3837.9405 L .068734545 -3837.9315 L .013633621 -3836.774 L 2.2106973 -3838.6733 L .17297603 -3840.449 L .11936432 -3839.3228 L -.5822131 -3839.336 C -1.8140699 -3839.3555 -2.8567614 -3840.0705 -3.333429 -3841.2026 C -3.7520033 -3842.244 -3.5717803 -3843.407 -2.8255265 -3844.332 C -2.7108324 -3844.447 -2.611034 -3844.5764 -2.49634 -3844.691 C -2.381646 -3844.806 -2.2356716 -3844.922 -2.1373624 -3845.0203 C -1.2287457 -3845.75 -.049025437 -3845.947 .9921734 -3845.528 C 1.374989 -3845.375 1.7071608 -3845.141 1.9752824 -3844.873 C 2.5115255 -3844.3366 2.8347655 -3843.5873 2.8437113 -3842.792 L 2.852657 -3841.9965 L 2.9972265 -3834.2166 L 3.010633 -3834.1704 C 3.018093 -3833.016 3.4679477 -3831.9763 4.2276255 -3831.2166 C 4.614912 -3830.8293 5.099019 -3830.509 5.6352586 -3830.3005 C 7.13524 -3829.6853 8.849708 -3829.97 10.196248 -3831.048 C 10.358607 -3831.181 10.537351 -3831.3297 10.684815 -3831.477 C 10.879944 -3831.6425 11.012512 -3831.805 11.161465 -3831.9836 Z" stroke="#528637" stroke-linecap="butt" stroke-linejoin="round" stroke-width="0"/>
      </g>
      <g id="Graphic_4889">
        <path d="M 11.651683 -3842.2697 L 9.833421 -3844.088 L 8.015158 -3842.2697 L 7.409071 -3842.8757 L 9.227333 -3844.694 L 7.409071 -3846.5123 L 8.015158 -3847.1184 L 9.833421 -3845.3 L 11.651683 -3847.1184 L 12.257771 -3846.5123 L 10.439508 -3844.694 L 12.257771 -3842.8757 L 11.651683 -3842.2697 Z" fill="#cf7837"/>
        <path d="M 11.651683 -3842.2697 L 9.833421 -3844.088 L 8.015158 -3842.2697 L 7.409071 -3842.8757 L 9.227333 -3844.694 L 7.409071 -3846.5123 L 8.015158 -3847.1184 L 9.833421 -3845.3 L 11.651683 -3847.1184 L 12.257771 -3846.5123 L 10.439508 -3844.694 L 12.257771 -3842.8757 L 11.651683 -3842.2697 Z" stroke="#9f4c4b" stroke-linecap="round" stroke-linejoin="round" stroke-width="1"/>
      </g>
    </g>
  </g>
</svg>
