<?xml version="1.0" encoding="UTF-8" standalone="no"?>
<!DOCTYPE svg PUBLIC "-//W3C//DTD SVG 1.1//EN" "http://www.w3.org/Graphics/SVG/1.1/DTD/svg11.dtd">
<svg xmlns:dc="http://purl.org/dc/elements/1.1/" xmlns:xl="http://www.w3.org/1999/xlink" version="1.1" xmlns="http://www.w3.org/2000/svg" viewBox="-259.38244 -3635.113 25 25" width="25" height="25">
  <defs/>
  <g id="SOURCES" stroke-dasharray="none" stroke="none" stroke-opacity="1" fill="none" fill-opacity="1">
    <title>SOURCES</title>
    <g id="SOURCES_Calque_2">
      <title>Calque 2</title>
      <g id="Graphic_7137">
        <path d="M -238.72244 -3634.613 L -255.04244 -3634.613 C -257.1632 -3634.613 -258.88244 -3632.8936 -258.88244 -3630.773 L -258.88244 -3614.4528 C -258.88244 -3612.332 -257.1632 -3610.6128 -255.04244 -3610.6128 L -238.72244 -3610.6128 C -236.60166 -3610.6128 -234.88244 -3612.332 -234.88244 -3614.4528 L -234.88244 -3630.773 C -234.88244 -3632.8936 -236.60166 -3634.613 -238.72244 -3634.613 Z" fill="white"/>
        <path d="M -238.72244 -3634.613 L -255.04244 -3634.613 C -257.1632 -3634.613 -258.88244 -3632.8936 -258.88244 -3630.773 L -258.88244 -3614.4528 C -258.88244 -3612.332 -257.1632 -3610.6128 -255.04244 -3610.6128 L -238.72244 -3610.6128 C -236.60166 -3610.6128 -234.88244 -3612.332 -234.88244 -3614.4528 L -234.88244 -3630.773 C -234.88244 -3632.8936 -236.60166 -3634.613 -238.72244 -3634.613 Z" stroke="black" stroke-linecap="round" stroke-linejoin="round" stroke-width=".25"/>
      </g>
      <g id="Graphic_7136">
        <rect x="-258.88244" y="-3634.613" width="24" height="24" stroke="gray" stroke-opacity="0" stroke-linecap="round" stroke-linejoin="round" stroke-width=".25"/>
      </g>
      <g id="Graphic_7134">
        <path d="M -238.86375 -3626.3273 L -240.682 -3628.1455 L -242.50027 -3626.3273 L -243.10636 -3626.9334 L -241.2881 -3628.7516 L -243.10636 -3630.57 L -242.50027 -3631.176 L -240.682 -3629.3577 L -238.86375 -3631.176 L -238.25766 -3630.57 L -240.07592 -3628.7516 L -238.25766 -3626.9334 L -238.86375 -3626.3273 Z" fill="#cf7837"/>
        <path d="M -238.86375 -3626.3273 L -240.682 -3628.1455 L -242.50027 -3626.3273 L -243.10636 -3626.9334 L -241.2881 -3628.7516 L -243.10636 -3630.57 L -242.50027 -3631.176 L -240.682 -3629.3577 L -238.86375 -3631.176 L -238.25766 -3630.57 L -240.07592 -3628.7516 L -238.25766 -3626.9334 L -238.86375 -3626.3273 Z" stroke="#9f4c4b" stroke-linecap="round" stroke-linejoin="round" stroke-width=".25"/>
      </g>
      <g id="Graphic_10013">
        <path d="M -250.55317 -3621.3597 C -254.14675 -3621.793 -256.10422 -3625.8844 -254.0896 -3628.9177 C -251.20736 -3633.2608 -244.63374 -3630.775 -245.03387 -3625.4868 C -245.1914 -3623.3934 -246.6903 -3622.2323 -247.06376 -3620.3397 C -247.93897 -3615.9077 -242.393 -3613.7787 -239.91344 -3617.4117 C -238.2278 -3619.8824 -239.996 -3623.3527 -242.96334 -3623.566 C -243.3457 -3623.593 -244.01893 -3623.3946 -244.13707 -3623.8913 C -244.27045 -3624.4515 -243.64675 -3624.486 -243.25932 -3624.4845 C -239.56793 -3624.4693 -237.16205 -3620.4807 -238.9112 -3617.235 C -241.3971 -3612.6203 -248.48518 -3614.518 -248.05075 -3619.894 C -247.82337 -3622.705 -245.1304 -3624.1708 -246.09836 -3627.2905 C -247.17554 -3630.7584 -251.66465 -3631.3224 -253.4519 -3628.1785 C -254.86445 -3625.694 -253.19405 -3622.5525 -250.3601 -3622.2616 C -250.56333 -3622.678 -250.98506 -3623.049 -251.20355 -3623.4454 C -251.47284 -3623.9332 -250.8936 -3624.4693 -250.4198 -3623.9497 C -249.90407 -3623.383 -249.48488 -3622.626 -248.95264 -3622.0558 C -248.82053 -3621.817 -248.88404 -3621.568 -249.0314 -3621.352 C -249.71607 -3620.957 -250.3982 -3620.1707 -251.0689 -3619.805 C -251.4538 -3619.5953 -251.93776 -3619.9395 -251.73198 -3620.369 C -251.5897 -3620.666 -250.5608 -3621.2835 -250.55063 -3621.3597 Z" fill="#5c76a1"/>
      </g>
    </g>
  </g>
</svg>
