<svg xmlns="http://www.w3.org/2000/svg" xmlns:xl="http://www.w3.org/1999/xlink" width="25" height="25" version="1.1" viewBox="-137.864 -3851.041 25 25"><g id="SOURCES" fill="none" fill-opacity="1" stroke="none" stroke-dasharray="none" stroke-opacity="1"><title>SOURCES</title><g id="SOURCES_Calque_1"><title>Calque 1</title><g id="Group_6151"><g id="Graphic_6153"><path fill="#fff" d="M -117.20418 -3850.5413 L -133.52418 -3850.5413 C -135.64495 -3850.5413 -137.36418 -3848.822 -137.36418 -3846.7013 L -137.36418 -3830.3813 C -137.36418 -3828.2605 -135.64495 -3826.5413 -133.52418 -3826.5413 L -117.20418 -3826.5413 C -115.0834 -3826.5413 -113.36418 -3828.2605 -113.36418 -3830.3813 L -113.36418 -3846.7013 C -113.36418 -3848.822 -115.0834 -3850.5413 -117.20418 -3850.5413 Z"/><path stroke="#000" stroke-linecap="round" stroke-linejoin="round" stroke-width=".25" d="M -117.20418 -3850.5413 L -133.52418 -3850.5413 C -135.64495 -3850.5413 -137.36418 -3848.822 -137.36418 -3846.7013 L -137.36418 -3830.3813 C -137.36418 -3828.2605 -135.64495 -3826.5413 -133.52418 -3826.5413 L -117.20418 -3826.5413 C -115.0834 -3826.5413 -113.36418 -3828.2605 -113.36418 -3830.3813 L -113.36418 -3846.7013 C -113.36418 -3848.822 -115.0834 -3850.5413 -117.20418 -3850.5413 Z"/></g><g id="Graphic_6152"><rect width="24" height="24" x="-137.364" y="-3850.541" stroke="gray" stroke-linecap="round" stroke-linejoin="round" stroke-opacity="0" stroke-width=".25"/></g></g><g id="Group_6154"><g id="Graphic_6155"><path fill="#9da8b5" d="M -117.8357 -3831.97 C -116.75729 -3833.3163 -116.48919 -3835.0144 -117.088 -3836.531 C -117.73001 -3838.123 -119.22702 -3839.1286 -120.97277 -3839.1703 L -123.7478 -3839.2254 L -123.72097 -3837.8223 L -121.13214 -3837.7895 C -119.90028 -3837.77 -118.8427 -3837.04 -118.38092 -3835.923 C -117.96235 -3834.882 -118.15896 -3833.702 -118.88883 -3832.7935 C -118.98862 -3832.664 -119.10332 -3832.5492 -119.21801 -3832.4345 C -119.3327 -3832.32 -119.4623 -3832.22 -119.57699 -3832.1054 C -120.50199 -3831.359 -121.66533 -3831.179 -122.70653 -3831.5975 C -123.82369 -3832.059 -124.52379 -3833.087 -124.57594 -3834.286 C -124.57445 -3834.3174 -124.57445 -3834.3174 -124.57296 -3834.3487 L -124.73242 -3842.1435 L -124.74137 -3842.939 C -124.7831 -3844.6846 -125.77366 -3846.1668 -127.38089 -3846.8237 C -128.88236 -3847.4076 -130.59534 -3847.1544 -131.92699 -3846.061 C -132.12063 -3845.927 -132.26809 -3845.7795 -132.43194 -3845.6157 C -132.5794 -3845.4682 -132.74325 -3845.3044 -132.86092 -3845.127 C -133.93934 -3843.7806 -134.22383 -3842.066 -133.60863 -3840.566 C -132.96661 -3838.974 -131.4696 -3837.9683 -129.72386 -3837.9266 L -128.92844 -3837.9177 L -128.98354 -3836.7603 L -126.78647 -3838.6594 L -128.8242 -3840.435 L -128.8778 -3839.309 L -129.57938 -3839.3223 C -130.81124 -3839.3417 -131.85393 -3840.0567 -132.3306 -3841.1888 C -132.74917 -3842.23 -132.56895 -3843.3933 -131.8227 -3844.3183 C -131.708 -3844.433 -131.6082 -3844.5626 -131.49351 -3844.6773 C -131.37882 -3844.792 -131.23284 -3844.908 -131.13453 -3845.0065 C -130.22592 -3845.7363 -129.0462 -3845.933 -128.005 -3845.5144 C -127.62218 -3845.361 -127.29001 -3845.127 -127.02189 -3844.859 C -126.48565 -3844.3227 -126.1624 -3843.5735 -126.15346 -3842.778 L -126.14451 -3841.9826 L -125.99995 -3834.2027 L -125.98654 -3834.1565 C -125.97908 -3833.002 -125.52922 -3831.9624 -124.76955 -3831.2027 C -124.38226 -3830.8155 -123.89815 -3830.495 -123.36191 -3830.2867 C -121.86193 -3829.6715 -120.14746 -3829.956 -118.80092 -3831.0344 C -118.63856 -3831.167 -118.45982 -3831.316 -118.31236 -3831.4633 C -118.11723 -3831.6287 -117.98466 -3831.791 -117.8357 -3831.97 Z"/><path stroke="#528637" stroke-linecap="butt" stroke-linejoin="round" stroke-width="0" d="M -117.8357 -3831.97 C -116.75729 -3833.3163 -116.48919 -3835.0144 -117.088 -3836.531 C -117.73001 -3838.123 -119.22702 -3839.1286 -120.97277 -3839.1703 L -123.7478 -3839.2254 L -123.72097 -3837.8223 L -121.13214 -3837.7895 C -119.90028 -3837.77 -118.8427 -3837.04 -118.38092 -3835.923 C -117.96235 -3834.882 -118.15896 -3833.702 -118.88883 -3832.7935 C -118.98862 -3832.664 -119.10332 -3832.5492 -119.21801 -3832.4345 C -119.3327 -3832.32 -119.4623 -3832.22 -119.57699 -3832.1054 C -120.50199 -3831.359 -121.66533 -3831.179 -122.70653 -3831.5975 C -123.82369 -3832.059 -124.52379 -3833.087 -124.57594 -3834.286 C -124.57445 -3834.3174 -124.57445 -3834.3174 -124.57296 -3834.3487 L -124.73242 -3842.1435 L -124.74137 -3842.939 C -124.7831 -3844.6846 -125.77366 -3846.1668 -127.38089 -3846.8237 C -128.88236 -3847.4076 -130.59534 -3847.1544 -131.92699 -3846.061 C -132.12063 -3845.927 -132.26809 -3845.7795 -132.43194 -3845.6157 C -132.5794 -3845.4682 -132.74325 -3845.3044 -132.86092 -3845.127 C -133.93934 -3843.7806 -134.22383 -3842.066 -133.60863 -3840.566 C -132.96661 -3838.974 -131.4696 -3837.9683 -129.72386 -3837.9266 L -128.92844 -3837.9177 L -128.98354 -3836.7603 L -126.78647 -3838.6594 L -128.8242 -3840.435 L -128.8778 -3839.309 L -129.57938 -3839.3223 C -130.81124 -3839.3417 -131.85393 -3840.0567 -132.3306 -3841.1888 C -132.74917 -3842.23 -132.56895 -3843.3933 -131.8227 -3844.3183 C -131.708 -3844.433 -131.6082 -3844.5626 -131.49351 -3844.6773 C -131.37882 -3844.792 -131.23284 -3844.908 -131.13453 -3845.0065 C -130.22592 -3845.7363 -129.0462 -3845.933 -128.005 -3845.5144 C -127.62218 -3845.361 -127.29001 -3845.127 -127.02189 -3844.859 C -126.48565 -3844.3227 -126.1624 -3843.5735 -126.15346 -3842.778 L -126.14451 -3841.9826 L -125.99995 -3834.2027 L -125.98654 -3834.1565 C -125.97908 -3833.002 -125.52922 -3831.9624 -124.76955 -3831.2027 C -124.38226 -3830.8155 -123.89815 -3830.495 -123.36191 -3830.2867 C -121.86193 -3829.6715 -120.14746 -3829.956 -118.80092 -3831.0344 C -118.63856 -3831.167 -118.45982 -3831.316 -118.31236 -3831.4633 C -118.11723 -3831.6287 -117.98466 -3831.791 -117.8357 -3831.97 Z"/></g></g><g id="Graphic_4858"><path fill="#528636" d="M -119.36586 -3847.694 L -119.36586 -3843.5417 L -121.4527 -3845.7925 L -122.08603 -3845.1094 L -118.91936 -3841.694 L -115.7527 -3845.1094 L -116.38603 -3845.7925 L -118.47286 -3843.5417 L -118.47286 -3847.694 Z"/><path stroke="#528636" stroke-linecap="round" stroke-linejoin="round" stroke-width=".5" d="M -119.36586 -3847.694 L -119.36586 -3843.5417 L -121.4527 -3845.7925 L -122.08603 -3845.1094 L -118.91936 -3841.694 L -115.7527 -3845.1094 L -116.38603 -3845.7925 L -118.47286 -3843.5417 L -118.47286 -3847.694 Z"/></g><g id="Graphic_6160"><path fill="#5c76a2" d="M -127.96882 -3834.31 L -129.42549 -3835.533 L -129.83399 -3835.0484 L -128.37732 -3833.825 L -127.96882 -3834.31 Z M -132.44015 -3835.0484 L -132.84549 -3835.533 L -134.30215 -3834.313 L -133.89365 -3833.8284 L -132.44015 -3835.0484 Z M -130.97715 -3833.5876 L -131.45215 -3833.5876 L -131.45215 -3831.6863 L -129.94799 -3830.783 L -129.71049 -3831.173 L -130.97715 -3831.924 L -130.97715 -3833.5876 Z M -131.13549 -3834.855 C -132.70932 -3834.855 -133.98549 -3833.578 -133.98549 -3832.003 C -133.98549 -3830.428 -132.71249 -3829.151 -131.13549 -3829.151 C -129.56165 -3829.151 -128.28549 -3830.428 -128.28549 -3832.003 C -128.28549 -3833.578 -129.56165 -3834.855 -131.13549 -3834.855 Z M -131.13549 -3829.785 C -132.36099 -3829.785 -133.35215 -3830.777 -133.35215 -3832.003 C -133.35215 -3833.2295 -132.36099 -3834.2213 -131.13549 -3834.2213 C -129.90999 -3834.2213 -128.91882 -3833.2295 -128.91882 -3832.003 C -128.91882 -3830.777 -129.90999 -3829.785 -131.13549 -3829.785 Z"/><path stroke="#5c76a2" stroke-linecap="round" stroke-linejoin="round" stroke-width=".195" d="M -127.96882 -3834.31 L -129.42549 -3835.533 L -129.83399 -3835.0484 L -128.37732 -3833.825 L -127.96882 -3834.31 Z M -132.44015 -3835.0484 L -132.84549 -3835.533 L -134.30215 -3834.313 L -133.89365 -3833.8284 L -132.44015 -3835.0484 Z M -130.97715 -3833.5876 L -131.45215 -3833.5876 L -131.45215 -3831.6863 L -129.94799 -3830.783 L -129.71049 -3831.173 L -130.97715 -3831.924 L -130.97715 -3833.5876 Z M -131.13549 -3834.855 C -132.70932 -3834.855 -133.98549 -3833.578 -133.98549 -3832.003 C -133.98549 -3830.428 -132.71249 -3829.151 -131.13549 -3829.151 C -129.56165 -3829.151 -128.28549 -3830.428 -128.28549 -3832.003 C -128.28549 -3833.578 -129.56165 -3834.855 -131.13549 -3834.855 Z M -131.13549 -3829.785 C -132.36099 -3829.785 -133.35215 -3830.777 -133.35215 -3832.003 C -133.35215 -3833.2295 -132.36099 -3834.2213 -131.13549 -3834.2213 C -129.90999 -3834.2213 -128.91882 -3833.2295 -128.91882 -3832.003 C -128.91882 -3830.777 -129.90999 -3829.785 -131.13549 -3829.785 Z"/></g></g></g></svg>