<?xml version="1.0" encoding="UTF-8" standalone="no"?>
<!DOCTYPE svg PUBLIC "-//W3C//DTD SVG 1.1//EN" "http://www.w3.org/Graphics/SVG/1.1/DTD/svg11.dtd">
<svg xmlns:dc="http://purl.org/dc/elements/1.1/" xmlns:xl="http://www.w3.org/1999/xlink" version="1.1" xmlns="http://www.w3.org/2000/svg" viewBox="-439.38244 -3635.113 25 25" width="25" height="25">
  <defs/>
  <g id="SOURCES" stroke-dasharray="none" stroke="none" stroke-opacity="1" fill="none" fill-opacity="1">
    <title>SOURCES</title>
    <g id="SOURCES_Calque_2">
      <title>Calque 2</title>
      <g id="Group_7160">
        <g id="Graphic_7162">
          <path d="M -418.72244 -3634.613 L -435.04244 -3634.613 C -437.1632 -3634.613 -438.88244 -3632.8936 -438.88244 -3630.773 L -438.88244 -3614.4528 C -438.88244 -3612.332 -437.1632 -3610.6128 -435.04244 -3610.6128 L -418.72244 -3610.6128 C -416.60166 -3610.6128 -414.88244 -3612.332 -414.88244 -3614.4528 L -414.88244 -3630.773 C -414.88244 -3632.8936 -416.60166 -3634.613 -418.72244 -3634.613 Z" fill="white"/>
          <path d="M -418.72244 -3634.613 L -435.04244 -3634.613 C -437.1632 -3634.613 -438.88244 -3632.8936 -438.88244 -3630.773 L -438.88244 -3614.4528 C -438.88244 -3612.332 -437.1632 -3610.6128 -435.04244 -3610.6128 L -418.72244 -3610.6128 C -416.60166 -3610.6128 -414.88244 -3612.332 -414.88244 -3614.4528 L -414.88244 -3630.773 C -414.88244 -3632.8936 -416.60166 -3634.613 -418.72244 -3634.613 Z" stroke="black" stroke-linecap="round" stroke-linejoin="round" stroke-width=".25"/>
        </g>
        <g id="Graphic_7161">
          <rect x="-438.88244" y="-3634.613" width="24" height="24" stroke="gray" stroke-opacity="0" stroke-linecap="round" stroke-linejoin="round" stroke-width=".25"/>
        </g>
      </g>
      <g id="Graphic_7157">
        <path d="M -420.49796 -3625.7655 L -420.49796 -3629.9178 L -418.41113 -3627.667 L -417.7778 -3628.35 L -420.94446 -3631.7655 L -424.11113 -3628.35 L -423.4778 -3627.667 L -421.39096 -3629.9178 L -421.39096 -3625.7655 Z" fill="#5c76a2"/>
        <path d="M -420.49796 -3625.7655 L -420.49796 -3629.9178 L -418.41113 -3627.667 L -417.7778 -3628.35 L -420.94446 -3631.7655 L -424.11113 -3628.35 L -423.4778 -3627.667 L -421.39096 -3629.9178 L -421.39096 -3625.7655 Z" stroke="#5a77a1" stroke-linecap="round" stroke-linejoin="round" stroke-width=".25"/>
      </g>
      <g id="Graphic_10008">
        <path d="M -430.55317 -3621.3597 C -434.14675 -3621.793 -436.1042 -3625.8844 -434.0896 -3628.9177 C -431.20736 -3633.2608 -424.63374 -3630.775 -425.03387 -3625.4868 C -425.1914 -3623.3934 -426.6903 -3622.2323 -427.06376 -3620.3397 C -427.93897 -3615.9077 -422.393 -3613.7787 -419.91344 -3617.4117 C -418.2278 -3619.8824 -419.996 -3623.3527 -422.96334 -3623.566 C -423.3457 -3623.593 -424.01893 -3623.3946 -424.13707 -3623.8913 C -424.27045 -3624.4515 -423.64675 -3624.486 -423.2593 -3624.4845 C -419.56793 -3624.4693 -417.16205 -3620.4807 -418.9112 -3617.235 C -421.3971 -3612.6203 -428.4852 -3614.518 -428.05075 -3619.894 C -427.82337 -3622.705 -425.1304 -3624.1708 -426.09836 -3627.2905 C -427.17554 -3630.7584 -431.66465 -3631.3224 -433.4519 -3628.1785 C -434.86445 -3625.694 -433.19405 -3622.5525 -430.3601 -3622.2616 C -430.56333 -3622.678 -430.98506 -3623.049 -431.20355 -3623.4454 C -431.47284 -3623.9332 -430.8936 -3624.4693 -430.4198 -3623.9497 C -429.90407 -3623.383 -429.4849 -3622.626 -428.95264 -3622.0558 C -428.82053 -3621.817 -428.88404 -3621.568 -429.0314 -3621.352 C -429.71607 -3620.957 -430.3982 -3620.1707 -431.0689 -3619.805 C -431.4538 -3619.5953 -431.93776 -3619.9395 -431.732 -3620.369 C -431.5897 -3620.666 -430.5608 -3621.2835 -430.55063 -3621.3597 Z" fill="#5c76a1"/>
      </g>
    </g>
  </g>
</svg>
