<?xml version="1.0" encoding="UTF-8" standalone="no"?>
<!DOCTYPE svg PUBLIC "-//W3C//DTD SVG 1.1//EN" "http://www.w3.org/Graphics/SVG/1.1/DTD/svg11.dtd">
<svg xmlns="http://www.w3.org/2000/svg" xmlns:xl="http://www.w3.org/1999/xlink" version="1.1" xmlns:dc="http://purl.org/dc/elements/1.1/" viewBox="-108.70903 -3851.0413 25 25" width="25" height="25">
  <defs/>
  <g id="SOURCES" stroke-dasharray="none" stroke-opacity="1" fill-opacity="1" fill="none" stroke="none">
    <title>SOURCES</title>
    <g id="SOURCES_Calque_1">
      <title>Calque 1</title>
      <g id="Group_6161">
        <g id="Group_4864">
          <g id="Graphic_4846">
            <path d="M -88.04903 -3850.5413 L -104.36903 -3850.5413 C -106.4898 -3850.5413 -108.20903 -3848.822 -108.20903 -3846.7013 L -108.20903 -3830.3813 C -108.20903 -3828.2605 -106.4898 -3826.5413 -104.36903 -3826.5413 L -88.04903 -3826.5413 C -85.92825 -3826.5413 -84.20903 -3828.2605 -84.20903 -3830.3813 L -84.20903 -3846.7013 C -84.20903 -3848.822 -85.92825 -3850.5413 -88.04903 -3850.5413 Z" fill="white"/>
            <path d="M -88.04903 -3850.5413 L -104.36903 -3850.5413 C -106.4898 -3850.5413 -108.20903 -3848.822 -108.20903 -3846.7013 L -108.20903 -3830.3813 C -108.20903 -3828.2605 -106.4898 -3826.5413 -104.36903 -3826.5413 L -88.04903 -3826.5413 C -85.92825 -3826.5413 -84.20903 -3828.2605 -84.20903 -3830.3813 L -84.20903 -3846.7013 C -84.20903 -3848.822 -85.92825 -3850.5413 -88.04903 -3850.5413 Z" stroke="black" stroke-linecap="round" stroke-linejoin="round" stroke-width=".25"/>
          </g>
          <g id="Graphic_4845">
            <rect x="-108.20903" y="-3850.5413" width="24" height="24" stroke="gray" stroke-opacity="0" stroke-linecap="round" stroke-linejoin="round" stroke-width=".25"/>
          </g>
        </g>
        <g id="Group_4843">
          <g id="Graphic_4844">
            <path d="M -88.68055 -3831.97 C -87.60214 -3833.3163 -87.33404 -3835.0144 -87.93285 -3836.531 C -88.57486 -3838.123 -90.07187 -3839.1286 -91.81762 -3839.1703 L -94.59265 -3839.2254 L -94.56582 -3837.8223 L -91.97699 -3837.7895 C -90.74513 -3837.77 -89.68754 -3837.04 -89.22577 -3835.923 C -88.8072 -3834.882 -89.00381 -3833.702 -89.73367 -3832.7935 C -89.83347 -3832.664 -89.94817 -3832.5492 -90.06286 -3832.4345 C -90.17755 -3832.32 -90.30714 -3832.22 -90.42184 -3832.1054 C -91.34684 -3831.359 -92.51018 -3831.179 -93.55137 -3831.5975 C -94.66854 -3832.059 -95.36864 -3833.087 -95.42079 -3834.286 C -95.4193 -3834.3174 -95.4193 -3834.3174 -95.41781 -3834.3487 L -95.57727 -3842.1435 L -95.58622 -3842.939 C -95.62794 -3844.6846 -96.61851 -3846.1668 -98.22574 -3846.8237 C -99.72721 -3847.4076 -101.44019 -3847.1544 -102.77183 -3846.061 C -102.96547 -3845.927 -103.11294 -3845.7795 -103.27679 -3845.6157 C -103.42425 -3845.4682 -103.5881 -3845.3044 -103.70577 -3845.127 C -104.78419 -3843.7806 -105.06867 -3842.066 -104.45348 -3840.566 C -103.81146 -3838.974 -102.31446 -3837.9683 -100.5687 -3837.9266 L -99.77329 -3837.9177 L -99.82839 -3836.7603 L -97.63132 -3838.6594 L -99.66904 -3840.435 L -99.72266 -3839.309 L -100.42423 -3839.3223 C -101.65609 -3839.3417 -102.69878 -3840.0567 -103.17545 -3841.1888 C -103.59402 -3842.23 -103.4138 -3843.3933 -102.66755 -3844.3183 C -102.55285 -3844.433 -102.45305 -3844.5626 -102.33836 -3844.6773 C -102.22367 -3844.792 -102.07769 -3844.908 -101.97938 -3845.0065 C -101.07077 -3845.7363 -99.89105 -3845.933 -98.84985 -3845.5144 C -98.46703 -3845.361 -98.13486 -3845.127 -97.86674 -3844.859 C -97.3305 -3844.3227 -97.00725 -3843.5735 -96.99831 -3842.778 L -96.98936 -3841.9826 L -96.84479 -3834.2027 L -96.83139 -3834.1565 C -96.82393 -3833.002 -96.37407 -3831.9624 -95.6144 -3831.2027 C -95.22711 -3830.8155 -94.743 -3830.495 -94.20676 -3830.2867 C -92.70678 -3829.6715 -90.99231 -3829.956 -89.64577 -3831.0344 C -89.48341 -3831.167 -89.30467 -3831.316 -89.1572 -3831.4633 C -88.96208 -3831.6287 -88.82951 -3831.791 -88.68055 -3831.97 Z" fill="#9da8b5"/>
            <path d="M -88.68055 -3831.97 C -87.60214 -3833.3163 -87.33404 -3835.0144 -87.93285 -3836.531 C -88.57486 -3838.123 -90.07187 -3839.1286 -91.81762 -3839.1703 L -94.59265 -3839.2254 L -94.56582 -3837.8223 L -91.97699 -3837.7895 C -90.74513 -3837.77 -89.68754 -3837.04 -89.22577 -3835.923 C -88.8072 -3834.882 -89.00381 -3833.702 -89.73367 -3832.7935 C -89.83347 -3832.664 -89.94817 -3832.5492 -90.06286 -3832.4345 C -90.17755 -3832.32 -90.30714 -3832.22 -90.42184 -3832.1054 C -91.34684 -3831.359 -92.51018 -3831.179 -93.55137 -3831.5975 C -94.66854 -3832.059 -95.36864 -3833.087 -95.42079 -3834.286 C -95.4193 -3834.3174 -95.4193 -3834.3174 -95.41781 -3834.3487 L -95.57727 -3842.1435 L -95.58622 -3842.939 C -95.62794 -3844.6846 -96.61851 -3846.1668 -98.22574 -3846.8237 C -99.72721 -3847.4076 -101.44019 -3847.1544 -102.77183 -3846.061 C -102.96547 -3845.927 -103.11294 -3845.7795 -103.27679 -3845.6157 C -103.42425 -3845.4682 -103.5881 -3845.3044 -103.70577 -3845.127 C -104.78419 -3843.7806 -105.06867 -3842.066 -104.45348 -3840.566 C -103.81146 -3838.974 -102.31446 -3837.9683 -100.5687 -3837.9266 L -99.77329 -3837.9177 L -99.82839 -3836.7603 L -97.63132 -3838.6594 L -99.66904 -3840.435 L -99.72266 -3839.309 L -100.42423 -3839.3223 C -101.65609 -3839.3417 -102.69878 -3840.0567 -103.17545 -3841.1888 C -103.59402 -3842.23 -103.4138 -3843.3933 -102.66755 -3844.3183 C -102.55285 -3844.433 -102.45305 -3844.5626 -102.33836 -3844.6773 C -102.22367 -3844.792 -102.07769 -3844.908 -101.97938 -3845.0065 C -101.07077 -3845.7363 -99.89105 -3845.933 -98.84985 -3845.5144 C -98.46703 -3845.361 -98.13486 -3845.127 -97.86674 -3844.859 C -97.3305 -3844.3227 -97.00725 -3843.5735 -96.99831 -3842.778 L -96.98936 -3841.9826 L -96.84479 -3834.2027 L -96.83139 -3834.1565 C -96.82393 -3833.002 -96.37407 -3831.9624 -95.6144 -3831.2027 C -95.22711 -3830.8155 -94.743 -3830.495 -94.20676 -3830.2867 C -92.70678 -3829.6715 -90.99231 -3829.956 -89.64577 -3831.0344 C -89.48341 -3831.167 -89.30467 -3831.316 -89.1572 -3831.4633 C -88.96208 -3831.6287 -88.82951 -3831.791 -88.68055 -3831.97 Z" stroke="#528637" stroke-linecap="butt" stroke-linejoin="round" stroke-width="0"/>
          </g>
        </g>
        <g id="Graphic_6150">
          <path d="M -87.27105 -3844.599 L -89.84246 -3844.599 L -89.84246 -3842.0274 L -90.6996 -3842.0274 L -90.6996 -3844.599 L -93.27101 -3844.599 L -93.27101 -3845.456 L -90.6996 -3845.456 L -90.6996 -3848.0274 L -89.84246 -3848.0274 L -89.84246 -3845.456 L -87.27105 -3845.456 L -87.27105 -3844.599 Z" fill="#cf7837"/>
          <path d="M -87.27105 -3844.599 L -89.84246 -3844.599 L -89.84246 -3842.0274 L -90.6996 -3842.0274 L -90.6996 -3844.599 L -93.27101 -3844.599 L -93.27101 -3845.456 L -90.6996 -3845.456 L -90.6996 -3848.0274 L -89.84246 -3848.0274 L -89.84246 -3845.456 L -87.27105 -3845.456 L -87.27105 -3844.599 Z" stroke="#cf7839" stroke-linecap="round" stroke-linejoin="round" stroke-width="1"/>
        </g>
      </g>
    </g>
  </g>
</svg>
