<?xml version="1.0" encoding="UTF-8" standalone="no"?>
<!DOCTYPE svg PUBLIC "-//W3C//DTD SVG 1.1//EN" "http://www.w3.org/Graphics/SVG/1.1/DTD/svg11.dtd">
<svg xmlns:dc="http://purl.org/dc/elements/1.1/" xmlns:xl="http://www.w3.org/1999/xlink" version="1.1" xmlns="http://www.w3.org/2000/svg" viewBox="-331.38244 -3635.113 25 25" width="25" height="25">
  <defs/>
  <g id="SOURCES" stroke-dasharray="none" stroke="none" stroke-opacity="1" fill="none" fill-opacity="1">
    <title>SOURCES</title>
    <g id="SOURCES_Calque_2">
      <title>Calque 2</title>
      <g id="Graphic_7150">
        <path d="M -310.72244 -3634.613 L -327.04244 -3634.613 C -329.1632 -3634.613 -330.88244 -3632.8936 -330.88244 -3630.773 L -330.88244 -3614.4528 C -330.88244 -3612.332 -329.1632 -3610.6128 -327.04244 -3610.6128 L -310.72244 -3610.6128 C -308.60166 -3610.6128 -306.88244 -3612.332 -306.88244 -3614.4528 L -306.88244 -3630.773 C -306.88244 -3632.8936 -308.60166 -3634.613 -310.72244 -3634.613 Z" fill="white"/>
        <path d="M -310.72244 -3634.613 L -327.04244 -3634.613 C -329.1632 -3634.613 -330.88244 -3632.8936 -330.88244 -3630.773 L -330.88244 -3614.4528 C -330.88244 -3612.332 -329.1632 -3610.6128 -327.04244 -3610.6128 L -310.72244 -3610.6128 C -308.60166 -3610.6128 -306.88244 -3612.332 -306.88244 -3614.4528 L -306.88244 -3630.773 C -306.88244 -3632.8936 -308.60166 -3634.613 -310.72244 -3634.613 Z" stroke="black" stroke-linecap="round" stroke-linejoin="round" stroke-width=".25"/>
      </g>
      <g id="Graphic_7149">
        <rect x="-330.88244" y="-3634.613" width="24" height="24" stroke="gray" stroke-opacity="0" stroke-linecap="round" stroke-linejoin="round" stroke-width=".25"/>
      </g>
      <g id="Graphic_7146">
        <path d="M -321.95413 -3615.985 L -324.52554 -3615.985 L -324.52554 -3613.4137 L -325.38267 -3613.4137 L -325.38267 -3615.985 L -327.9541 -3615.985 L -327.9541 -3616.8422 L -325.38267 -3616.8422 L -325.38267 -3619.4137 L -324.52554 -3619.4137 L -324.52554 -3616.8422 L -321.95413 -3616.8422 L -321.95413 -3615.985 Z" fill="#cf7837"/>
        <path d="M -321.95413 -3615.985 L -324.52554 -3615.985 L -324.52554 -3613.4137 L -325.38267 -3613.4137 L -325.38267 -3615.985 L -327.9541 -3615.985 L -327.9541 -3616.8422 L -325.38267 -3616.8422 L -325.38267 -3619.4137 L -324.52554 -3619.4137 L -324.52554 -3616.8422 L -321.95413 -3616.8422 L -321.95413 -3615.985 Z" stroke="#cf7839" stroke-linecap="round" stroke-linejoin="round" stroke-width=".25"/>
      </g>
      <g id="Graphic_6684">
        <path d="M -312.82268 -3626.537 L -312.82268 -3630.6895 L -310.73584 -3628.4387 L -310.1025 -3629.122 L -313.26918 -3632.537 L -316.43584 -3629.122 L -315.8025 -3628.4387 L -313.71568 -3630.6895 L -313.71568 -3626.537 Z" fill="#5c76a2"/>
        <path d="M -312.82268 -3626.537 L -312.82268 -3630.6895 L -310.73584 -3628.4387 L -310.1025 -3629.122 L -313.26918 -3632.537 L -316.43584 -3629.122 L -315.8025 -3628.4387 L -313.71568 -3630.6895 L -313.71568 -3626.537 Z" stroke="#5a77a1" stroke-linecap="round" stroke-linejoin="round" stroke-width=".25"/>
      </g>
      <g id="Graphic_10011">
        <path d="M -322.55317 -3621.3597 C -326.14675 -3621.793 -328.10422 -3625.8844 -326.0896 -3628.9177 C -323.20736 -3633.2608 -316.63374 -3630.775 -317.03387 -3625.4868 C -317.1914 -3623.3934 -318.6903 -3622.2323 -319.06376 -3620.3397 C -319.93897 -3615.9077 -314.393 -3613.7787 -311.91344 -3617.4117 C -310.2278 -3619.8824 -311.996 -3623.3527 -314.96334 -3623.566 C -315.3457 -3623.593 -316.01893 -3623.3946 -316.13707 -3623.8913 C -316.27045 -3624.4515 -315.64675 -3624.486 -315.2593 -3624.4845 C -311.56793 -3624.4693 -309.16205 -3620.4807 -310.9112 -3617.235 C -313.3971 -3612.6203 -320.4852 -3614.518 -320.05075 -3619.894 C -319.82337 -3622.705 -317.1304 -3624.1708 -318.09836 -3627.2905 C -319.17554 -3630.7584 -323.66465 -3631.3224 -325.4519 -3628.1785 C -326.86445 -3625.694 -325.19405 -3622.5525 -322.3601 -3622.2616 C -322.56333 -3622.678 -322.98506 -3623.049 -323.20355 -3623.4454 C -323.47284 -3623.9332 -322.8936 -3624.4693 -322.4198 -3623.9497 C -321.90407 -3623.383 -321.48488 -3622.626 -320.95264 -3622.0558 C -320.82053 -3621.817 -320.88404 -3621.568 -321.0314 -3621.352 C -321.71607 -3620.957 -322.3982 -3620.1707 -323.0689 -3619.805 C -323.4538 -3619.5953 -323.93776 -3619.9395 -323.73198 -3620.369 C -323.5897 -3620.666 -322.5608 -3621.2835 -322.55063 -3621.3597 Z" fill="#5c76a1"/>
      </g>
    </g>
  </g>
</svg>
