<svg xmlns="http://www.w3.org/2000/svg" xmlns:xl="http://www.w3.org/1999/xlink" width="25" height="25" version="1.1" viewBox="-75.428 -3851.041 25 25"><g id="SOURCES" fill="none" fill-opacity="1" stroke="none" stroke-dasharray="none" stroke-opacity="1"><title>SOURCES</title><g id="SOURCES_Calque_1"><title>Calque 1</title><g id="Graphic_4847"><path fill="#fff" d="M -54.76835 -3850.5413 L -71.08835 -3850.5413 C -73.20913 -3850.5413 -74.92835 -3848.822 -74.92835 -3846.7013 L -74.92835 -3830.3813 C -74.92835 -3828.2605 -73.20913 -3826.5413 -71.08835 -3826.5413 L -54.76835 -3826.5413 C -52.64758 -3826.5413 -50.928353 -3828.2605 -50.928353 -3830.3813 L -50.928353 -3846.7013 C -50.928353 -3848.822 -52.64758 -3850.5413 -54.76835 -3850.5413 Z"/><path stroke="#000" stroke-linecap="round" stroke-linejoin="round" stroke-width=".25" d="M -54.76835 -3850.5413 L -71.08835 -3850.5413 C -73.20913 -3850.5413 -74.92835 -3848.822 -74.92835 -3846.7013 L -74.92835 -3830.3813 C -74.92835 -3828.2605 -73.20913 -3826.5413 -71.08835 -3826.5413 L -54.76835 -3826.5413 C -52.64758 -3826.5413 -50.928353 -3828.2605 -50.928353 -3830.3813 L -50.928353 -3846.7013 C -50.928353 -3848.822 -52.64758 -3850.5413 -54.76835 -3850.5413 Z"/></g><g id="Graphic_4848"><rect width="24" height="24" x="-74.928" y="-3850.541" stroke="gray" stroke-linecap="round" stroke-linejoin="round" stroke-opacity="0" stroke-width=".25"/></g><g id="Group_4849"><g id="Graphic_4850"><path fill="#9da8b5" d="M -55.39988 -3831.97 C -54.32146 -3833.3163 -54.05336 -3835.0144 -54.65218 -3836.531 C -55.29419 -3838.123 -56.791196 -3839.1286 -58.53695 -3839.1703 L -61.31198 -3839.2254 L -61.28515 -3837.8223 L -58.696314 -3837.7895 C -57.46446 -3837.77 -56.40687 -3837.04 -55.9451 -3835.923 C -55.526524 -3834.882 -55.72313 -3833.702 -56.453 -3832.7935 C -56.5528 -3832.664 -56.667493 -3832.5492 -56.78219 -3832.4345 C -56.89688 -3832.32 -57.02647 -3832.22 -57.141165 -3832.1054 C -58.06617 -3831.359 -59.2295 -3831.179 -60.2707 -3831.5975 C -61.38787 -3832.059 -62.087966 -3833.087 -62.14011 -3834.286 C -62.138624 -3834.3174 -62.138624 -3834.3174 -62.137135 -3834.3487 L -62.2966 -3842.1435 L -62.305545 -3842.939 C -62.34727 -3844.6846 -63.33784 -3846.1668 -64.94507 -3846.8237 C -66.44654 -3847.4076 -68.159516 -3847.1544 -69.49116 -3846.061 C -69.6848 -3845.927 -69.83226 -3845.7795 -69.99611 -3845.6157 C -70.14358 -3845.4682 -70.307425 -3845.3044 -70.4251 -3845.127 C -71.50352 -3843.7806 -71.788 -3842.066 -71.1728 -3840.566 C -70.53079 -3838.974 -69.03378 -3837.9683 -67.28803 -3837.9266 L -66.49261 -3837.9177 L -66.54771 -3836.7603 L -64.35065 -3838.6594 L -66.38837 -3840.435 L -66.44198 -3839.309 L -67.14356 -3839.3223 C -68.37542 -3839.3417 -69.41811 -3840.0567 -69.89478 -3841.1888 C -70.31335 -3842.23 -70.13313 -3843.3933 -69.38687 -3844.3183 C -69.27218 -3844.433 -69.17238 -3844.5626 -69.05769 -3844.6773 C -68.94299 -3844.792 -68.79702 -3844.908 -68.69871 -3845.0065 C -67.79009 -3845.7363 -66.61037 -3845.933 -65.56917 -3845.5144 C -65.18636 -3845.361 -64.854186 -3845.127 -64.586064 -3844.859 C -64.04982 -3844.3227 -63.72658 -3843.5735 -63.717635 -3842.778 L -63.70869 -3841.9826 L -63.56412 -3834.2027 L -63.550714 -3834.1565 C -63.543254 -3833.002 -63.0934 -3831.9624 -62.33372 -3831.2027 C -61.946435 -3830.8155 -61.46233 -3830.495 -60.92609 -3830.2867 C -59.426106 -3829.6715 -57.71164 -3829.956 -56.3651 -3831.0344 C -56.20274 -3831.167 -56.023995 -3831.316 -55.87653 -3831.4633 C -55.6814 -3831.6287 -55.548835 -3831.791 -55.39988 -3831.97 Z"/><path stroke="#528637" stroke-linecap="butt" stroke-linejoin="round" stroke-width="0" d="M -55.39988 -3831.97 C -54.32146 -3833.3163 -54.05336 -3835.0144 -54.65218 -3836.531 C -55.29419 -3838.123 -56.791196 -3839.1286 -58.53695 -3839.1703 L -61.31198 -3839.2254 L -61.28515 -3837.8223 L -58.696314 -3837.7895 C -57.46446 -3837.77 -56.40687 -3837.04 -55.9451 -3835.923 C -55.526524 -3834.882 -55.72313 -3833.702 -56.453 -3832.7935 C -56.5528 -3832.664 -56.667493 -3832.5492 -56.78219 -3832.4345 C -56.89688 -3832.32 -57.02647 -3832.22 -57.141165 -3832.1054 C -58.06617 -3831.359 -59.2295 -3831.179 -60.2707 -3831.5975 C -61.38787 -3832.059 -62.087966 -3833.087 -62.14011 -3834.286 C -62.138624 -3834.3174 -62.138624 -3834.3174 -62.137135 -3834.3487 L -62.2966 -3842.1435 L -62.305545 -3842.939 C -62.34727 -3844.6846 -63.33784 -3846.1668 -64.94507 -3846.8237 C -66.44654 -3847.4076 -68.159516 -3847.1544 -69.49116 -3846.061 C -69.6848 -3845.927 -69.83226 -3845.7795 -69.99611 -3845.6157 C -70.14358 -3845.4682 -70.307425 -3845.3044 -70.4251 -3845.127 C -71.50352 -3843.7806 -71.788 -3842.066 -71.1728 -3840.566 C -70.53079 -3838.974 -69.03378 -3837.9683 -67.28803 -3837.9266 L -66.49261 -3837.9177 L -66.54771 -3836.7603 L -64.35065 -3838.6594 L -66.38837 -3840.435 L -66.44198 -3839.309 L -67.14356 -3839.3223 C -68.37542 -3839.3417 -69.41811 -3840.0567 -69.89478 -3841.1888 C -70.31335 -3842.23 -70.13313 -3843.3933 -69.38687 -3844.3183 C -69.27218 -3844.433 -69.17238 -3844.5626 -69.05769 -3844.6773 C -68.94299 -3844.792 -68.79702 -3844.908 -68.69871 -3845.0065 C -67.79009 -3845.7363 -66.61037 -3845.933 -65.56917 -3845.5144 C -65.18636 -3845.361 -64.854186 -3845.127 -64.586064 -3844.859 C -64.04982 -3844.3227 -63.72658 -3843.5735 -63.717635 -3842.778 L -63.70869 -3841.9826 L -63.56412 -3834.2027 L -63.550714 -3834.1565 C -63.543254 -3833.002 -63.0934 -3831.9624 -62.33372 -3831.2027 C -61.946435 -3830.8155 -61.46233 -3830.495 -60.92609 -3830.2867 C -59.426106 -3829.6715 -57.71164 -3829.956 -56.3651 -3831.0344 C -56.20274 -3831.167 -56.023995 -3831.316 -55.87653 -3831.4633 C -55.6814 -3831.6287 -55.548835 -3831.791 -55.39988 -3831.97 Z"/></g></g><g id="Graphic_4857"><path fill="#cf7837" d="M -66.00004 -3831.9136 L -68.571455 -3831.9136 L -68.571455 -3829.342 L -69.42859 -3829.342 L -69.42859 -3831.9136 L -72 -3831.9136 L -72 -3832.771 L -69.42859 -3832.771 L -69.42859 -3835.342 L -68.571455 -3835.342 L -68.571455 -3832.771 L -66.00004 -3832.771 L -66.00004 -3831.9136 Z"/><path stroke="#cf7839" stroke-linecap="round" stroke-linejoin="round" stroke-width="1" d="M -66.00004 -3831.9136 L -68.571455 -3831.9136 L -68.571455 -3829.342 L -69.42859 -3829.342 L -69.42859 -3831.9136 L -72 -3831.9136 L -72 -3832.771 L -69.42859 -3832.771 L -69.42859 -3835.342 L -68.571455 -3835.342 L -68.571455 -3832.771 L -66.00004 -3832.771 L -66.00004 -3831.9136 Z"/></g><g id="Graphic_6157"><path fill="#5c76a2" d="M -56.868596 -3842.4657 L -56.868596 -3846.618 L -54.78176 -3844.3673 L -54.14843 -3845.0503 L -57.315096 -3848.4657 L -60.48176 -3845.0503 L -59.84843 -3844.3673 L -57.761596 -3846.618 L -57.761596 -3842.4657 Z"/><path stroke="#5a77a1" stroke-linecap="round" stroke-linejoin="round" stroke-width=".5" d="M -56.868596 -3842.4657 L -56.868596 -3846.618 L -54.78176 -3844.3673 L -54.14843 -3845.0503 L -57.315096 -3848.4657 L -60.48176 -3845.0503 L -59.84843 -3844.3673 L -57.761596 -3846.618 L -57.761596 -3842.4657 Z"/></g></g></g></svg>