<?xml version="1.0" encoding="UTF-8" standalone="no"?>
<!DOCTYPE svg PUBLIC "-//W3C//DTD SVG 1.1//EN" "http://www.w3.org/Graphics/SVG/1.1/DTD/svg11.dtd">
<svg xmlns="http://www.w3.org/2000/svg" xmlns:xl="http://www.w3.org/1999/xlink" version="1.1" xmlns:dc="http://purl.org/dc/elements/1.1/" viewBox="-200.3 -3851.055 25 25" width="25" height="25">
  <defs/>
  <g id="SOURCES" stroke-dasharray="none" stroke-opacity="1" fill-opacity="1" fill="none" stroke="none">
    <title>SOURCES</title>
    <g id="SOURCES_Calque_1">
      <title>Calque 1</title>
      <g id="Group_4862">
        <g id="Graphic_4838">
          <path d="M -179.64 -3850.555 L -195.96 -3850.555 C -198.08078 -3850.555 -199.8 -3848.836 -199.8 -3846.715 L -199.8 -3830.395 C -199.8 -3828.2744 -198.08078 -3826.555 -195.96 -3826.555 L -179.64 -3826.555 C -177.51923 -3826.555 -175.8 -3828.2744 -175.8 -3830.395 L -175.8 -3846.715 C -175.8 -3848.836 -177.51923 -3850.555 -179.64 -3850.555 Z" fill="white"/>
          <path d="M -179.64 -3850.555 L -195.96 -3850.555 C -198.08078 -3850.555 -199.8 -3848.836 -199.8 -3846.715 L -199.8 -3830.395 C -199.8 -3828.2744 -198.08078 -3826.555 -195.96 -3826.555 L -179.64 -3826.555 C -177.51923 -3826.555 -175.8 -3828.2744 -175.8 -3830.395 L -175.8 -3846.715 C -175.8 -3848.836 -177.51923 -3850.555 -179.64 -3850.555 Z" stroke="black" stroke-linecap="round" stroke-linejoin="round" stroke-width=".25"/>
        </g>
        <g id="Graphic_4837">
          <rect x="-199.8" y="-3850.555" width="24" height="24" stroke="gray" stroke-opacity="0" stroke-linecap="round" stroke-linejoin="round" stroke-width=".25"/>
        </g>
      </g>
      <g id="Group_4835">
        <g id="Graphic_4836">
          <path d="M -180.27153 -3831.9836 C -179.19311 -3833.33 -178.92501 -3835.0283 -179.52383 -3836.5446 C -180.16584 -3838.137 -181.66285 -3839.1424 -183.4086 -3839.184 L -186.18363 -3839.2393 L -186.1568 -3837.836 L -183.56796 -3837.8033 C -182.3361 -3837.784 -181.27852 -3837.054 -180.81675 -3835.937 C -180.39817 -3834.8957 -180.59478 -3833.716 -181.32465 -3832.8074 C -181.42445 -3832.678 -181.53914 -3832.563 -181.65384 -3832.4484 C -181.76853 -3832.3337 -181.89812 -3832.234 -182.01281 -3832.119 C -182.93782 -3831.373 -184.10115 -3831.1927 -185.14235 -3831.6113 C -186.25952 -3832.073 -186.95962 -3833.101 -187.01176 -3834.3 C -187.01027 -3834.3312 -187.01027 -3834.3312 -187.00878 -3834.3625 L -187.16825 -3842.1573 L -187.1772 -3842.9527 C -187.21892 -3844.6985 -188.20949 -3846.1806 -189.81672 -3846.8375 C -191.31819 -3847.4214 -193.03117 -3847.168 -194.3628 -3846.075 C -194.55645 -3845.941 -194.70391 -3845.7934 -194.86776 -3845.6295 C -195.01523 -3845.482 -195.17907 -3845.3182 -195.29675 -3845.141 C -196.37517 -3843.7944 -196.65965 -3842.08 -196.04445 -3840.58 C -195.40244 -3838.9877 -193.90543 -3837.982 -192.15968 -3837.9405 L -191.36426 -3837.9315 L -191.41936 -3836.774 L -189.2223 -3838.6733 L -191.26002 -3840.449 L -191.31363 -3839.3228 L -192.0152 -3839.336 C -193.24707 -3839.3555 -194.28976 -3840.0705 -194.76643 -3841.2026 C -195.185 -3842.244 -195.00478 -3843.407 -194.25852 -3844.332 C -194.14383 -3844.447 -194.04403 -3844.5764 -193.92934 -3844.691 C -193.81464 -3844.806 -193.66867 -3844.922 -193.57036 -3845.0203 C -192.66174 -3845.75 -191.48202 -3845.947 -190.44082 -3845.528 C -190.058 -3845.375 -189.72584 -3845.141 -189.45771 -3844.873 C -188.92147 -3844.3366 -188.59823 -3843.5873 -188.58929 -3842.792 L -188.58034 -3841.9965 L -188.43577 -3834.2166 L -188.42236 -3834.1704 C -188.4149 -3833.016 -187.96505 -3831.9763 -187.20537 -3831.2166 C -186.81808 -3830.8293 -186.33398 -3830.509 -185.79774 -3830.3005 C -184.29776 -3829.6853 -182.58329 -3829.97 -181.23675 -3831.048 C -181.0744 -3831.181 -180.89565 -3831.3297 -180.74818 -3831.477 C -180.55305 -3831.6425 -180.42048 -3831.805 -180.27153 -3831.9836 Z" fill="#9da8b5"/>
          <path d="M -180.27153 -3831.9836 C -179.19311 -3833.33 -178.92501 -3835.0283 -179.52383 -3836.5446 C -180.16584 -3838.137 -181.66285 -3839.1424 -183.4086 -3839.184 L -186.18363 -3839.2393 L -186.1568 -3837.836 L -183.56796 -3837.8033 C -182.3361 -3837.784 -181.27852 -3837.054 -180.81675 -3835.937 C -180.39817 -3834.8957 -180.59478 -3833.716 -181.32465 -3832.8074 C -181.42445 -3832.678 -181.53914 -3832.563 -181.65384 -3832.4484 C -181.76853 -3832.3337 -181.89812 -3832.234 -182.01281 -3832.119 C -182.93782 -3831.373 -184.10115 -3831.1927 -185.14235 -3831.6113 C -186.25952 -3832.073 -186.95962 -3833.101 -187.01176 -3834.3 C -187.01027 -3834.3312 -187.01027 -3834.3312 -187.00878 -3834.3625 L -187.16825 -3842.1573 L -187.1772 -3842.9527 C -187.21892 -3844.6985 -188.20949 -3846.1806 -189.81672 -3846.8375 C -191.31819 -3847.4214 -193.03117 -3847.168 -194.3628 -3846.075 C -194.55645 -3845.941 -194.70391 -3845.7934 -194.86776 -3845.6295 C -195.01523 -3845.482 -195.17907 -3845.3182 -195.29675 -3845.141 C -196.37517 -3843.7944 -196.65965 -3842.08 -196.04445 -3840.58 C -195.40244 -3838.9877 -193.90543 -3837.982 -192.15968 -3837.9405 L -191.36426 -3837.9315 L -191.41936 -3836.774 L -189.2223 -3838.6733 L -191.26002 -3840.449 L -191.31363 -3839.3228 L -192.0152 -3839.336 C -193.24707 -3839.3555 -194.28976 -3840.0705 -194.76643 -3841.2026 C -195.185 -3842.244 -195.00478 -3843.407 -194.25852 -3844.332 C -194.14383 -3844.447 -194.04403 -3844.5764 -193.92934 -3844.691 C -193.81464 -3844.806 -193.66867 -3844.922 -193.57036 -3845.0203 C -192.66174 -3845.75 -191.48202 -3845.947 -190.44082 -3845.528 C -190.058 -3845.375 -189.72584 -3845.141 -189.45771 -3844.873 C -188.92147 -3844.3366 -188.59823 -3843.5873 -188.58929 -3842.792 L -188.58034 -3841.9965 L -188.43577 -3834.2166 L -188.42236 -3834.1704 C -188.4149 -3833.016 -187.96505 -3831.9763 -187.20537 -3831.2166 C -186.81808 -3830.8293 -186.33398 -3830.509 -185.79774 -3830.3005 C -184.29776 -3829.6853 -182.58329 -3829.97 -181.23675 -3831.048 C -181.0744 -3831.181 -180.89565 -3831.3297 -180.74818 -3831.477 C -180.55305 -3831.6425 -180.42048 -3831.805 -180.27153 -3831.9836 Z" stroke="#528637" stroke-linecap="butt" stroke-linejoin="round" stroke-width="0"/>
        </g>
      </g>
      <g id="Graphic_4859">
        <path d="M -182.4752 -3847.708 L -182.4752 -3843.5556 L -184.56203 -3845.8064 L -185.19536 -3845.1233 L -182.0287 -3841.708 L -178.86203 -3845.1233 L -179.49536 -3845.8064 L -181.5822 -3843.5556 L -181.5822 -3847.708 Z" fill="#508737"/>
        <path d="M -182.4752 -3847.708 L -182.4752 -3843.5556 L -184.56203 -3845.8064 L -185.19536 -3845.1233 L -182.0287 -3841.708 L -178.86203 -3845.1233 L -179.49536 -3845.8064 L -181.5822 -3843.5556 L -181.5822 -3847.708 Z" stroke="#518737" stroke-linecap="round" stroke-linejoin="round" stroke-width=".5"/>
      </g>
    </g>
  </g>
</svg>
