<?xml version="1.0" encoding="UTF-8" standalone="no"?>
<!DOCTYPE svg PUBLIC "-//W3C//DTD SVG 1.1//EN" "http://www.w3.org/Graphics/SVG/1.1/DTD/svg11.dtd">
<svg xmlns:dc="http://purl.org/dc/elements/1.1/" xmlns:xl="http://www.w3.org/1999/xlink" version="1.1" xmlns="http://www.w3.org/2000/svg" viewBox="-403.38244 -3635.113 25 25" width="25" height="25">
  <defs/>
  <g id="SOURCES" stroke-dasharray="none" stroke="none" stroke-opacity="1" fill="none" fill-opacity="1">
    <title>SOURCES</title>
    <g id="SOURCES_Calque_2">
      <title>Calque 2</title>
      <g id="Group_9214">
        <g id="Graphic_6689">
          <path d="M -382.72244 -3634.613 L -399.04244 -3634.613 C -401.1632 -3634.613 -402.88244 -3632.8936 -402.88244 -3630.773 L -402.88244 -3614.4528 C -402.88244 -3612.332 -401.1632 -3610.6128 -399.04244 -3610.6128 L -382.72244 -3610.6128 C -380.60166 -3610.6128 -378.88244 -3612.332 -378.88244 -3614.4528 L -378.88244 -3630.773 C -378.88244 -3632.8936 -380.60166 -3634.613 -382.72244 -3634.613 Z" fill="white"/>
          <path d="M -382.72244 -3634.613 L -399.04244 -3634.613 C -401.1632 -3634.613 -402.88244 -3632.8936 -402.88244 -3630.773 L -402.88244 -3614.4528 C -402.88244 -3612.332 -401.1632 -3610.6128 -399.04244 -3610.6128 L -382.72244 -3610.6128 C -380.60166 -3610.6128 -378.88244 -3612.332 -378.88244 -3614.4528 L -378.88244 -3630.773 C -378.88244 -3632.8936 -380.60166 -3634.613 -382.72244 -3634.613 Z" stroke="black" stroke-linecap="round" stroke-linejoin="round" stroke-width=".25"/>
        </g>
        <g id="Graphic_6688">
          <rect x="-402.88244" y="-3634.613" width="24" height="24" stroke="gray" stroke-opacity="0" stroke-linecap="round" stroke-linejoin="round" stroke-width=".25"/>
        </g>
      </g>
      <g id="Graphic_6683">
        <path d="M -384.8841 -3631.7655 L -384.8841 -3627.613 L -386.97095 -3629.864 L -387.6043 -3629.181 L -384.4376 -3625.7655 L -381.27095 -3629.181 L -381.9043 -3629.864 L -383.9911 -3627.613 L -383.9911 -3631.7655 Z" fill="#528636"/>
        <path d="M -384.8841 -3631.7655 L -384.8841 -3627.613 L -386.97095 -3629.864 L -387.6043 -3629.181 L -384.4376 -3625.7655 L -381.27095 -3629.181 L -381.9043 -3629.864 L -383.9911 -3627.613 L -383.9911 -3631.7655 Z" stroke="#528636" stroke-linecap="round" stroke-linejoin="round" stroke-width=".25"/>
      </g>
      <g id="Graphic_10009">
        <path d="M -394.55317 -3621.3597 C -398.14675 -3621.793 -400.10422 -3625.8844 -398.0896 -3628.9177 C -395.20736 -3633.2608 -388.63374 -3630.775 -389.03387 -3625.4868 C -389.1914 -3623.3934 -390.6903 -3622.2323 -391.06376 -3620.3397 C -391.93897 -3615.9077 -386.393 -3613.7787 -383.91344 -3617.4117 C -382.2278 -3619.8824 -383.996 -3623.3527 -386.96334 -3623.566 C -387.3457 -3623.593 -388.01893 -3623.3946 -388.13707 -3623.8913 C -388.27045 -3624.4515 -387.64675 -3624.486 -387.2593 -3624.4845 C -383.56793 -3624.4693 -381.16205 -3620.4807 -382.9112 -3617.235 C -385.3971 -3612.6203 -392.4852 -3614.518 -392.05075 -3619.894 C -391.82337 -3622.705 -389.1304 -3624.1708 -390.09836 -3627.2905 C -391.17554 -3630.7584 -395.66465 -3631.3224 -397.4519 -3628.1785 C -398.86445 -3625.694 -397.19405 -3622.5525 -394.3601 -3622.2616 C -394.56333 -3622.678 -394.98506 -3623.049 -395.20355 -3623.4454 C -395.47284 -3623.9332 -394.8936 -3624.4693 -394.4198 -3623.9497 C -393.90407 -3623.383 -393.4849 -3622.626 -392.95264 -3622.0558 C -392.82053 -3621.817 -392.88404 -3621.568 -393.0314 -3621.352 C -393.71607 -3620.957 -394.3982 -3620.1707 -395.0689 -3619.805 C -395.4538 -3619.5953 -395.93776 -3619.9395 -395.732 -3620.369 C -395.5897 -3620.666 -394.5608 -3621.2835 -394.55063 -3621.3597 Z" fill="#5c76a1"/>
      </g>
      <g id="Group_10019">
        <title>clock</title>
        <g id="Graphic_10020">
          <path d="M -397.3895 -3613.4137 C -398.73137 -3613.4137 -399.8204 -3614.5027 -399.8204 -3615.8446 C -399.8204 -3617.1864 -398.73137 -3618.2755 -397.3895 -3618.2755 C -396.04766 -3618.2755 -394.95862 -3617.1864 -394.95862 -3615.8446 C -394.95862 -3614.5027 -396.04766 -3613.4137 -397.3895 -3613.4137 Z M -397.3895 -3613.6568 C -396.18136 -3613.6568 -395.2017 -3614.6364 -395.2017 -3615.8446 C -395.2017 -3617.0527 -396.18136 -3618.0324 -397.3895 -3618.0324 C -398.59767 -3618.0324 -399.5773 -3617.0527 -399.5773 -3615.8446 C -399.5773 -3614.6364 -398.59767 -3613.6568 -397.3895 -3613.6568 Z M -396.4682 -3615.3365 C -396.41473 -3615.2976 -396.40014 -3615.2223 -396.43904 -3615.1664 C -396.47793 -3615.113 -396.5533 -3615.0983 -396.6092 -3615.137 L -397.46 -3615.745 C -397.4819 -3615.762 -397.4989 -3615.784 -397.5062 -3615.813 L -397.87083 -3617.15 C -397.88785 -3617.2156 -397.8514 -3617.2812 -397.78575 -3617.2983 C -397.7201 -3617.3153 -397.6545 -3617.279 -397.63747 -3617.213 L -397.285 -3615.9175 L -396.4682 -3615.334 Z" fill="#5c75a0"/>
          <path d="M -397.3895 -3613.4137 C -398.73137 -3613.4137 -399.8204 -3614.5027 -399.8204 -3615.8446 C -399.8204 -3617.1864 -398.73137 -3618.2755 -397.3895 -3618.2755 C -396.04766 -3618.2755 -394.95862 -3617.1864 -394.95862 -3615.8446 C -394.95862 -3614.5027 -396.04766 -3613.4137 -397.3895 -3613.4137 Z M -397.3895 -3613.6568 C -396.18136 -3613.6568 -395.2017 -3614.6364 -395.2017 -3615.8446 C -395.2017 -3617.0527 -396.18136 -3618.0324 -397.3895 -3618.0324 C -398.59767 -3618.0324 -399.5773 -3617.0527 -399.5773 -3615.8446 C -399.5773 -3614.6364 -398.59767 -3613.6568 -397.3895 -3613.6568 Z M -396.4682 -3615.3365 C -396.41473 -3615.2976 -396.40014 -3615.2223 -396.43904 -3615.1664 C -396.47793 -3615.113 -396.5533 -3615.0983 -396.6092 -3615.137 L -397.46 -3615.745 C -397.4819 -3615.762 -397.4989 -3615.784 -397.5062 -3615.813 L -397.87083 -3617.15 C -397.88785 -3617.2156 -397.8514 -3617.2812 -397.78575 -3617.2983 C -397.7201 -3617.3153 -397.6545 -3617.279 -397.63747 -3617.213 L -397.285 -3615.9175 L -396.4682 -3615.334 Z" stroke="#5c76a1" stroke-linecap="butt" stroke-linejoin="round" stroke-width=".25"/>
        </g>
      </g>
    </g>
  </g>
</svg>
