<?xml version="1.0" encoding="UTF-8" standalone="no"?>
<!DOCTYPE svg PUBLIC "-//W3C//DTD SVG 1.1//EN" "http://www.w3.org/Graphics/SVG/1.1/DTD/svg11.dtd">
<svg xmlns:dc="http://purl.org/dc/elements/1.1/" xmlns:xl="http://www.w3.org/1999/xlink" version="1.1" xmlns="http://www.w3.org/2000/svg" viewBox="-511.38244 -3635.113 25 25" width="25" height="25">
  <defs/>
  <g id="SOURCES" stroke-dasharray="none" stroke="none" stroke-opacity="1" fill="none" fill-opacity="1">
    <title>SOURCES</title>
    <g id="SOURCES_Calque_2">
      <title>Calque 2</title>
      <g id="Group_7131">
        <g id="Graphic_7133">
          <path d="M -490.72244 -3634.613 L -507.04244 -3634.613 C -509.1632 -3634.613 -510.88244 -3632.8936 -510.88244 -3630.773 L -510.88244 -3614.4528 C -510.88244 -3612.332 -509.1632 -3610.6128 -507.04244 -3610.6128 L -490.72244 -3610.6128 C -488.60166 -3610.6128 -486.88244 -3612.332 -486.88244 -3614.4528 L -486.88244 -3630.773 C -486.88244 -3632.8936 -488.60166 -3634.613 -490.72244 -3634.613 Z" fill="white"/>
          <path d="M -490.72244 -3634.613 L -507.04244 -3634.613 C -509.1632 -3634.613 -510.88244 -3632.8936 -510.88244 -3630.773 L -510.88244 -3614.4528 C -510.88244 -3612.332 -509.1632 -3610.6128 -507.04244 -3610.6128 L -490.72244 -3610.6128 C -488.60166 -3610.6128 -486.88244 -3612.332 -486.88244 -3614.4528 L -486.88244 -3630.773 C -486.88244 -3632.8936 -488.60166 -3634.613 -490.72244 -3634.613 Z" stroke="black" stroke-linecap="round" stroke-linejoin="round" stroke-width=".25"/>
        </g>
        <g id="Graphic_7132">
          <rect x="-510.88244" y="-3634.613" width="24" height="24" stroke="gray" stroke-opacity="0" stroke-linecap="round" stroke-linejoin="round" stroke-width=".25"/>
        </g>
      </g>
      <g id="Graphic_10006">
        <path d="M -502.5538 -3621.3597 C -506.14737 -3621.793 -508.10485 -3625.8844 -506.0902 -3628.9177 C -503.208 -3633.2608 -496.63436 -3630.775 -497.0345 -3625.4868 C -497.192 -3623.3934 -498.6909 -3622.2323 -499.0644 -3620.3397 C -499.9396 -3615.9077 -494.3936 -3613.7787 -491.91406 -3617.4117 C -490.2284 -3619.8824 -491.9966 -3623.3527 -494.96396 -3623.566 C -495.3463 -3623.593 -496.01955 -3623.3946 -496.1377 -3623.8913 C -496.27107 -3624.4515 -495.64737 -3624.486 -495.25994 -3624.4845 C -491.56855 -3624.4693 -489.16267 -3620.4807 -490.9118 -3617.235 C -493.39773 -3612.6203 -500.4858 -3614.518 -500.0514 -3619.894 C -499.824 -3622.705 -497.13103 -3624.1708 -498.099 -3627.2905 C -499.17616 -3630.7584 -503.6653 -3631.3224 -505.45253 -3628.1785 C -506.86507 -3625.694 -505.1947 -3622.5525 -502.3607 -3622.2616 C -502.56395 -3622.678 -502.9857 -3623.049 -503.20417 -3623.4454 C -503.47346 -3623.9332 -502.8942 -3624.4693 -502.4204 -3623.9497 C -501.9047 -3623.383 -501.4855 -3622.626 -500.95326 -3622.0558 C -500.82115 -3621.817 -500.88467 -3621.568 -501.032 -3621.352 C -501.7167 -3620.957 -502.3988 -3620.1707 -503.0695 -3619.805 C -503.4544 -3619.5953 -503.9384 -3619.9395 -503.7326 -3620.369 C -503.5903 -3620.666 -502.5614 -3621.2835 -502.55125 -3621.3597 Z" fill="#5c76a1"/>
      </g>
    </g>
  </g>
</svg>
