<?xml version="1.0" encoding="UTF-8" standalone="no"?>
<!DOCTYPE svg PUBLIC "-//W3C//DTD SVG 1.1//EN" "http://www.w3.org/Graphics/SVG/1.1/DTD/svg11.dtd">
<svg version="1.1" xmlns="http://www.w3.org/2000/svg" xmlns:xl="http://www.w3.org/1999/xlink" xmlns:dc="http://purl.org/dc/elements/1.1/" viewBox="-763.71625 -3696.7097 24.999996 25" width="24.999996" height="25">
  <defs/>
  <g id="SOURCES" stroke-dasharray="none" fill="none" stroke="none" fill-opacity="1" stroke-opacity="1">
    <title>SOURCES</title>
    <g id="SOURCES_Calque_2">
      <title>Calque 2</title>
      <g id="Graphic_9177">
        <circle cx="-751.21625" cy="-3684.2097" r="12.000018268838" fill="white"/>
        <circle cx="-751.21625" cy="-3684.2097" r="12.000018268838" stroke="black" stroke-linecap="round" stroke-linejoin="round" stroke-width=".25"/>
      </g>
      <g id="Group_9191">
        <title>pause</title>
        <g id="Graphic_9192">
          <path d="M -754.71625 -3689.543 C -755.3618 -3689.543 -755.8829 -3689.0963 -755.8829 -3688.543 L -755.8829 -3679.8763 C -755.8829 -3679.323 -755.3618 -3678.8763 -754.71625 -3678.8763 L -753.9385 -3678.8763 C -753.2929 -3678.8763 -752.7718 -3679.323 -752.7718 -3679.8763 L -752.7718 -3688.543 C -752.7718 -3689.0963 -753.2929 -3689.543 -753.9385 -3689.543 Z M -754.71625 -3690.2097 L -753.9385 -3690.2097 C -752.8651 -3690.2097 -751.994 -3689.463 -751.994 -3688.543 L -751.994 -3679.8763 C -751.994 -3678.9563 -752.8651 -3678.2097 -753.9385 -3678.2097 L -754.71625 -3678.2097 C -755.7896 -3678.2097 -756.6607 -3678.9563 -756.6607 -3679.8763 L -756.6607 -3688.543 C -756.6607 -3689.463 -755.7896 -3690.2097 -754.71625 -3690.2097 Z M -748.494 -3690.2097 L -747.71625 -3690.2097 C -746.6429 -3690.2097 -745.7718 -3689.463 -745.7718 -3688.543 L -745.7718 -3679.8763 C -745.7718 -3678.9563 -746.6429 -3678.2097 -747.71625 -3678.2097 L -748.494 -3678.2097 C -749.5674 -3678.2097 -750.4385 -3678.9563 -750.4385 -3679.8763 L -750.4385 -3688.543 C -750.4385 -3689.463 -749.5674 -3690.2097 -748.494 -3690.2097 Z M -748.494 -3689.543 C -749.1396 -3689.543 -749.6607 -3689.0963 -749.6607 -3688.543 L -749.6607 -3679.8763 C -749.6607 -3679.323 -749.1396 -3678.8763 -748.494 -3678.8763 L -747.71625 -3678.8763 C -747.0707 -3678.8763 -746.5496 -3679.323 -746.5496 -3679.8763 L -746.5496 -3688.543 C -746.5496 -3689.0963 -747.0707 -3689.543 -747.71625 -3689.543 Z" fill="#cf7738"/>
        </g>
      </g>
    </g>
  </g>
</svg>
