<svg xmlns="http://www.w3.org/2000/svg" xmlns:xl="http://www.w3.org/1999/xlink" width="25" height="25" version="1.1" viewBox="-42.148 -3851.041 25 25"><g id="SOURCES" fill="none" fill-opacity="1" stroke="none" stroke-dasharray="none" stroke-opacity="1"><title>SOURCES</title><g id="SOURCES_Calque_1"><title>Calque 1</title><g id="Group_4866"><g id="Graphic_4854"><path fill="#fff" d="M -21.48768 -3850.5413 L -37.80768 -3850.5413 C -39.928453 -3850.5413 -41.64768 -3848.822 -41.64768 -3846.7013 L -41.64768 -3830.3813 C -41.64768 -3828.2605 -39.928453 -3826.5413 -37.80768 -3826.5413 L -21.48768 -3826.5413 C -19.366906 -3826.5413 -17.64768 -3828.2605 -17.64768 -3830.3813 L -17.64768 -3846.7013 C -17.64768 -3848.822 -19.366906 -3850.5413 -21.48768 -3850.5413 Z"/><path stroke="#000" stroke-linecap="round" stroke-linejoin="round" stroke-width=".25" d="M -21.48768 -3850.5413 L -37.80768 -3850.5413 C -39.928453 -3850.5413 -41.64768 -3848.822 -41.64768 -3846.7013 L -41.64768 -3830.3813 C -41.64768 -3828.2605 -39.928453 -3826.5413 -37.80768 -3826.5413 L -21.48768 -3826.5413 C -19.366906 -3826.5413 -17.64768 -3828.2605 -17.64768 -3830.3813 L -17.64768 -3846.7013 C -17.64768 -3848.822 -19.366906 -3850.5413 -21.48768 -3850.5413 Z"/></g><g id="Graphic_4853"><rect width="24" height="24" x="-41.648" y="-3850.541" stroke="gray" stroke-linecap="round" stroke-linejoin="round" stroke-opacity="0" stroke-width=".25"/></g></g><g id="Group_4851"><g id="Graphic_4852"><path fill="#9da8b5" d="M -22.119208 -3831.97 C -21.04079 -3833.3163 -20.77269 -3835.0144 -21.371504 -3836.531 C -22.013516 -3838.123 -23.510523 -3839.1286 -25.256274 -3839.1703 L -28.031303 -3839.2254 L -28.004477 -3837.8223 L -25.41564 -3837.7895 C -24.183784 -3837.77 -23.126197 -3837.04 -22.664425 -3835.923 C -22.24585 -3834.882 -22.44246 -3833.702 -23.172328 -3832.7935 C -23.272126 -3832.664 -23.38682 -3832.5492 -23.501514 -3832.4345 C -23.616208 -3832.32 -23.745798 -3832.22 -23.860492 -3832.1054 C -24.785493 -3831.359 -25.94883 -3831.179 -26.990028 -3831.5975 C -28.107194 -3832.059 -28.807293 -3833.087 -28.85944 -3834.286 C -28.85795 -3834.3174 -28.85795 -3834.3174 -28.85646 -3834.3487 L -29.015926 -3842.1435 L -29.024872 -3842.939 C -29.066598 -3844.6846 -30.057163 -3846.1668 -31.664393 -3846.8237 C -33.165864 -3847.4076 -34.878842 -3847.1544 -36.210487 -3846.061 C -36.404127 -3845.927 -36.55159 -3845.7795 -36.71544 -3845.6157 C -36.862903 -3845.4682 -37.02675 -3845.3044 -37.144424 -3845.127 C -38.222842 -3843.7806 -38.50733 -3842.066 -37.89213 -3840.566 C -37.250116 -3838.974 -35.75311 -3837.9683 -34.007358 -3837.9266 L -33.21194 -3837.9177 L -33.26704 -3836.7603 L -31.069976 -3838.6594 L -33.107697 -3840.435 L -33.16131 -3839.309 L -33.862887 -3839.3223 C -35.094743 -3839.3417 -36.137435 -3840.0567 -36.614102 -3841.1888 C -37.032677 -3842.23 -36.852454 -3843.3933 -36.1062 -3844.3183 C -35.991506 -3844.433 -35.891707 -3844.5626 -35.777013 -3844.6773 C -35.66232 -3844.792 -35.516345 -3844.908 -35.418036 -3845.0065 C -34.50942 -3845.7363 -33.3297 -3845.933 -32.2885 -3845.5144 C -31.905684 -3845.361 -31.573513 -3845.127 -31.30539 -3844.859 C -30.769148 -3844.3227 -30.445908 -3843.5735 -30.436962 -3842.778 L -30.428016 -3841.9826 L -30.283447 -3834.2027 L -30.27004 -3834.1565 C -30.26258 -3833.002 -29.812726 -3831.9624 -29.053048 -3831.2027 C -28.66576 -3830.8155 -28.181655 -3830.495 -27.645415 -3830.2867 C -26.145433 -3829.6715 -24.430966 -3829.956 -23.084426 -3831.0344 C -22.922066 -3831.167 -22.743322 -3831.316 -22.595858 -3831.4633 C -22.40073 -3831.6287 -22.26816 -3831.791 -22.119208 -3831.97 Z"/><path stroke="#528637" stroke-linecap="butt" stroke-linejoin="round" stroke-width="0" d="M -22.119208 -3831.97 C -21.04079 -3833.3163 -20.77269 -3835.0144 -21.371504 -3836.531 C -22.013516 -3838.123 -23.510523 -3839.1286 -25.256274 -3839.1703 L -28.031303 -3839.2254 L -28.004477 -3837.8223 L -25.41564 -3837.7895 C -24.183784 -3837.77 -23.126197 -3837.04 -22.664425 -3835.923 C -22.24585 -3834.882 -22.44246 -3833.702 -23.172328 -3832.7935 C -23.272126 -3832.664 -23.38682 -3832.5492 -23.501514 -3832.4345 C -23.616208 -3832.32 -23.745798 -3832.22 -23.860492 -3832.1054 C -24.785493 -3831.359 -25.94883 -3831.179 -26.990028 -3831.5975 C -28.107194 -3832.059 -28.807293 -3833.087 -28.85944 -3834.286 C -28.85795 -3834.3174 -28.85795 -3834.3174 -28.85646 -3834.3487 L -29.015926 -3842.1435 L -29.024872 -3842.939 C -29.066598 -3844.6846 -30.057163 -3846.1668 -31.664393 -3846.8237 C -33.165864 -3847.4076 -34.878842 -3847.1544 -36.210487 -3846.061 C -36.404127 -3845.927 -36.55159 -3845.7795 -36.71544 -3845.6157 C -36.862903 -3845.4682 -37.02675 -3845.3044 -37.144424 -3845.127 C -38.222842 -3843.7806 -38.50733 -3842.066 -37.89213 -3840.566 C -37.250116 -3838.974 -35.75311 -3837.9683 -34.007358 -3837.9266 L -33.21194 -3837.9177 L -33.26704 -3836.7603 L -31.069976 -3838.6594 L -33.107697 -3840.435 L -33.16131 -3839.309 L -33.862887 -3839.3223 C -35.094743 -3839.3417 -36.137435 -3840.0567 -36.614102 -3841.1888 C -37.032677 -3842.23 -36.852454 -3843.3933 -36.1062 -3844.3183 C -35.991506 -3844.433 -35.891707 -3844.5626 -35.777013 -3844.6773 C -35.66232 -3844.792 -35.516345 -3844.908 -35.418036 -3845.0065 C -34.50942 -3845.7363 -33.3297 -3845.933 -32.2885 -3845.5144 C -31.905684 -3845.361 -31.573513 -3845.127 -31.30539 -3844.859 C -30.769148 -3844.3227 -30.445908 -3843.5735 -30.436962 -3842.778 L -30.428016 -3841.9826 L -30.283447 -3834.2027 L -30.27004 -3834.1565 C -30.26258 -3833.002 -29.812726 -3831.9624 -29.053048 -3831.2027 C -28.66576 -3830.8155 -28.181655 -3830.495 -27.645415 -3830.2867 C -26.145433 -3829.6715 -24.430966 -3829.956 -23.084426 -3831.0344 C -22.922066 -3831.167 -22.743322 -3831.316 -22.595858 -3831.4633 C -22.40073 -3831.6287 -22.26816 -3831.791 -22.119208 -3831.97 Z"/></g></g><g id="Graphic_4855"><path fill="#cf7837" d="M -32.585695 -3831.9136 L -35.157106 -3831.9136 L -35.157106 -3829.342 L -36.014243 -3829.342 L -36.014243 -3831.9136 L -38.585655 -3831.9136 L -38.585655 -3832.771 L -36.014243 -3832.771 L -36.014243 -3835.342 L -35.157106 -3835.342 L -35.157106 -3832.771 L -32.585695 -3832.771 L -32.585695 -3831.9136 Z"/><path stroke="#cf7839" stroke-linecap="round" stroke-linejoin="round" stroke-width="1" d="M -32.585695 -3831.9136 L -35.157106 -3831.9136 L -35.157106 -3829.342 L -36.014243 -3829.342 L -36.014243 -3831.9136 L -38.585655 -3831.9136 L -38.585655 -3832.771 L -36.014243 -3832.771 L -36.014243 -3835.342 L -35.157106 -3835.342 L -35.157106 -3832.771 L -32.585695 -3832.771 L -32.585695 -3831.9136 Z"/></g><g id="Graphic_4818"><path fill="#508737" d="M -22.759502 -3848.0274 C -22.25605 -3848.0274 -21.847917 -3847.5172 -21.847917 -3846.888 L -24.582672 -3846.888 C -25.253933 -3846.888 -25.79812 -3846.208 -25.79812 -3845.3688 L -25.79812 -3843.4697 C -26.301588 -3843.4697 -26.709704 -3843.98 -26.709704 -3844.609 L -26.709704 -3846.888 C -26.709704 -3847.5172 -26.301588 -3848.0274 -25.79812 -3848.0274 Z"/></g><g id="Graphic_4819"><path fill="#508737" d="M -20.37637 -3845.1123 C -20.37637 -3845.7416 -20.784503 -3846.2517 -21.287956 -3846.2517 L -24.326573 -3846.2517 C -24.830042 -3846.2517 -25.238158 -3845.7416 -25.238158 -3845.1123 L -25.238158 -3842.8335 C -25.238158 -3842.204 -24.830042 -3841.694 -24.326573 -3841.694 L -21.287956 -3841.694 C -20.784503 -3841.694 -20.37637 -3842.204 -20.37637 -3842.8335 Z"/></g></g></g></svg>