<?xml version="1.0" encoding="UTF-8" standalone="no"?>
<!DOCTYPE svg PUBLIC "-//W3C//DTD SVG 1.1//EN" "http://www.w3.org/Graphics/SVG/1.1/DTD/svg11.dtd">
<svg xmlns:dc="http://purl.org/dc/elements/1.1/" xmlns:xl="http://www.w3.org/1999/xlink" version="1.1" xmlns="http://www.w3.org/2000/svg" viewBox="-864.9359 -3887.187 16.25 16.25" width="16.25" height="16.25">
  <defs/>
  <g id="SOURCES" stroke-dasharray="none" stroke="none" stroke-opacity="1" fill="none" fill-opacity="1">
    <title>SOURCES</title>
    <g id="SOURCES_Calque_2">
      <title>Calque 2</title>
      <g id="Group_8805">
        <g id="Graphic_8723">
          <path d="M -861.4509 -3882.4065 L -859.2109 -3884.1665 L -856.4909 -3884.1665 L -854.0909 -3881.9265 L -851.2109 -3881.1265 L -850.0909 -3878.0865 L -852.9709 -3875.5265 L -861.7709 -3875.5265 L -863.5309 -3877.2865 L -863.5309 -3879.3665 L -861.4509 -3880.1665 Z" fill="white"/>
        </g>
        <g id="Graphic_6546">
          <path d="M -857.8604 -3873.423 L -857.8604 -3879.6573 C -857.8604 -3879.8782 -857.6813 -3880.0573 -857.4604 -3880.0573 C -857.2394 -3880.0573 -857.0604 -3879.8782 -857.0604 -3879.6573 L -857.0604 -3873.423 L -855.3432 -3875.14 C -855.187 -3875.2964 -854.9337 -3875.2964 -854.7775 -3875.14 C -854.6213 -3874.984 -854.6213 -3874.7307 -854.7775 -3874.5745 L -857.1775 -3872.1745 C -857.3337 -3872.0183 -857.587 -3872.0183 -857.7432 -3872.1745 L -860.1432 -3874.5745 C -860.2994 -3874.7307 -860.2994 -3874.984 -860.1432 -3875.14 C -859.987 -3875.2964 -859.7337 -3875.2964 -859.5775 -3875.14 Z M -854.0652 -3882.4573 L -853.4604 -3882.4573 C -851.4721 -3882.4573 -849.8604 -3880.8456 -849.8604 -3878.8573 C -849.8604 -3876.869 -851.4721 -3875.2573 -853.4604 -3875.2573 C -853.6813 -3875.2573 -853.8604 -3875.4364 -853.8604 -3875.6573 C -853.8604 -3875.8782 -853.6813 -3876.0573 -853.4604 -3876.0573 C -851.914 -3876.0573 -850.6604 -3877.311 -850.6604 -3878.8573 C -850.6604 -3880.4037 -851.914 -3881.6573 -853.4604 -3881.6573 L -853.8823 -3881.6573 C -853.8678 -3881.526 -853.8604 -3881.3925 -853.8604 -3881.2573 C -853.8604 -3881.0364 -854.0394 -3880.8573 -854.2604 -3880.8573 C -854.4813 -3880.8573 -854.6604 -3881.0364 -854.6604 -3881.2573 C -854.6604 -3882.8037 -855.914 -3884.0573 -857.4604 -3884.0573 L -857.8604 -3884.0573 C -859.6277 -3884.0573 -861.0604 -3882.6246 -861.0604 -3880.8573 L -861.0604 -3880.4573 C -861.0604 -3880.2364 -861.2394 -3880.0573 -861.4604 -3880.0573 C -862.5649 -3880.0573 -863.4604 -3879.162 -863.4604 -3878.0573 C -863.4604 -3876.9528 -862.5649 -3876.0573 -861.4604 -3876.0573 C -861.2394 -3876.0573 -861.0604 -3875.8782 -861.0604 -3875.6573 C -861.0604 -3875.4364 -861.2394 -3875.2573 -861.4604 -3875.2573 C -863.0068 -3875.2573 -864.2604 -3876.511 -864.2604 -3878.0573 C -864.2604 -3879.468 -863.2173 -3880.635 -861.8604 -3880.829 C -861.8604 -3883.0665 -860.0695 -3884.8573 -857.8604 -3884.8573 L -857.4604 -3884.8573 C -855.8929 -3884.8573 -854.5594 -3883.8556 -854.0652 -3882.4573 Z" fill="#999"/>
        </g>
        <g id="Graphic_6545">
          <rect x="-864.8109" y="-3887.062" width="16" height="16" stroke="gray" stroke-opacity="0" stroke-linecap="round" stroke-linejoin="round" stroke-width=".25"/>
        </g>
      </g>
    </g>
  </g>
</svg>
