<?xml version="1.0" encoding="UTF-8" standalone="no"?>
<!DOCTYPE svg PUBLIC "-//W3C//DTD SVG 1.1//EN" "http://www.w3.org/Graphics/SVG/1.1/DTD/svg11.dtd">
<svg xmlns:dc="http://purl.org/dc/elements/1.1/" xmlns:xl="http://www.w3.org/1999/xlink" version="1.1" xmlns="http://www.w3.org/2000/svg" viewBox="-612.1234 -3889.1866 16.249997 16.249997" width="16.249997" height="16.249997">
  <defs/>
  <g id="SOURCES" stroke-dasharray="none" stroke="none" stroke-opacity="1" fill="none" fill-opacity="1">
    <title>SOURCES</title>
    <g id="SOURCES_Calque_2">
      <title>Calque 2</title>
      <g id="Group_8813">
        <g id="Graphic_8719">
          <rect x="-611.9984" y="-3889.0616" width="15.999997" height="15.999997" stroke="gray" stroke-opacity="0" stroke-linecap="round" stroke-linejoin="round" stroke-width=".25"/>
        </g>
        <g id="Graphic_6559">
          <path d="M -608.1588 -3888.182 L -603.1988 -3888.342 L -599.8388 -3888.502 L -596.6388 -3885.302 L -596.7988 -3873.622 L -608.1588 -3873.622 Z" fill="white"/>
        </g>
        <g id="Graphic_6558">
          <path d="M -595.9992 -3885.439 L -595.9992 -3875.0616 C -595.9992 -3873.957 -596.89465 -3873.0616 -597.9992 -3873.0616 L -606.7992 -3873.0616 C -607.9038 -3873.0616 -608.7992 -3873.957 -608.7992 -3875.0616 L -608.7992 -3887.0616 C -608.7992 -3888.166 -607.9038 -3889.0616 -606.7992 -3889.0616 L -599.6216 -3889.0616 C -599.5154 -3889.0683 -599.40486 -3889.033 -599.3164 -3888.9444 L -596.1164 -3885.7444 C -596.0279 -3885.656 -595.9925 -3885.5454 -595.9992 -3885.439 Z M -599.9992 -3888.2616 L -606.7992 -3888.2616 C -607.46196 -3888.2616 -607.9992 -3887.7243 -607.9992 -3887.0616 L -607.9992 -3875.0616 C -607.9992 -3874.399 -607.46196 -3873.8616 -606.7992 -3873.8616 L -597.9992 -3873.8616 C -597.3365 -3873.8616 -596.7992 -3874.399 -596.7992 -3875.0616 L -596.7992 -3885.0616 L -599.5992 -3885.0616 C -599.8201 -3885.0616 -599.9992 -3885.2407 -599.9992 -3885.4616 Z M -599.1992 -3887.696 L -599.1992 -3885.8616 L -597.3649 -3885.8616 Z" fill="#999"/>
        </g>
        <g id="Graphic_6557">
          <path d="M -600.5189 -3879.539 L -602.1317 -3879.539 C -602.2838 -3879.539 -602.40706 -3879.4155 -602.40706 -3879.2634 L -602.40706 -3877.926 C -602.40706 -3877.774 -602.53034 -3877.6507 -602.6824 -3877.6507 L -602.7611 -3877.6507 C -602.91316 -3877.6507 -603.0364 -3877.774 -603.0364 -3877.926 L -603.0364 -3879.2634 C -603.0364 -3879.4155 -603.1597 -3879.539 -603.3118 -3879.539 L -604.6492 -3879.539 C -604.8013 -3879.539 -604.92456 -3879.662 -604.92456 -3879.814 L -604.92456 -3879.893 C -604.92456 -3880.045 -604.8013 -3880.168 -604.6492 -3880.168 L -603.3118 -3880.168 C -603.1597 -3880.168 -603.0364 -3880.2914 -603.0364 -3880.4435 L -603.0364 -3881.781 C -603.0364 -3881.933 -602.91316 -3882.0563 -602.7611 -3882.0563 L -602.6824 -3882.0563 C -602.53034 -3882.0563 -602.40706 -3881.933 -602.40706 -3881.781 L -602.40706 -3880.4435 C -602.40706 -3880.2914 -602.2838 -3880.168 -602.1317 -3880.168 L -600.7943 -3880.168 C -600.6422 -3880.168 -600.5189 -3880.045 -600.5189 -3879.893 L -600.5189 -3879.539 Z" fill="#999"/>
          <path d="M -600.5189 -3879.539 L -602.1317 -3879.539 C -602.2838 -3879.539 -602.40706 -3879.4155 -602.40706 -3879.2634 L -602.40706 -3877.926 C -602.40706 -3877.774 -602.53034 -3877.6507 -602.6824 -3877.6507 L -602.7611 -3877.6507 C -602.91316 -3877.6507 -603.0364 -3877.774 -603.0364 -3877.926 L -603.0364 -3879.2634 C -603.0364 -3879.4155 -603.1597 -3879.539 -603.3118 -3879.539 L -604.6492 -3879.539 C -604.8013 -3879.539 -604.92456 -3879.662 -604.92456 -3879.814 L -604.92456 -3879.893 C -604.92456 -3880.045 -604.8013 -3880.168 -604.6492 -3880.168 L -603.3118 -3880.168 C -603.1597 -3880.168 -603.0364 -3880.2914 -603.0364 -3880.4435 L -603.0364 -3881.781 C -603.0364 -3881.933 -602.91316 -3882.0563 -602.7611 -3882.0563 L -602.6824 -3882.0563 C -602.53034 -3882.0563 -602.40706 -3881.933 -602.40706 -3881.781 L -602.40706 -3880.4435 C -602.40706 -3880.2914 -602.2838 -3880.168 -602.1317 -3880.168 L -600.7943 -3880.168 C -600.6422 -3880.168 -600.5189 -3880.045 -600.5189 -3879.893 L -600.5189 -3879.539 Z" stroke="#999" stroke-linecap="round" stroke-linejoin="round" stroke-width=".5"/>
        </g>
      </g>
    </g>
  </g>
</svg>
