<?xml version="1.0" encoding="UTF-8" standalone="no"?>
<!DOCTYPE svg PUBLIC "-//W3C//DTD SVG 1.1//EN" "http://www.w3.org/Graphics/SVG/1.1/DTD/svg11.dtd">
<svg xmlns:dc="http://purl.org/dc/elements/1.1/" xmlns:xl="http://www.w3.org/1999/xlink" version="1.1" xmlns="http://www.w3.org/2000/svg" viewBox="-644.1234 -3889.1866 16.249997 16.249997" width="16.249997" height="16.249997">
  <defs/>
  <g id="SOURCES" stroke-dasharray="none" stroke="none" stroke-opacity="1" fill="none" fill-opacity="1">
    <title>SOURCES</title>
    <g id="SOURCES_Calque_2">
      <title>Calque 2</title>
      <g id="Group_8812">
        <g id="Graphic_8717">
          <rect x="-643.9984" y="-3889.0616" width="15.999997" height="15.999997" stroke="gray" stroke-opacity="0" stroke-linecap="round" stroke-linejoin="round" stroke-width=".25"/>
        </g>
        <g id="Graphic_6556">
          <path d="M -640.1588 -3888.295 L -635.1988 -3888.455 L -631.8388 -3888.615 L -628.6388 -3885.415 L -628.7988 -3873.735 L -640.1588 -3873.735 Z" fill="white"/>
        </g>
        <g id="Graphic_6555">
          <path d="M -627.9992 -3885.439 L -627.9992 -3875.0616 C -627.9992 -3873.957 -628.89465 -3873.0616 -629.9992 -3873.0616 L -638.7992 -3873.0616 C -639.9038 -3873.0616 -640.7992 -3873.957 -640.7992 -3875.0616 L -640.7992 -3887.0616 C -640.7992 -3888.166 -639.9038 -3889.0616 -638.7992 -3889.0616 L -631.6216 -3889.0616 C -631.5154 -3889.0683 -631.40486 -3889.033 -631.3164 -3888.9444 L -628.1164 -3885.7444 C -628.0279 -3885.656 -627.9925 -3885.5454 -627.9992 -3885.439 Z M -631.9992 -3888.2616 L -638.7992 -3888.2616 C -639.46196 -3888.2616 -639.9992 -3887.7243 -639.9992 -3887.0616 L -639.9992 -3875.0616 C -639.9992 -3874.399 -639.46196 -3873.8616 -638.7992 -3873.8616 L -629.9992 -3873.8616 C -629.3365 -3873.8616 -628.7992 -3874.399 -628.7992 -3875.0616 L -628.7992 -3885.0616 L -631.5992 -3885.0616 C -631.8201 -3885.0616 -631.9992 -3885.2407 -631.9992 -3885.4616 Z M -631.1992 -3887.696 L -631.1992 -3885.8616 L -629.3649 -3885.8616 Z M -632.7992 -3876.2624 L -635.9992 -3876.2624 C -635.9992 -3875.8206 -636.3574 -3875.4624 -636.7992 -3875.4624 L -637.5992 -3875.4624 C -638.04104 -3875.4624 -638.3992 -3875.8206 -638.3992 -3876.2624 L -638.3992 -3877.0624 C -638.3992 -3877.504 -638.04104 -3877.8624 -637.5992 -3877.8624 L -637.5992 -3881.0624 C -638.04104 -3881.0624 -638.3992 -3881.4206 -638.3992 -3881.8624 L -638.3992 -3882.6624 C -638.3992 -3883.104 -638.04104 -3883.4624 -637.5992 -3883.4624 L -636.7992 -3883.4624 C -636.3574 -3883.4624 -635.9992 -3883.104 -635.9992 -3882.6624 L -632.7992 -3882.6624 C -632.7992 -3883.104 -632.44104 -3883.4624 -631.9992 -3883.4624 L -631.1992 -3883.4624 C -630.7574 -3883.4624 -630.3992 -3883.104 -630.3992 -3882.6624 L -630.3992 -3881.8624 C -630.3992 -3881.4206 -630.7574 -3881.0624 -631.1992 -3881.0624 L -631.1992 -3877.8624 C -630.7574 -3877.8624 -630.3992 -3877.504 -630.3992 -3877.0624 L -630.3992 -3876.2624 C -630.3992 -3875.8206 -630.7574 -3875.4624 -631.1992 -3875.4624 L -631.9992 -3875.4624 C -632.44104 -3875.4624 -632.7992 -3875.8206 -632.7992 -3876.2624 Z M -632.7992 -3877.0624 C -632.7992 -3877.504 -632.44104 -3877.8624 -631.9992 -3877.8624 L -631.9992 -3881.0624 C -632.44104 -3881.0624 -632.7992 -3881.4206 -632.7992 -3881.8624 L -635.9992 -3881.8624 C -635.9992 -3881.4206 -636.3574 -3881.0624 -636.7992 -3881.0624 L -636.7992 -3877.8624 C -636.3574 -3877.8624 -635.9992 -3877.504 -635.9992 -3877.0624 L -632.7992 -3877.0624 Z M -631.7243 -3877.0624 L -631.9992 -3877.0624 L -631.9992 -3876.2624 L -631.1992 -3876.2624 L -631.1992 -3877.0624 L -631.4741 -3877.0624 C -631.5135 -3877.0494 -631.5555 -3877.0424 -631.5992 -3877.0424 C -631.6429 -3877.0424 -631.68496 -3877.0494 -631.7243 -3877.0624 Z M -637.3243 -3877.0624 L -637.5992 -3877.0624 L -637.5992 -3876.2624 L -636.7992 -3876.2624 L -636.7992 -3877.0624 L -637.0741 -3877.0624 C -637.1135 -3877.0494 -637.1555 -3877.0424 -637.1992 -3877.0424 C -637.2429 -3877.0424 -637.28496 -3877.0494 -637.3243 -3877.0624 Z M -637.5992 -3882.6624 L -637.5992 -3881.8624 L -636.7992 -3881.8624 L -636.7992 -3882.6624 Z M -631.9992 -3882.6624 L -631.9992 -3881.8624 L -631.1992 -3881.8624 L -631.1992 -3882.6624 Z" fill="#999"/>
        </g>
      </g>
    </g>
  </g>
</svg>
