<?xml version="1.0" encoding="UTF-8" standalone="no"?>
<!DOCTYPE svg PUBLIC "-//W3C//DTD SVG 1.1//EN" "http://www.w3.org/Graphics/SVG/1.1/DTD/svg11.dtd">
<svg xmlns:dc="http://purl.org/dc/elements/1.1/" xmlns:xl="http://www.w3.org/1999/xlink" version="1.1" xmlns="http://www.w3.org/2000/svg" viewBox="-772.1234 -3889.1866 16.249997 16.249997" width="16.249997" height="16.249997">
  <defs/>
  <g id="SOURCES" stroke-dasharray="none" stroke="none" stroke-opacity="1" fill="none" fill-opacity="1">
    <title>SOURCES</title>
    <g id="SOURCES_Calque_2">
      <title>Calque 2</title>
      <g id="Group_8808">
        <g id="Graphic_8714">
          <rect x="-771.9984" y="-3889.0616" width="15.999997" height="15.999997" stroke="gray" stroke-opacity="0" stroke-linecap="round" stroke-linejoin="round" stroke-width=".25"/>
        </g>
        <g id="Graphic_6563">
          <path d="M -768.1588 -3888.182 L -763.1988 -3888.342 L -759.8388 -3888.502 L -756.6388 -3885.302 L -756.7988 -3873.622 L -768.1588 -3873.622 Z" fill="white"/>
        </g>
        <g id="Graphic_6562">
          <path d="M -755.9992 -3885.439 L -755.9992 -3875.0616 C -755.9992 -3873.957 -756.89465 -3873.0616 -757.9992 -3873.0616 L -766.7992 -3873.0616 C -767.9038 -3873.0616 -768.7992 -3873.957 -768.7992 -3875.0616 L -768.7992 -3887.0616 C -768.7992 -3888.166 -767.9038 -3889.0616 -766.7992 -3889.0616 L -759.6216 -3889.0616 C -759.5154 -3889.0683 -759.4049 -3889.033 -759.3164 -3888.9444 L -756.1164 -3885.7444 C -756.0279 -3885.656 -755.9925 -3885.5454 -755.9992 -3885.439 Z M -759.9992 -3888.2616 L -766.7992 -3888.2616 C -767.462 -3888.2616 -767.9992 -3887.7243 -767.9992 -3887.0616 L -767.9992 -3875.0616 C -767.9992 -3874.399 -767.462 -3873.8616 -766.7992 -3873.8616 L -757.9992 -3873.8616 C -757.3365 -3873.8616 -756.7992 -3874.399 -756.7992 -3875.0616 L -756.7992 -3885.0616 L -759.5992 -3885.0616 C -759.8201 -3885.0616 -759.9992 -3885.2407 -759.9992 -3885.4616 Z M -759.1992 -3887.696 L -759.1992 -3885.8616 L -757.3649 -3885.8616 Z" fill="#999"/>
        </g>
        <g id="Group_6547">
          <g id="Graphic_6549">
            <path d="M -766.3569 -3879.7193 L -766.3569 -3880.414 L -762.9315 -3881.8568 L -762.9315 -3880.9397 L -764.9948 -3880.0564 L -762.9315 -3879.2 L -762.9315 -3878.2763 Z" fill="#518737"/>
          </g>
          <g id="Graphic_6548">
            <path d="M -761.8661 -3878.2763 L -761.8661 -3879.2 L -759.8028 -3880.0564 L -761.8661 -3880.9397 L -761.8661 -3881.8568 L -758.4408 -3880.414 L -758.4408 -3879.7193 Z" fill="#518737"/>
          </g>
        </g>
      </g>
    </g>
  </g>
</svg>
