<?xml version="1.0" encoding="UTF-8" standalone="no"?>
<!DOCTYPE svg PUBLIC "-//W3C//DTD SVG 1.1//EN" "http://www.w3.org/Graphics/SVG/1.1/DTD/svg11.dtd">
<svg xmlns:dc="http://purl.org/dc/elements/1.1/" xmlns:xl="http://www.w3.org/1999/xlink" version="1.1" xmlns="http://www.w3.org/2000/svg" viewBox="-676.1234 -3889.1866 16.249997 16.249997" width="16.249997" height="16.249997">
  <defs/>
  <g id="SOURCES" stroke-dasharray="none" stroke="none" stroke-opacity="1" fill="none" fill-opacity="1">
    <title>SOURCES</title>
    <g id="SOURCES_Calque_2">
      <title>Calque 2</title>
      <g id="Group_8811">
        <g id="Graphic_8718">
          <rect x="-675.9984" y="-3889.0616" width="15.999997" height="15.999997" stroke="gray" stroke-opacity="0" stroke-linecap="round" stroke-linejoin="round" stroke-width=".25"/>
        </g>
        <g id="Graphic_8712">
          <path d="M -672.1588 -3888.295 L -667.1988 -3888.455 L -663.8388 -3888.615 L -660.6388 -3885.415 L -660.7988 -3873.735 L -672.1588 -3873.735 Z" fill="white"/>
        </g>
        <g id="Graphic_6564">
          <path d="M -659.9992 -3885.439 L -659.9992 -3875.0616 C -659.9992 -3873.957 -660.89465 -3873.0616 -661.9992 -3873.0616 L -670.7992 -3873.0616 C -671.9038 -3873.0616 -672.7992 -3873.957 -672.7992 -3875.0616 L -672.7992 -3887.0616 C -672.7992 -3888.166 -671.9038 -3889.0616 -670.7992 -3889.0616 L -663.6216 -3889.0616 C -663.5154 -3889.0683 -663.40486 -3889.033 -663.3164 -3888.9444 L -660.1164 -3885.7444 C -660.0279 -3885.656 -659.9925 -3885.5454 -659.9992 -3885.439 Z M -663.9992 -3888.2616 L -670.7992 -3888.2616 C -671.46196 -3888.2616 -671.9992 -3887.7243 -671.9992 -3887.0616 L -671.9992 -3875.0616 C -671.9992 -3874.399 -671.46196 -3873.8616 -670.7992 -3873.8616 L -661.9992 -3873.8616 C -661.3365 -3873.8616 -660.7992 -3874.399 -660.7992 -3875.0616 L -660.7992 -3885.0616 L -663.5992 -3885.0616 C -663.8201 -3885.0616 -663.9992 -3885.2407 -663.9992 -3885.4616 Z M -663.1992 -3887.696 L -663.1992 -3885.8616 L -661.3649 -3885.8616 Z M -664.7992 -3876.2624 L -667.9992 -3876.2624 C -667.9992 -3875.8206 -668.3574 -3875.4624 -668.7992 -3875.4624 L -669.5992 -3875.4624 C -670.04104 -3875.4624 -670.3992 -3875.8206 -670.3992 -3876.2624 L -670.3992 -3877.0624 C -670.3992 -3877.504 -670.04104 -3877.8624 -669.5992 -3877.8624 L -669.5992 -3881.0624 C -670.04104 -3881.0624 -670.3992 -3881.4206 -670.3992 -3881.8624 L -670.3992 -3882.6624 C -670.3992 -3883.104 -670.04104 -3883.4624 -669.5992 -3883.4624 L -668.7992 -3883.4624 C -668.3574 -3883.4624 -667.9992 -3883.104 -667.9992 -3882.6624 L -664.7992 -3882.6624 C -664.7992 -3883.104 -664.44104 -3883.4624 -663.9992 -3883.4624 L -663.1992 -3883.4624 C -662.7574 -3883.4624 -662.3992 -3883.104 -662.3992 -3882.6624 L -662.3992 -3881.8624 C -662.3992 -3881.4206 -662.7574 -3881.0624 -663.1992 -3881.0624 L -663.1992 -3877.8624 C -662.7574 -3877.8624 -662.3992 -3877.504 -662.3992 -3877.0624 L -662.3992 -3876.2624 C -662.3992 -3875.8206 -662.7574 -3875.4624 -663.1992 -3875.4624 L -663.9992 -3875.4624 C -664.44104 -3875.4624 -664.7992 -3875.8206 -664.7992 -3876.2624 Z M -664.7992 -3877.0624 C -664.7992 -3877.504 -664.44104 -3877.8624 -663.9992 -3877.8624 L -663.9992 -3881.0624 C -664.44104 -3881.0624 -664.7992 -3881.4206 -664.7992 -3881.8624 L -667.9992 -3881.8624 C -667.9992 -3881.4206 -668.3574 -3881.0624 -668.7992 -3881.0624 L -668.7992 -3877.8624 C -668.3574 -3877.8624 -667.9992 -3877.504 -667.9992 -3877.0624 L -664.7992 -3877.0624 Z M -663.7243 -3877.0624 L -663.9992 -3877.0624 L -663.9992 -3876.2624 L -663.1992 -3876.2624 L -663.1992 -3877.0624 L -663.4741 -3877.0624 C -663.5135 -3877.0494 -663.5555 -3877.0424 -663.5992 -3877.0424 C -663.6429 -3877.0424 -663.68496 -3877.0494 -663.7243 -3877.0624 Z M -669.3243 -3877.0624 L -669.5992 -3877.0624 L -669.5992 -3876.2624 L -668.7992 -3876.2624 L -668.7992 -3877.0624 L -669.0741 -3877.0624 C -669.1135 -3877.0494 -669.1555 -3877.0424 -669.1992 -3877.0424 C -669.2429 -3877.0424 -669.28496 -3877.0494 -669.3243 -3877.0624 Z M -669.5992 -3882.6624 L -669.5992 -3881.8624 L -668.7992 -3881.8624 L -668.7992 -3882.6624 Z M -663.9992 -3882.6624 L -663.9992 -3881.8624 L -663.1992 -3881.8624 L -663.1992 -3882.6624 Z" fill="#999"/>
        </g>
      </g>
    </g>
  </g>
</svg>
