<?xml version="1.0" encoding="UTF-8" standalone="no"?>
<!DOCTYPE svg PUBLIC "-//W3C//DTD SVG 1.1//EN" "http://www.w3.org/Graphics/SVG/1.1/DTD/svg11.dtd">
<svg xmlns:dc="http://purl.org/dc/elements/1.1/" xmlns:xl="http://www.w3.org/1999/xlink" version="1.1" xmlns="http://www.w3.org/2000/svg" viewBox="-836.1234 -3889.1866 16.25 16.249997" width="16.25" height="16.249997">
  <defs/>
  <g id="SOURCES" stroke-dasharray="none" stroke="none" stroke-opacity="1" fill="none" fill-opacity="1">
    <title>SOURCES</title>
    <g id="SOURCES_Calque_2">
      <title>Calque 2</title>
      <g id="Group_8806">
        <g id="Graphic_6554">
          <rect x="-835.9984" y="-3889.0616" width="16" height="15.999997" stroke="gray" stroke-opacity="0" stroke-linecap="round" stroke-linejoin="round" stroke-width=".25"/>
        </g>
        <g id="Graphic_6553">
          <path d="M -832.1588 -3888.4947 L -827.1988 -3888.6547 L -823.8388 -3888.8147 L -820.6388 -3885.6147 L -820.7988 -3873.9347 L -832.1588 -3873.9347 Z" fill="white"/>
        </g>
        <g id="Graphic_6552">
          <path d="M -819.9992 -3885.439 L -819.9992 -3875.0616 C -819.9992 -3873.957 -820.8946 -3873.0616 -821.9992 -3873.0616 L -830.7992 -3873.0616 C -831.9038 -3873.0616 -832.7992 -3873.957 -832.7992 -3875.0616 L -832.7992 -3887.0616 C -832.7992 -3888.166 -831.9038 -3889.0616 -830.7992 -3889.0616 L -823.6216 -3889.0616 C -823.5154 -3889.0683 -823.4049 -3889.033 -823.3164 -3888.9444 L -820.1164 -3885.7444 C -820.0279 -3885.656 -819.9925 -3885.5454 -819.9992 -3885.439 Z M -823.9992 -3888.2616 L -830.7992 -3888.2616 C -831.462 -3888.2616 -831.9992 -3887.7243 -831.9992 -3887.0616 L -831.9992 -3875.0616 C -831.9992 -3874.399 -831.462 -3873.8616 -830.7992 -3873.8616 L -821.9992 -3873.8616 C -821.3365 -3873.8616 -820.7992 -3874.399 -820.7992 -3875.0616 L -820.7992 -3885.0616 L -823.5992 -3885.0616 C -823.8201 -3885.0616 -823.9992 -3885.2407 -823.9992 -3885.4616 Z M -823.1992 -3887.696 L -823.1992 -3885.8616 L -821.3649 -3885.8616 Z M -829.5992 -3878.6624 L -827.9992 -3878.6624 L -827.9992 -3879.4624 L -829.5992 -3879.4624 Z M -829.5992 -3877.8624 L -829.5992 -3877.4624 C -829.5992 -3877.2415 -829.4201 -3877.0624 -829.1992 -3877.0624 L -827.9992 -3877.0624 L -827.9992 -3877.8624 Z M -823.1881 -3878.6624 L -823.1881 -3879.4624 L -827.1992 -3879.4624 L -827.1992 -3878.6624 Z M -823.1881 -3877.8624 L -827.1992 -3877.8624 L -827.1992 -3877.0624 L -823.5881 -3877.0624 C -823.3672 -3877.0624 -823.1881 -3877.2415 -823.1881 -3877.4624 Z M -829.5992 -3880.2624 L -827.9992 -3880.2624 L -827.9992 -3881.0624 L -829.1992 -3881.0624 C -829.4201 -3881.0624 -829.5992 -3880.8833 -829.5992 -3880.6624 Z M -823.1881 -3880.2624 L -823.1881 -3880.6624 C -823.1881 -3880.8833 -823.3672 -3881.0624 -823.5881 -3881.0624 L -827.1992 -3881.0624 L -827.1992 -3880.2624 Z M -830.3992 -3880.6624 C -830.3992 -3881.325 -829.862 -3881.8624 -829.1992 -3881.8624 L -823.5881 -3881.8624 C -822.9254 -3881.8624 -822.3881 -3881.325 -822.3881 -3880.6624 L -822.3881 -3877.4624 C -822.3881 -3876.7996 -822.9254 -3876.2624 -823.5881 -3876.2624 L -829.1992 -3876.2624 C -829.862 -3876.2624 -830.3992 -3876.7996 -830.3992 -3877.4624 Z" fill="#999"/>
        </g>
      </g>
    </g>
  </g>
</svg>
