<?xml version="1.0" encoding="UTF-8" standalone="no"?>
<!DOCTYPE svg PUBLIC "-//W3C//DTD SVG 1.1//EN" "http://www.w3.org/Graphics/SVG/1.1/DTD/svg11.dtd">
<svg xmlns:dc="http://purl.org/dc/elements/1.1/" xmlns:xl="http://www.w3.org/1999/xlink" version="1.1" xmlns="http://www.w3.org/2000/svg" viewBox="-804.1234 -3889.1866 16.249997 16.249997" width="16.249997" height="16.249997">
  <defs/>
  <g id="SOURCES" stroke-dasharray="none" stroke="none" stroke-opacity="1" fill="none" fill-opacity="1">
    <title>SOURCES</title>
    <g id="SOURCES_Calque_2">
      <title>Calque 2</title>
      <g id="Group_9931">
        <g id="Group_8807">
          <g id="Graphic_8713">
            <rect x="-803.9984" y="-3889.0616" width="15.999997" height="15.999997" stroke="gray" stroke-opacity="0" stroke-linecap="round" stroke-linejoin="round" stroke-width=".25"/>
          </g>
          <g id="Graphic_6567">
            <path d="M -800.1588 -3888.182 L -795.1988 -3888.342 L -791.8388 -3888.502 L -788.6388 -3885.302 L -788.7988 -3873.622 L -800.1588 -3873.622 Z" fill="white"/>
          </g>
          <g id="Graphic_6566">
            <path d="M -787.9992 -3885.439 L -787.9992 -3875.0616 C -787.9992 -3873.957 -788.89465 -3873.0616 -789.9992 -3873.0616 L -798.7992 -3873.0616 C -799.9038 -3873.0616 -800.7992 -3873.957 -800.7992 -3875.0616 L -800.7992 -3887.0616 C -800.7992 -3888.166 -799.9038 -3889.0616 -798.7992 -3889.0616 L -791.6216 -3889.0616 C -791.5154 -3889.0683 -791.4049 -3889.033 -791.3164 -3888.9444 L -788.1164 -3885.7444 C -788.0279 -3885.656 -787.9925 -3885.5454 -787.9992 -3885.439 Z M -791.9992 -3888.2616 L -798.7992 -3888.2616 C -799.462 -3888.2616 -799.9992 -3887.7243 -799.9992 -3887.0616 L -799.9992 -3875.0616 C -799.9992 -3874.399 -799.462 -3873.8616 -798.7992 -3873.8616 L -789.9992 -3873.8616 C -789.3365 -3873.8616 -788.7992 -3874.399 -788.7992 -3875.0616 L -788.7992 -3885.0616 L -791.5992 -3885.0616 C -791.8201 -3885.0616 -791.9992 -3885.2407 -791.9992 -3885.4616 Z M -791.1992 -3887.696 L -791.1992 -3885.8616 L -789.3649 -3885.8616 Z" fill="#999"/>
          </g>
        </g>
        <g id="Graphic_9927">
          <title>E</title>
          <path d="M -792.4046 -3876.0437 L -792.4046 -3877.0137 L -795.8746 -3877.0137 L -795.8746 -3879.1537 L -792.9146 -3879.1537 L -792.9146 -3880.1137 L -795.8746 -3880.1137 L -795.8746 -3882.1937 L -792.4046 -3882.1937 L -792.4046 -3883.1637 L -796.9546 -3883.1637 L -796.9546 -3876.0437 Z" fill="#5c76a1"/>
        </g>
      </g>
    </g>
  </g>
</svg>
