<?xml version="1.0" encoding="UTF-8" standalone="no"?>
<!DOCTYPE svg PUBLIC "-//W3C//DTD SVG 1.1//EN" "http://www.w3.org/Graphics/SVG/1.1/DTD/svg11.dtd">
<svg xmlns:dc="http://purl.org/dc/elements/1.1/" xmlns:xl="http://www.w3.org/1999/xlink" version="1.1" xmlns="http://www.w3.org/2000/svg" viewBox="-708.1234 -3889.1866 16.249997 16.249997" width="16.249997" height="16.249997">
  <defs/>
  <g id="SOURCES" stroke-dasharray="none" stroke="none" stroke-opacity="1" fill="none" fill-opacity="1">
    <title>SOURCES</title>
    <g id="SOURCES_Calque_2">
      <title>Calque 2</title>
      <g id="Group_8810">
        <g id="Graphic_8715">
          <rect x="-707.9984" y="-3889.0616" width="15.999997" height="15.999997" stroke="gray" stroke-opacity="0" stroke-linecap="round" stroke-linejoin="round" stroke-width=".25"/>
        </g>
        <g id="Graphic_6569">
          <path d="M -704.1588 -3888.182 L -699.1988 -3888.342 L -695.8388 -3888.502 L -692.6388 -3885.302 L -692.7988 -3873.622 L -704.1588 -3873.622 Z" fill="white"/>
        </g>
        <g id="Graphic_6568">
          <path d="M -691.9992 -3885.439 L -691.9992 -3875.0616 C -691.9992 -3873.957 -692.89465 -3873.0616 -693.9992 -3873.0616 L -702.7992 -3873.0616 C -703.9038 -3873.0616 -704.7992 -3873.957 -704.7992 -3875.0616 L -704.7992 -3887.0616 C -704.7992 -3888.166 -703.9038 -3889.0616 -702.7992 -3889.0616 L -695.6216 -3889.0616 C -695.5154 -3889.0683 -695.4049 -3889.033 -695.3164 -3888.9444 L -692.1164 -3885.7444 C -692.0279 -3885.656 -691.9925 -3885.5454 -691.9992 -3885.439 Z M -695.9992 -3888.2616 L -702.7992 -3888.2616 C -703.46196 -3888.2616 -703.9992 -3887.7243 -703.9992 -3887.0616 L -703.9992 -3875.0616 C -703.9992 -3874.399 -703.46196 -3873.8616 -702.7992 -3873.8616 L -693.9992 -3873.8616 C -693.3365 -3873.8616 -692.7992 -3874.399 -692.7992 -3875.0616 L -692.7992 -3885.0616 L -695.5992 -3885.0616 C -695.8201 -3885.0616 -695.9992 -3885.2407 -695.9992 -3885.4616 Z M -695.1992 -3887.696 L -695.1992 -3885.8616 L -693.3649 -3885.8616 Z" fill="#999"/>
        </g>
      </g>
      <g id="Graphic_9930">
        <title>G</title>
        <path d="M -695.9913 -3878.9667 L -695.9913 -3880.0567 L -698.5913 -3880.0567 L -698.5913 -3879.1367 L -697.0713 -3879.1367 L -697.0713 -3878.7367 C -697.0713 -3878.2767 -697.1613 -3877.9167 -697.4213 -3877.6167 C -697.7013 -3877.2867 -698.1213 -3877.1067 -698.5913 -3877.1067 C -699.0213 -3877.1067 -699.3813 -3877.2667 -699.6513 -3877.5467 C -700.0013 -3877.9267 -700.0713 -3878.3567 -700.0713 -3879.7667 C -700.0713 -3881.1767 -700.0013 -3881.6067 -699.6513 -3881.9867 C -699.3813 -3882.2667 -699.0213 -3882.4267 -698.5913 -3882.4267 C -697.7913 -3882.4267 -697.2713 -3881.9667 -697.0913 -3881.1867 L -696.0113 -3881.1867 C -696.2013 -3882.3967 -697.0913 -3883.3867 -698.5913 -3883.3867 C -699.3713 -3883.3867 -699.9713 -3883.1267 -700.4313 -3882.6667 C -701.1213 -3881.9667 -701.1513 -3881.2567 -701.1513 -3879.7667 C -701.1513 -3878.2767 -701.1213 -3877.5667 -700.4313 -3876.8667 C -699.9713 -3876.4067 -699.3713 -3876.1467 -698.5913 -3876.1467 C -697.8413 -3876.1467 -697.1613 -3876.3967 -696.6313 -3876.9567 C -696.1613 -3877.4667 -695.9913 -3878.0367 -695.9913 -3878.9667 Z" fill="#5c76a1"/>
      </g>
    </g>
  </g>
</svg>
