<?xml version="1.0" encoding="UTF-8" standalone="no"?>
<!DOCTYPE svg PUBLIC "-//W3C//DTD SVG 1.1//EN" "http://www.w3.org/Graphics/SVG/1.1/DTD/svg11.dtd">
<svg xmlns:dc="http://purl.org/dc/elements/1.1/" xmlns:xl="http://www.w3.org/1999/xlink" version="1.1" xmlns="http://www.w3.org/2000/svg" viewBox="-580.1234 -3889.1874 16.249997 16.249997" width="16.249997" height="16.249997">
  <defs/>
  <g id="SOURCES" stroke-dasharray="none" stroke="none" stroke-opacity="1" fill="none" fill-opacity="1">
    <title>SOURCES</title>
    <g id="SOURCES_Calque_2">
      <title>Calque 2</title>
      <g id="Group_8814">
        <g id="Graphic_8720">
          <rect x="-579.9984" y="-3889.0624" width="15.999997" height="15.999997" stroke="gray" stroke-opacity="0" stroke-linecap="round" stroke-linejoin="round" stroke-width=".25"/>
        </g>
        <g id="Graphic_6561">
          <path d="M -575.9814 -3888.4587 L -571.0214 -3888.6187 L -567.6614 -3888.7787 L -564.4614 -3885.5787 L -564.6214 -3873.8987 L -575.9814 -3873.8987 Z" fill="white"/>
        </g>
        <g id="Graphic_6560">
          <path d="M -563.9992 -3885.439 L -563.9992 -3875.0616 C -563.9992 -3873.957 -564.89465 -3873.0616 -565.9992 -3873.0616 L -574.7992 -3873.0616 C -575.9038 -3873.0616 -576.7992 -3873.957 -576.7992 -3875.0616 L -576.7992 -3887.0616 C -576.7992 -3888.166 -575.9038 -3889.0616 -574.7992 -3889.0616 L -567.6216 -3889.0616 C -567.5154 -3889.0683 -567.40486 -3889.033 -567.3164 -3888.9444 L -564.1164 -3885.7444 C -564.0279 -3885.656 -563.9925 -3885.5454 -563.9992 -3885.439 Z M -567.9992 -3888.2616 L -574.7992 -3888.2616 C -575.46196 -3888.2616 -575.9992 -3887.7243 -575.9992 -3887.0616 L -575.9992 -3875.0616 C -575.9992 -3874.399 -575.46196 -3873.8616 -574.7992 -3873.8616 L -565.9992 -3873.8616 C -565.3365 -3873.8616 -564.7992 -3874.399 -564.7992 -3875.0616 L -564.7992 -3885.0616 L -567.5992 -3885.0616 C -567.8201 -3885.0616 -567.9992 -3885.2407 -567.9992 -3885.4616 Z M -567.1992 -3887.696 L -567.1992 -3885.8616 L -565.3649 -3885.8616 Z M -573.1992 -3882.6624 C -573.4201 -3882.6624 -573.5992 -3882.8415 -573.5992 -3883.0624 C -573.5992 -3883.2833 -573.4201 -3883.4624 -573.1992 -3883.4624 L -567.5992 -3883.4624 C -567.3783 -3883.4624 -567.1992 -3883.2833 -567.1992 -3883.0624 C -567.1992 -3882.8415 -567.3783 -3882.6624 -567.5992 -3882.6624 Z M -573.1992 -3880.2624 C -573.4201 -3880.2624 -573.5992 -3880.4415 -573.5992 -3880.6624 C -573.5992 -3880.8833 -573.4201 -3881.0624 -573.1992 -3881.0624 L -567.5992 -3881.0624 C -567.3783 -3881.0624 -567.1992 -3880.8833 -567.1992 -3880.6624 C -567.1992 -3880.4415 -567.3783 -3880.2624 -567.5992 -3880.2624 Z M -573.1992 -3877.8624 C -573.4201 -3877.8624 -573.5992 -3878.0415 -573.5992 -3878.2624 C -573.5992 -3878.4833 -573.4201 -3878.6624 -573.1992 -3878.6624 L -569.1992 -3878.6624 C -568.9783 -3878.6624 -568.7992 -3878.4833 -568.7992 -3878.2624 C -568.7992 -3878.0415 -568.9783 -3877.8624 -569.1992 -3877.8624 Z" fill="#999"/>
        </g>
      </g>
    </g>
  </g>
</svg>
