<?xml version="1.0" encoding="UTF-8" standalone="no"?>
<!DOCTYPE svg PUBLIC "-//W3C//DTD SVG 1.1//EN" "http://www.w3.org/Graphics/SVG/1.1/DTD/svg11.dtd">
<svg xmlns:dc="http://purl.org/dc/elements/1.1/" xmlns:xl="http://www.w3.org/1999/xlink" version="1.1" xmlns="http://www.w3.org/2000/svg" viewBox="-740.1234 -3889.2647 16.250047 16.250047" width="16.250047" height="16.250047">
  <defs/>
  <g id="SOURCES" stroke-dasharray="none" stroke="none" stroke-opacity="1" fill="none" fill-opacity="1">
    <title>SOURCES</title>
    <g id="SOURCES_Calque_2">
      <title>Calque 2</title>
      <g id="Group_8809">
        <g id="Graphic_8716">
          <rect x="-739.9984" y="-3889.1397" width="16.000047" height="16.000047" stroke="gray" stroke-opacity="0" stroke-linecap="round" stroke-linejoin="round" stroke-width=".25"/>
        </g>
        <g id="Graphic_8711">
          <path d="M -736.1588 -3888.1356 L -731.1988 -3888.2956 L -727.8388 -3888.4556 L -724.6388 -3885.2556 L -724.7988 -3873.5755 L -736.1588 -3873.5755 Z" fill="white"/>
        </g>
        <g id="Graphic_6565">
          <path d="M -723.9992 -3885.393 L -723.9992 -3875.015 C -723.9992 -3873.9106 -724.8946 -3873.015 -725.9992 -3873.015 L -734.7992 -3873.015 C -735.9038 -3873.015 -736.7992 -3873.9106 -736.7992 -3875.015 L -736.7992 -3887.015 C -736.7992 -3888.1197 -735.9038 -3889.015 -734.7992 -3889.015 L -727.6216 -3889.015 C -727.5154 -3889.022 -727.4048 -3888.9865 -727.3163 -3888.898 L -724.1163 -3885.698 C -724.0278 -3885.6095 -723.9924 -3885.499 -723.9992 -3885.393 Z M -727.9992 -3888.215 L -734.7992 -3888.215 C -735.4619 -3888.215 -735.9992 -3887.678 -735.9992 -3887.015 L -735.9992 -3875.015 C -735.9992 -3874.3524 -735.4619 -3873.815 -734.7992 -3873.815 L -725.9992 -3873.815 C -725.3364 -3873.815 -724.7992 -3874.3524 -724.7992 -3875.015 L -724.7992 -3885.015 L -727.5992 -3885.015 C -727.8201 -3885.015 -727.9992 -3885.1943 -727.9992 -3885.415 Z M -727.1992 -3887.6495 L -727.1992 -3885.815 L -725.36486 -3885.815 Z M -726.3992 -3877.424 C -726.39905 -3877.418 -726.3991 -3877.412 -726.3992 -3877.4062 C -726.4044 -3876.306 -727.2978 -3875.416 -728.3992 -3875.416 L -732.3992 -3875.416 C -733.5038 -3875.416 -734.3992 -3876.3114 -734.3992 -3877.416 L -734.3992 -3881.416 C -734.3992 -3882.5205 -733.5038 -3883.416 -732.3992 -3883.416 L -728.3992 -3883.416 C -727.2946 -3883.416 -726.3992 -3882.5205 -726.3992 -3881.416 L -726.3992 -3877.424 Z M -727.1992 -3878.063 L -727.1992 -3881.416 C -727.1992 -3882.0787 -727.7364 -3882.616 -728.3992 -3882.616 L -732.3992 -3882.616 C -733.0619 -3882.616 -733.5992 -3882.0787 -733.5992 -3881.416 L -733.5992 -3879.1816 L -732.682 -3880.099 C -732.5258 -3880.255 -732.2726 -3880.255 -732.11635 -3880.099 L -729.9202 -3877.9027 L -728.5781 -3878.5737 C -728.46545 -3878.63 -728.3329 -3878.63 -728.2203 -3878.5737 L -727.1992 -3878.063 Z M -727.2223 -3877.1803 L -728.3992 -3877.7687 L -729.8203 -3877.058 C -729.9743 -3876.981 -730.1603 -3877.0114 -730.282 -3877.133 L -732.3992 -3879.2503 L -733.5992 -3878.0503 L -733.5992 -3877.416 C -733.5992 -3876.753 -733.0619 -3876.216 -732.3992 -3876.216 L -728.3992 -3876.216 C -727.8171 -3876.216 -727.3318 -3876.6304 -727.2223 -3877.1803 Z M -729.5992 -3881.016 L -729.5992 -3880.216 L -728.7992 -3880.216 L -728.7992 -3881.016 Z M -729.5992 -3881.816 L -728.7992 -3881.816 C -728.35735 -3881.816 -727.9992 -3881.458 -727.9992 -3881.016 L -727.9992 -3880.216 C -727.9992 -3879.774 -728.35735 -3879.416 -728.7992 -3879.416 L -729.5992 -3879.416 C -730.041 -3879.416 -730.3992 -3879.774 -730.3992 -3880.216 L -730.3992 -3881.016 C -730.3992 -3881.458 -730.041 -3881.816 -729.5992 -3881.816 Z" fill="#999"/>
        </g>
      </g>
    </g>
  </g>
</svg>
