<?xml version="1.0" encoding="UTF-8" standalone="no"?>
<!DOCTYPE svg PUBLIC "-//W3C//DTD SVG 1.1//EN" "http://www.w3.org/Graphics/SVG/1.1/DTD/svg11.dtd">
<svg version="1.1" xmlns="http://www.w3.org/2000/svg" xmlns:xl="http://www.w3.org/1999/xlink" xmlns:dc="http://purl.org/dc/elements/1.1/" viewBox="-515.1552 -3645.2547 21 21" width="21" height="21">
  <defs/>
  <g id="SOURCES" stroke-dasharray="none" fill="none" stroke="none" fill-opacity="1" stroke-opacity="1">
    <title>SOURCES</title>
    <g id="SOURCES_Calque_1">
      <title>Calque 1</title>
      <g id="Graphic_6483">
        <rect x="-514.6552" y="-3644.7547" width="20" height="20" stroke="gray" stroke-opacity="0" stroke-linecap="round" stroke-linejoin="round" stroke-width=".25"/>
      </g>
      <g id="Graphic_6438">
        <path d="M -509.7847 -3636.9293 L -503.0647 -3637.2493 L -501.4647 -3635.0093 L -495.3847 -3634.5293 L -495.3847 -3625.5693 L -509.7847 -3625.5693 Z" fill="white"/>
      </g>
      <g id="Graphic_6437">
        <path d="M -512.6001 -3639.593 L -505.8801 -3639.913 L -504.2801 -3637.673 L -498.2001 -3637.193 L -498.2001 -3628.233 L -512.6001 -3628.233 Z" fill="white"/>
      </g>
      <g id="Group_6423">
        <g id="Graphic_6425">
          <path d="M -498.1449 -3635.2204 L -498.1449 -3636.0203 C -498.1449 -3636.683 -498.6822 -3637.2203 -499.3449 -3637.2203 L -503.7449 -3637.2203 C -504.6286 -3637.2203 -505.3449 -3637.9366 -505.3449 -3638.8203 C -505.3449 -3639.262 -505.7031 -3639.6203 -506.1449 -3639.6203 L -511.3449 -3639.6203 C -512.00767 -3639.6203 -512.5449 -3639.083 -512.5449 -3638.4203 L -512.5449 -3629.6203 C -512.5449 -3628.9576 -512.00767 -3628.4203 -511.3449 -3628.4203 L -510.5449 -3628.4203 C -509.8822 -3628.4203 -509.3449 -3628.9576 -509.3449 -3629.6203 L -509.3449 -3633.6203 C -509.3449 -3634.725 -508.4495 -3635.6203 -507.3449 -3635.6203 L -499.3449 -3635.6203 C -498.8947 -3635.6203 -498.4792 -3635.4715 -498.1449 -3635.2204 Z M -498.1449 -3633.6203 C -498.1449 -3634.283 -498.6822 -3634.8203 -499.3449 -3634.8203 L -507.3449 -3634.8203 C -508.00767 -3634.8203 -508.5449 -3634.283 -508.5449 -3633.6203 L -508.5449 -3629.6203 C -508.5449 -3629.17 -508.6937 -3628.7546 -508.9448 -3628.4203 L -499.3449 -3628.4203 C -498.6822 -3628.4203 -498.1449 -3628.9576 -498.1449 -3629.6203 L -498.1449 -3633.6203 Z M -511.3449 -3640.4203 L -506.1449 -3640.4203 C -505.2613 -3640.4203 -504.5449 -3639.704 -504.5449 -3638.8203 C -504.5449 -3638.3785 -504.18675 -3638.0203 -503.7449 -3638.0203 L -499.3449 -3638.0203 C -498.24036 -3638.0203 -497.3449 -3637.125 -497.3449 -3636.0203 L -497.3449 -3629.6203 C -497.3449 -3628.5157 -498.24036 -3627.6203 -499.3449 -3627.6203 L -511.3449 -3627.6203 C -512.4495 -3627.6203 -513.3449 -3628.5157 -513.3449 -3629.6203 L -513.3449 -3638.4203 C -513.3449 -3639.525 -512.4495 -3640.4203 -511.3449 -3640.4203 Z" fill="#999"/>
        </g>
        <g id="Graphic_6424">
          <path d="M -503.3593 -3627.295 C -503.28595 -3627.209 -503.1769 -3627.1547 -503.0552 -3627.1547 C -502.9335 -3627.1547 -502.8245 -3627.209 -502.7511 -3627.295 Z M -510.6552 -3627.295 L -510.6552 -3626.7547 C -510.6552 -3625.65 -509.7598 -3624.7547 -508.6552 -3624.7547 L -496.6552 -3624.7547 C -495.55064 -3624.7547 -494.6552 -3625.65 -494.6552 -3626.7547 L -494.6552 -3633.1547 C -494.6552 -3634.2592 -495.55064 -3635.1547 -496.6552 -3635.1547 L -496.9736 -3635.1547 L -496.9736 -3634.3547 L -496.6552 -3634.3547 C -495.9925 -3634.3547 -495.4552 -3633.8174 -495.4552 -3633.1547 L -495.4552 -3626.7547 C -495.4552 -3626.092 -495.9925 -3625.5547 -496.6552 -3625.5547 L -508.6552 -3625.5547 C -509.31795 -3625.5547 -509.8552 -3626.092 -509.8552 -3626.7547 L -509.8552 -3627.295 Z" fill="#999"/>
        </g>
      </g>
    </g>
  </g>
</svg>
