<?xml version="1.0" encoding="UTF-8" standalone="no"?>
<!DOCTYPE svg PUBLIC "-//W3C//DTD SVG 1.1//EN" "http://www.w3.org/Graphics/SVG/1.1/DTD/svg11.dtd">
<svg version="1.1" xmlns="http://www.w3.org/2000/svg" xmlns:xl="http://www.w3.org/1999/xlink" xmlns:dc="http://purl.org/dc/elements/1.1/" viewBox="-552.375 -3645.1297 20.750008 20.75" width="20.750008" height="20.75">
  <defs/>
  <g id="SOURCES" stroke-dasharray="none" fill="none" stroke="none" fill-opacity="1" stroke-opacity="1">
    <title>SOURCES</title>
    <g id="SOURCES_Calque_1">
      <title>Calque 1</title>
      <g id="Graphic_6482"/>
      <g id="Graphic_6430">
        <path d="M -551 -3639.8 L -542.6 -3640.2 L -540.6 -3637.4 L -533 -3636.8 L -533 -3625.6 L -551 -3625.6 Z" fill="white"/>
      </g>
      <g id="Graphic_6422">
        <path d="M -549.5 -3639.7547 C -550.3284 -3639.7547 -551 -3639.083 -551 -3638.2547 L -551 -3627.2547 C -551 -3626.4262 -550.3284 -3625.7547 -549.5 -3625.7547 L -534.5 -3625.7547 C -533.6716 -3625.7547 -533 -3626.4262 -533 -3627.2547 L -533 -3635.2547 C -533 -3636.083 -533.6716 -3636.7547 -534.5 -3636.7547 L -540 -3636.7547 C -541.1046 -3636.7547 -542 -3637.65 -542 -3638.7547 C -542 -3639.307 -542.4477 -3639.7547 -543 -3639.7547 Z M -549.5 -3640.7547 L -543 -3640.7547 C -541.8954 -3640.7547 -541 -3639.8592 -541 -3638.7547 C -541 -3638.2024 -540.5523 -3637.7547 -540 -3637.7547 L -534.5 -3637.7547 C -533.1193 -3637.7547 -532 -3636.6354 -532 -3635.2547 L -532 -3627.2547 C -532 -3625.874 -533.1193 -3624.7547 -534.5 -3624.7547 L -549.5 -3624.7547 C -550.8807 -3624.7547 -552 -3625.874 -552 -3627.2547 L -552 -3638.2547 C -552 -3639.6354 -550.8807 -3640.7547 -549.5 -3640.7547 Z" fill="#999"/>
      </g>
    </g>
  </g>
</svg>
