<?xml version="1.0" encoding="UTF-8" standalone="no"?>
<!DOCTYPE svg PUBLIC "-//W3C//DTD SVG 1.1//EN" "http://www.w3.org/Graphics/SVG/1.1/DTD/svg11.dtd">
<svg version="1.1" xmlns="http://www.w3.org/2000/svg" xmlns:xl="http://www.w3.org/1999/xlink" xmlns:dc="http://purl.org/dc/elements/1.1/" viewBox="-475 -3645.589 21 21" width="21" height="21">
  <defs/>
  <g id="SOURCES" stroke-dasharray="none" fill="none" stroke="none" fill-opacity="1" stroke-opacity="1">
    <title>SOURCES</title>
    <g id="SOURCES_Calque_1">
      <title>Calque 1</title>
      <g id="Graphic_6484">
        <rect x="-474.5" y="-3645.089" width="20" height="20" stroke="gray" stroke-opacity="0" stroke-linecap="round" stroke-linejoin="round" stroke-width=".25"/>
      </g>
      <g id="Graphic_6439">
        <path d="M -472.4 -3638.2 L -465.2 -3638.4 L -457.2 -3638.6 L -455.8 -3636.4 L -456.6 -3626.2 L -472.4 -3626.2 Z" fill="white"/>
      </g>
      <g id="Graphic_6427">
        <path d="M -460.5 -3638.0987 L -468.5 -3638.0987 L -468.5 -3626.089 L -460.5 -3626.089 Z M -459.5 -3638.0987 L -459.5 -3626.089 L -458 -3626.089 C -457.17156 -3626.089 -456.5 -3626.7606 -456.5 -3627.589 L -456.5 -3636.5987 C -456.5 -3637.427 -457.17156 -3638.0987 -458 -3638.0987 Z M -469.5 -3638.0987 L -471 -3638.0987 C -471.8284 -3638.0987 -472.5 -3637.427 -472.5 -3636.5987 L -472.5 -3627.589 C -472.5 -3626.7606 -471.8284 -3626.089 -471 -3626.089 L -469.5 -3626.089 Z M -467.5 -3639.0987 L -467.5 -3639.5987 C -467.5 -3640.427 -466.8284 -3641.0987 -466 -3641.0987 L -463 -3641.0987 C -462.17156 -3641.0987 -461.5 -3640.427 -461.5 -3639.5987 L -461.5 -3639.0987 L -458 -3639.0987 C -456.61927 -3639.0987 -455.5 -3637.9794 -455.5 -3636.5987 L -455.5 -3627.589 C -455.5 -3626.2083 -456.61927 -3625.089 -458 -3625.089 L -471 -3625.089 C -472.3807 -3625.089 -473.5 -3626.2083 -473.5 -3627.589 L -473.5 -3636.5987 C -473.5 -3637.9794 -472.3807 -3639.0987 -471 -3639.0987 Z M -462.5 -3639.0987 L -462.5 -3639.5987 C -462.5 -3639.875 -462.72384 -3640.0987 -463 -3640.0987 L -466 -3640.0987 C -466.2761 -3640.0987 -466.5 -3639.875 -466.5 -3639.5987 L -466.5 -3639.0987 Z" fill="#999"/>
      </g>
    </g>
  </g>
</svg>
