<svg xmlns="http://www.w3.org/2000/svg" xmlns:xl="http://www.w3.org/1999/xlink" width="549.125" height="552.125" version="1.1" viewBox="254.938 153.188 549.125 552.125"><metadata>Produced by OmniGraffle 7.22.5\n2024-02-15 02:43:22 +0000</metadata><g id="Canevas_1" fill="none" fill-opacity="1" stroke="none" stroke-dasharray="none" stroke-opacity="1"><title>Canevas 1</title><g id="Canevas_1_Calque_1"><title>Calque 1</title><g id="Graphic_135"><rect width="548.125" height="276.625" x="255.438" y="428.188" fill="#fff"/><rect width="548.125" height="276.625" x="255.438" y="428.188" stroke="#000" stroke-linecap="round" stroke-linejoin="round" stroke-width="1"/></g><g id="Graphic_134"><rect width="548.125" height="276.625" x="255.438" y="153.188" fill="#ccc"/></g><g id="Graphic_133"><circle cx="741.622" cy="427.25" r="36.685" fill="#666"/></g><g id="Group_129"><title>1.9</title><g id="Graphic_132"><path fill="#fff" d="M 732.3735 442.5687 L 732.3735 412.1873 L 725.3755 412.1873 L 718.8896 417.8198 L 718.8896 425.28715 L 725.3755 419.65464 L 725.3755 442.5687 Z"/></g><g id="Graphic_131"><rect width="7.681" height="7.681" x="735.885" y="434.888" fill="#fff"/></g><g id="Graphic_130"><path fill="#fff" d="M 762.7331 421.70283 C 762.7331 415.2596 758.082 411.93127 752.6202 411.93127 C 747.1583 411.93127 742.50725 415.2596 742.50725 421.70283 C 742.50725 427.7194 746.9023 430.877 750.6147 430.877 C 751.084 430.877 751.7241 430.877 752.3215 430.66364 L 746.3049 442.5687 L 753.9856 442.5687 L 760.0875 429.9809 C 761.7943 426.48193 762.7331 424.3484 762.7331 421.70283 Z M 755.7351 421.70283 C 755.7351 423.96437 754.327 425.15914 752.6202 425.15914 C 750.91335 425.15914 749.5052 423.96437 749.5052 421.70283 C 749.5052 419.4413 750.91335 418.2465 752.6202 418.2465 C 754.327 418.2465 755.7351 419.4413 755.7351 421.70283 Z"/></g></g><g id="Graphic_128"><path fill="#a03537" d="M 319.54888 668.3378 L 319.54888 665.4991 C 319.54888 665.0132 319.4551 664.5955 319.09707 664.23745 C 318.84986 663.9902 318.49182 663.8453 318.04854 663.8453 C 317.6223 663.8453 317.2472 663.9988 316.9659 664.30565 L 316.9659 662.26825 L 315.8577 662.26825 L 315.8577 668.3378 L 316.9659 668.3378 L 316.9659 665.65255 C 316.9659 665.0473 317.35804 664.8427 317.70755 664.8427 C 318.05706 664.8427 318.44067 665.0473 318.44067 665.65255 L 318.44067 668.3378 Z"/></g><g id="Graphic_127"><path fill="#a03537" d="M 322.7371 668.3378 L 322.7371 667.4001 L 322.33645 667.4001 C 322.0722 667.4001 321.95284 667.2552 321.95284 666.99945 L 321.95284 664.8683 L 322.7371 664.8683 L 322.7371 664.0243 L 321.95284 664.0243 L 321.95284 662.7115 L 320.84463 662.7115 L 320.84463 664.0243 L 320.37578 664.0243 L 320.37578 664.8683 L 320.84463 664.8683 L 320.84463 667.06765 C 320.84463 667.6985 321.22824 668.3378 322.13186 668.3378 Z"/></g><g id="Graphic_126"><path fill="#a03537" d="M 325.7378 668.3378 L 325.7378 667.4001 L 325.33714 667.4001 C 325.07288 667.4001 324.95353 667.2552 324.95353 666.99945 L 324.95353 664.8683 L 325.7378 664.8683 L 325.7378 664.0243 L 324.95353 664.0243 L 324.95353 662.7115 L 323.84532 662.7115 L 323.84532 664.0243 L 323.37647 664.0243 L 323.37647 664.8683 L 323.84532 664.8683 L 323.84532 667.06765 C 323.84532 667.6985 324.22893 668.3378 325.13255 668.3378 Z"/></g><g id="Graphic_125"><path fill="#a03537" d="M 330.4605 666.1129 C 330.4605 665.3712 330.4264 664.6807 330.00015 664.246 C 329.75293 663.9902 329.3608 663.8453 328.92604 663.8453 C 328.44865 663.8453 328.1247 663.9732 327.81783 664.3142 L 327.81783 663.8965 L 326.7437 663.8965 L 326.7437 669.96604 L 327.85193 669.96604 L 327.85193 667.9457 C 328.13324 668.2696 328.47423 668.389 328.92604 668.389 C 329.3608 668.389 329.75293 668.24406 330.00015 667.9883 C 330.4264 667.55356 330.4605 666.8545 330.4605 666.1129 Z M 329.35227 666.1129 C 329.35227 666.82896 329.26702 667.3916 328.6021 667.3916 C 327.93717 667.3916 327.85193 666.82896 327.85193 666.1129 C 327.85193 665.3968 327.93717 664.8427 328.6021 664.8427 C 329.26702 664.8427 329.35227 665.3968 329.35227 666.1129 Z"/></g><g id="Graphic_124"><path fill="#a03537" d="M 332.9497 666.0276 L 332.9497 664.766 L 331.68804 664.766 L 331.68804 666.0276 Z M 332.9497 668.3378 L 332.9497 667.0762 L 331.68804 667.0762 L 331.68804 668.3378 Z"/></g><g id="Graphic_123"><path fill="#a03537" d="M 336.9989 661.6374 L 335.9589 661.6374 L 333.52937 668.96866 L 334.5694 668.96866 Z"/></g><g id="Graphic_122"><path fill="#a03537" d="M 340.09338 661.6374 L 339.05337 661.6374 L 336.62383 668.96866 L 337.66384 668.96866 Z"/></g><g id="Graphic_121"><path fill="#a03537" d="M 344.16818 668.1759 L 344.16818 663.8965 L 343.09407 663.8965 L 343.09407 664.3142 C 342.7872 663.9732 342.4803 663.8453 342.01143 663.8453 C 341.57667 663.8453 341.19306 663.9902 340.94585 664.23745 C 340.52814 664.6552 340.49404 665.2178 340.49404 665.99354 C 340.49404 666.7693 340.52814 667.34044 340.94585 667.75815 C 341.19306 668.0054 341.56815 668.1503 342.0029 668.1503 C 342.43767 668.1503 342.77013 668.03094 343.05997 667.707 L 343.05997 668.1588 C 343.05997 668.6106 342.8298 669.0795 342.16488 669.0795 C 341.7898 669.0795 341.54258 668.9772 341.29536 668.7385 L 340.60486 669.4375 C 341.0652 669.8808 341.53405 670.0172 342.21603 670.0172 C 343.4095 670.0172 344.16818 669.24145 344.16818 668.1759 Z M 343.05997 665.99354 C 343.05997 666.58174 342.98325 667.1529 342.32685 667.1529 C 341.67045 667.1529 341.60225 666.58174 341.60225 665.99354 C 341.60225 665.4053 341.67045 664.8427 342.32685 664.8427 C 342.98325 664.8427 343.05997 665.4053 343.05997 665.99354 Z"/></g><g id="Graphic_120"><path fill="#a03537" d="M 348.7715 668.3378 L 348.7715 665.4139 C 348.7715 664.37385 348.13216 663.8453 346.87903 663.8453 C 346.1374 663.8453 345.71967 663.9988 345.2849 664.47615 L 345.98394 665.16665 C 346.22263 664.89386 346.43575 664.783 346.8364 664.783 C 347.4246 664.783 347.6633 664.99615 347.6633 665.48206 L 347.6633 665.7037 L 346.6318 665.7037 C 345.58328 665.7037 345.09737 666.2834 345.09737 666.9909 C 345.09737 667.3831 345.22524 667.7411 345.46393 667.9883 C 345.71967 668.24406 346.09476 668.38045 346.5977 668.38045 C 347.1092 668.38045 347.3905 668.2526 347.68888 667.9542 L 347.68888 668.3378 Z M 347.6633 666.7011 C 347.6633 666.9824 347.62068 667.1529 347.4928 667.2637 C 347.30526 667.4427 347.1092 667.4768 346.8364 667.4768 C 346.37607 667.4768 346.16296 667.2808 346.16296 666.9739 C 346.16296 666.6414 346.37607 666.4624 346.81936 666.4624 L 347.6633 666.4624 Z"/></g><g id="Graphic_119"><path fill="#a03537" d="M 356.23914 668.3378 L 356.23914 665.4991 C 356.23914 665.0132 356.11127 664.5955 355.75323 664.23745 C 355.506 663.9902 355.10535 663.8453 354.66207 663.8453 C 354.10797 663.8453 353.7073 664.0158 353.3322 664.40795 C 353.0509 664.0243 352.65024 663.8453 352.1558 663.8453 C 351.74663 663.8453 351.33744 664.0073 351.0476 664.30565 L 351.0476 663.8965 L 349.96497 663.8965 L 349.96497 668.3378 L 351.07318 668.3378 L 351.07318 665.65255 C 351.07318 665.0473 351.4653 664.8427 351.81482 664.8427 C 352.16434 664.8427 352.54795 665.0473 352.54795 665.65255 L 352.54795 668.3378 L 353.65616 668.3378 L 353.65616 665.627 C 353.65616 665.0473 354.0568 664.8427 354.3978 664.8427 C 354.7473 664.8427 355.13093 665.0473 355.13093 665.65255 L 355.13093 668.3378 Z"/></g><g id="Graphic_118"><path fill="#a03537" d="M 360.7913 668.3378 L 360.7913 665.4139 C 360.7913 664.37385 360.15197 663.8453 358.89884 663.8453 C 358.1572 663.8453 357.7395 663.9988 357.30472 664.47615 L 358.00375 665.16665 C 358.24244 664.89386 358.45556 664.783 358.8562 664.783 C 359.4444 664.783 359.6831 664.99615 359.6831 665.48206 L 359.6831 665.7037 L 358.65162 665.7037 C 357.6031 665.7037 357.1172 666.2834 357.1172 666.9909 C 357.1172 667.3831 357.24505 667.7411 357.48374 667.9883 C 357.7395 668.24406 358.11457 668.38045 358.61752 668.38045 C 359.129 668.38045 359.4103 668.2526 359.7087 667.9542 L 359.7087 668.3378 Z M 359.6831 666.7011 C 359.6831 666.9824 359.6405 667.1529 359.5126 667.2637 C 359.32507 667.4427 359.129 667.4768 358.8562 667.4768 C 358.3959 667.4768 358.18277 667.2808 358.18277 666.9739 C 358.18277 666.6414 358.3959 666.4624 358.83917 666.4624 L 359.6831 666.4624 Z"/></g><g id="Graphic_117"><rect width="2.626" height="1.031" x="361.865" y="665.388" fill="#a03537"/></g><g id="Graphic_116"><path fill="#a03537" d="M 369.33306 666.1129 C 369.33306 665.3712 369.29896 664.6807 368.87272 664.246 C 368.6255 663.9902 368.23337 663.8453 367.7986 663.8453 C 367.32123 663.8453 366.9973 663.9732 366.6904 664.3142 L 366.6904 663.8965 L 365.6163 663.8965 L 365.6163 669.96604 L 366.7245 669.96604 L 366.7245 667.9457 C 367.0058 668.2696 367.3468 668.389 367.7986 668.389 C 368.23337 668.389 368.6255 668.24406 368.87272 667.9883 C 369.29896 667.55356 369.33306 666.8545 369.33306 666.1129 Z M 368.22485 666.1129 C 368.22485 666.82896 368.1396 667.3916 367.47468 667.3916 C 366.80975 667.3916 366.7245 666.82896 366.7245 666.1129 C 366.7245 665.3968 366.80975 664.8427 367.47468 664.8427 C 368.1396 664.8427 368.22485 665.3968 368.22485 666.1129 Z"/></g><g id="Graphic_115"><path fill="#a03537" d="M 372.27407 668.3378 L 372.27407 667.4001 L 371.84784 667.4001 C 371.56653 667.4001 371.4557 667.2637 371.4557 666.99945 L 371.4557 662.26825 L 370.3475 662.26825 L 370.3475 667.06765 C 370.3475 667.6985 370.7311 668.3378 371.64325 668.3378 Z"/></g><g id="Graphic_114"><path fill="#a03537" d="M 376.51937 668.3378 L 376.51937 665.4139 C 376.51937 664.37385 375.88 663.8453 374.6269 663.8453 C 373.88524 663.8453 373.46753 663.9988 373.03277 664.47615 L 373.7318 665.16665 C 373.9705 664.89386 374.1836 664.783 374.58426 664.783 C 375.17247 664.783 375.41116 664.99615 375.41116 665.48206 L 375.41116 665.7037 L 374.37967 665.7037 C 373.33114 665.7037 372.84523 666.2834 372.84523 666.9909 C 372.84523 667.3831 372.9731 667.7411 373.2118 667.9883 C 373.46753 668.24406 373.8426 668.38045 374.34557 668.38045 C 374.85705 668.38045 375.13837 668.2526 375.43673 667.9542 L 375.43673 668.3378 Z M 375.41116 666.7011 C 375.41116 666.9824 375.36854 667.1529 375.24067 667.2637 C 375.05312 667.4427 374.85705 667.4768 374.58426 667.4768 C 374.12393 667.4768 373.9108 667.2808 373.9108 666.9739 C 373.9108 666.6414 374.12393 666.4624 374.5672 666.4624 L 375.41116 666.4624 Z"/></g><g id="Graphic_113"><path fill="#a03537" d="M 379.7076 668.3378 L 379.7076 667.4001 L 379.30694 667.4001 C 379.04268 667.4001 378.92333 667.2552 378.92333 666.99945 L 378.92333 664.8683 L 379.7076 664.8683 L 379.7076 664.0243 L 378.92333 664.0243 L 378.92333 662.7115 L 377.8151 662.7115 L 377.8151 664.0243 L 377.34626 664.0243 L 377.34626 664.8683 L 377.8151 664.8683 L 377.8151 667.06765 C 377.8151 667.6985 378.19873 668.3378 379.10235 668.3378 Z"/></g><g id="Graphic_112"><path fill="#a03537" d="M 382.7765 664.8683 L 382.7765 664.0243 L 381.9581 664.0243 L 381.9581 663.5384 C 381.9581 663.2827 382.07747 663.1378 382.34173 663.1378 L 382.7765 663.1378 L 382.7765 662.20005 L 382.14566 662.20005 C 381.24205 662.20005 380.8499 662.8394 380.8499 663.4702 L 380.8499 664.0243 L 380.38958 664.0243 L 380.38958 664.8683 L 380.8499 664.8683 L 380.8499 668.3378 L 381.9581 668.3378 L 381.9581 664.8683 Z"/></g><g id="Graphic_111"><path fill="#a03537" d="M 387.07293 666.1129 C 387.07293 665.3116 386.97064 664.8171 386.56998 664.3909 C 386.28866 664.0925 385.8454 663.8453 385.18898 663.8453 C 384.53258 663.8453 384.0978 664.10106 383.8165 664.3909 C 383.41584 664.8171 383.31355 665.3116 383.31355 666.1129 C 383.31355 666.9142 383.41584 667.4172 383.8165 667.8434 C 384.0978 668.1332 384.53258 668.389 385.18898 668.389 C 385.8454 668.389 386.28866 668.1332 386.56998 667.8434 C 386.97916 667.4257 387.07293 666.9142 387.07293 666.1129 Z M 385.96472 666.1129 C 385.96472 666.5732 385.93915 666.9739 385.709 667.1955 C 385.5811 667.3234 385.4106 667.3916 385.18898 667.3916 C 384.97586 667.3916 384.80537 667.3234 384.6775 667.1955 C 384.44733 666.9739 384.42175 666.5732 384.42175 666.1129 C 384.42175 665.6611 384.44733 665.2604 384.6775 665.0388 C 384.80537 664.9109 384.97586 664.8427 385.18898 664.8427 C 385.4106 664.8427 385.5811 664.9109 385.709 665.0388 C 385.93915 665.2604 385.96472 665.6611 385.96472 666.1129 Z"/></g><g id="Graphic_110"><path fill="#a03537" d="M 391.3779 664.263 C 391.071 663.95614 390.7641 663.8453 390.32936 663.8453 C 389.852 663.8453 389.42575 664.067 389.21263 664.3227 L 389.21263 663.8965 L 388.13 663.8965 L 388.13 668.3378 L 389.2382 668.3378 L 389.2382 665.6611 C 389.2382 665.09845 389.6133 664.8427 389.9543 664.8427 C 390.22707 664.8427 390.372 664.9365 390.5425 665.107 Z"/></g><g id="Graphic_109"><path fill="#a03537" d="M 398.2829 668.3378 L 398.2829 665.4991 C 398.2829 665.0132 398.15503 664.5955 397.797 664.23745 C 397.54977 663.9902 397.1491 663.8453 396.70583 663.8453 C 396.15172 663.8453 395.75106 664.0158 395.376 664.40795 C 395.09466 664.0243 394.694 663.8453 394.19957 663.8453 C 393.7904 663.8453 393.3812 664.0073 393.09136 664.30565 L 393.09136 663.8965 L 392.00873 663.8965 L 392.00873 668.3378 L 393.11694 668.3378 L 393.11694 665.65255 C 393.11694 665.0473 393.50907 664.8427 393.8586 664.8427 C 394.2081 664.8427 394.5917 665.0473 394.5917 665.65255 L 394.5917 668.3378 L 395.6999 668.3378 L 395.6999 665.627 C 395.6999 665.0473 396.1006 664.8427 396.44156 664.8427 C 396.7911 664.8427 397.1747 665.0473 397.1747 665.65255 L 397.1747 668.3378 Z"/></g><g id="Graphic_108"><rect width="1.27" height="1.262" x="399.434" y="667.076" fill="#a03537"/></g><g id="Graphic_107"><path fill="#a03537" d="M 405.47773 666.1129 C 405.47773 665.3116 405.37544 664.8171 404.9748 664.3909 C 404.69346 664.0925 404.2502 663.8453 403.5938 663.8453 C 402.9374 663.8453 402.5026 664.10106 402.2213 664.3909 C 401.82064 664.8171 401.71835 665.3116 401.71835 666.1129 C 401.71835 666.9142 401.82064 667.4172 402.2213 667.8434 C 402.5026 668.1332 402.9374 668.389 403.5938 668.389 C 404.2502 668.389 404.69346 668.1332 404.9748 667.8434 C 405.38396 667.4257 405.47773 666.9142 405.47773 666.1129 Z M 404.3695 666.1129 C 404.3695 666.5732 404.34395 666.9739 404.1138 667.1955 C 403.9859 667.3234 403.8154 667.3916 403.5938 667.3916 C 403.38066 667.3916 403.21017 667.3234 403.0823 667.1955 C 402.85213 666.9739 402.82656 666.5732 402.82656 666.1129 C 402.82656 665.6611 402.85213 665.2604 403.0823 665.0388 C 403.21017 664.9109 403.38066 664.8427 403.5938 664.8427 C 403.8154 664.8427 403.9859 664.9109 404.1138 665.0388 C 404.34395 665.2604 404.3695 665.6611 404.3695 666.1129 Z"/></g><g id="Graphic_106"><path fill="#a03537" d="M 409.7827 664.263 C 409.4758 663.95614 409.1689 663.8453 408.73416 663.8453 C 408.2568 663.8453 407.83055 664.067 407.61743 664.3227 L 407.61743 663.8965 L 406.5348 663.8965 L 406.5348 668.3378 L 407.643 668.3378 L 407.643 665.6611 C 407.643 665.09845 408.0181 664.8427 408.3591 664.8427 C 408.63187 664.8427 408.7768 664.9365 408.9473 665.107 Z"/></g><g id="Graphic_105"><path fill="#a03537" d="M 413.6444 668.1759 L 413.6444 663.8965 L 412.57027 663.8965 L 412.57027 664.3142 C 412.2634 663.9732 411.9565 663.8453 411.48764 663.8453 C 411.0529 663.8453 410.66927 663.9902 410.42205 664.23745 C 410.00434 664.6552 409.97024 665.2178 409.97024 665.99354 C 409.97024 666.7693 410.00434 667.34044 410.42205 667.75815 C 410.66927 668.0054 411.04435 668.1503 411.4791 668.1503 C 411.91387 668.1503 412.24634 668.03094 412.53617 667.707 L 412.53617 668.1588 C 412.53617 668.6106 412.306 669.0795 411.6411 669.0795 C 411.266 669.0795 411.0188 668.9772 410.77156 668.7385 L 410.08106 669.4375 C 410.5414 669.8808 411.01026 670.0172 411.69223 670.0172 C 412.8857 670.0172 413.6444 669.24145 413.6444 668.1759 Z M 412.53617 665.99354 C 412.53617 666.58174 412.45945 667.1529 411.80305 667.1529 C 411.14665 667.1529 411.07845 666.58174 411.07845 665.99354 C 411.07845 665.4053 411.14665 664.8427 411.80305 664.8427 C 412.45945 664.8427 412.53617 665.4053 412.53617 665.99354 Z"/></g><g id="Graphic_104"><path fill="#a03537" d="M 286.86523 675.5128 C 286.86523 673.8078 285.48423 672.4268 283.7793 672.4268 C 282.07435 672.4268 280.69335 673.8078 280.69335 675.5128 C 280.69335 677.2177 282.07435 678.5987 283.7793 678.5987 C 285.48423 678.5987 286.86523 677.2177 286.86523 675.5128 Z M 286.12358 675.5128 C 286.12358 676.88525 285.10062 677.9082 283.7793 677.9082 C 282.45796 677.9082 281.42648 676.88525 281.42648 675.5128 C 281.42648 674.1403 282.45796 673.1173 283.7793 673.1173 C 285.10062 673.1173 286.12358 674.1403 286.12358 675.5128 Z M 284.96422 676.7403 L 284.48684 676.26295 C 284.25667 676.459 284.0947 676.5357 283.83896 676.5357 C 283.3019 676.5357 283.03764 676.1351 283.03764 675.5128 C 283.03764 674.8905 283.3019 674.4898 283.83896 674.4898 C 284.0947 674.4898 284.25667 674.5665 284.48684 674.7626 L 284.96422 674.2852 C 284.6403 674.0039 284.31635 673.8334 283.83896 673.8334 C 282.9865 673.8334 282.31304 674.4216 282.31304 675.5128 C 282.31304 676.6039 282.9865 677.1836 283.83896 677.1836 C 284.31635 677.1836 284.6488 677.02165 284.96422 676.7403 Z"/></g><g id="Graphic_103"><path fill="#a03537" d="M 294.43515 676.46754 L 294.43515 672.478 L 293.25874 672.478 L 293.25874 676.4249 C 293.25874 677.12394 292.84103 677.54165 292.2017 677.54165 C 291.56233 677.54165 291.15315 677.12394 291.15315 676.4249 L 291.15315 672.478 L 289.9682 672.478 L 289.9682 676.46754 C 289.9682 677.7548 290.95708 678.5987 292.2017 678.5987 C 293.4463 678.5987 294.43515 677.7548 294.43515 676.46754 Z"/></g><g id="Graphic_102"><path fill="#a03537" d="M 301.2549 678.5476 L 301.2549 672.478 L 300.08702 672.478 L 298.50995 675.76 L 296.92436 672.478 L 295.75648 672.478 L 295.75648 678.5476 L 296.9414 678.5476 L 296.9414 675.0098 L 298.1093 677.3115 L 298.9106 677.3115 L 300.06997 675.0098 L 300.06997 678.5476 Z"/></g><g id="Graphic_101"><path fill="#a03537" d="M 308.16842 678.5476 L 308.16842 672.478 L 307.00054 672.478 L 305.42347 675.76 L 303.83788 672.478 L 302.67 672.478 L 302.67 678.5476 L 303.85493 678.5476 L 303.85493 675.0098 L 305.0228 677.3115 L 305.82413 677.3115 L 306.9835 675.0098 L 306.9835 678.5476 Z"/></g><g id="Graphic_100"><rect width="1.185" height="6.07" x="309.584" y="672.478" fill="#a03537"/></g><g id="Graphic_99"><path fill="#a03537" d="M 316.1049 676.7574 C 316.1049 676.2118 315.96 675.77704 315.63605 675.4787 C 315.3718 675.2229 315.0308 675.078 314.4767 675.0013 L 313.7521 674.8905 C 313.49635 674.8564 313.31733 674.7711 313.198 674.6603 C 313.0701 674.541 313.0275 674.3875 313.0275 674.22555 C 313.0275 673.8078 313.32586 673.4583 313.9567 673.4583 C 314.35735 673.4583 314.8262 673.5095 315.2013 673.876 L 315.95146 673.1344 C 315.43146 672.6314 314.8262 672.4268 313.9908 672.4268 C 312.678 672.4268 311.87666 673.1855 311.87666 674.2682 C 311.87666 674.77965 312.0216 675.1803 312.31142 675.4616 C 312.5842 675.7259 312.95077 675.8879 313.48783 675.9646 L 314.21243 676.0754 C 314.5193 676.118 314.63866 676.1692 314.758 676.28 C 314.88588 676.4079 314.94555 676.5784 314.94555 676.78295 C 314.94555 677.2689 314.57046 677.54165 313.8629 677.54165 C 313.3088 677.54165 312.7888 677.4138 312.4052 677.0302 L 311.63797 677.7974 C 312.2347 678.40264 312.93372 678.5987 313.8544 678.5987 C 315.1331 678.5987 316.1049 677.9338 316.1049 676.7574 Z"/></g><g id="Graphic_98"><path fill="#a03537" d="M 321.484 676.68066 L 320.282 676.68066 C 320.16266 677.1751 319.84725 677.54165 319.25904 677.54165 C 318.9351 677.54165 318.67084 677.4223 318.50034 677.2262 C 318.2787 676.9705 318.20198 676.6721 318.20198 675.5128 C 318.20198 674.3534 318.2787 674.05505 318.50034 673.7993 C 318.67084 673.60325 318.9351 673.4839 319.25904 673.4839 C 319.84725 673.4839 320.15413 673.8505 320.27348 674.3449 L 321.484 674.3449 C 321.26234 673.0747 320.39283 672.4268 319.25904 672.4268 C 318.56 672.4268 318.04854 672.657 317.63083 673.0662 C 317.02557 673.67144 317.01705 674.3534 317.01705 675.5128 C 317.01705 676.6721 317.02557 677.3541 317.63083 677.9594 C 318.04854 678.36855 318.56 678.5987 319.25904 678.5987 C 320.3843 678.5987 321.26234 677.9508 321.484 676.68066 Z"/></g><g id="Graphic_97"><path fill="#a03537" d="M 326.7011 675.5128 C 326.7011 674.3534 326.68404 673.67144 326.0788 673.0662 C 325.6696 672.657 325.15813 672.4268 324.4591 672.4268 C 323.76008 672.4268 323.24007 672.657 322.8309 673.0662 C 322.22563 673.67144 322.2171 674.3534 322.2171 675.5128 C 322.2171 676.6721 322.22563 677.3541 322.8309 677.9594 C 323.24007 678.36855 323.76008 678.5987 324.4591 678.5987 C 325.15813 678.5987 325.6696 678.36855 326.0788 677.9594 C 326.68404 677.3541 326.7011 676.6721 326.7011 675.5128 Z M 325.51616 675.5128 C 325.51616 676.6721 325.43944 676.95345 325.2178 677.2092 C 325.0473 677.40526 324.78304 677.54165 324.4591 677.54165 C 324.13516 677.54165 323.8709 677.40526 323.69188 677.2092 C 323.47024 676.95345 323.40204 676.6721 323.40204 675.5128 C 323.40204 674.3534 323.47024 674.0636 323.69188 673.8078 C 323.8709 673.6118 324.13516 673.4839 324.4591 673.4839 C 324.78304 673.4839 325.0473 673.6118 325.2178 673.8078 C 325.43944 674.0636 325.51616 674.3534 325.51616 675.5128 Z"/></g><g id="Graphic_96"><path fill="#a03537" d="M 335.11496 678.5476 L 334.0238 677.2603 C 334.45004 676.78295 334.62905 676.16065 334.67168 675.3764 L 333.62314 675.3764 C 333.6061 675.8111 333.5123 676.1777 333.31625 676.442 L 332.2933 675.2315 L 332.72805 674.91605 C 333.10313 674.64326 333.35035 674.32784 333.35035 673.859 C 333.35035 673.0321 332.75362 672.4268 331.79886 672.4268 C 330.7844 672.4268 330.17917 673.01504 330.17917 673.8419 C 330.17917 674.4216 330.5372 674.84785 330.7844 675.1292 C 330.2559 675.4787 329.69326 675.9816 329.69326 676.7574 C 329.69326 677.8997 330.3582 678.5987 331.69656 678.5987 C 332.5405 678.5987 332.9497 678.2748 333.2651 678.019 L 333.7084 678.5476 Z M 332.59165 677.2348 C 332.31034 677.482 332.04607 677.5928 331.68804 677.5928 C 331.17656 677.5928 330.76737 677.2433 330.76737 676.7403 C 330.76737 676.3056 331.0146 676.0669 331.38115 675.8111 Z M 332.3018 673.8675 C 332.3018 674.0806 332.14837 674.2426 331.9523 674.379 L 331.69656 674.5495 C 331.48344 674.3023 331.2959 674.08915 331.2959 673.8675 C 331.2959 673.5862 331.4664 673.3731 331.79886 673.3731 C 332.11427 673.3731 332.3018 673.5862 332.3018 673.8675 Z"/></g><g id="Graphic_95"><path fill="#a03537" d="M 342.36947 674.3705 C 342.36947 673.339 341.62782 672.478 340.36617 672.478 L 338.01335 672.478 L 338.01335 678.5476 L 339.1983 678.5476 L 339.1983 676.26295 L 340.36617 676.26295 C 341.62782 676.26295 342.36947 675.40195 342.36947 674.3705 Z M 341.18454 674.3705 C 341.18454 674.8649 340.84355 675.1974 340.3065 675.1974 L 339.1983 675.1974 L 339.1983 673.53505 L 340.3065 673.53505 C 340.84355 673.53505 341.18454 673.876 341.18454 674.3705 Z"/></g><g id="Graphic_94"><path fill="#a03537" d="M 346.5551 678.5476 L 346.5551 675.6236 C 346.5551 674.5836 345.91574 674.05505 344.6626 674.05505 C 343.92096 674.05505 343.50325 674.2085 343.0685 674.6859 L 343.7675 675.3764 C 344.0062 675.1036 344.21933 674.9928 344.62 674.9928 C 345.2082 674.9928 345.4469 675.2059 345.4469 675.6918 L 345.4469 675.9134 L 344.4154 675.9134 C 343.36686 675.9134 342.88095 676.4931 342.88095 677.2007 C 342.88095 677.5928 343.00882 677.9508 343.2475 678.19805 C 343.50325 678.4538 343.87834 678.5902 344.3813 678.5902 C 344.89278 678.5902 345.1741 678.4623 345.47246 678.16395 L 345.47246 678.5476 Z M 345.4469 676.9108 C 345.4469 677.1921 345.40426 677.3626 345.2764 677.47345 C 345.08885 677.6525 344.89278 677.6866 344.62 677.6866 C 344.15965 677.6866 343.94654 677.4905 343.94654 677.1836 C 343.94654 676.85115 344.15965 676.6721 344.60294 676.6721 L 345.4469 676.6721 Z"/></g><g id="Graphic_93"><path fill="#a03537" d="M 350.99645 674.4728 C 350.68957 674.1659 350.38268 674.05505 349.9479 674.05505 C 349.47053 674.05505 349.0443 674.2767 348.8312 674.5324 L 348.8312 674.1062 L 347.74855 674.1062 L 347.74855 678.5476 L 348.85676 678.5476 L 348.85676 675.8708 C 348.85676 675.3082 349.23184 675.05244 349.57283 675.05244 C 349.84562 675.05244 349.99054 675.1462 350.16103 675.3167 Z"/></g><g id="Graphic_92"><path fill="#a03537" d="M 353.62206 678.5476 L 353.62206 677.60985 L 353.2214 677.60985 C 352.95713 677.60985 352.8378 677.4649 352.8378 677.2092 L 352.8378 675.078 L 353.62206 675.078 L 353.62206 674.2341 L 352.8378 674.2341 L 352.8378 672.9213 L 351.72958 672.9213 L 351.72958 674.2341 L 351.2607 674.2341 L 351.2607 675.078 L 351.72958 675.078 L 351.72958 677.2774 C 351.72958 677.9082 352.1132 678.5476 353.0168 678.5476 Z"/></g><g id="Graphic_91"><path fill="#a03537" d="M 358.31916 678.5476 L 358.31916 675.70884 C 358.31916 675.2229 358.2254 674.8052 357.86735 674.4472 C 357.62014 674.2 357.2621 674.05505 356.8188 674.05505 C 356.40963 674.05505 356.00045 674.2085 355.7106 674.5154 L 355.7106 674.1062 L 354.62797 674.1062 L 354.62797 678.5476 L 355.7362 678.5476 L 355.7362 675.8623 C 355.7362 675.257 356.1283 675.05244 356.47783 675.05244 C 356.82734 675.05244 357.21095 675.257 357.21095 675.8623 L 357.21095 678.5476 Z"/></g><g id="Graphic_90"><path fill="#a03537" d="M 363.1612 676.6721 L 363.1612 676.2033 C 363.1612 674.9416 362.46216 674.05505 361.2261 674.05505 C 360.07525 674.05505 359.29098 674.8734 359.29098 676.3226 C 359.29098 678.1213 360.2969 678.5987 361.34542 678.5987 C 362.14675 678.5987 362.5815 678.36 363.0333 677.8997 L 362.35986 677.2433 C 362.07855 677.5161 361.83986 677.661 361.35395 677.661 C 360.72312 677.661 360.38214 677.2518 360.38214 676.6721 Z M 362.07002 675.9134 L 360.38214 675.9134 C 360.39066 675.7174 360.4077 675.598 360.48443 675.43605 C 360.60378 675.1718 360.851 674.9757 361.2261 674.9757 C 361.60117 674.9757 361.8484 675.1718 361.96773 675.43605 C 362.04445 675.598 362.0615 675.7174 362.07002 675.9134 Z"/></g><g id="Graphic_89"><path fill="#a03537" d="M 367.43205 674.4728 C 367.12516 674.1659 366.81827 674.05505 366.3835 674.05505 C 365.90613 674.05505 365.4799 674.2767 365.2668 674.5324 L 365.2668 674.1062 L 364.18415 674.1062 L 364.18415 678.5476 L 365.29236 678.5476 L 365.29236 675.8708 C 365.29236 675.3082 365.66744 675.05244 366.00843 675.05244 C 366.2812 675.05244 366.42614 675.1462 366.59663 675.3167 Z"/></g><g id="Graphic_88"><path fill="#a03537" d="M 371.3193 677.1495 C 371.3193 676.3908 370.87603 675.9305 369.998 675.8452 L 369.29896 675.77704 C 368.9665 675.74294 368.83863 675.6151 368.83863 675.3934 C 368.83863 675.1718 369.02617 674.9672 369.46945 674.9672 C 369.8616 674.9672 370.2452 675.0354 370.50094 675.26556 L 371.1829 674.57506 C 370.7567 674.1829 370.18553 674.05505 369.4865 674.05505 C 368.5829 674.05505 367.77304 674.541 367.77304 675.47015 C 367.77304 676.2885 368.26747 676.638 369.05174 676.71476 L 369.7678 676.78295 C 370.12585 676.81705 370.23667 676.9705 370.23667 677.1921 C 370.23667 677.5246 369.836 677.6525 369.4524 677.6525 C 369.1114 677.6525 368.6255 677.6013 368.26747 677.2348 L 367.54287 677.9594 C 368.11403 678.522 368.73633 678.5987 369.43535 678.5987 C 370.4839 678.5987 371.3193 678.12985 371.3193 677.1495 Z"/></g><g id="Graphic_87"><path fill="#a03537" d="M 377.79807 678.5476 L 377.79807 677.5502 L 375.4538 677.5502 L 377.1502 675.581 C 377.5679 675.0951 377.79807 674.77965 377.79807 674.19145 C 377.79807 673.1003 377.03085 672.4268 375.95674 672.4268 C 374.91673 672.4268 374.1069 673.0918 374.1069 674.2 L 375.2151 674.2 C 375.2151 673.6118 375.5902 673.4242 375.95674 673.4242 C 376.4256 673.4242 376.68986 673.7311 376.68986 674.1829 C 376.68986 674.4642 376.5961 674.6518 376.37445 674.91605 L 374.1069 677.5502 L 374.1069 678.5476 Z"/></g><g id="Graphic_86"><path fill="#a03537" d="M 382.3929 676.7915 L 382.3929 674.2341 C 382.3929 673.0747 381.5404 672.4268 380.55155 672.4268 C 379.5627 672.4268 378.7017 673.0747 378.7017 674.2341 L 378.7017 676.7915 C 378.7017 677.9508 379.5627 678.5987 380.55155 678.5987 C 381.5404 678.5987 382.3929 677.9508 382.3929 676.7915 Z M 381.28467 676.78295 C 381.28467 677.2944 380.99483 677.6013 380.55155 677.6013 C 380.10826 677.6013 379.8099 677.2944 379.8099 676.78295 L 379.8099 674.2511 C 379.8099 673.73964 380.10826 673.4242 380.55155 673.4242 C 380.99483 673.4242 381.28467 673.73964 381.28467 674.2511 Z"/></g><g id="Graphic_85"><path fill="#a03537" d="M 387.0218 676.7915 L 387.0218 674.2341 C 387.0218 673.0747 386.1693 672.4268 385.18045 672.4268 C 384.1916 672.4268 383.3306 673.0747 383.3306 674.2341 L 383.3306 676.7915 C 383.3306 677.9508 384.1916 678.5987 385.18045 678.5987 C 386.1693 678.5987 387.0218 677.9508 387.0218 676.7915 Z M 385.91357 676.78295 C 385.91357 677.2944 385.62374 677.6013 385.18045 677.6013 C 384.73717 677.6013 384.4388 677.2944 384.4388 676.78295 L 384.4388 674.2511 C 384.4388 673.73964 384.73717 673.4242 385.18045 673.4242 C 385.62374 673.4242 385.91357 673.73964 385.91357 674.2511 Z"/></g><g id="Graphic_84"><path fill="#a03537" d="M 391.77856 673.4754 L 391.77856 672.478 L 387.91688 672.478 L 387.91688 674.4301 L 388.97394 674.4301 L 388.97394 673.4754 L 390.5766 673.4754 L 388.60738 678.5476 L 389.80936 678.5476 Z"/></g><g id="Graphic_83"><rect width="2.626" height="1.031" x="392.623" y="675.598" fill="#a03537"/></g><g id="Graphic_82"><path fill="#a03537" d="M 399.9452 678.5476 L 399.9452 677.5502 L 397.6009 677.5502 L 399.29733 675.581 C 399.71504 675.0951 399.9452 674.77965 399.9452 674.19145 C 399.9452 673.1003 399.178 672.4268 398.1039 672.4268 C 397.06387 672.4268 396.254 673.0918 396.254 674.2 L 397.36223 674.2 C 397.36223 673.6118 397.7373 673.4242 398.1039 673.4242 C 398.57274 673.4242 398.837 673.7311 398.837 674.1829 C 398.837 674.4642 398.74323 674.6518 398.5216 674.91605 L 396.254 677.5502 L 396.254 678.5476 Z"/></g><g id="Graphic_81"><path fill="#a03537" d="M 404.54 676.7915 L 404.54 674.2341 C 404.54 673.0747 403.68755 672.4268 402.6987 672.4268 C 401.7098 672.4268 400.84883 673.0747 400.84883 674.2341 L 400.84883 676.7915 C 400.84883 677.9508 401.7098 678.5987 402.6987 678.5987 C 403.68755 678.5987 404.54 677.9508 404.54 676.7915 Z M 403.4318 676.78295 C 403.4318 677.2944 403.14197 677.6013 402.6987 677.6013 C 402.2554 677.6013 401.95704 677.2944 401.95704 676.78295 L 401.95704 674.2511 C 401.95704 673.73964 402.2554 673.4242 402.6987 673.4242 C 403.14197 673.4242 403.4318 673.73964 403.4318 674.2511 Z"/></g><g id="Graphic_80"><path fill="#a03537" d="M 409.203 678.5476 L 409.203 677.5502 L 406.85873 677.5502 L 408.55515 675.581 C 408.97286 675.0951 409.203 674.77965 409.203 674.19145 C 409.203 673.1003 408.4358 672.4268 407.3617 672.4268 C 406.3217 672.4268 405.51183 673.0918 405.51183 674.2 L 406.62004 674.2 C 406.62004 673.6118 406.99513 673.4242 407.3617 673.4242 C 407.83055 673.4242 408.0948 673.7311 408.0948 674.1829 C 408.0948 674.4642 408.00104 674.6518 407.7794 674.91605 L 405.51183 677.5502 L 405.51183 678.5476 Z"/></g><g id="Graphic_79"><path fill="#a5a5a5" d="M 319.54888 186.69353 L 319.54888 189.53225 C 319.54888 190.01816 319.4551 190.43586 319.09707 190.7939 C 318.84986 191.04112 318.49182 191.18604 318.04854 191.18604 C 317.6223 191.18604 317.2472 191.0326 316.9659 190.7257 L 316.9659 192.7631 L 315.8577 192.7631 L 315.8577 186.69353 L 316.9659 186.69353 L 316.9659 189.3788 C 316.9659 189.98406 317.35804 190.18865 317.70755 190.18865 C 318.05706 190.18865 318.44067 189.98406 318.44067 189.3788 L 318.44067 186.69353 Z"/></g><g id="Graphic_78"><path fill="#a5a5a5" d="M 322.7371 186.69353 L 322.7371 187.63124 L 322.33645 187.63124 C 322.0722 187.63124 321.95284 187.77616 321.95284 188.0319 L 321.95284 190.16307 L 322.7371 190.16307 L 322.7371 191.00702 L 321.95284 191.00702 L 321.95284 192.31982 L 320.84463 192.31982 L 320.84463 191.00702 L 320.37578 191.00702 L 320.37578 190.16307 L 320.84463 190.16307 L 320.84463 187.9637 C 320.84463 187.33288 321.22824 186.69353 322.13186 186.69353 Z"/></g><g id="Graphic_77"><path fill="#a5a5a5" d="M 325.7378 186.69353 L 325.7378 187.63124 L 325.33714 187.63124 C 325.07288 187.63124 324.95353 187.77616 324.95353 188.0319 L 324.95353 190.16307 L 325.7378 190.16307 L 325.7378 191.00702 L 324.95353 191.00702 L 324.95353 192.31982 L 323.84532 192.31982 L 323.84532 191.00702 L 323.37647 191.00702 L 323.37647 190.16307 L 323.84532 190.16307 L 323.84532 187.9637 C 323.84532 187.33288 324.22893 186.69353 325.13255 186.69353 Z"/></g><g id="Graphic_76"><path fill="#a5a5a5" d="M 330.4605 188.91847 C 330.4605 189.66012 330.4264 190.35062 330.00015 190.78538 C 329.75293 191.04112 329.3608 191.18604 328.92604 191.18604 C 328.44865 191.18604 328.1247 191.05817 327.81783 190.71718 L 327.81783 191.1349 L 326.7437 191.1349 L 326.7437 185.06531 L 327.85193 185.06531 L 327.85193 187.08566 C 328.13324 186.76172 328.47423 186.64238 328.92604 186.64238 C 329.3608 186.64238 329.75293 186.7873 330.00015 187.04304 C 330.4264 187.4778 330.4605 188.17682 330.4605 188.91847 Z M 329.35227 188.91847 C 329.35227 188.2024 329.26702 187.63977 328.6021 187.63977 C 327.93717 187.63977 327.85193 188.2024 327.85193 188.91847 C 327.85193 189.63454 327.93717 190.18865 328.6021 190.18865 C 329.26702 190.18865 329.35227 189.63454 329.35227 188.91847 Z"/></g><g id="Graphic_75"><path fill="#a5a5a5" d="M 332.9497 189.00372 L 332.9497 190.26537 L 331.68804 190.26537 L 331.68804 189.00372 Z M 332.9497 186.69353 L 332.9497 187.95518 L 331.68804 187.95518 L 331.68804 186.69353 Z"/></g><g id="Graphic_74"><path fill="#a5a5a5" d="M 336.9989 193.39393 L 335.9589 193.39393 L 333.52937 186.0627 L 334.5694 186.0627 Z"/></g><g id="Graphic_73"><path fill="#a5a5a5" d="M 340.09338 193.39393 L 339.05337 193.39393 L 336.62383 186.0627 L 337.66384 186.0627 Z"/></g><g id="Graphic_72"><path fill="#a5a5a5" d="M 344.16818 186.8555 L 344.16818 191.1349 L 343.09407 191.1349 L 343.09407 190.71718 C 342.7872 191.05817 342.4803 191.18604 342.01143 191.18604 C 341.57667 191.18604 341.19306 191.04112 340.94585 190.7939 C 340.52814 190.3762 340.49404 189.81356 340.49404 189.03782 C 340.49404 188.26207 340.52814 187.69092 340.94585 187.2732 C 341.19306 187.026 341.56815 186.88107 342.0029 186.88107 C 342.43767 186.88107 342.77013 187.00042 343.05997 187.32435 L 343.05997 186.87255 C 343.05997 186.42074 342.8298 185.95188 342.16488 185.95188 C 341.7898 185.95188 341.54258 186.05418 341.29536 186.29287 L 340.60486 185.59384 C 341.0652 185.15056 341.53405 185.01416 342.21603 185.01416 C 343.4095 185.01416 344.16818 185.7899 344.16818 186.8555 Z M 343.05997 189.03782 C 343.05997 188.44961 342.98325 187.87846 342.32685 187.87846 C 341.67045 187.87846 341.60225 188.44961 341.60225 189.03782 C 341.60225 189.62602 341.67045 190.18865 342.32685 190.18865 C 342.98325 190.18865 343.05997 189.62602 343.05997 189.03782 Z"/></g><g id="Graphic_71"><path fill="#a5a5a5" d="M 348.7715 186.69353 L 348.7715 189.6175 C 348.7715 190.6575 348.13216 191.18604 346.87903 191.18604 C 346.1374 191.18604 345.71967 191.0326 345.2849 190.5552 L 345.98394 189.8647 C 346.22263 190.1375 346.43575 190.24832 346.8364 190.24832 C 347.4246 190.24832 347.6633 190.0352 347.6633 189.5493 L 347.6633 189.32766 L 346.6318 189.32766 C 345.58328 189.32766 345.09737 188.74798 345.09737 188.04043 C 345.09737 187.6483 345.22524 187.29026 345.46393 187.04304 C 345.71967 186.7873 346.09476 186.6509 346.5977 186.6509 C 347.1092 186.6509 347.3905 186.77877 347.68888 187.07714 L 347.68888 186.69353 Z M 347.6633 188.33027 C 347.6633 188.04895 347.62068 187.87846 347.4928 187.76764 C 347.30526 187.58862 347.1092 187.55452 346.8364 187.55452 C 346.37607 187.55452 346.16296 187.75059 346.16296 188.05748 C 346.16296 188.38994 346.37607 188.56896 346.81936 188.56896 L 347.6633 188.56896 Z"/></g><g id="Graphic_70"><path fill="#a5a5a5" d="M 356.23914 186.69353 L 356.23914 189.53225 C 356.23914 190.01816 356.11127 190.43586 355.75323 190.7939 C 355.506 191.04112 355.10535 191.18604 354.66207 191.18604 C 354.10797 191.18604 353.7073 191.01554 353.3322 190.6234 C 353.0509 191.00702 352.65024 191.18604 352.1558 191.18604 C 351.74663 191.18604 351.33744 191.02407 351.0476 190.7257 L 351.0476 191.1349 L 349.96497 191.1349 L 349.96497 186.69353 L 351.07318 186.69353 L 351.07318 189.3788 C 351.07318 189.98406 351.4653 190.18865 351.81482 190.18865 C 352.16434 190.18865 352.54795 189.98406 352.54795 189.3788 L 352.54795 186.69353 L 353.65616 186.69353 L 353.65616 189.40438 C 353.65616 189.98406 354.0568 190.18865 354.3978 190.18865 C 354.7473 190.18865 355.13093 189.98406 355.13093 189.3788 L 355.13093 186.69353 Z"/></g><g id="Graphic_69"><path fill="#a5a5a5" d="M 360.7913 186.69353 L 360.7913 189.6175 C 360.7913 190.6575 360.15197 191.18604 358.89884 191.18604 C 358.1572 191.18604 357.7395 191.0326 357.30472 190.5552 L 358.00375 189.8647 C 358.24244 190.1375 358.45556 190.24832 358.8562 190.24832 C 359.4444 190.24832 359.6831 190.0352 359.6831 189.5493 L 359.6831 189.32766 L 358.65162 189.32766 C 357.6031 189.32766 357.1172 188.74798 357.1172 188.04043 C 357.1172 187.6483 357.24505 187.29026 357.48374 187.04304 C 357.7395 186.7873 358.11457 186.6509 358.61752 186.6509 C 359.129 186.6509 359.4103 186.77877 359.7087 187.07714 L 359.7087 186.69353 Z M 359.6831 188.33027 C 359.6831 188.04895 359.6405 187.87846 359.5126 187.76764 C 359.32507 187.58862 359.129 187.55452 358.8562 187.55452 C 358.3959 187.55452 358.18277 187.75059 358.18277 188.05748 C 358.18277 188.38994 358.3959 188.56896 358.83917 188.56896 L 359.6831 188.56896 Z"/></g><g id="Graphic_68"><rect width="2.626" height="1.031" x="361.865" y="188.612" fill="#a5a5a5"/></g><g id="Graphic_67"><path fill="#a5a5a5" d="M 369.33306 188.91847 C 369.33306 189.66012 369.29896 190.35062 368.87272 190.78538 C 368.6255 191.04112 368.23337 191.18604 367.7986 191.18604 C 367.32123 191.18604 366.9973 191.05817 366.6904 190.71718 L 366.6904 191.1349 L 365.6163 191.1349 L 365.6163 185.06531 L 366.7245 185.06531 L 366.7245 187.08566 C 367.0058 186.76172 367.3468 186.64238 367.7986 186.64238 C 368.23337 186.64238 368.6255 186.7873 368.87272 187.04304 C 369.29896 187.4778 369.33306 188.17682 369.33306 188.91847 Z M 368.22485 188.91847 C 368.22485 188.2024 368.1396 187.63977 367.47468 187.63977 C 366.80975 187.63977 366.7245 188.2024 366.7245 188.91847 C 366.7245 189.63454 366.80975 190.18865 367.47468 190.18865 C 368.1396 190.18865 368.22485 189.63454 368.22485 188.91847 Z"/></g><g id="Graphic_66"><path fill="#a5a5a5" d="M 372.27407 186.69353 L 372.27407 187.63124 L 371.84784 187.63124 C 371.56653 187.63124 371.4557 187.76764 371.4557 188.0319 L 371.4557 192.7631 L 370.3475 192.7631 L 370.3475 187.9637 C 370.3475 187.33288 370.7311 186.69353 371.64325 186.69353 Z"/></g><g id="Graphic_65"><path fill="#a5a5a5" d="M 376.51937 186.69353 L 376.51937 189.6175 C 376.51937 190.6575 375.88 191.18604 374.6269 191.18604 C 373.88524 191.18604 373.46753 191.0326 373.03277 190.5552 L 373.7318 189.8647 C 373.9705 190.1375 374.1836 190.24832 374.58426 190.24832 C 375.17247 190.24832 375.41116 190.0352 375.41116 189.5493 L 375.41116 189.32766 L 374.37967 189.32766 C 373.33114 189.32766 372.84523 188.74798 372.84523 188.04043 C 372.84523 187.6483 372.9731 187.29026 373.2118 187.04304 C 373.46753 186.7873 373.8426 186.6509 374.34557 186.6509 C 374.85705 186.6509 375.13837 186.77877 375.43673 187.07714 L 375.43673 186.69353 Z M 375.41116 188.33027 C 375.41116 188.04895 375.36854 187.87846 375.24067 187.76764 C 375.05312 187.58862 374.85705 187.55452 374.58426 187.55452 C 374.12393 187.55452 373.9108 187.75059 373.9108 188.05748 C 373.9108 188.38994 374.12393 188.56896 374.5672 188.56896 L 375.41116 188.56896 Z"/></g><g id="Graphic_64"><path fill="#a5a5a5" d="M 379.7076 186.69353 L 379.7076 187.63124 L 379.30694 187.63124 C 379.04268 187.63124 378.92333 187.77616 378.92333 188.0319 L 378.92333 190.16307 L 379.7076 190.16307 L 379.7076 191.00702 L 378.92333 191.00702 L 378.92333 192.31982 L 377.8151 192.31982 L 377.8151 191.00702 L 377.34626 191.00702 L 377.34626 190.16307 L 377.8151 190.16307 L 377.8151 187.9637 C 377.8151 187.33288 378.19873 186.69353 379.10235 186.69353 Z"/></g><g id="Graphic_63"><path fill="#a5a5a5" d="M 382.7765 190.16307 L 382.7765 191.00702 L 381.9581 191.00702 L 381.9581 191.49293 C 381.9581 191.74867 382.07747 191.89359 382.34173 191.89359 L 382.7765 191.89359 L 382.7765 192.8313 L 382.14566 192.8313 C 381.24205 192.8313 380.8499 192.19195 380.8499 191.56112 L 380.8499 191.00702 L 380.38958 191.00702 L 380.38958 190.16307 L 380.8499 190.16307 L 380.8499 186.69353 L 381.9581 186.69353 L 381.9581 190.16307 Z"/></g><g id="Graphic_62"><path fill="#a5a5a5" d="M 387.07293 188.91847 C 387.07293 189.7198 386.97064 190.21422 386.56998 190.64046 C 386.28866 190.93882 385.8454 191.18604 385.18898 191.18604 C 384.53258 191.18604 384.0978 190.9303 383.8165 190.64046 C 383.41584 190.21422 383.31355 189.7198 383.31355 188.91847 C 383.31355 188.11715 383.41584 187.6142 383.8165 187.18796 C 384.0978 186.89812 384.53258 186.64238 385.18898 186.64238 C 385.8454 186.64238 386.28866 186.89812 386.56998 187.18796 C 386.97916 187.60567 387.07293 188.11715 387.07293 188.91847 Z M 385.96472 188.91847 C 385.96472 188.45814 385.93915 188.05748 385.709 187.83584 C 385.5811 187.70796 385.4106 187.63977 385.18898 187.63977 C 384.97586 187.63977 384.80537 187.70796 384.6775 187.83584 C 384.44733 188.05748 384.42175 188.45814 384.42175 188.91847 C 384.42175 189.37028 384.44733 189.77094 384.6775 189.99258 C 384.80537 190.12045 384.97586 190.18865 385.18898 190.18865 C 385.4106 190.18865 385.5811 190.12045 385.709 189.99258 C 385.93915 189.77094 385.96472 189.37028 385.96472 188.91847 Z"/></g><g id="Graphic_61"><path fill="#a5a5a5" d="M 391.3779 190.76833 C 391.071 191.07522 390.7641 191.18604 390.32936 191.18604 C 389.852 191.18604 389.42575 190.9644 389.21263 190.70865 L 389.21263 191.1349 L 388.13 191.1349 L 388.13 186.69353 L 389.2382 186.69353 L 389.2382 189.37028 C 389.2382 189.9329 389.6133 190.18865 389.9543 190.18865 C 390.22707 190.18865 390.372 190.09488 390.5425 189.92438 Z"/></g><g id="Graphic_60"><path fill="#a5a5a5" d="M 398.2829 186.69353 L 398.2829 189.53225 C 398.2829 190.01816 398.15503 190.43586 397.797 190.7939 C 397.54977 191.04112 397.1491 191.18604 396.70583 191.18604 C 396.15172 191.18604 395.75106 191.01554 395.376 190.6234 C 395.09466 191.00702 394.694 191.18604 394.19957 191.18604 C 393.7904 191.18604 393.3812 191.02407 393.09136 190.7257 L 393.09136 191.1349 L 392.00873 191.1349 L 392.00873 186.69353 L 393.11694 186.69353 L 393.11694 189.3788 C 393.11694 189.98406 393.50907 190.18865 393.8586 190.18865 C 394.2081 190.18865 394.5917 189.98406 394.5917 189.3788 L 394.5917 186.69353 L 395.6999 186.69353 L 395.6999 189.40438 C 395.6999 189.98406 396.1006 190.18865 396.44156 190.18865 C 396.7911 190.18865 397.1747 189.98406 397.1747 189.3788 L 397.1747 186.69353 Z"/></g><g id="Graphic_59"><rect width="1.27" height="1.262" x="399.434" y="186.694" fill="#a5a5a5"/></g><g id="Graphic_58"><path fill="#a5a5a5" d="M 405.47773 188.91847 C 405.47773 189.7198 405.37544 190.21422 404.9748 190.64046 C 404.69346 190.93882 404.2502 191.18604 403.5938 191.18604 C 402.9374 191.18604 402.5026 190.9303 402.2213 190.64046 C 401.82064 190.21422 401.71835 189.7198 401.71835 188.91847 C 401.71835 188.11715 401.82064 187.6142 402.2213 187.18796 C 402.5026 186.89812 402.9374 186.64238 403.5938 186.64238 C 404.2502 186.64238 404.69346 186.89812 404.9748 187.18796 C 405.38396 187.60567 405.47773 188.11715 405.47773 188.91847 Z M 404.3695 188.91847 C 404.3695 188.45814 404.34395 188.05748 404.1138 187.83584 C 403.9859 187.70796 403.8154 187.63977 403.5938 187.63977 C 403.38066 187.63977 403.21017 187.70796 403.0823 187.83584 C 402.85213 188.05748 402.82656 188.45814 402.82656 188.91847 C 402.82656 189.37028 402.85213 189.77094 403.0823 189.99258 C 403.21017 190.12045 403.38066 190.18865 403.5938 190.18865 C 403.8154 190.18865 403.9859 190.12045 404.1138 189.99258 C 404.34395 189.77094 404.3695 189.37028 404.3695 188.91847 Z"/></g><g id="Graphic_57"><path fill="#a5a5a5" d="M 409.7827 190.76833 C 409.4758 191.07522 409.1689 191.18604 408.73416 191.18604 C 408.2568 191.18604 407.83055 190.9644 407.61743 190.70865 L 407.61743 191.1349 L 406.5348 191.1349 L 406.5348 186.69353 L 407.643 186.69353 L 407.643 189.37028 C 407.643 189.9329 408.0181 190.18865 408.3591 190.18865 C 408.63187 190.18865 408.7768 190.09488 408.9473 189.92438 Z"/></g><g id="Graphic_56"><path fill="#a5a5a5" d="M 413.6444 186.8555 L 413.6444 191.1349 L 412.57027 191.1349 L 412.57027 190.71718 C 412.2634 191.05817 411.9565 191.18604 411.48764 191.18604 C 411.0529 191.18604 410.66927 191.04112 410.42205 190.7939 C 410.00434 190.3762 409.97024 189.81356 409.97024 189.03782 C 409.97024 188.26207 410.00434 187.69092 410.42205 187.2732 C 410.66927 187.026 411.04435 186.88107 411.4791 186.88107 C 411.91387 186.88107 412.24634 187.00042 412.53617 187.32435 L 412.53617 186.87255 C 412.53617 186.42074 412.306 185.95188 411.6411 185.95188 C 411.266 185.95188 411.0188 186.05418 410.77156 186.29287 L 410.08106 185.59384 C 410.5414 185.15056 411.01026 185.01416 411.69223 185.01416 C 412.8857 185.01416 413.6444 185.7899 413.6444 186.8555 Z M 412.53617 189.03782 C 412.53617 188.44961 412.45945 187.87846 411.80305 187.87846 C 411.14665 187.87846 411.07845 188.44961 411.07845 189.03782 C 411.07845 189.62602 411.14665 190.18865 411.80305 190.18865 C 412.45945 190.18865 412.53617 189.62602 412.53617 189.03782 Z"/></g><g id="Graphic_55"><path fill="#a5a5a5" d="M 286.86523 179.51858 C 286.86523 181.22352 285.48423 182.60452 283.7793 182.60452 C 282.07435 182.60452 280.69335 181.22352 280.69335 179.51858 C 280.69335 177.81364 282.07435 176.43264 283.7793 176.43264 C 285.48423 176.43264 286.86523 177.81364 286.86523 179.51858 Z M 286.12358 179.51858 C 286.12358 178.1461 285.10062 177.12314 283.7793 177.12314 C 282.45796 177.12314 281.42648 178.1461 281.42648 179.51858 C 281.42648 180.89106 282.45796 181.91402 283.7793 181.91402 C 285.10062 181.91402 286.12358 180.89106 286.12358 179.51858 Z M 284.96422 178.29103 L 284.48684 178.7684 C 284.25667 178.57234 284.0947 178.49562 283.83896 178.49562 C 283.3019 178.49562 283.03764 178.89628 283.03764 179.51858 C 283.03764 180.14088 283.3019 180.54154 283.83896 180.54154 C 284.0947 180.54154 284.25667 180.46482 284.48684 180.26875 L 284.96422 180.74614 C 284.6403 181.02745 284.31635 181.19794 283.83896 181.19794 C 282.9865 181.19794 282.31304 180.60974 282.31304 179.51858 C 282.31304 178.42742 282.9865 177.84774 283.83896 177.84774 C 284.31635 177.84774 284.6488 178.00971 284.96422 178.29103 Z"/></g><g id="Graphic_54"><path fill="#a5a5a5" d="M 294.43515 178.56382 L 294.43515 182.55337 L 293.25874 182.55337 L 293.25874 178.60644 C 293.25874 177.90741 292.84103 177.4897 292.2017 177.4897 C 291.56233 177.4897 291.15315 177.90741 291.15315 178.60644 L 291.15315 182.55337 L 289.9682 182.55337 L 289.9682 178.56382 C 289.9682 177.27659 290.95708 176.43264 292.2017 176.43264 C 293.4463 176.43264 294.43515 177.27659 294.43515 178.56382 Z"/></g><g id="Graphic_53"><path fill="#a5a5a5" d="M 301.2549 176.4838 L 301.2549 182.55337 L 300.08702 182.55337 L 298.50995 179.27136 L 296.92436 182.55337 L 295.75648 182.55337 L 295.75648 176.4838 L 296.9414 176.4838 L 296.9414 180.02154 L 298.1093 177.71987 L 298.9106 177.71987 L 300.06997 180.02154 L 300.06997 176.4838 Z"/></g><g id="Graphic_52"><path fill="#a5a5a5" d="M 308.16842 176.4838 L 308.16842 182.55337 L 307.00054 182.55337 L 305.42347 179.27136 L 303.83788 182.55337 L 302.67 182.55337 L 302.67 176.4838 L 303.85493 176.4838 L 303.85493 180.02154 L 305.0228 177.71987 L 305.82413 177.71987 L 306.9835 180.02154 L 306.9835 176.4838 Z"/></g><g id="Graphic_51"><rect width="1.185" height="6.07" x="309.584" y="176.484" fill="#a5a5a5"/></g><g id="Graphic_50"><path fill="#a5a5a5" d="M 316.1049 178.27398 C 316.1049 178.81956 315.96 179.25432 315.63605 179.55268 C 315.3718 179.80842 315.0308 179.95334 314.4767 180.03006 L 313.7521 180.14088 C 313.49635 180.17498 313.31733 180.26023 313.198 180.37105 C 313.0701 180.4904 313.0275 180.64384 313.0275 180.8058 C 313.0275 181.22352 313.32586 181.57303 313.9567 181.57303 C 314.35735 181.57303 314.8262 181.52188 315.2013 181.15532 L 315.95146 181.89697 C 315.43146 182.39993 314.8262 182.60452 313.9908 182.60452 C 312.678 182.60452 311.87666 181.84582 311.87666 180.76319 C 311.87666 180.2517 312.0216 179.85104 312.31142 179.56973 C 312.5842 179.30546 312.95077 179.1435 313.48783 179.06677 L 314.21243 178.95595 C 314.5193 178.91333 314.63866 178.86218 314.758 178.75136 C 314.88588 178.62349 314.94555 178.453 314.94555 178.2484 C 314.94555 177.7625 314.57046 177.4897 313.8629 177.4897 C 313.3088 177.4897 312.7888 177.61758 312.4052 178.00119 L 311.63797 177.23396 C 312.2347 176.62871 312.93372 176.43264 313.8544 176.43264 C 315.1331 176.43264 316.1049 177.09757 316.1049 178.27398 Z"/></g><g id="Graphic_49"><path fill="#a5a5a5" d="M 321.484 178.3507 L 320.282 178.3507 C 320.16266 177.85627 319.84725 177.4897 319.25904 177.4897 C 318.9351 177.4897 318.67084 177.60905 318.50034 177.80512 C 318.2787 178.06086 318.20198 178.35922 318.20198 179.51858 C 318.20198 180.67794 318.2787 180.9763 318.50034 181.23204 C 318.67084 181.42811 318.9351 181.54746 319.25904 181.54746 C 319.84725 181.54746 320.15413 181.1809 320.27348 180.68646 L 321.484 180.68646 C 321.26234 181.95664 320.39283 182.60452 319.25904 182.60452 C 318.56 182.60452 318.04854 182.37435 317.63083 181.96517 C 317.02557 181.35991 317.01705 180.67794 317.01705 179.51858 C 317.01705 178.35922 317.02557 177.67725 317.63083 177.072 C 318.04854 176.6628 318.56 176.43264 319.25904 176.43264 C 320.3843 176.43264 321.26234 177.08052 321.484 178.3507 Z"/></g><g id="Graphic_48"><path fill="#a5a5a5" d="M 326.7011 179.51858 C 326.7011 180.67794 326.68404 181.35991 326.0788 181.96517 C 325.6696 182.37435 325.15813 182.60452 324.4591 182.60452 C 323.76008 182.60452 323.24007 182.37435 322.8309 181.96517 C 322.22563 181.35991 322.2171 180.67794 322.2171 179.51858 C 322.2171 178.35922 322.22563 177.67725 322.8309 177.072 C 323.24007 176.6628 323.76008 176.43264 324.4591 176.43264 C 325.15813 176.43264 325.6696 176.6628 326.0788 177.072 C 326.68404 177.67725 326.7011 178.35922 326.7011 179.51858 Z M 325.51616 179.51858 C 325.51616 178.35922 325.43944 178.0779 325.2178 177.82217 C 325.0473 177.6261 324.78304 177.4897 324.4591 177.4897 C 324.13516 177.4897 323.8709 177.6261 323.69188 177.82217 C 323.47024 178.0779 323.40204 178.35922 323.40204 179.51858 C 323.40204 180.67794 323.47024 180.96778 323.69188 181.22352 C 323.8709 181.41959 324.13516 181.54746 324.4591 181.54746 C 324.78304 181.54746 325.0473 181.41959 325.2178 181.22352 C 325.43944 180.96778 325.51616 180.67794 325.51616 179.51858 Z"/></g><g id="Graphic_47"><path fill="#a5a5a5" d="M 335.11496 176.4838 L 334.0238 177.77102 C 334.45004 178.2484 334.62905 178.8707 334.67168 179.65498 L 333.62314 179.65498 C 333.6061 179.22022 333.5123 178.85366 333.31625 178.5894 L 332.2933 179.7999 L 332.72805 180.1153 C 333.10313 180.3881 333.35035 180.70351 333.35035 181.17237 C 333.35035 181.99926 332.75362 182.60452 331.79886 182.60452 C 330.7844 182.60452 330.17917 182.01631 330.17917 181.18942 C 330.17917 180.60974 330.5372 180.1835 330.7844 179.9022 C 330.2559 179.55268 329.69326 179.04972 329.69326 178.27398 C 329.69326 177.13167 330.3582 176.43264 331.69656 176.43264 C 332.5405 176.43264 332.9497 176.75658 333.2651 177.01232 L 333.7084 176.4838 Z M 332.59165 177.7966 C 332.31034 177.54938 332.04607 177.43856 331.68804 177.43856 C 331.17656 177.43856 330.76737 177.78807 330.76737 178.29103 C 330.76737 178.72578 331.0146 178.96448 331.38115 179.22022 Z M 332.3018 181.16385 C 332.3018 180.95073 332.14837 180.78876 331.9523 180.65236 L 331.69656 180.48187 C 331.48344 180.72909 331.2959 180.9422 331.2959 181.16385 C 331.2959 181.44516 331.4664 181.65828 331.79886 181.65828 C 332.11427 181.65828 332.3018 181.44516 332.3018 181.16385 Z"/></g><g id="Graphic_46"><path fill="#a5a5a5" d="M 342.36947 180.66089 C 342.36947 181.69238 341.62782 182.55337 340.36617 182.55337 L 338.01335 182.55337 L 338.01335 176.4838 L 339.1983 176.4838 L 339.1983 178.7684 L 340.36617 178.7684 C 341.62782 178.7684 342.36947 179.6294 342.36947 180.66089 Z M 341.18454 180.66089 C 341.18454 180.16646 340.84355 179.834 340.3065 179.834 L 339.1983 179.834 L 339.1983 181.4963 L 340.3065 181.4963 C 340.84355 181.4963 341.18454 181.15532 341.18454 180.66089 Z"/></g><g id="Graphic_45"><path fill="#a5a5a5" d="M 346.5551 176.4838 L 346.5551 179.40776 C 346.5551 180.44777 345.91574 180.9763 344.6626 180.9763 C 343.92096 180.9763 343.50325 180.82286 343.0685 180.34548 L 343.7675 179.65498 C 344.0062 179.92777 344.21933 180.03859 344.62 180.03859 C 345.2082 180.03859 345.4469 179.82547 345.4469 179.33956 L 345.4469 179.11792 L 344.4154 179.11792 C 343.36686 179.11792 342.88095 178.53824 342.88095 177.8307 C 342.88095 177.43856 343.00882 177.08052 343.2475 176.8333 C 343.50325 176.57756 343.87834 176.44117 344.3813 176.44117 C 344.89278 176.44117 345.1741 176.56904 345.47246 176.8674 L 345.47246 176.4838 Z M 345.4469 178.12053 C 345.4469 177.83922 345.40426 177.66872 345.2764 177.5579 C 345.08885 177.37888 344.89278 177.34479 344.62 177.34479 C 344.15965 177.34479 343.94654 177.54085 343.94654 177.84774 C 343.94654 178.1802 344.15965 178.35922 344.60294 178.35922 L 345.4469 178.35922 Z"/></g><g id="Graphic_44"><path fill="#a5a5a5" d="M 350.99645 180.5586 C 350.68957 180.86548 350.38268 180.9763 349.9479 180.9763 C 349.47053 180.9763 349.0443 180.75466 348.8312 180.49892 L 348.8312 180.92515 L 347.74855 180.92515 L 347.74855 176.4838 L 348.85676 176.4838 L 348.85676 179.16054 C 348.85676 179.72317 349.23184 179.97891 349.57283 179.97891 C 349.84562 179.97891 349.99054 179.88514 350.16103 179.71465 Z"/></g><g id="Graphic_43"><path fill="#a5a5a5" d="M 353.62206 176.4838 L 353.62206 177.4215 L 353.2214 177.4215 C 352.95713 177.4215 352.8378 177.56643 352.8378 177.82217 L 352.8378 179.95334 L 353.62206 179.95334 L 353.62206 180.79728 L 352.8378 180.79728 L 352.8378 182.11009 L 351.72958 182.11009 L 351.72958 180.79728 L 351.2607 180.79728 L 351.2607 179.95334 L 351.72958 179.95334 L 351.72958 177.75397 C 351.72958 177.12314 352.1132 176.4838 353.0168 176.4838 Z"/></g><g id="Graphic_42"><path fill="#a5a5a5" d="M 358.31916 176.4838 L 358.31916 179.32251 C 358.31916 179.80842 358.2254 180.22613 357.86735 180.58417 C 357.62014 180.83138 357.2621 180.9763 356.8188 180.9763 C 356.40963 180.9763 356.00045 180.82286 355.7106 180.51597 L 355.7106 180.92515 L 354.62797 180.92515 L 354.62797 176.4838 L 355.7362 176.4838 L 355.7362 179.16907 C 355.7362 179.77432 356.1283 179.97891 356.47783 179.97891 C 356.82734 179.97891 357.21095 179.77432 357.21095 179.16907 L 357.21095 176.4838 Z"/></g><g id="Graphic_41"><path fill="#a5a5a5" d="M 363.1612 178.35922 L 363.1612 178.82808 C 363.1612 180.08973 362.46216 180.9763 361.2261 180.9763 C 360.07525 180.9763 359.29098 180.15793 359.29098 178.70874 C 359.29098 176.91003 360.2969 176.43264 361.34542 176.43264 C 362.14675 176.43264 362.5815 176.67134 363.0333 177.13167 L 362.35986 177.78807 C 362.07855 177.51528 361.83986 177.37036 361.35395 177.37036 C 360.72312 177.37036 360.38214 177.77954 360.38214 178.35922 Z M 362.07002 179.11792 L 360.38214 179.11792 C 360.39066 179.31399 360.4077 179.43333 360.48443 179.5953 C 360.60378 179.85957 360.851 180.05564 361.2261 180.05564 C 361.60117 180.05564 361.8484 179.85957 361.96773 179.5953 C 362.04445 179.43333 362.0615 179.31399 362.07002 179.11792 Z"/></g><g id="Graphic_40"><path fill="#a5a5a5" d="M 367.43205 180.5586 C 367.12516 180.86548 366.81827 180.9763 366.3835 180.9763 C 365.90613 180.9763 365.4799 180.75466 365.2668 180.49892 L 365.2668 180.92515 L 364.18415 180.92515 L 364.18415 176.4838 L 365.29236 176.4838 L 365.29236 179.16054 C 365.29236 179.72317 365.66744 179.97891 366.00843 179.97891 C 366.2812 179.97891 366.42614 179.88514 366.59663 179.71465 Z"/></g><g id="Graphic_39"><path fill="#a5a5a5" d="M 371.3193 177.88184 C 371.3193 178.64054 370.87603 179.10087 369.998 179.18612 L 369.29896 179.25432 C 368.9665 179.28841 368.83863 179.41628 368.83863 179.63793 C 368.83863 179.85957 369.02617 180.06416 369.46945 180.06416 C 369.8616 180.06416 370.2452 179.99596 370.50094 179.7658 L 371.1829 180.4563 C 370.7567 180.84843 370.18553 180.9763 369.4865 180.9763 C 368.5829 180.9763 367.77304 180.4904 367.77304 179.5612 C 367.77304 178.74283 368.26747 178.39332 369.05174 178.3166 L 369.7678 178.2484 C 370.12585 178.2143 370.23667 178.06086 370.23667 177.83922 C 370.23667 177.50675 369.836 177.37888 369.4524 177.37888 C 369.1114 177.37888 368.6255 177.43003 368.26747 177.7966 L 367.54287 177.072 C 368.11403 176.50937 368.73633 176.43264 369.43535 176.43264 C 370.4839 176.43264 371.3193 176.9015 371.3193 177.88184 Z"/></g><g id="Graphic_38"><path fill="#a5a5a5" d="M 377.79807 176.4838 L 377.79807 177.48118 L 375.4538 177.48118 L 377.1502 179.45038 C 377.5679 179.9363 377.79807 180.2517 377.79807 180.8399 C 377.79807 181.93107 377.03085 182.60452 375.95674 182.60452 C 374.91673 182.60452 374.1069 181.9396 374.1069 180.83138 L 375.2151 180.83138 C 375.2151 181.41959 375.5902 181.60713 375.95674 181.60713 C 376.4256 181.60713 376.68986 181.30024 376.68986 180.84843 C 376.68986 180.56712 376.5961 180.37957 376.37445 180.1153 L 374.1069 177.48118 L 374.1069 176.4838 Z"/></g><g id="Graphic_37"><path fill="#a5a5a5" d="M 382.3929 178.23988 L 382.3929 180.79728 C 382.3929 181.95664 381.5404 182.60452 380.55155 182.60452 C 379.5627 182.60452 378.7017 181.95664 378.7017 180.79728 L 378.7017 178.23988 C 378.7017 177.08052 379.5627 176.43264 380.55155 176.43264 C 381.5404 176.43264 382.3929 177.08052 382.3929 178.23988 Z M 381.28467 178.2484 C 381.28467 177.73692 380.99483 177.43003 380.55155 177.43003 C 380.10826 177.43003 379.8099 177.73692 379.8099 178.2484 L 379.8099 180.78023 C 379.8099 181.29172 380.10826 181.60713 380.55155 181.60713 C 380.99483 181.60713 381.28467 181.29172 381.28467 180.78023 Z"/></g><g id="Graphic_36"><path fill="#a5a5a5" d="M 387.0218 178.23988 L 387.0218 180.79728 C 387.0218 181.95664 386.1693 182.60452 385.18045 182.60452 C 384.1916 182.60452 383.3306 181.95664 383.3306 180.79728 L 383.3306 178.23988 C 383.3306 177.08052 384.1916 176.43264 385.18045 176.43264 C 386.1693 176.43264 387.0218 177.08052 387.0218 178.23988 Z M 385.91357 178.2484 C 385.91357 177.73692 385.62374 177.43003 385.18045 177.43003 C 384.73717 177.43003 384.4388 177.73692 384.4388 178.2484 L 384.4388 180.78023 C 384.4388 181.29172 384.73717 181.60713 385.18045 181.60713 C 385.62374 181.60713 385.91357 181.29172 385.91357 180.78023 Z"/></g><g id="Graphic_35"><path fill="#a5a5a5" d="M 391.77856 181.55598 L 391.77856 182.55337 L 387.91688 182.55337 L 387.91688 180.60122 L 388.97394 180.60122 L 388.97394 181.55598 L 390.5766 181.55598 L 388.60738 176.4838 L 389.80936 176.4838 Z"/></g><g id="Graphic_34"><rect width="2.626" height="1.031" x="392.623" y="178.402" fill="#a5a5a5"/></g><g id="Graphic_33"><path fill="#a5a5a5" d="M 399.9452 176.4838 L 399.9452 177.48118 L 397.6009 177.48118 L 399.29733 179.45038 C 399.71504 179.9363 399.9452 180.2517 399.9452 180.8399 C 399.9452 181.93107 399.178 182.60452 398.1039 182.60452 C 397.06387 182.60452 396.254 181.9396 396.254 180.83138 L 397.36223 180.83138 C 397.36223 181.41959 397.7373 181.60713 398.1039 181.60713 C 398.57274 181.60713 398.837 181.30024 398.837 180.84843 C 398.837 180.56712 398.74323 180.37957 398.5216 180.1153 L 396.254 177.48118 L 396.254 176.4838 Z"/></g><g id="Graphic_32"><path fill="#a5a5a5" d="M 404.54 178.23988 L 404.54 180.79728 C 404.54 181.95664 403.68755 182.60452 402.6987 182.60452 C 401.7098 182.60452 400.84883 181.95664 400.84883 180.79728 L 400.84883 178.23988 C 400.84883 177.08052 401.7098 176.43264 402.6987 176.43264 C 403.68755 176.43264 404.54 177.08052 404.54 178.23988 Z M 403.4318 178.2484 C 403.4318 177.73692 403.14197 177.43003 402.6987 177.43003 C 402.2554 177.43003 401.95704 177.73692 401.95704 178.2484 L 401.95704 180.78023 C 401.95704 181.29172 402.2554 181.60713 402.6987 181.60713 C 403.14197 181.60713 403.4318 181.29172 403.4318 180.78023 Z"/></g><g id="Graphic_31"><path fill="#a5a5a5" d="M 409.203 176.4838 L 409.203 177.48118 L 406.85873 177.48118 L 408.55515 179.45038 C 408.97286 179.9363 409.203 180.2517 409.203 180.8399 C 409.203 181.93107 408.4358 182.60452 407.3617 182.60452 C 406.3217 182.60452 405.51183 181.9396 405.51183 180.83138 L 406.62004 180.83138 C 406.62004 181.41959 406.99513 181.60713 407.3617 181.60713 C 407.83055 181.60713 408.0948 181.30024 408.0948 180.84843 C 408.0948 180.56712 408.00104 180.37957 407.7794 180.1153 L 405.51183 177.48118 L 405.51183 176.4838 Z"/></g><g id="Group_23"><g id="Graphic_30"><path fill="#efb54f" fill-opacity=".252" d="M 642.7976 222.83095 C 580.22505 160.25807 478.77495 160.25807 416.2024 222.83095 C 353.6295 285.4035 353.6295 386.8536 416.2024 449.42617 C 478.77495 511.99905 580.22505 511.99905 642.7976 449.42617 C 705.3705 386.8536 705.3705 285.4035 642.7976 222.83095 M 627.69126 237.9373 C 681.9211 292.16685 681.9211 380.09027 627.69126 434.3198 C 573.4617 488.54966 485.5383 488.54966 431.30874 434.3198 C 377.0789 380.09027 377.0789 292.16685 431.30874 237.9373 C 485.5383 183.70747 573.4617 183.70747 627.69126 237.9373"/><path stroke="#efb64f" stroke-linecap="round" stroke-linejoin="round" stroke-width="0" d="M 642.7976 222.83095 C 580.22505 160.25807 478.77495 160.25807 416.2024 222.83095 C 353.6295 285.4035 353.6295 386.8536 416.2024 449.42617 C 478.77495 511.99905 580.22505 511.99905 642.7976 449.42617 C 705.3705 386.8536 705.3705 285.4035 642.7976 222.83095 M 627.69126 237.9373 C 681.9211 292.16685 681.9211 380.09027 627.69126 434.3198 C 573.4617 488.54966 485.5383 488.54966 431.30874 434.3198 C 377.0789 380.09027 377.0789 292.16685 431.30874 237.9373 C 485.5383 183.70747 573.4617 183.70747 627.69126 237.9373"/></g><g id="Graphic_29"><path fill="#d3673a" fill-opacity=".249" d="M 614.4732 251.15535 C 567.5438 204.2257 491.4562 204.2257 444.5268 251.15535 C 397.59713 298.08478 397.59713 374.17234 444.5268 421.10177 C 491.4562 468.03143 567.5438 468.03143 614.4732 421.10177 C 661.4029 374.17234 661.4029 298.08478 614.4732 251.15535 M 599.36686 266.2617 C 637.9535 304.8481 637.9535 367.409 599.36686 405.9954 C 560.78044 444.58203 498.21956 444.58203 459.63314 405.9954 C 421.04653 367.409 421.04653 304.8481 459.63314 266.2617 C 498.21956 227.6751 560.78044 227.6751 599.36686 266.2617"/><path stroke="#d2673a" stroke-linecap="round" stroke-linejoin="round" stroke-width="0" d="M 614.4732 251.15535 C 567.5438 204.2257 491.4562 204.2257 444.5268 251.15535 C 397.59713 298.08478 397.59713 374.17234 444.5268 421.10177 C 491.4562 468.03143 567.5438 468.03143 614.4732 421.10177 C 661.4029 374.17234 661.4029 298.08478 614.4732 251.15535 M 599.36686 266.2617 C 637.9535 304.8481 637.9535 367.409 599.36686 405.9954 C 560.78044 444.58203 498.21956 444.58203 459.63314 405.9954 C 421.04653 367.409 421.04653 304.8481 459.63314 266.2617 C 498.21956 227.6751 560.78044 227.6751 599.36686 266.2617"/></g><g id="Graphic_28"><path fill="#3570a0" fill-opacity=".25" d="M 586.1488 279.47975 C 554.8625 248.1933 504.1375 248.1933 472.8512 279.47975 C 441.56475 310.76603 441.56475 361.4911 472.8512 392.77737 C 504.1375 424.0638 554.8625 424.0638 586.1488 392.77737 C 617.43525 361.4911 617.43525 310.76603 586.1488 279.47975 M 571.04245 294.5861 C 593.98584 317.52938 593.98584 354.72774 571.04245 377.671 C 548.0992 400.6144 510.9008 400.6144 487.95755 377.671 C 465.01416 354.72774 465.01416 317.52938 487.95755 294.5861 C 510.9008 271.6427 548.0992 271.6427 571.04245 294.5861"/><path stroke="#3770a0" stroke-linecap="round" stroke-linejoin="round" stroke-width="0" d="M 586.1488 279.47975 C 554.8625 248.1933 504.1375 248.1933 472.8512 279.47975 C 441.56475 310.76603 441.56475 361.4911 472.8512 392.77737 C 504.1375 424.0638 554.8625 424.0638 586.1488 392.77737 C 617.43525 361.4911 617.43525 310.76603 586.1488 279.47975 M 571.04245 294.5861 C 593.98584 317.52938 593.98584 354.72774 571.04245 377.671 C 548.0992 400.6144 510.9008 400.6144 487.95755 377.671 C 465.01416 354.72774 465.01416 317.52938 487.95755 294.5861 C 510.9008 271.6427 548.0992 271.6427 571.04245 294.5861"/></g><g id="Graphic_27"><path fill="#d3673a" d="M 577.3604 225.86087 C 533.39935 206.71843 480.32565 215.12565 444.369 251.0825 C 397.4393 298.01193 397.4393 374.0995 444.369 421.0289 C 455.9144 432.5744 469.2246 441.2795 483.4312 447.1442 L 491.7813 427.4726 C 480.0297 422.6498 469.0192 415.46647 459.4753 405.92257 C 420.8887 367.33616 420.8887 304.77527 459.4753 266.18885 C 489.09055 236.57347 532.82825 229.688 569.0103 245.5325 Z"/><path stroke="#d2673a" stroke-linecap="round" stroke-linejoin="round" stroke-width="0" d="M 577.3604 225.86087 C 533.39935 206.71843 480.32565 215.12565 444.369 251.0825 C 397.4393 298.01193 397.4393 374.0995 444.369 421.0289 C 455.9144 432.5744 469.2246 441.2795 483.4312 447.1442 L 491.7813 427.4726 C 480.0297 422.6498 469.0192 415.46647 459.4753 405.92257 C 420.8887 367.33616 420.8887 304.77527 459.4753 266.18885 C 489.09055 236.57347 532.82825 229.688 569.0103 245.5325 Z"/></g><g id="Graphic_26"><path fill="#3770a1" d="M 585.0552 427.6716 L 607.7514 427.6716 L 607.7514 353.9671 L 530.0169 353.9671 L 530.0169 375.4867 L 585.0552 375.4867 Z"/><path stroke="#000" stroke-linecap="round" stroke-linejoin="round" stroke-width="0" d="M 585.0552 427.6716 L 607.7514 427.6716 L 607.7514 353.9671 L 530.0169 353.9671 L 530.0169 375.4867 L 585.0552 375.4867 Z"/></g><g id="Graphic_25"><path fill="#3570a0" d="M 574.2527 374.35238 C 573.3542 375.3851 572.4136 376.39395 571.4309 377.37664 C 548.48765 400.32003 511.2893 400.32003 488.346 377.37664 C 465.40263 354.43336 465.40263 317.235 488.346 294.29172 C 499.0023 283.63536 512.7338 277.9285 526.6839 277.1711 L 526.6839 255.78425 C 507.262 256.55696 488.0676 264.35733 473.23966 279.18537 C 441.9532 310.47165 441.9532 361.1967 473.23966 392.483 C 504.52595 423.76944 555.251 423.76944 586.5373 392.483 C 592.0485 386.9718 596.5889 380.85743 600.15846 374.35238 Z"/><path stroke="#3770a0" stroke-linecap="round" stroke-linejoin="round" stroke-width="0" d="M 574.2527 374.35238 C 573.3542 375.3851 572.4136 376.39395 571.4309 377.37664 C 548.48765 400.32003 511.2893 400.32003 488.346 377.37664 C 465.40263 354.43336 465.40263 317.235 488.346 294.29172 C 499.0023 283.63536 512.7338 277.9285 526.6839 277.1711 L 526.6839 255.78425 C 507.262 256.55696 488.0676 264.35733 473.23966 279.18537 C 441.9532 310.47165 441.9532 361.1967 473.23966 392.483 C 504.52595 423.76944 555.251 423.76944 586.5373 392.483 C 592.0485 386.9718 596.5889 380.85743 600.15846 374.35238 Z"/></g><g id="Graphic_24"><path fill="#efb54f" d="M 662.5116 246.74 C 656.82986 238.30546 650.25854 230.29184 642.7976 222.83095 C 580.22505 160.25807 478.77495 160.25807 416.2024 222.83095 C 366.4791 272.55397 356.26823 346.82667 385.56973 406.63245 L 404.1258 395.9191 C 379.51736 344.317 388.57834 280.66748 431.30874 237.9373 C 485.5383 183.70747 573.4617 183.70747 627.69126 237.9373 C 633.80106 244.04707 639.2225 250.58453 643.9556 257.4533 Z"/><path stroke="#efb64f" stroke-linecap="round" stroke-linejoin="round" stroke-width="0" d="M 662.5116 246.74 C 656.82986 238.30546 650.25854 230.29184 642.7976 222.83095 C 580.22505 160.25807 478.77495 160.25807 416.2024 222.83095 C 366.4791 272.55397 356.26823 346.82667 385.56973 406.63245 L 404.1258 395.9191 C 379.51736 344.317 388.57834 280.66748 431.30874 237.9373 C 485.5383 183.70747 573.4617 183.70747 627.69126 237.9373 C 633.80106 244.04707 639.2225 250.58453 643.9556 257.4533 Z"/></g></g><g id="Group_15"><g id="Graphic_22"><path fill="#efb54f" fill-opacity=".252" d="M 642.7976 631.66905 C 580.22505 694.2419 478.77495 694.2419 416.2024 631.66905 C 353.6295 569.0965 353.6295 467.6464 416.2024 405.07383 C 478.77495 342.50095 580.22505 342.50095 642.7976 405.07383 C 705.3705 467.6464 705.3705 569.0965 642.7976 631.66905 M 627.69126 616.5627 C 681.9211 562.33315 681.9211 474.40973 627.69126 420.1802 C 573.4617 365.95034 485.5383 365.95034 431.30874 420.1802 C 377.0789 474.40973 377.0789 562.33315 431.30874 616.5627 C 485.5383 670.7925 573.4617 670.7925 627.69126 616.5627"/><path stroke="#efb64f" stroke-linecap="round" stroke-linejoin="round" stroke-width="0" d="M 642.7976 631.66905 C 580.22505 694.2419 478.77495 694.2419 416.2024 631.66905 C 353.6295 569.0965 353.6295 467.6464 416.2024 405.07383 C 478.77495 342.50095 580.22505 342.50095 642.7976 405.07383 C 705.3705 467.6464 705.3705 569.0965 642.7976 631.66905 M 627.69126 616.5627 C 681.9211 562.33315 681.9211 474.40973 627.69126 420.1802 C 573.4617 365.95034 485.5383 365.95034 431.30874 420.1802 C 377.0789 474.40973 377.0789 562.33315 431.30874 616.5627 C 485.5383 670.7925 573.4617 670.7925 627.69126 616.5627"/></g><g id="Graphic_21"><path fill="#d3673a" fill-opacity=".249" d="M 614.4732 603.34465 C 567.5438 650.2743 491.4562 650.2743 444.5268 603.34465 C 397.59713 556.4152 397.59713 480.32766 444.5268 433.39823 C 491.4562 386.46857 567.5438 386.46857 614.4732 433.39823 C 661.4029 480.32766 661.4029 556.4152 614.4732 603.34465 M 599.36686 588.2383 C 637.9535 549.6519 637.9535 487.091 599.36686 448.5046 C 560.78044 409.91797 498.21956 409.91797 459.63314 448.5046 C 421.04653 487.091 421.04653 549.6519 459.63314 588.2383 C 498.21956 626.8249 560.78044 626.8249 599.36686 588.2383"/><path stroke="#d2673a" stroke-linecap="round" stroke-linejoin="round" stroke-width="0" d="M 614.4732 603.34465 C 567.5438 650.2743 491.4562 650.2743 444.5268 603.34465 C 397.59713 556.4152 397.59713 480.32766 444.5268 433.39823 C 491.4562 386.46857 567.5438 386.46857 614.4732 433.39823 C 661.4029 480.32766 661.4029 556.4152 614.4732 603.34465 M 599.36686 588.2383 C 637.9535 549.6519 637.9535 487.091 599.36686 448.5046 C 560.78044 409.91797 498.21956 409.91797 459.63314 448.5046 C 421.04653 487.091 421.04653 549.6519 459.63314 588.2383 C 498.21956 626.8249 560.78044 626.8249 599.36686 588.2383"/></g><g id="Graphic_20"><path fill="#3570a0" fill-opacity=".25" d="M 586.1488 575.02025 C 554.8625 606.3067 504.1375 606.3067 472.8512 575.02025 C 441.56475 543.73397 441.56475 493.0089 472.8512 461.72263 C 504.1375 430.4362 554.8625 430.4362 586.1488 461.72263 C 617.43525 493.0089 617.43525 543.73397 586.1488 575.02025 M 571.04245 559.9139 C 593.98584 536.9706 593.98584 499.77226 571.04245 476.829 C 548.0992 453.8856 510.9008 453.8856 487.95755 476.829 C 465.01416 499.77226 465.01416 536.9706 487.95755 559.9139 C 510.9008 582.8573 548.0992 582.8573 571.04245 559.9139"/><path stroke="#3770a0" stroke-linecap="round" stroke-linejoin="round" stroke-width="0" d="M 586.1488 575.02025 C 554.8625 606.3067 504.1375 606.3067 472.8512 575.02025 C 441.56475 543.73397 441.56475 493.0089 472.8512 461.72263 C 504.1375 430.4362 554.8625 430.4362 586.1488 461.72263 C 617.43525 493.0089 617.43525 543.73397 586.1488 575.02025 M 571.04245 559.9139 C 593.98584 536.9706 593.98584 499.77226 571.04245 476.829 C 548.0992 453.8856 510.9008 453.8856 487.95755 476.829 C 465.01416 499.77226 465.01416 536.9706 487.95755 559.9139 C 510.9008 582.8573 548.0992 582.8573 571.04245 559.9139"/></g><g id="Graphic_19"><path fill="#d3673a" d="M 577.3604 628.6391 C 533.39935 647.7816 480.32565 639.37435 444.369 603.4175 C 397.4393 556.4881 397.4393 480.4005 444.369 433.4711 C 455.9144 421.9256 469.2246 413.2205 483.4312 407.3558 L 491.7813 427.0274 C 480.0297 431.8502 469.0192 439.03353 459.4753 448.57743 C 420.8887 487.16384 420.8887 549.72473 459.4753 588.31115 C 489.09055 617.9265 532.82825 624.812 569.0103 608.9675 Z"/><path stroke="#d2673a" stroke-linecap="round" stroke-linejoin="round" stroke-width="0" d="M 577.3604 628.6391 C 533.39935 647.7816 480.32565 639.37435 444.369 603.4175 C 397.4393 556.4881 397.4393 480.4005 444.369 433.4711 C 455.9144 421.9256 469.2246 413.2205 483.4312 407.3558 L 491.7813 427.0274 C 480.0297 431.8502 469.0192 439.03353 459.4753 448.57743 C 420.8887 487.16384 420.8887 549.72473 459.4753 588.31115 C 489.09055 617.9265 532.82825 624.812 569.0103 608.9675 Z"/></g><g id="Graphic_18"><path fill="#3770a1" d="M 585.0552 426.8284 L 607.7514 426.8284 L 607.7514 500.5329 L 530.0169 500.5329 L 530.0169 479.0133 L 585.0552 479.0133 Z"/><path stroke="#000" stroke-linecap="round" stroke-linejoin="round" stroke-width="0" d="M 585.0552 426.8284 L 607.7514 426.8284 L 607.7514 500.5329 L 530.0169 500.5329 L 530.0169 479.0133 L 585.0552 479.0133 Z"/></g><g id="Graphic_17"><path fill="#3570a0" d="M 574.2527 480.1476 C 573.3542 479.1149 572.4136 478.10605 571.4309 477.12336 C 548.48765 454.18 511.2893 454.18 488.346 477.12336 C 465.40263 500.06664 465.40263 537.265 488.346 560.2083 C 499.0023 570.86464 512.7338 576.5715 526.6839 577.3289 L 526.6839 598.71575 C 507.262 597.94304 488.0676 590.1427 473.23966 575.3146 C 441.9532 544.02835 441.9532 493.3033 473.23966 462.017 C 504.52595 430.73056 555.251 430.73056 586.5373 462.017 C 592.0485 467.5282 596.5889 473.64257 600.15846 480.1476 Z"/><path stroke="#3770a0" stroke-linecap="round" stroke-linejoin="round" stroke-width="0" d="M 574.2527 480.1476 C 573.3542 479.1149 572.4136 478.10605 571.4309 477.12336 C 548.48765 454.18 511.2893 454.18 488.346 477.12336 C 465.40263 500.06664 465.40263 537.265 488.346 560.2083 C 499.0023 570.86464 512.7338 576.5715 526.6839 577.3289 L 526.6839 598.71575 C 507.262 597.94304 488.0676 590.1427 473.23966 575.3146 C 441.9532 544.02835 441.9532 493.3033 473.23966 462.017 C 504.52595 430.73056 555.251 430.73056 586.5373 462.017 C 592.0485 467.5282 596.5889 473.64257 600.15846 480.1476 Z"/></g><g id="Graphic_16"><path fill="#efb54f" d="M 662.5116 607.76 C 656.82986 616.19454 650.25854 624.20816 642.7976 631.66905 C 580.22505 694.2419 478.77495 694.2419 416.2024 631.66905 C 366.4791 581.946 356.26823 507.67333 385.56973 447.86755 L 404.1258 458.5809 C 379.51736 510.183 388.57834 573.8325 431.30874 616.5627 C 485.5383 670.7925 573.4617 670.7925 627.69126 616.5627 C 633.80106 610.4529 639.2225 603.9155 643.9556 597.0467 Z"/><path stroke="#efb64f" stroke-linecap="round" stroke-linejoin="round" stroke-width="0" d="M 662.5116 607.76 C 656.82986 616.19454 650.25854 624.20816 642.7976 631.66905 C 580.22505 694.2419 478.77495 694.2419 416.2024 631.66905 C 366.4791 581.946 356.26823 507.67333 385.56973 447.86755 L 404.1258 458.5809 C 379.51736 510.183 388.57834 573.8325 431.30874 616.5627 C 485.5383 670.7925 573.4617 670.7925 627.69126 616.5627 C 633.80106 610.4529 639.2225 603.9155 643.9556 597.0467 Z"/></g></g><g id="Graphic_14"><circle cx="317.378" cy="427.25" r="36.685" fill="#999"/></g><g id="Group_10"><title>1.9</title><g id="Graphic_13"><path fill="#fff" d="M 308.12932 411.93127 L 308.12932 442.3127 L 301.13135 442.3127 L 294.64543 436.6802 L 294.64543 429.21285 L 301.13135 434.84536 L 301.13135 411.93127 Z"/></g><g id="Graphic_12"><rect width="7.681" height="7.681" x="311.641" y="411.931" fill="#fff"/></g><g id="Graphic_11"><path fill="#fff" d="M 338.48895 432.79717 C 338.48895 439.2404 333.83786 442.5687 328.37603 442.5687 C 322.9142 442.5687 318.2631 439.2404 318.2631 432.79717 C 318.2631 426.7806 322.65817 423.623 326.3705 423.623 C 326.8399 423.623 327.47995 423.623 328.07733 423.83636 L 322.0608 411.93127 L 329.7415 411.93127 L 335.84337 424.5191 C 337.5502 428.01807 338.48895 430.1516 338.48895 432.79717 Z M 331.49098 432.79717 C 331.49098 430.53563 330.08285 429.34086 328.37603 429.34086 C 326.6692 429.34086 325.26108 430.53563 325.26108 432.79717 C 325.26108 435.0587 326.6692 436.2535 328.37603 436.2535 C 330.08285 436.2535 331.49098 435.0587 331.49098 432.79717 Z"/></g></g><g id="Group_7"><title>.3</title><g id="Graphic_9"><rect width="1.776" height="1.776" x="759.156" y="440.631" fill="#f9fff3"/></g><g id="Graphic_8"><path fill="#f9fff3" d="M 765.7641 435.9271 L 765.7641 437.0791 C 766.0201 437.0471 766.2921 437.0311 766.5801 437.0311 C 766.92145 437.0311 767.2388 437.0764 767.5321 437.1671 C 767.82545 437.25775 768.0788 437.3964 768.2921 437.5831 C 768.50545 437.76976 768.6761 437.9991 768.8041 438.2711 C 768.9321 438.5431 768.9961 438.8551 768.9961 439.2071 C 768.9961 439.5484 768.92945 439.8551 768.7961 440.1271 C 768.6628 440.3991 768.4841 440.6284 768.2601 440.8151 C 768.0361 441.00176 767.7748 441.14575 767.4761 441.2471 C 767.17745 441.3484 766.8628 441.3991 766.5321 441.3991 C 765.7534 441.3991 765.16145 441.1671 764.7561 440.7031 C 764.3508 440.2391 764.13745 439.6391 764.1161 438.9031 L 762.7561 438.9031 C 762.74545 439.48976 762.8281 440.0124 763.0041 440.4711 C 763.1801 440.92976 763.43345 441.3164 763.7641 441.6311 C 764.0948 441.94576 764.4948 442.1831 764.9641 442.3431 C 765.43345 442.5031 765.9561 442.5831 766.5321 442.5831 C 767.06545 442.5831 767.5694 442.5111 768.0441 442.3671 C 768.5188 442.2231 768.9321 442.0071 769.2841 441.7191 C 769.6361 441.4311 769.9161 441.0711 770.1241 440.6391 C 770.3321 440.2071 770.4361 439.7084 770.4361 439.1431 C 770.4361 438.4604 770.2681 437.8684 769.9321 437.3671 C 769.5961 436.86575 769.08145 436.5404 768.3881 436.3911 L 768.3881 436.3591 C 768.8361 436.1564 769.20945 435.85776 769.5081 435.4631 C 769.8068 435.0684 769.9561 434.6151 769.9561 434.1031 C 769.9561 433.5804 769.8681 433.1271 769.6921 432.7431 C 769.5161 432.3591 769.27345 432.0444 768.9641 431.7991 C 768.6548 431.55375 768.28945 431.36975 767.8681 431.2471 C 767.4468 431.1244 766.9908 431.0631 766.5001 431.0631 C 765.9348 431.0631 765.4361 431.15375 765.0041 431.3351 C 764.5721 431.5164 764.2121 431.7671 763.9241 432.0871 C 763.6361 432.4071 763.4148 432.7911 763.2601 433.2391 C 763.10545 433.6871 763.01745 434.1831 762.9961 434.7271 L 764.3561 434.7271 C 764.3561 434.3964 764.3988 434.08176 764.4841 433.7831 C 764.56945 433.4844 764.7001 433.2231 764.8761 432.9991 C 765.0521 432.7751 765.2761 432.5964 765.5481 432.4631 C 765.8201 432.32975 766.13745 432.2631 766.5001 432.2631 C 767.0761 432.2631 767.5561 432.4151 767.9401 432.7191 C 768.3241 433.0231 768.5161 433.4791 768.5161 434.0871 C 768.5161 434.38576 768.45745 434.6524 768.3401 434.8871 C 768.2228 435.12176 768.06545 435.3164 767.8681 435.4711 C 767.6708 435.62575 767.44145 435.7431 767.1801 435.8231 C 766.9188 435.9031 766.6441 435.9431 766.3561 435.9431 L 766.0681 435.9431 C 766.0148 435.9431 765.96145 435.9431 765.9081 435.9431 C 765.86545 435.9431 765.81745 435.93775 765.7641 435.9271 Z"/></g></g><g id="Group_4"><title>.3</title><g id="Graphic_6"><rect width="1.776" height="1.776" x="335.11" y="412.107" fill="#f9fff3"/></g><g id="Graphic_5"><path fill="#f9fff3" d="M 341.71825 418.58727 L 341.71825 417.43527 C 341.97425 417.46727 342.24624 417.48327 342.53425 417.48327 C 342.8756 417.48327 343.1929 417.43794 343.48625 417.34727 C 343.7796 417.2566 344.0329 417.11794 344.24625 416.93127 C 344.4596 416.7446 344.63025 416.5153 344.75825 416.24327 C 344.88625 415.97127 344.95025 415.6593 344.95025 415.30727 C 344.95025 414.96594 344.8836 414.6593 344.75025 414.38727 C 344.6169 414.11527 344.43825 413.88594 344.21425 413.69927 C 343.99024 413.5126 343.7289 413.3686 343.43025 413.26727 C 343.13158 413.16594 342.8169 413.11527 342.48625 413.11527 C 341.70758 413.11527 341.1156 413.34727 340.71025 413.81127 C 340.3049 414.2753 340.09158 414.87527 340.07025 415.61127 L 338.71025 415.61127 C 338.69958 415.0246 338.78224 414.50194 338.95825 414.04327 C 339.13425 413.5846 339.38758 413.19794 339.71825 412.88327 C 340.0489 412.5686 340.4489 412.33127 340.91825 412.17127 C 341.3876 412.01127 341.91024 411.93127 342.48625 411.93127 C 343.0196 411.93127 343.52358 412.00327 343.99825 412.14727 C 344.4729 412.29127 344.88624 412.50727 345.23825 412.79527 C 345.59025 413.08328 345.87024 413.44327 346.07825 413.87527 C 346.28625 414.3073 346.39025 414.80594 346.39025 415.37127 C 346.39025 416.05394 346.22225 416.64594 345.88625 417.14727 C 345.55024 417.6486 345.0356 417.97394 344.34225 418.12327 L 344.34225 418.15527 C 344.79025 418.35794 345.16358 418.6566 345.46225 419.05127 C 345.7609 419.44594 345.91025 419.89927 345.91025 420.41127 C 345.91025 420.93394 345.82225 421.38727 345.64625 421.77127 C 345.47024 422.1553 345.2276 422.46994 344.91825 422.71527 C 344.6089 422.9606 344.2436 423.1446 343.82225 423.26727 C 343.4009 423.38994 342.9449 423.45127 342.45425 423.45127 C 341.8889 423.45127 341.39025 423.3606 340.95825 423.17927 C 340.52624 422.99794 340.16625 422.7473 339.87825 422.42727 C 339.59024 422.10727 339.3689 421.7233 339.21425 421.27527 C 339.05958 420.82727 338.97158 420.3313 338.95025 419.78727 L 340.31025 419.78727 C 340.31025 420.11794 340.3529 420.4326 340.43825 420.73127 C 340.52358 421.02994 340.65424 421.29127 340.83025 421.51527 C 341.00625 421.7393 341.23024 421.91794 341.50225 422.05127 C 341.77425 422.1846 342.09158 422.25127 342.45425 422.25127 C 343.03025 422.25127 343.51024 422.0993 343.89425 421.79527 C 344.27825 421.49127 344.47025 421.0353 344.47025 420.42727 C 344.47025 420.1286 344.4116 419.86194 344.29425 419.62727 C 344.1769 419.3926 344.0196 419.19794 343.82225 419.04327 C 343.6249 418.8886 343.3956 418.77127 343.13425 418.69127 C 342.8729 418.61127 342.59825 418.57127 342.31025 418.57127 L 342.02225 418.57127 C 341.9689 418.57127 341.91558 418.57127 341.86225 418.57127 C 341.81958 418.57127 341.77158 418.5766 341.71825 418.58727 Z"/></g></g><g id="Graphic_3"><title>4</title><path fill="#a03537" d="M 413.3123 678.5525 L 413.3123 677.0669 L 414.0686 677.0669 L 414.0686 676.22955 L 413.3123 676.22955 L 413.3123 672.7001 L 412.00674 672.7001 L 409.62073 676.3466 L 409.62073 677.0669 L 412.26785 677.0669 L 412.26785 678.5525 Z M 410.67417 676.22955 L 410.6832 676.2115 L 411.75463 674.6089 C 411.9347 674.2847 412.08777 673.9876 412.26785 673.61845 L 412.30386 673.61845 C 412.27685 673.9606 412.26785 674.3027 412.26785 674.6359 L 412.26785 676.22955 Z"/></g><g id="Graphic_2"><title>4</title><path fill="#a5a5a4" d="M 413.09806 176.455 L 413.09806 177.94062 L 413.8544 177.94062 L 413.8544 178.77797 L 413.09806 178.77797 L 413.09806 182.30745 L 411.7925 182.30745 L 409.4065 178.66092 L 409.4065 177.94062 L 412.0536 177.94062 L 412.0536 176.455 Z M 410.45995 178.77797 L 410.46895 178.79598 L 411.5404 180.39865 C 411.7205 180.72279 411.87354 181.01991 412.0536 181.38907 L 412.08964 181.38907 C 412.0626 181.04692 412.0536 180.70478 412.0536 180.37164 L 412.0536 178.77797 Z"/></g></g></g></svg>