<?xml version="1.0" encoding="UTF-8" standalone="no"?>
<!DOCTYPE svg PUBLIC "-//W3C//DTD SVG 1.1//EN" "http://www.w3.org/Graphics/SVG/1.1/DTD/svg11.dtd">
<svg xmlns:dc="http://purl.org/dc/elements/1.1/" xmlns:xl="http://www.w3.org/1999/xlink" version="1.1" xmlns="http://www.w3.org/2000/svg" viewBox="-870.636 -3357.4634 25 25" width="25" height="25">
  <defs/>
  <g id="SOURCES" stroke-dasharray="none" stroke="none" stroke-opacity="1" fill="none" fill-opacity="1">
    <title>SOURCES</title>
    <g id="SOURCES_Calque_2">
      <title>Calque 2</title>
      <g id="Group_9990">
        <g id="Graphic_9988">
          <title>views/view.other</title>
          <path d="M -866.296 -3356.9634 L -849.976 -3356.9634 C -847.8552 -3356.9634 -846.136 -3355.244 -846.136 -3353.1234 L -846.136 -3336.8034 C -846.136 -3334.6826 -847.8552 -3332.9634 -849.976 -3332.9634 L -866.296 -3332.9634 C -868.4167 -3332.9634 -870.136 -3334.6826 -870.136 -3336.8034 L -870.136 -3353.1234 C -870.136 -3355.244 -868.4167 -3356.9634 -866.296 -3356.9634 Z" fill="white"/>
          <path d="M -866.296 -3356.9634 L -849.976 -3356.9634 C -847.8552 -3356.9634 -846.136 -3355.244 -846.136 -3353.1234 L -846.136 -3336.8034 C -846.136 -3334.6826 -847.8552 -3332.9634 -849.976 -3332.9634 L -866.296 -3332.9634 C -868.4167 -3332.9634 -870.136 -3334.6826 -870.136 -3336.8034 L -870.136 -3353.1234 C -870.136 -3355.244 -868.4167 -3356.9634 -866.296 -3356.9634 Z" stroke="black" stroke-linecap="round" stroke-linejoin="round" stroke-width=".25"/>
        </g>
        <g id="Group_9987">
          <g id="Group_9985">
            <title>collapse-up</title>
            <g id="Graphic_9986">
              <path d="M -864.82 -3344.5294 C -865.0873 -3344.5294 -865.2974 -3344.7204 -865.2974 -3344.9634 C -865.2974 -3345.2065 -865.0873 -3345.3974 -864.82 -3345.3974 L -851.4519 -3345.3974 C -851.1846 -3345.3974 -850.9745 -3345.2065 -850.9745 -3344.9634 C -850.9745 -3344.7204 -851.1846 -3344.5294 -851.4519 -3344.5294 Z" fill="#5c76a2"/>
            </g>
          </g>
          <g id="Group_9983">
            <title>collapse</title>
            <g id="Graphic_9984">
              <path d="M -857.6585 -3348.21 L -854.4215 -3351.1526 C -854.2306 -3351.3263 -853.9346 -3351.3263 -853.7436 -3351.1526 C -853.5526 -3350.979 -853.5526 -3350.71 -853.7436 -3350.5363 L -857.7922 -3346.8558 C -857.9832 -3346.682 -858.2792 -3346.682 -858.4702 -3346.8558 L -862.5283 -3350.5363 C -862.7193 -3350.71 -862.7193 -3350.979 -862.5283 -3351.1526 C -862.3373 -3351.3263 -862.0413 -3351.3263 -861.8504 -3351.1526 L -858.6134 -3348.21 L -858.6134 -3354.5294 C -858.6134 -3354.7724 -858.4033 -3354.9634 -858.136 -3354.9634 C -857.8686 -3354.9634 -857.6585 -3354.7724 -857.6585 -3354.5294 Z M -858.6134 -3341.717 L -861.8504 -3338.774 C -862.0413 -3338.6006 -862.3373 -3338.6006 -862.5283 -3338.774 C -862.7193 -3338.9478 -862.7193 -3339.217 -862.5283 -3339.3905 L -858.4797 -3343.071 C -858.2887 -3343.2447 -857.9927 -3343.2447 -857.8018 -3343.071 L -853.7531 -3339.3905 C -853.5622 -3339.217 -853.5622 -3338.9478 -853.7531 -3338.774 C -853.9441 -3338.6006 -854.2401 -3338.6006 -854.4311 -3338.774 L -857.6681 -3341.717 L -857.6681 -3335.3974 C -857.6681 -3335.1544 -857.8781 -3334.9634 -858.1455 -3334.9634 C -858.4129 -3334.9634 -858.6229 -3335.1544 -858.6229 -3335.3974 L -858.6229 -3341.717 Z" fill="#5c76a2"/>
            </g>
          </g>
        </g>
      </g>
    </g>
  </g>
</svg>
