<?xml version="1.0" encoding="UTF-8" standalone="no"?>
<!DOCTYPE svg PUBLIC "-//W3C//DTD SVG 1.1//EN" "http://www.w3.org/Graphics/SVG/1.1/DTD/svg11.dtd">
<svg xmlns:dc="http://purl.org/dc/elements/1.1/" xmlns:xl="http://www.w3.org/1999/xlink" version="1.1" xmlns="http://www.w3.org/2000/svg" viewBox="-909.6169 -3357.4634 25 25" width="25" height="25">
  <defs/>
  <g id="SOURCES" stroke-dasharray="none" stroke="none" stroke-opacity="1" fill="none" fill-opacity="1">
    <title>SOURCES</title>
    <g id="SOURCES_Calque_2">
      <title>Calque 2</title>
      <g id="Group_9991">
        <g id="Graphic_9977">
          <title>views/view.other</title>
          <path d="M -905.2769 -3356.9634 L -888.9569 -3356.9634 C -886.8362 -3356.9634 -885.1169 -3355.244 -885.1169 -3353.1234 L -885.1169 -3336.8034 C -885.1169 -3334.6826 -886.8362 -3332.9634 -888.9569 -3332.9634 L -905.2769 -3332.9634 C -907.3977 -3332.9634 -909.1169 -3334.6826 -909.1169 -3336.8034 L -909.1169 -3353.1234 C -909.1169 -3355.244 -907.3977 -3356.9634 -905.2769 -3356.9634 Z" fill="white"/>
          <path d="M -905.2769 -3356.9634 L -888.9569 -3356.9634 C -886.8362 -3356.9634 -885.1169 -3355.244 -885.1169 -3353.1234 L -885.1169 -3336.8034 C -885.1169 -3334.6826 -886.8362 -3332.9634 -888.9569 -3332.9634 L -905.2769 -3332.9634 C -907.3977 -3332.9634 -909.1169 -3334.6826 -909.1169 -3336.8034 L -909.1169 -3353.1234 C -909.1169 -3355.244 -907.3977 -3356.9634 -905.2769 -3356.9634 Z" stroke="black" stroke-linecap="round" stroke-linejoin="round" stroke-width=".25"/>
        </g>
        <g id="Group_9971">
          <title>expand-v</title>
          <g id="Graphic_9972">
            <path d="M -897.5614 -3349.6656 L -900.3614 -3346.8656 C -900.5392 -3346.688 -900.8147 -3346.688 -900.9925 -3346.8656 C -901.1703 -3347.0434 -901.1703 -3347.319 -900.9925 -3347.4967 L -897.4369 -3351.0523 C -897.2592 -3351.23 -896.9836 -3351.23 -896.8058 -3351.0523 L -893.2503 -3347.4967 C -893.0725 -3347.319 -893.0725 -3347.0434 -893.2503 -3346.8656 C -893.4281 -3346.688 -893.7036 -3346.688 -893.8814 -3346.8656 L -896.6814 -3349.6656 L -896.6814 -3340.2523 L -893.8814 -3343.0523 C -893.7036 -3343.23 -893.4281 -3343.23 -893.2503 -3343.0523 C -893.0725 -3342.8745 -893.0725 -3342.599 -893.2503 -3342.421 L -896.8058 -3338.8656 C -896.9836 -3338.688 -897.2592 -3338.688 -897.4369 -3338.8656 L -900.9925 -3342.421 C -901.1703 -3342.599 -901.1703 -3342.8745 -900.9925 -3343.0523 C -900.8147 -3343.23 -900.5392 -3343.23 -900.3614 -3343.0523 L -897.5614 -3340.2523 L -897.5614 -3349.6656 Z M -903.3392 -3336.9634 C -903.5881 -3336.9634 -903.7836 -3337.159 -903.7836 -3337.408 C -903.7836 -3337.6567 -903.5881 -3337.8523 -903.3392 -3337.8523 L -890.8947 -3337.8523 C -890.6458 -3337.8523 -890.4503 -3337.6567 -890.4503 -3337.408 C -890.4503 -3337.159 -890.6458 -3336.9634 -890.8947 -3336.9634 Z M -903.3392 -3352.0745 C -903.5881 -3352.0745 -903.7836 -3352.27 -903.7836 -3352.519 C -903.7836 -3352.768 -903.5881 -3352.9634 -903.3392 -3352.9634 L -890.8947 -3352.9634 C -890.6458 -3352.9634 -890.4503 -3352.768 -890.4503 -3352.519 C -890.4503 -3352.27 -890.6458 -3352.0745 -890.8947 -3352.0745 Z" fill="#5c76a2"/>
          </g>
        </g>
      </g>
    </g>
  </g>
</svg>
