<?xml version="1.0" encoding="UTF-8" standalone="no"?>
<!DOCTYPE svg PUBLIC "-//W3C//DTD SVG 1.1//EN" "http://www.w3.org/Graphics/SVG/1.1/DTD/svg11.dtd">
<svg version="1.1" xmlns="http://www.w3.org/2000/svg" xmlns:xl="http://www.w3.org/1999/xlink" xmlns:dc="http://purl.org/dc/elements/1.1/" viewBox="-948.7 -3706.75 25 25" width="25" height="25">
  <defs/>
  <g id="SOURCES" stroke-dasharray="none" fill="none" stroke="none" fill-opacity="1" stroke-opacity="1">
    <title>SOURCES</title>
    <g id="SOURCES_Calque_1">
      <title>Calque 1</title>
      <g id="Graphic_6411">
        <title>views/view.other</title>
        <path d="M -944.36 -3706.25 L -928.04 -3706.25 C -925.9192 -3706.25 -924.2 -3704.5308 -924.2 -3702.41 L -924.2 -3686.09 C -924.2 -3683.9692 -925.9192 -3682.25 -928.04 -3682.25 L -944.36 -3682.25 C -946.4808 -3682.25 -948.2 -3683.9692 -948.2 -3686.09 L -948.2 -3702.41 C -948.2 -3704.5308 -946.4808 -3706.25 -944.36 -3706.25 Z" fill="white"/>
        <path d="M -944.36 -3706.25 L -928.04 -3706.25 C -925.9192 -3706.25 -924.2 -3704.5308 -924.2 -3702.41 L -924.2 -3686.09 C -924.2 -3683.9692 -925.9192 -3682.25 -928.04 -3682.25 L -944.36 -3682.25 C -946.4808 -3682.25 -948.2 -3683.9692 -948.2 -3686.09 L -948.2 -3702.41 C -948.2 -3704.5308 -946.4808 -3706.25 -944.36 -3706.25 Z" stroke="black" stroke-linecap="round" stroke-linejoin="round" stroke-width=".25"/>
      </g>
      <g id="Graphic_6410">
        <path d="M -942.6826 -3689.361 L -940.7746 -3687.453 C -940.6011 -3687.2796 -940.6011 -3686.998 -940.7746 -3686.8246 C -940.9482 -3686.651 -941.2296 -3686.651 -941.4032 -3686.8246 L -944.0698 -3689.4913 C -944.2434 -3689.665 -944.2434 -3689.9463 -944.0698 -3690.12 L -941.4032 -3692.7865 C -941.2296 -3692.96 -940.9482 -3692.96 -940.7746 -3692.7865 C -940.6011 -3692.613 -940.6011 -3692.3315 -940.7746 -3692.158 L -942.6826 -3690.25 L -930.4222 -3690.25 C -929.6858 -3690.25 -929.0889 -3690.847 -929.0889 -3691.5833 L -929.0889 -3694.25 C -929.0889 -3694.4955 -928.8899 -3694.6944 -928.6444 -3694.6944 C -928.399 -3694.6944 -928.2 -3694.4955 -928.2 -3694.25 L -928.2 -3691.5833 C -928.2 -3690.356 -929.1949 -3689.361 -930.4222 -3689.361 Z M -929.7174 -3699.139 L -931.6254 -3701.047 C -931.799 -3701.2204 -931.799 -3701.502 -931.6254 -3701.6754 C -931.4518 -3701.849 -931.1704 -3701.849 -930.9968 -3701.6754 L -928.3302 -3699.0087 C -928.1566 -3698.835 -928.1566 -3698.5537 -928.3302 -3698.38 L -930.9968 -3695.7135 C -931.1704 -3695.54 -931.4518 -3695.54 -931.6254 -3695.7135 C -931.799 -3695.887 -931.799 -3696.1685 -931.6254 -3696.342 L -929.7174 -3698.25 L -941.9778 -3698.25 C -942.7142 -3698.25 -943.3111 -3697.653 -943.3111 -3696.9167 L -943.3111 -3694.25 C -943.3111 -3694.0045 -943.5101 -3693.8056 -943.7556 -3693.8056 C -944.001 -3693.8056 -944.2 -3694.0045 -944.2 -3694.25 L -944.2 -3696.9167 C -944.2 -3698.144 -943.2051 -3699.139 -941.9778 -3699.139 Z" fill="#5d76a1"/>
      </g>
    </g>
  </g>
</svg>
