<svg xmlns="http://www.w3.org/2000/svg" xmlns:xl="http://www.w3.org/1999/xlink" width="24.75" height="24.75" version="1.1" viewBox="-593.431 -3654.707 24.75 24.75"><g id="SOURCES" fill="none" fill-opacity="1" stroke="none" stroke-dasharray="none" stroke-opacity="1"><title>SOURCES</title><g id="SOURCES_Calque_1"><title>Calque 1</title><g id="Graphic_4424"><rect width="24" height="24" x="-593.056" y="-3654.332" stroke="gray" stroke-linecap="round" stroke-linejoin="round" stroke-opacity="0" stroke-width="0"/></g><g id="Graphic_1382"><rect width="23" height="17.817" x="-592.556" y="-3648.44" fill="#fff"/><rect width="23" height="17.817" x="-592.556" y="-3648.44" stroke="#000" stroke-linecap="round" stroke-linejoin="round" stroke-width=".25"/></g><g id="Group_1377"><g id="Line_1380"><line x1="-592.556" x2="-569.556" y1="-3644.678" y2="-3644.678" stroke="#000" stroke-linecap="round" stroke-linejoin="round" stroke-width=".25"/></g><g id="Line_1379"><line x1="-592.556" x2="-569.556" y1="-3639.736" y2="-3639.736" stroke="#000" stroke-linecap="round" stroke-linejoin="round" stroke-width=".25"/></g><g id="Line_1378"><line x1="-592.556" x2="-569.556" y1="-3634.837" y2="-3634.837" stroke="#000" stroke-linecap="round" stroke-linejoin="round" stroke-width=".25"/></g></g><g id="Graphic_1381"><path fill="#fff" d="M -573.49534 -3644.455 L -573.49534 -3646.7344 L -588.61616 -3646.7344 L -588.61616 -3644.455 L -573.49534 -3644.455 Z"/></g><g id="Graphic_1375"><path fill="#5b76a2" d="M -576.0671 -3644.23 L -577.0586 -3645.2463 L -580.40765 -3641.9793 L -580.2634 -3653.615 L -581.67896 -3653.6326 L -581.8232 -3641.997 L -585.0902 -3645.346 L -586.1066 -3644.3544 L -581.1491 -3639.2724 Z"/><path stroke="#5c76a2" stroke-linecap="round" stroke-linejoin="round" stroke-width="1" d="M -576.0671 -3644.23 L -577.0586 -3645.2463 L -580.40765 -3641.9793 L -580.2634 -3653.615 L -581.67896 -3653.6326 L -581.8232 -3641.997 L -585.0902 -3645.346 L -586.1066 -3644.3544 L -581.1491 -3639.2724 Z"/></g></g></g></svg>