<?xml version="1.0" encoding="UTF-8" standalone="no"?>
<!DOCTYPE svg PUBLIC "-//W3C//DTD SVG 1.1//EN" "http://www.w3.org/Graphics/SVG/1.1/DTD/svg11.dtd">
<svg xmlns:xl="http://www.w3.org/1999/xlink" xmlns="http://www.w3.org/2000/svg" xmlns:dc="http://purl.org/dc/elements/1.1/" version="1.1" viewBox="-513.3932 -3654.8316 25 25" width="25" height="25">
  <defs/>
  <g id="SOURCES" fill-opacity="1" stroke-opacity="1" stroke="none" stroke-dasharray="none" fill="none">
    <title>SOURCES</title>
    <g id="SOURCES_Calque_1">
      <title>Calque 1</title>
      <g id="Group_4677">
        <g id="Graphic_4414">
          <rect x="-512.8932" y="-3654.3316" width="24" height="24" stroke="gray" stroke-opacity="0" stroke-linecap="round" stroke-linejoin="round" stroke-width=".25"/>
        </g>
        <g id="Graphic_1390">
          <path d="M -512.00006 -3650.1176 L -503.30575 -3650.1176 L -500.1119 -3646.8463 L -489.00006 -3646.8463 L -489.00006 -3630.648 L -512.00006 -3630.6713 Z" fill="white"/>
          <path d="M -512.00006 -3650.1176 L -503.30575 -3650.1176 L -500.1119 -3646.8463 L -489.00006 -3646.8463 L -489.00006 -3630.648 L -512.00006 -3630.6713 Z" stroke="black" stroke-linecap="round" stroke-linejoin="round" stroke-width=".25"/>
        </g>
        <g id="Graphic_1389">
          <path d="M -492.5279 -3644.455 L -492.5279 -3646.7177 L -508 -3646.7177 L -508 -3644.455 L -492.5279 -3644.455 Z" fill="white"/>
        </g>
        <g id="Graphic_1388">
          <path d="M -495.3023 -3644.3124 L -496.28566 -3645.3205 L -499.6074 -3642.0804 L -499.46397 -3653.621 L -500.86795 -3653.6384 L -501.01136 -3642.098 L -504.25153 -3645.4195 L -505.25964 -3644.436 L -500.34284 -3639.3956 Z" fill="#5b76a2"/>
          <path d="M -495.3023 -3644.3124 L -496.28566 -3645.3205 L -499.6074 -3642.0804 L -499.46397 -3653.621 L -500.86795 -3653.6384 L -501.01136 -3642.098 L -504.25153 -3645.4195 L -505.25964 -3644.436 L -500.34284 -3639.3956 Z" stroke="#5c76a2" stroke-linecap="round" stroke-linejoin="round" stroke-width="1"/>
        </g>
      </g>
    </g>
  </g>
</svg>
