<?xml version="1.0" encoding="UTF-8" standalone="no"?>
<!DOCTYPE svg PUBLIC "-//W3C//DTD SVG 1.1//EN" "http://www.w3.org/Graphics/SVG/1.1/DTD/svg11.dtd">
<svg xmlns:dc="http://purl.org/dc/elements/1.1/" xmlns:xl="http://www.w3.org/1999/xlink" version="1.1" xmlns="http://www.w3.org/2000/svg" viewBox="-765 -3312 16 16" width="16" height="16">
  <defs/>
  <g id="SOURCES" stroke-dasharray="none" stroke="none" stroke-opacity="1" fill="none" fill-opacity="1">
    <title>SOURCES</title>
    <g id="SOURCES_Calque_2">
      <title>Calque 2</title>
      <g id="Group_9935">
        <g id="Graphic_9934">
          <circle cx="-757" cy="-3304" r="8.00000702080164" fill="white"/>
          <circle cx="-757" cy="-3304" r="8.00000702080164" stroke="black" stroke-linecap="round" stroke-linejoin="round" stroke-width="0"/>
        </g>
        <g id="Group_9932">
          <title>info-circle</title>
          <g id="Graphic_9933">
            <path d="M -756.2 -3300.8 L -755 -3300.8 C -754.776 -3300.8 -754.6 -3300.624 -754.6 -3300.4 C -754.6 -3300.176 -754.776 -3300 -755 -3300 L -758.2 -3300 C -758.424 -3300 -758.6 -3300.176 -758.6 -3300.4 C -758.6 -3300.624 -758.424 -3300.8 -758.2 -3300.8 L -757 -3300.8 L -757 -3304.8 L -758.2 -3304.8 C -758.424 -3304.8 -758.6 -3304.976 -758.6 -3305.2 C -758.6 -3305.424 -758.424 -3305.6 -758.2 -3305.6 L -756.6 -3305.6 C -756.376 -3305.6 -756.2 -3305.424 -756.2 -3305.2 Z M -757 -3296 C -761.416 -3296 -765 -3299.584 -765 -3304 C -765 -3308.416 -761.416 -3312 -757 -3312 C -752.584 -3312 -749 -3308.416 -749 -3304 C -749 -3299.584 -752.584 -3296 -757 -3296 Z M -757 -3296.8 C -753.024 -3296.8 -749.8 -3300.024 -749.8 -3304 C -749.8 -3307.976 -753.024 -3311.2 -757 -3311.2 C -760.976 -3311.2 -764.2 -3307.976 -764.2 -3304 C -764.2 -3300.024 -760.976 -3296.8 -757 -3296.8 Z M -757.4 -3308 L -756.6 -3308 C -756.376 -3308 -756.2 -3307.824 -756.2 -3307.6 L -756.2 -3306.8 C -756.2 -3306.576 -756.376 -3306.4 -756.6 -3306.4 L -757.4 -3306.4 C -757.624 -3306.4 -757.8 -3306.576 -757.8 -3306.8 L -757.8 -3307.6 C -757.8 -3307.824 -757.624 -3308 -757.4 -3308 Z" fill="#5c76a1"/>
          </g>
        </g>
      </g>
    </g>
  </g>
</svg>
