<?xml version="1.0" encoding="UTF-8" standalone="no"?>
<!DOCTYPE svg PUBLIC "-//W3C//DTD SVG 1.1//EN" "http://www.w3.org/Graphics/SVG/1.1/DTD/svg11.dtd">
<svg version="1.1" xmlns="http://www.w3.org/2000/svg" xmlns:xl="http://www.w3.org/1999/xlink" xmlns:dc="http://purl.org/dc/elements/1.1/" viewBox="-925.9125 -3741.3194 25 25" width="25" height="25">
  <defs/>
  <g id="SOURCES" stroke-dasharray="none" fill="none" stroke="none" fill-opacity="1" stroke-opacity="1">
    <title>SOURCES</title>
    <g id="SOURCES_Calque_2">
      <title>Calque 2</title>
      <g id="Group_9021">
        <g id="Graphic_9024">
          <title>views/view.other</title>
          <path d="M -905.2525 -3716.8194 L -921.5725 -3716.8194 C -923.6933 -3716.8194 -925.4125 -3718.5387 -925.4125 -3720.6594 L -925.4125 -3736.9794 C -925.4125 -3739.1 -923.6933 -3740.8194 -921.5725 -3740.8194 L -905.2525 -3740.8194 C -903.1317 -3740.8194 -901.4125 -3739.1 -901.4125 -3736.9794 L -901.4125 -3720.6594 C -901.4125 -3718.5387 -903.1317 -3716.8194 -905.2525 -3716.8194 Z" fill="white"/>
          <path d="M -905.2525 -3716.8194 L -921.5725 -3716.8194 C -923.6933 -3716.8194 -925.4125 -3718.5387 -925.4125 -3720.6594 L -925.4125 -3736.9794 C -925.4125 -3739.1 -923.6933 -3740.8194 -921.5725 -3740.8194 L -905.2525 -3740.8194 C -903.1317 -3740.8194 -901.4125 -3739.1 -901.4125 -3736.9794 L -901.4125 -3720.6594 C -901.4125 -3718.5387 -903.1317 -3716.8194 -905.2525 -3716.8194 Z" stroke="black" stroke-linecap="round" stroke-linejoin="round" stroke-width=".25"/>
        </g>
        <g id="Group_9022">
          <title>arrow-left</title>
          <g id="Graphic_9023">
            <path d="M -909.1225 -3728.3144 L -918.9125 -3728.3144 C -919.1925 -3728.3144 -919.4125 -3728.5344 -919.4125 -3728.8144 C -919.4125 -3729.0944 -919.1925 -3729.3144 -918.9125 -3729.3144 L -909.1225 -3729.3144 L -912.2725 -3732.4644 C -912.4725 -3732.6644 -912.4725 -3732.9744 -912.2725 -3733.1744 C -912.0725 -3733.3744 -911.7625 -3733.3744 -911.5625 -3733.1744 L -907.5625 -3729.1644 C -907.3625 -3728.9644 -907.3625 -3728.6544 -907.5625 -3728.4544 L -911.5625 -3724.4644 C -911.7625 -3724.2644 -912.0725 -3724.2644 -912.2725 -3724.4644 C -912.4725 -3724.6644 -912.4725 -3724.9744 -912.2725 -3725.1744 L -909.1225 -3728.3244 Z" fill="#5c76a1"/>
          </g>
        </g>
      </g>
    </g>
  </g>
</svg>
