<?xml version="1.0" encoding="UTF-8" standalone="no"?>
<!DOCTYPE svg PUBLIC "-//W3C//DTD SVG 1.1//EN" "http://www.w3.org/Graphics/SVG/1.1/DTD/svg11.dtd">
<svg version="1.1" xmlns="http://www.w3.org/2000/svg" xmlns:xl="http://www.w3.org/1999/xlink" xmlns:dc="http://purl.org/dc/elements/1.1/" viewBox="-957.933 -3741.3194 25 25" width="25" height="25">
  <defs/>
  <g id="SOURCES" stroke-dasharray="none" fill="none" stroke="none" fill-opacity="1" stroke-opacity="1">
    <title>SOURCES</title>
    <g id="SOURCES_Calque_2">
      <title>Calque 2</title>
      <g id="Group_9020">
        <g id="Graphic_9017">
          <title>views/view.other</title>
          <path d="M -953.593 -3740.8194 L -937.273 -3740.8194 C -935.1522 -3740.8194 -933.433 -3739.1 -933.433 -3736.9794 L -933.433 -3720.6594 C -933.433 -3718.5387 -935.1522 -3716.8194 -937.273 -3716.8194 L -953.593 -3716.8194 C -955.7138 -3716.8194 -957.433 -3718.5387 -957.433 -3720.6594 L -957.433 -3736.9794 C -957.433 -3739.1 -955.7138 -3740.8194 -953.593 -3740.8194 Z" fill="white"/>
          <path d="M -953.593 -3740.8194 L -937.273 -3740.8194 C -935.1522 -3740.8194 -933.433 -3739.1 -933.433 -3736.9794 L -933.433 -3720.6594 C -933.433 -3718.5387 -935.1522 -3716.8194 -937.273 -3716.8194 L -953.593 -3716.8194 C -955.7138 -3716.8194 -957.433 -3718.5387 -957.433 -3720.6594 L -957.433 -3736.9794 C -957.433 -3739.1 -955.7138 -3740.8194 -953.593 -3740.8194 Z" stroke="black" stroke-linecap="round" stroke-linejoin="round" stroke-width=".25"/>
        </g>
        <g id="Group_9018">
          <title>arrow-left</title>
          <g id="Graphic_9019">
            <path d="M -949.723 -3729.3244 L -939.933 -3729.3244 C -939.653 -3729.3244 -939.433 -3729.1044 -939.433 -3728.8244 C -939.433 -3728.5444 -939.653 -3728.3244 -939.933 -3728.3244 L -949.723 -3728.3244 L -946.573 -3725.1744 C -946.373 -3724.9744 -946.373 -3724.6644 -946.573 -3724.4644 C -946.773 -3724.2644 -947.083 -3724.2644 -947.283 -3724.4644 L -951.283 -3728.4744 C -951.483 -3728.6744 -951.483 -3728.9844 -951.283 -3729.1844 L -947.283 -3733.1744 C -947.083 -3733.3744 -946.773 -3733.3744 -946.573 -3733.1744 C -946.373 -3732.9744 -946.373 -3732.6644 -946.573 -3732.4644 L -949.723 -3729.3144 Z" fill="#5c76a1"/>
          </g>
        </g>
      </g>
    </g>
  </g>
</svg>
