<?xml version="1.0" encoding="UTF-8" standalone="no"?>
<!DOCTYPE svg PUBLIC "-//W3C//DTD SVG 1.1//EN" "http://www.w3.org/Graphics/SVG/1.1/DTD/svg11.dtd">
<svg version="1.1" xmlns="http://www.w3.org/2000/svg" xmlns:xl="http://www.w3.org/1999/xlink" xmlns:dc="http://purl.org/dc/elements/1.1/" viewBox="-722.742 -3742.6376 25 25" width="25" height="25">
  <defs/>
  <g id="SOURCES" stroke-dasharray="none" fill="none" stroke="none" fill-opacity="1" stroke-opacity="1">
    <title>SOURCES</title>
    <g id="SOURCES_Calque_2">
      <title>Calque 2</title>
      <g id="Graphic_9065">
        <path d="M -718.402 -3742.1376 L -702.082 -3742.1376 C -699.96124 -3742.1376 -698.242 -3740.4183 -698.242 -3738.2976 L -698.242 -3721.9776 C -698.242 -3719.857 -699.96124 -3718.1376 -702.082 -3718.1376 L -718.402 -3718.1376 C -720.5228 -3718.1376 -722.242 -3719.857 -722.242 -3721.9776 L -722.242 -3738.2976 C -722.242 -3740.4183 -720.5228 -3742.1376 -718.402 -3742.1376 Z" fill="white"/>
        <path d="M -718.402 -3742.1376 L -702.082 -3742.1376 C -699.96124 -3742.1376 -698.242 -3740.4183 -698.242 -3738.2976 L -698.242 -3721.9776 C -698.242 -3719.857 -699.96124 -3718.1376 -702.082 -3718.1376 L -718.402 -3718.1376 C -720.5228 -3718.1376 -722.242 -3719.857 -722.242 -3721.9776 L -722.242 -3738.2976 C -722.242 -3740.4183 -720.5228 -3742.1376 -718.402 -3742.1376 Z" stroke="black" stroke-linecap="round" stroke-linejoin="round" stroke-width=".25"/>
      </g>
      <g id="Group_9056">
        <title>sort-alphabetic-down</title>
        <g id="Graphic_9057">
          <path d="M -713.8424 -3722.3376 C -713.9324 -3722.2176 -714.0824 -3722.1376 -714.2424 -3722.1376 C -714.4024 -3722.1376 -714.5524 -3722.2176 -714.6424 -3722.3376 L -717.5924 -3725.2876 C -717.7924 -3725.4876 -717.7924 -3725.7976 -717.5924 -3725.9976 C -717.3924 -3726.1976 -717.0824 -3726.1976 -716.8824 -3725.9976 L -714.7324 -3723.8476 L -714.7324 -3737.6376 C -714.7324 -3737.9176 -714.5124 -3738.1376 -714.2324 -3738.1376 C -713.9524 -3738.1376 -713.7324 -3737.9176 -713.7324 -3737.6376 L -713.7324 -3723.8476 L -711.5824 -3725.9976 C -711.3824 -3726.1976 -711.0724 -3726.1976 -710.8724 -3725.9976 C -710.6724 -3725.7976 -710.6724 -3725.4876 -710.8724 -3725.2876 L -713.8224 -3722.3376 Z M -703.4224 -3725.6376 C -703.0024 -3725.2676 -702.7424 -3724.7376 -702.7424 -3724.1376 C -702.7424 -3723.0376 -703.6424 -3722.1376 -704.7424 -3722.1376 L -708.2424 -3722.1376 C -708.5224 -3722.1376 -708.7424 -3722.3576 -708.7424 -3722.6376 L -708.7424 -3728.6376 C -708.7424 -3728.9176 -708.5224 -3729.1376 -708.2424 -3729.1376 L -704.7424 -3729.1376 C -703.6424 -3729.1376 -702.7424 -3728.2376 -702.7424 -3727.1376 C -702.7424 -3726.5376 -703.0024 -3726.0076 -703.4224 -3725.6376 Z M -704.4124 -3733.1376 L -707.0824 -3733.1376 L -707.7924 -3731.4476 C -707.9024 -3731.1976 -708.1924 -3731.0676 -708.4424 -3731.1776 C -708.6924 -3731.2876 -708.8224 -3731.5776 -708.7124 -3731.8276 L -706.2024 -3737.8276 C -706.0324 -3738.2376 -705.4524 -3738.2376 -705.2824 -3737.8276 L -702.7824 -3731.8276 C -702.6724 -3731.5776 -702.7924 -3731.2776 -703.0524 -3731.1776 C -703.3024 -3731.0676 -703.6024 -3731.1876 -703.7024 -3731.4476 Z M -704.8224 -3734.1376 L -705.7424 -3736.3376 L -706.6624 -3734.1376 L -704.8324 -3734.1376 Z M -707.7424 -3725.1376 L -707.7424 -3723.1376 L -704.7424 -3723.1376 C -704.1924 -3723.1376 -703.7424 -3723.5876 -703.7424 -3724.1376 C -703.7424 -3724.6876 -704.1924 -3725.1376 -704.7424 -3725.1376 Z M -707.7424 -3726.1376 L -704.7424 -3726.1376 C -704.1924 -3726.1376 -703.7424 -3726.5876 -703.7424 -3727.1376 C -703.7424 -3727.6876 -704.1924 -3728.1376 -704.7424 -3728.1376 L -707.7424 -3728.1376 Z" fill="#5c76a1"/>
        </g>
      </g>
    </g>
  </g>
</svg>
