<?xml version="1.0" encoding="UTF-8" standalone="no"?>
<!DOCTYPE svg PUBLIC "-//W3C//DTD SVG 1.1//EN" "http://www.w3.org/Graphics/SVG/1.1/DTD/svg11.dtd">
<svg version="1.1" xmlns="http://www.w3.org/2000/svg" xmlns:xl="http://www.w3.org/1999/xlink" xmlns:dc="http://purl.org/dc/elements/1.1/" viewBox="-813.7865 -3741.5694 25.000035 25" width="25.000035" height="25">
  <defs/>
  <g id="SOURCES" stroke-dasharray="none" fill="none" stroke="none" fill-opacity="1" stroke-opacity="1">
    <title>SOURCES</title>
    <g id="SOURCES_Calque_2">
      <title>Calque 2</title>
      <g id="Graphic_9042">
        <circle cx="-801.2865" cy="-3729.0694" r="12.0000278184556" fill="white"/>
        <circle cx="-801.2865" cy="-3729.0694" r="12.0000278184556" stroke="black" stroke-linecap="round" stroke-linejoin="round" stroke-width=".2500004"/>
      </g>
      <g id="Group_9043">
        <title>more-v</title>
        <g id="Graphic_9044">
          <path d="M -795.1615 -3729.257 C -795.1615 -3729.502 -795.354 -3729.6944 -795.599 -3729.6944 L -796.474 -3729.6944 C -796.719 -3729.6944 -796.9115 -3729.502 -796.9115 -3729.257 L -796.9115 -3728.382 C -796.9115 -3728.137 -796.719 -3727.9444 -796.474 -3727.9444 L -795.599 -3727.9444 C -795.354 -3727.9444 -795.1615 -3728.137 -795.1615 -3728.382 Z M -794.2865 -3729.257 L -794.2865 -3728.382 C -794.2865 -3727.6557 -794.8728 -3727.0694 -795.599 -3727.0694 L -796.474 -3727.0694 C -797.2003 -3727.0694 -797.7865 -3727.6557 -797.7865 -3728.382 L -797.7865 -3729.257 C -797.7865 -3729.983 -797.2003 -3730.5694 -796.474 -3730.5694 L -795.599 -3730.5694 C -794.8728 -3730.5694 -794.2865 -3729.983 -794.2865 -3729.257 Z M -800.4115 -3729.257 C -800.4115 -3729.502 -800.604 -3729.6944 -800.849 -3729.6944 L -801.724 -3729.6944 C -801.969 -3729.6944 -802.1615 -3729.502 -802.1615 -3729.257 L -802.1615 -3728.382 C -802.1615 -3728.137 -801.969 -3727.9444 -801.724 -3727.9444 L -800.849 -3727.9444 C -800.604 -3727.9444 -800.4115 -3728.137 -800.4115 -3728.382 Z M -799.5365 -3729.257 L -799.5365 -3728.382 C -799.5365 -3727.6557 -800.1228 -3727.0694 -800.849 -3727.0694 L -801.724 -3727.0694 C -802.4503 -3727.0694 -803.0365 -3727.6557 -803.0365 -3728.382 L -803.0365 -3729.257 C -803.0365 -3729.983 -802.4503 -3730.5694 -801.724 -3730.5694 L -800.849 -3730.5694 C -800.1228 -3730.5694 -799.5365 -3729.983 -799.5365 -3729.257 Z M -805.6615 -3729.257 C -805.6615 -3729.502 -805.854 -3729.6944 -806.099 -3729.6944 L -806.974 -3729.6944 C -807.219 -3729.6944 -807.4115 -3729.502 -807.4115 -3729.257 L -807.4115 -3728.382 C -807.4115 -3728.137 -807.219 -3727.9444 -806.974 -3727.9444 L -806.099 -3727.9444 C -805.854 -3727.9444 -805.6615 -3728.137 -805.6615 -3728.382 Z M -804.7865 -3729.257 L -804.7865 -3728.382 C -804.7865 -3727.6557 -805.3728 -3727.0694 -806.099 -3727.0694 L -806.974 -3727.0694 C -807.7003 -3727.0694 -808.2865 -3727.6557 -808.2865 -3728.382 L -808.2865 -3729.257 C -808.2865 -3729.983 -807.7003 -3730.5694 -806.974 -3730.5694 L -806.099 -3730.5694 C -805.3728 -3730.5694 -804.7865 -3729.983 -804.7865 -3729.257 Z" fill="#5c76a1"/>
        </g>
      </g>
    </g>
  </g>
</svg>
