<?xml version="1.0" encoding="UTF-8" standalone="no"?>
<!DOCTYPE svg PUBLIC "-//W3C//DTD SVG 1.1//EN" "http://www.w3.org/Graphics/SVG/1.1/DTD/svg11.dtd">
<svg xmlns:dc="http://purl.org/dc/elements/1.1/" xmlns:xl="http://www.w3.org/1999/xlink" version="1.1" xmlns="http://www.w3.org/2000/svg" viewBox="10.396734 -3263.748 25 25" width="25" height="25">
  <defs/>
  <g id="SOURCES" stroke-dasharray="none" stroke="none" stroke-opacity="1" fill="none" fill-opacity="1">
    <title>SOURCES</title>
    <g id="SOURCES_New">
      <title>New</title>
      <g id="Group_10530">
        <g id="Graphic_10528">
          <title>views/view.other</title>
          <path d="M 14.736734 -3263.248 L 31.056733 -3263.248 C 33.177507 -3263.248 34.896734 -3261.529 34.896734 -3259.408 L 34.896734 -3243.088 C 34.896734 -3240.9673 33.177507 -3239.248 31.056733 -3239.248 L 14.736734 -3239.248 C 12.61596 -3239.248 10.896734 -3240.9673 10.896734 -3243.088 L 10.896734 -3259.408 C 10.896734 -3261.529 12.61596 -3263.248 14.736734 -3263.248 Z" fill="white"/>
          <path d="M 14.736734 -3263.248 L 31.056733 -3263.248 C 33.177507 -3263.248 34.896734 -3261.529 34.896734 -3259.408 L 34.896734 -3243.088 C 34.896734 -3240.9673 33.177507 -3239.248 31.056733 -3239.248 L 14.736734 -3239.248 C 12.61596 -3239.248 10.896734 -3240.9673 10.896734 -3243.088 L 10.896734 -3259.408 C 10.896734 -3261.529 12.61596 -3263.248 14.736734 -3263.248 Z" stroke="black" stroke-linecap="round" stroke-linejoin="round" stroke-width=".25"/>
        </g>
        <g id="Graphic_10527">
          <path d="M 30.896717 -3245.469 C 30.896717 -3244.243 29.901714 -3243.248 28.67573 -3243.248 L 17.117706 -3243.248 C 15.89172 -3243.248 14.896717 -3244.243 14.896717 -3245.469 L 14.896717 -3257.027 C 14.896717 -3258.253 15.89172 -3259.248 17.117706 -3259.248 L 28.67573 -3259.248 C 29.901714 -3259.248 30.896717 -3258.253 30.896717 -3257.027 L 30.896717 -3245.469 Z M 30.008322 -3255.6945 L 30.008322 -3257.027 C 30.008322 -3257.7644 29.413097 -3258.3597 28.67573 -3258.3597 L 17.117706 -3258.3597 C 16.380337 -3258.3597 15.785113 -3257.7644 15.785113 -3257.027 L 15.785113 -3255.6945 Z M 30.008322 -3254.806 L 15.785113 -3254.806 L 15.785113 -3245.469 C 15.785113 -3244.7317 16.380337 -3244.1365 17.117706 -3244.1365 L 28.67573 -3244.1365 C 29.413097 -3244.1365 30.008322 -3244.7317 30.008322 -3245.469 Z M 16.673508 -3257.4713 L 17.561903 -3257.4713 L 17.561903 -3256.583 L 16.673508 -3256.583 Z M 18.450299 -3257.4713 L 19.338694 -3257.4713 L 19.338694 -3256.583 L 18.450299 -3256.583 Z M 20.22709 -3257.4713 L 21.115485 -3257.4713 L 21.115485 -3256.583 L 20.22709 -3256.583 Z" fill="#5c75a0"/>
        </g>
        <g id="Graphic_10529">
          <path d="M 25.200906 -3247.7543 C 25.353083 -3247.8848 25.582188 -3247.867 25.712626 -3247.715 C 25.843063 -3247.5628 25.82544 -3247.3337 25.673263 -3247.2033 L 23.132896 -3245.0258 C 22.99699 -3244.9093 22.796445 -3244.9093 22.66054 -3245.0258 L 20.120172 -3247.2033 C 19.967994 -3247.3337 19.95037 -3247.5628 20.080809 -3247.715 C 20.211247 -3247.867 20.440351 -3247.8848 20.592529 -3247.7543 L 22.896717 -3245.7793 Z" fill="#5c75a0"/>
        </g>
      </g>
    </g>
  </g>
</svg>
