<?xml version="1.0" encoding="UTF-8" standalone="no"?>
<!DOCTYPE svg PUBLIC "-//W3C//DTD SVG 1.1//EN" "http://www.w3.org/Graphics/SVG/1.1/DTD/svg11.dtd">
<svg xmlns:dc="http://purl.org/dc/elements/1.1/" xmlns:xl="http://www.w3.org/1999/xlink" version="1.1" xmlns="http://www.w3.org/2000/svg" viewBox="-952.0833 -3091.0833 16.166667 16.166667" width="16.166667" height="16.166667">
  <defs/>
  <g id="SOURCES" stroke-dasharray="none" stroke="none" stroke-opacity="1" fill="none" fill-opacity="1">
    <title>SOURCES</title>
    <g id="SOURCES_Calque_2">
      <title>Calque 2</title>
      <g id="Graphic_7365">
        <title>views/view.other</title>
        <path d="M -949.44 -3091 L -938.56 -3091 C -937.1462 -3091 -936 -3089.854 -936 -3088.44 L -936 -3077.56 C -936 -3076.146 -937.1462 -3075 -938.56 -3075 L -949.44 -3075 C -950.8538 -3075 -952 -3076.146 -952 -3077.56 L -952 -3088.44 C -952 -3089.854 -950.8538 -3091 -949.44 -3091 Z" fill="white"/>
        <path d="M -949.44 -3091 L -938.56 -3091 C -937.1462 -3091 -936 -3089.854 -936 -3088.44 L -936 -3077.56 C -936 -3076.146 -937.1462 -3075 -938.56 -3075 L -949.44 -3075 C -950.8538 -3075 -952 -3076.146 -952 -3077.56 L -952 -3088.44 C -952 -3089.854 -950.8538 -3091 -949.44 -3091 Z" stroke="black" stroke-linecap="round" stroke-linejoin="round" stroke-width=".16666667"/>
      </g>
    </g>
  </g>
</svg>
