<?xml version="1.0" encoding="UTF-8" standalone="no"?>
<!DOCTYPE svg PUBLIC "-//W3C//DTD SVG 1.1//EN" "http://www.w3.org/Graphics/SVG/1.1/DTD/svg11.dtd">
<svg xmlns:dc="http://purl.org/dc/elements/1.1/" xmlns:xl="http://www.w3.org/1999/xlink" version="1.1" xmlns="http://www.w3.org/2000/svg" viewBox="-945.8833 -3293.0586 24 18" width="24" height="18">
  <defs/>
  <g id="SOURCES" stroke-dasharray="none" stroke="none" stroke-opacity="1" fill="none" fill-opacity="1">
    <title>SOURCES</title>
    <g id="SOURCES_Calque_2">
      <title>Calque 2</title>
      <g id="Group_10116">
        <g id="Group_10031">
          <title>user-follow</title>
          <g id="Graphic_10032">
            <path d="M -933.0007 -3279.429 L -934.8122 -3281.2403 C -934.9807 -3281.409 -934.9807 -3281.67 -934.8122 -3281.8385 C -934.6437 -3282.007 -934.3825 -3282.007 -934.214 -3281.8385 L -931.6863 -3279.311 C -931.5178 -3279.1424 -931.5178 -3278.881 -931.6863 -3278.7127 L -934.214 -3276.185 C -934.3825 -3276.0165 -934.6437 -3276.0165 -934.8122 -3276.185 C -934.9807 -3276.3535 -934.9807 -3276.6147 -934.8122 -3276.7832 L -933.0007 -3278.5947 L -937.0365 -3278.5947 C -937.2724 -3278.5947 -937.4578 -3278.78 -937.4578 -3279.016 C -937.4578 -3279.252 -937.2724 -3279.4373 -937.0365 -3279.4373 L -933.0007 -3279.4373 Z M -937.4241 -3284.004 C -937.9465 -3283.768 -938.5278 -3283.6416 -939.1429 -3283.6416 C -939.758 -3283.6416 -940.3393 -3283.768 -940.8617 -3284.004 L -944.2993 -3282.4367 C -944.7543 -3282.2345 -945.0407 -3281.7795 -945.0407 -3281.2824 L -945.0407 -3280.6842 C -945.0407 -3279.985 -944.4762 -3279.4204 -943.7769 -3279.4204 L -939.5642 -3279.4204 C -939.3283 -3279.4204 -939.1429 -3279.235 -939.1429 -3278.999 C -939.1429 -3278.7632 -939.3283 -3278.578 -939.5642 -3278.578 L -943.7769 -3278.578 C -944.9396 -3278.578 -945.8833 -3279.5215 -945.8833 -3280.6842 L -945.8833 -3281.2824 C -945.8833 -3282.108 -945.403 -3282.858 -944.6447 -3283.2034 L -941.7295 -3284.5262 C -942.7153 -3285.3014 -943.3472 -3286.498 -943.3472 -3287.846 C -943.3472 -3290.1713 -941.4599 -3292.0586 -939.1345 -3292.0586 C -936.809 -3292.0586 -934.9217 -3290.1713 -934.9217 -3287.846 C -934.9217 -3286.5062 -935.5452 -3285.31 -936.531 -3284.5347 L -934.3404 -3283.5994 C -934.1297 -3283.5068 -934.0286 -3283.2624 -934.1213 -3283.0434 C -934.214 -3282.8327 -934.4583 -3282.7316 -934.6774 -3282.8243 L -937.4241 -3283.9954 Z M -939.1429 -3284.484 C -937.2809 -3284.484 -935.7727 -3285.9923 -935.7727 -3287.8543 C -935.7727 -3289.7163 -937.2809 -3291.2245 -939.1429 -3291.2245 C -941.0049 -3291.2245 -942.5131 -3289.7163 -942.5131 -3287.8543 C -942.5131 -3285.9923 -941.0049 -3284.484 -939.1429 -3284.484 Z" fill="#999"/>
          </g>
        </g>
        <g id="Graphic_10115"/>
      </g>
    </g>
  </g>
</svg>
