<?xml version="1.0" encoding="UTF-8" standalone="no"?>
<!DOCTYPE svg PUBLIC "-//W3C//DTD SVG 1.1//EN" "http://www.w3.org/Graphics/SVG/1.1/DTD/svg11.dtd">
<svg xmlns:dc="http://purl.org/dc/elements/1.1/" xmlns:xl="http://www.w3.org/1999/xlink" version="1.1" xmlns="http://www.w3.org/2000/svg" viewBox="-893.1048 -3293.0586 24 18" width="24" height="18">
  <defs/>
  <g id="SOURCES" stroke-dasharray="none" stroke="none" stroke-opacity="1" fill="none" fill-opacity="1">
    <title>SOURCES</title>
    <g id="SOURCES_Calque_2">
      <title>Calque 2</title>
      <g id="Group_10120">
        <g id="Group_10025">
          <title>user-circle</title>
          <g id="Graphic_10026">
            <path d="M -879.8728 -3280.4506 L -882.6408 -3281.7066 C -881.7048 -3282.4346 -881.1048 -3283.5786 -881.1048 -3284.8586 C -881.1048 -3287.0666 -882.8968 -3288.8586 -885.1048 -3288.8586 C -887.3128 -3288.8586 -889.1048 -3287.0666 -889.1048 -3284.8586 C -889.1048 -3283.5786 -888.5048 -3282.4346 -887.5688 -3281.7066 L -890.3368 -3280.4506 C -890.6008 -3280.3306 -890.8328 -3280.1546 -891.0168 -3279.9466 C -891.8328 -3281.1146 -892.3128 -3282.5306 -892.3128 -3284.0666 C -892.3128 -3288.0426 -889.0888 -3291.2666 -885.1128 -3291.2666 C -881.1368 -3291.2666 -877.9128 -3288.0426 -877.9128 -3284.0666 C -877.9128 -3282.5386 -878.3928 -3281.1146 -879.2008 -3279.9466 C -879.3848 -3280.1626 -879.6168 -3280.3306 -879.8808 -3280.4506 M -888.3048 -3284.8586 C -888.3048 -3286.6266 -886.8728 -3288.0586 -885.1048 -3288.0586 C -883.3368 -3288.0586 -881.9048 -3286.6266 -881.9048 -3284.8586 C -881.9048 -3283.0906 -883.3368 -3281.6586 -885.1048 -3281.6586 C -886.8728 -3281.6586 -888.3048 -3283.0906 -888.3048 -3284.8586 M -885.1048 -3276.8586 C -887.2568 -3276.8586 -889.1848 -3277.8026 -890.5048 -3279.2906 C -890.3848 -3279.4746 -890.2088 -3279.6266 -890.0008 -3279.7146 L -886.7368 -3281.2026 C -886.2408 -3280.9786 -885.6888 -3280.8586 -885.1048 -3280.8586 C -884.5208 -3280.8586 -883.9688 -3280.9786 -883.4728 -3281.2026 L -880.2088 -3279.7146 C -880.0008 -3279.6186 -879.8328 -3279.4746 -879.7048 -3279.2906 C -881.0248 -3277.7946 -882.9528 -3276.8586 -885.1048 -3276.8586 M -885.1048 -3292.0586 C -889.5208 -3292.0586 -893.1048 -3288.4746 -893.1048 -3284.0586 C -893.1048 -3279.6426 -889.5208 -3276.0586 -885.1048 -3276.0586 C -880.6888 -3276.0586 -877.1048 -3279.6426 -877.1048 -3284.0586 C -877.1048 -3288.4746 -880.6888 -3292.0586 -885.1048 -3292.0586" fill="#999"/>
          </g>
        </g>
        <g id="Graphic_10119"/>
      </g>
    </g>
  </g>
</svg>
