<?xml version="1.0" encoding="UTF-8" standalone="no"?>
<!DOCTYPE svg PUBLIC "-//W3C//DTD SVG 1.1//EN" "http://www.w3.org/Graphics/SVG/1.1/DTD/svg11.dtd">
<svg xmlns:dc="http://purl.org/dc/elements/1.1/" xmlns:xl="http://www.w3.org/1999/xlink" version="1.1" xmlns="http://www.w3.org/2000/svg" viewBox="-865.0488 -3294.0586 24 18" width="24" height="18">
  <defs/>
  <g id="SOURCES" stroke-dasharray="none" stroke="none" stroke-opacity="1" fill="none" fill-opacity="1">
    <title>SOURCES</title>
    <g id="SOURCES_Calque_2">
      <title>Calque 2</title>
      <g id="Group_10122">
        <g id="Group_10029">
          <title>user-plus</title>
          <g id="Graphic_10030">
            <path d="M -854.1014 -3280.427 L -854.1014 -3282.5323 C -854.1014 -3282.768 -853.9162 -3282.9534 -853.6804 -3282.9534 C -853.4446 -3282.9534 -853.2593 -3282.768 -853.2593 -3282.5323 L -853.2593 -3280.427 L -851.154 -3280.427 C -850.9183 -3280.427 -850.733 -3280.2418 -850.733 -3280.006 C -850.733 -3279.7702 -850.9183 -3279.585 -851.154 -3279.585 L -853.2593 -3279.585 L -853.2593 -3277.4797 C -853.2593 -3277.244 -853.4446 -3277.0586 -853.6804 -3277.0586 C -853.9162 -3277.0586 -854.1014 -3277.244 -854.1014 -3277.4797 L -854.1014 -3279.585 L -856.2067 -3279.585 C -856.4425 -3279.585 -856.6277 -3279.7702 -856.6277 -3280.006 C -856.6277 -3280.2418 -856.4425 -3280.427 -856.2067 -3280.427 Z M -856.594 -3285.008 C -857.1162 -3284.7723 -857.6972 -3284.646 -858.3119 -3284.646 C -858.9267 -3284.646 -859.5077 -3284.7723 -860.0298 -3285.008 L -863.4656 -3283.4418 C -863.9204 -3283.2397 -864.2067 -3282.785 -864.2067 -3282.288 L -864.2067 -3281.6902 C -864.2067 -3280.9913 -863.6425 -3280.427 -862.9435 -3280.427 L -858.733 -3280.427 C -858.4972 -3280.427 -858.3119 -3280.2418 -858.3119 -3280.006 C -858.3119 -3279.7702 -858.4972 -3279.585 -858.733 -3279.585 L -862.9435 -3279.585 C -864.1056 -3279.585 -865.0488 -3280.528 -865.0488 -3281.6902 L -865.0488 -3282.288 C -865.0488 -3283.1134 -864.5688 -3283.863 -863.8109 -3284.208 L -860.8972 -3285.5302 C -861.8825 -3286.305 -862.514 -3287.5007 -862.514 -3288.848 C -862.514 -3291.1723 -860.6277 -3293.0586 -858.3035 -3293.0586 C -855.9793 -3293.0586 -854.093 -3291.1723 -854.093 -3288.848 C -854.093 -3287.509 -854.7162 -3286.3134 -855.7014 -3285.5386 L -853.5119 -3284.604 C -853.3014 -3284.5113 -853.2004 -3284.267 -853.293 -3284.048 C -853.3856 -3283.8376 -853.6298 -3283.7365 -853.8488 -3283.829 L -856.594 -3284.9997 Z M -858.3119 -3285.4797 C -856.4509 -3285.4797 -854.9435 -3286.987 -854.9435 -3288.848 C -854.9435 -3290.709 -856.4509 -3292.2165 -858.3119 -3292.2165 C -860.173 -3292.2165 -861.6804 -3290.709 -861.6804 -3288.848 C -861.6804 -3286.987 -860.173 -3285.4797 -858.3119 -3285.4797 Z" fill="#999"/>
          </g>
        </g>
        <g id="Graphic_10121"/>
      </g>
    </g>
  </g>
</svg>
