<?xml version="1.0" encoding="UTF-8" standalone="no"?>
<!DOCTYPE svg PUBLIC "-//W3C//DTD SVG 1.1//EN" "http://www.w3.org/Graphics/SVG/1.1/DTD/svg11.dtd">
<svg xmlns:dc="http://purl.org/dc/elements/1.1/" xmlns:xl="http://www.w3.org/1999/xlink" version="1.1" xmlns="http://www.w3.org/2000/svg" viewBox="-838.5856 -3294.0586 24 18" width="24" height="18">
  <defs/>
  <g id="SOURCES" stroke-dasharray="none" stroke="none" stroke-opacity="1" fill="none" fill-opacity="1">
    <title>SOURCES</title>
    <g id="SOURCES_Calque_2">
      <title>Calque 2</title>
      <g id="Group_10124">
        <g id="Group_10023">
          <title>refresh-left</title>
          <g id="Graphic_10024">
            <path d="M -835.5793 -3290.8973 C -837.3219 -3289.2614 -838.2643 -3286.923 -838.0865 -3284.4693 C -837.7575 -3280.0596 -833.9257 -3276.7522 -829.5159 -3277.081 C -825.1061 -3277.41 -821.7988 -3281.242 -822.1278 -3285.6518 C -822.4567 -3290.0615 -825.9952 -3293.12 -830.2094 -3293.0577 C -830.4583 -3293.0577 -830.6539 -3292.8532 -830.645 -3292.6043 C -830.6361 -3292.3553 -830.4405 -3292.1597 -830.1916 -3292.1686 C -826.4486 -3292.222 -823.2924 -3289.3414 -823.0079 -3285.5807 C -822.7234 -3281.82 -825.6573 -3278.2548 -829.5781 -3277.9614 C -833.4989 -3277.668 -836.904 -3280.6108 -837.1974 -3284.5316 C -837.3574 -3286.7187 -836.5128 -3288.817 -834.9481 -3290.266 L -834.7703 -3287.83 C -834.7525 -3287.581 -834.5391 -3287.4032 -834.2902 -3287.421 C -834.0412 -3287.4388 -833.8634 -3287.652 -833.8812 -3287.901 L -834.1479 -3291.4485 C -834.1657 -3291.6974 -834.3791 -3291.8752 -834.628 -3291.8575 L -838.1754 -3291.5907 C -838.4243 -3291.573 -838.6021 -3291.3596 -838.5844 -3291.1106 C -838.5666 -3290.8617 -838.3532 -3290.684 -838.1043 -3290.7017 L -835.5882 -3290.8884 Z" fill="#999"/>
          </g>
        </g>
        <g id="Graphic_10123"/>
      </g>
    </g>
  </g>
</svg>
