<?xml version="1.0" encoding="UTF-8" standalone="no"?>
<!DOCTYPE svg PUBLIC "-//W3C//DTD SVG 1.1//EN" "http://www.w3.org/Graphics/SVG/1.1/DTD/svg11.dtd">
<svg xmlns:dc="http://purl.org/dc/elements/1.1/" xmlns:xl="http://www.w3.org/1999/xlink" version="1.1" xmlns="http://www.w3.org/2000/svg" viewBox="-811.326 -3294.0586 24 18" width="24" height="18">
  <defs/>
  <g id="SOURCES" stroke-dasharray="none" stroke="none" stroke-opacity="1" fill="none" fill-opacity="1">
    <title>SOURCES</title>
    <g id="SOURCES_Calque_2">
      <title>Calque 2</title>
      <g id="Group_10033">
        <title>flag</title>
        <g id="Graphic_10034">
          <path d="M -804.2149 -3291.281 L -799.326 -3291.281 C -798.9615 -3291.281 -798.7482 -3290.863 -798.9704 -3290.5697 L -801.4326 -3287.281 L -798.9704 -3283.992 C -798.7482 -3283.6986 -798.9615 -3283.281 -799.326 -3283.281 L -803.7704 -3283.281 C -804.5082 -3283.281 -805.1037 -3283.8764 -805.1037 -3284.614 C -805.1037 -3284.863 -805.2993 -3285.0586 -805.5482 -3285.0586 L -810.4371 -3285.0586 L -810.4371 -3277.503 C -810.4371 -3277.254 -810.6326 -3277.0586 -810.8815 -3277.0586 C -811.1304 -3277.0586 -811.326 -3277.254 -811.326 -3277.503 L -811.326 -3291.7253 C -811.326 -3292.463 -810.7304 -3293.0586 -809.9926 -3293.0586 L -805.5482 -3293.0586 C -804.8104 -3293.0586 -804.2149 -3292.463 -804.2149 -3291.7253 L -804.2149 -3291.272 Z M -804.2149 -3290.392 L -804.2149 -3289.0586 C -804.2149 -3288.8097 -804.4104 -3288.614 -804.6593 -3288.614 C -804.9082 -3288.614 -805.1037 -3288.8097 -805.1037 -3289.0586 L -805.1037 -3290.8364 L -805.1037 -3291.734 C -805.1037 -3291.983 -805.2993 -3292.1786 -805.5482 -3292.1786 L -809.9926 -3292.1786 C -810.2415 -3292.1786 -810.4371 -3291.983 -810.4371 -3291.734 L -810.4371 -3285.9475 L -805.5482 -3285.9475 C -804.8104 -3285.9475 -804.2149 -3285.352 -804.2149 -3284.614 C -804.2149 -3284.3653 -804.0193 -3284.1697 -803.7704 -3284.1697 L -800.2149 -3284.1697 L -802.3482 -3287.014 C -802.4637 -3287.174 -802.4637 -3287.3875 -802.3482 -3287.5475 L -800.2149 -3290.392 Z" fill="#999"/>
        </g>
      </g>
      <g id="Graphic_10125"/>
    </g>
  </g>
</svg>
