<?xml version="1.0" encoding="UTF-8" standalone="no"?>
<!DOCTYPE svg PUBLIC "-//W3C//DTD SVG 1.1//EN" "http://www.w3.org/Graphics/SVG/1.1/DTD/svg11.dtd">
<svg xmlns:dc="http://purl.org/dc/elements/1.1/" xmlns:xl="http://www.w3.org/1999/xlink" version="1.1" xmlns="http://www.w3.org/2000/svg" viewBox="-862.1169 -3267 24 18" width="24" height="18">
  <defs/>
  <g id="SOURCES" stroke-dasharray="none" stroke="none" stroke-opacity="1" fill="none" fill-opacity="1">
    <title>SOURCES</title>
    <g id="SOURCES_Calque_2">
      <title>Calque 2</title>
      <g id="Group_10224">
        <g id="Group_10221">
          <title>tray-stack</title>
          <g id="Graphic_10222">
            <path d="M -847.0058 -3258.889 L -851.4947 -3258.889 C -851.6992 -3257.8756 -852.5969 -3257.111 -853.6725 -3257.111 L -854.5614 -3257.111 C -855.6369 -3257.111 -856.5347 -3257.8756 -856.7392 -3258.889 L -861.2281 -3258.889 L -861.2281 -3255.3333 L -856.3392 -3255.3333 C -856.0903 -3255.3333 -855.8947 -3255.1378 -855.8947 -3254.889 C -855.8947 -3254.151 -855.2992 -3253.5556 -854.5614 -3253.5556 L -853.6725 -3253.5556 C -852.9347 -3253.5556 -852.3392 -3254.151 -852.3392 -3254.889 C -852.3392 -3255.1378 -852.1436 -3255.3333 -851.8947 -3255.3333 L -847.0058 -3255.3333 Z M -847.0058 -3259.7778 L -847.0058 -3263.7778 C -847.0058 -3264.5156 -847.6014 -3265.111 -848.3392 -3265.111 L -859.8947 -3265.111 C -860.6325 -3265.111 -861.2281 -3264.5156 -861.2281 -3263.7778 L -861.2281 -3259.7778 L -856.3392 -3259.7778 C -856.0903 -3259.7778 -855.8947 -3259.5822 -855.8947 -3259.3333 C -855.8947 -3258.5956 -855.2992 -3258 -854.5614 -3258 L -853.6725 -3258 C -852.9347 -3258 -852.3392 -3258.5956 -852.3392 -3259.3333 C -852.3392 -3259.5822 -852.1436 -3259.7778 -851.8947 -3259.7778 Z M -847.0058 -3254.4444 L -851.4947 -3254.4444 C -851.6992 -3253.431 -852.5969 -3252.6667 -853.6725 -3252.6667 L -854.5614 -3252.6667 C -855.6369 -3252.6667 -856.5347 -3253.431 -856.7392 -3254.4444 L -861.2281 -3254.4444 L -861.2281 -3252.2222 C -861.2281 -3251.4844 -860.6325 -3250.889 -859.8947 -3250.889 L -848.3392 -3250.889 C -847.6014 -3250.889 -847.0058 -3251.4844 -847.0058 -3252.2222 Z M -859.8947 -3266 L -848.3392 -3266 C -847.1125 -3266 -846.1169 -3265.0044 -846.1169 -3263.7778 L -846.1169 -3252.2222 C -846.1169 -3250.9956 -847.1125 -3250 -848.3392 -3250 L -859.8947 -3250 C -861.1214 -3250 -862.1169 -3250.9956 -862.1169 -3252.2222 L -862.1169 -3263.7778 C -862.1169 -3265.0044 -861.1214 -3266 -859.8947 -3266 Z" fill="#999"/>
          </g>
        </g>
        <g id="Graphic_10223"/>
      </g>
    </g>
  </g>
</svg>
