<?xml version="1.0" encoding="UTF-8" standalone="no"?>
<!DOCTYPE svg PUBLIC "-//W3C//DTD SVG 1.1//EN" "http://www.w3.org/Graphics/SVG/1.1/DTD/svg11.dtd">
<svg xmlns:dc="http://purl.org/dc/elements/1.1/" xmlns:xl="http://www.w3.org/1999/xlink" version="1.1" xmlns="http://www.w3.org/2000/svg" viewBox="-784.06635 -3293.0586 24 18" width="24" height="18">
  <defs/>
  <g id="SOURCES" stroke-dasharray="none" stroke="none" stroke-opacity="1" fill="none" fill-opacity="1">
    <title>SOURCES</title>
    <g id="SOURCES_Calque_2">
      <title>Calque 2</title>
      <g id="Group_10128">
        <g id="Group_10035">
          <title>briefcase</title>
          <g id="Graphic_10036">
            <path d="M -771.0745 -3289.0605 L -779.0695 -3289.0605 L -779.0695 -3277.058 L -771.0745 -3277.058 Z M -770.0751 -3289.0605 L -770.0751 -3277.058 L -768.576 -3277.058 C -767.74655 -3277.058 -767.077 -3277.7276 -767.077 -3278.557 L -767.077 -3287.5614 C -767.077 -3288.391 -767.74655 -3289.0605 -768.576 -3289.0605 Z M -780.06885 -3289.0605 L -781.5679 -3289.0605 C -782.3974 -3289.0605 -783.067 -3288.391 -783.067 -3287.5614 L -783.067 -3278.557 C -783.067 -3277.7276 -782.3974 -3277.058 -781.5679 -3277.058 L -780.06885 -3277.058 Z M -778.0701 -3290.06 L -778.0701 -3290.5596 C -778.0701 -3291.389 -777.4005 -3292.0586 -776.571 -3292.0586 L -773.5729 -3292.0586 C -772.7434 -3292.0586 -772.0738 -3291.389 -772.0738 -3290.5596 L -772.0738 -3290.06 L -768.576 -3290.06 C -767.1969 -3290.06 -766.0776 -3288.9406 -766.0776 -3287.5614 L -766.0776 -3278.557 C -766.0776 -3277.178 -767.1969 -3276.0586 -768.576 -3276.0586 L -781.5679 -3276.0586 C -782.94705 -3276.0586 -784.06635 -3277.178 -784.06635 -3278.557 L -784.06635 -3287.5614 C -784.06635 -3288.9406 -782.94705 -3290.06 -781.5679 -3290.06 Z M -773.0732 -3290.06 L -773.0732 -3290.5596 C -773.0732 -3290.8394 -773.2931 -3291.0593 -773.5729 -3291.0593 L -776.571 -3291.0593 C -776.8509 -3291.0593 -777.0707 -3290.8394 -777.0707 -3290.5596 L -777.0707 -3290.06 Z" fill="#999"/>
          </g>
        </g>
        <g id="Graphic_10127"/>
      </g>
    </g>
  </g>
</svg>
