<?xml version="1.0" encoding="UTF-8" standalone="no"?>
<!DOCTYPE svg PUBLIC "-//W3C//DTD SVG 1.1//EN" "http://www.w3.org/Graphics/SVG/1.1/DTD/svg11.dtd">
<svg xmlns:dc="http://purl.org/dc/elements/1.1/" xmlns:xl="http://www.w3.org/1999/xlink" version="1.1" xmlns="http://www.w3.org/2000/svg" viewBox="-754.0776 -3293.0586 24 18" width="24" height="18">
  <defs/>
  <g id="SOURCES" stroke-dasharray="none" stroke="none" stroke-opacity="1" fill="none" fill-opacity="1">
    <title>SOURCES</title>
    <g id="SOURCES_Calque_2">
      <title>Calque 2</title>
      <g id="Group_10130">
        <g id="Group_10037">
          <title>calendar</title>
          <g id="Graphic_10038">
            <path d="M -743.136 -3290.3753 L -749.8693 -3290.3753 L -749.8693 -3289.9545 C -749.8693 -3289.719 -750.05445 -3289.5336 -750.2901 -3289.5336 C -750.5258 -3289.5336 -750.7109 -3289.719 -750.7109 -3289.9545 L -750.7109 -3290.3753 L -751.9734 -3290.3753 C -752.672 -3290.3753 -753.2359 -3289.8114 -753.2359 -3289.113 L -753.2359 -3287.0087 L -739.7693 -3287.0087 L -739.7693 -3289.113 C -739.7693 -3289.8114 -740.33325 -3290.3753 -741.0318 -3290.3753 L -742.2943 -3290.3753 L -742.2943 -3289.9545 C -742.2943 -3289.719 -742.4795 -3289.5336 -742.71515 -3289.5336 C -742.9508 -3289.5336 -743.136 -3289.719 -743.136 -3289.9545 Z M -742.2943 -3291.217 L -741.0318 -3291.217 C -739.8703 -3291.217 -738.9277 -3290.2743 -738.9277 -3289.113 L -738.9277 -3278.1628 C -738.9277 -3277.0013 -739.8703 -3276.0586 -741.0318 -3276.0586 L -751.9734 -3276.0586 C -753.1349 -3276.0586 -754.0776 -3277.0013 -754.0776 -3278.1628 L -754.0776 -3289.113 C -754.0776 -3290.2743 -753.1349 -3291.217 -751.9734 -3291.217 L -750.7109 -3291.217 L -750.7109 -3291.6378 C -750.7109 -3291.8735 -750.5258 -3292.0586 -750.2901 -3292.0586 C -750.05445 -3292.0586 -749.8693 -3291.8735 -749.8693 -3291.6378 L -749.8693 -3291.217 L -743.136 -3291.217 L -743.136 -3291.6378 C -743.136 -3291.8735 -742.9508 -3292.0586 -742.71515 -3292.0586 C -742.4795 -3292.0586 -742.2943 -3291.8735 -742.2943 -3291.6378 Z M -739.7693 -3286.167 L -753.2359 -3286.167 L -753.2359 -3278.1628 C -753.2359 -3277.4642 -752.672 -3276.9003 -751.9734 -3276.9003 L -741.0318 -3276.9003 C -740.33325 -3276.9003 -739.7693 -3277.4642 -739.7693 -3278.1628 Z" fill="#999"/>
          </g>
        </g>
        <g id="Graphic_10129"/>
      </g>
    </g>
  </g>
</svg>
