<?xml version="1.0" encoding="UTF-8" standalone="no"?>
<!DOCTYPE svg PUBLIC "-//W3C//DTD SVG 1.1//EN" "http://www.w3.org/Graphics/SVG/1.1/DTD/svg11.dtd">
<svg xmlns:dc="http://purl.org/dc/elements/1.1/" xmlns:xl="http://www.w3.org/1999/xlink" version="1.1" xmlns="http://www.w3.org/2000/svg" viewBox="-724.0888 -3299.239 24 18" width="24" height="18">
  <defs/>
  <g id="SOURCES" stroke-dasharray="none" stroke="none" stroke-opacity="1" fill="none" fill-opacity="1">
    <title>SOURCES</title>
    <g id="SOURCES_Calque_2">
      <title>Calque 2</title>
      <g id="Group_10132">
        <g id="Group_10039">
          <title>activity</title>
          <g id="Graphic_10040">
            <path d="M -720.97935 -3288.1722 C -721.89936 -3288.827 -723.0894 -3288.7335 -723.9894 -3289.335 C -724.6294 -3289.8025 -722.02936 -3290.671 -720.52935 -3289.6822 C -719.07935 -3288.907 -718.40935 -3286.5954 -717.46935 -3285.1655 C -717.17935 -3284.778 -716.93935 -3284.6577 -716.69935 -3284.9116 C -715.43935 -3287.21 -714.15935 -3292.1945 -713.06934 -3295.041 C -712.58934 -3296.1366 -711.98934 -3299.13 -710.8693 -3297.9807 C -709.5493 -3296.6177 -708.7493 -3291.3125 -706.4793 -3290.551 C -705.7993 -3290.1633 -704.4793 -3290.19 -704.0693 -3289.5085 C -705.2293 -3288.346 -707.6493 -3288.7736 -708.6393 -3290.3638 C -709.7793 -3292.101 -710.6493 -3295.816 -711.29934 -3295.629 C -711.81934 -3295.3883 -711.93934 -3294.573 -712.22934 -3293.8782 C -713.14934 -3291.1923 -714.28935 -3287.7847 -715.18935 -3285.139 C -715.81935 -3283.495 -716.06935 -3282.3727 -716.82935 -3282.239 C -717.98935 -3282.306 -719.31935 -3287.0765 -720.79935 -3288.0653 L -720.95935 -3288.1856 Z" fill="#999"/>
          </g>
        </g>
        <g id="Graphic_10131"/>
      </g>
    </g>
  </g>
</svg>
