<?xml version="1.0" encoding="UTF-8" standalone="no"?>
<!DOCTYPE svg PUBLIC "-//W3C//DTD SVG 1.1//EN" "http://www.w3.org/Graphics/SVG/1.1/DTD/svg11.dtd">
<svg xmlns:dc="http://purl.org/dc/elements/1.1/" xmlns:xl="http://www.w3.org/1999/xlink" version="1.1" xmlns="http://www.w3.org/2000/svg" viewBox="-694.9082 -3294.0586 24 18" width="24" height="18">
  <defs/>
  <g id="SOURCES" stroke-dasharray="none" stroke="none" stroke-opacity="1" fill="none" fill-opacity="1">
    <title>SOURCES</title>
    <g id="SOURCES_Calque_2">
      <title>Calque 2</title>
      <g id="Group_10134">
        <g id="Group_10042">
          <title>table</title>
          <g id="Graphic_10043">
            <path d="M -682.9082 -3283.0586 L -682.9082 -3287.0586 L -688.9082 -3287.0586 L -688.9082 -3283.0586 Z M -682.9082 -3282.0586 L -688.9082 -3282.0586 L -688.9082 -3278.0586 L -682.9082 -3278.0586 Z M -693.9082 -3283.0586 L -689.9082 -3283.0586 L -689.9082 -3287.0586 L -693.9082 -3287.0586 Z M -693.9082 -3282.0586 L -693.9082 -3279.5586 C -693.9082 -3278.7286 -693.2382 -3278.0586 -692.4082 -3278.0586 L -689.9082 -3278.0586 L -689.9082 -3282.0586 Z M -677.9082 -3283.0586 L -677.9082 -3287.0586 L -681.9082 -3287.0586 L -681.9082 -3283.0586 Z M -677.9082 -3282.0586 L -681.9082 -3282.0586 L -681.9082 -3278.0586 L -679.4082 -3278.0586 C -678.5782 -3278.0586 -677.9082 -3278.7286 -677.9082 -3279.5586 Z M -682.9082 -3288.0586 L -682.9082 -3292.0586 L -688.9082 -3292.0586 L -688.9082 -3288.0586 Z M -693.9082 -3288.0586 L -689.9082 -3288.0586 L -689.9082 -3292.0586 L -692.4082 -3292.0586 C -693.2382 -3292.0586 -693.9082 -3291.3886 -693.9082 -3290.5586 Z M -677.9082 -3288.0586 L -677.9082 -3290.5586 C -677.9082 -3291.3886 -678.5782 -3292.0586 -679.4082 -3292.0586 L -681.9082 -3292.0586 L -681.9082 -3288.0586 Z M -692.4082 -3293.0586 L -679.4082 -3293.0586 C -678.0282 -3293.0586 -676.9082 -3291.9386 -676.9082 -3290.5586 L -676.9082 -3279.5586 C -676.9082 -3278.1786 -678.0282 -3277.0586 -679.4082 -3277.0586 L -692.4082 -3277.0586 C -693.7882 -3277.0586 -694.9082 -3278.1786 -694.9082 -3279.5586 L -694.9082 -3290.5586 C -694.9082 -3291.9386 -693.7882 -3293.0586 -692.4082 -3293.0586 Z" fill="#999"/>
          </g>
        </g>
        <g id="Graphic_10133"/>
      </g>
    </g>
  </g>
</svg>
