<?xml version="1.0" encoding="UTF-8" standalone="no"?>
<!DOCTYPE svg PUBLIC "-//W3C//DTD SVG 1.1//EN" "http://www.w3.org/Graphics/SVG/1.1/DTD/svg11.dtd">
<svg xmlns:dc="http://purl.org/dc/elements/1.1/" xmlns:xl="http://www.w3.org/1999/xlink" version="1.1" xmlns="http://www.w3.org/2000/svg" viewBox="-667.5082 -3294.0586 24 18" width="24" height="18">
  <defs/>
  <g id="SOURCES" stroke-dasharray="none" stroke="none" stroke-opacity="1" fill="none" fill-opacity="1">
    <title>SOURCES</title>
    <g id="SOURCES_Calque_2">
      <title>Calque 2</title>
      <g id="Group_10144">
        <g id="Group_10044">
          <title>document</title>
          <g id="Graphic_10045">
            <path d="M -654.7082 -3289.4346 L -654.7082 -3279.0586 C -654.7082 -3277.9546 -655.6042 -3277.0586 -656.7082 -3277.0586 L -665.5082 -3277.0586 C -666.6122 -3277.0586 -667.5082 -3277.9546 -667.5082 -3279.0586 L -667.5082 -3291.0586 C -667.5082 -3292.1626 -666.6122 -3293.0586 -665.5082 -3293.0586 L -658.3322 -3293.0586 C -658.2282 -3293.0586 -658.1162 -3293.0266 -658.0282 -3292.9386 L -654.8282 -3289.7386 C -654.7402 -3289.6506 -654.7082 -3289.5386 -654.7082 -3289.4346 Z M -658.7082 -3292.2586 L -665.5082 -3292.2586 C -666.1722 -3292.2586 -666.7082 -3291.7226 -666.7082 -3291.0586 L -666.7082 -3279.0586 C -666.7082 -3278.3946 -666.1722 -3277.8586 -665.5082 -3277.8586 L -656.7082 -3277.8586 C -656.0442 -3277.8586 -655.5082 -3278.3946 -655.5082 -3279.0586 L -655.5082 -3289.0586 L -658.3082 -3289.0586 C -658.5322 -3289.0586 -658.7082 -3289.2346 -658.7082 -3289.4586 Z M -657.9082 -3291.6906 L -657.9082 -3289.8586 L -656.0762 -3289.8586 Z M -663.9082 -3286.6586 C -664.1322 -3286.6586 -664.3082 -3286.8346 -664.3082 -3287.0586 C -664.3082 -3287.2826 -664.1322 -3287.4586 -663.9082 -3287.4586 L -658.3082 -3287.4586 C -658.0842 -3287.4586 -657.9082 -3287.2826 -657.9082 -3287.0586 C -657.9082 -3286.8346 -658.0842 -3286.6586 -658.3082 -3286.6586 Z M -663.9082 -3284.2586 C -664.1322 -3284.2586 -664.3082 -3284.4346 -664.3082 -3284.6586 C -664.3082 -3284.8826 -664.1322 -3285.0586 -663.9082 -3285.0586 L -658.3082 -3285.0586 C -658.0842 -3285.0586 -657.9082 -3284.8826 -657.9082 -3284.6586 C -657.9082 -3284.4346 -658.0842 -3284.2586 -658.3082 -3284.2586 Z M -663.9082 -3281.8586 C -664.1322 -3281.8586 -664.3082 -3282.0346 -664.3082 -3282.2586 C -664.3082 -3282.4826 -664.1322 -3282.6586 -663.9082 -3282.6586 L -659.9082 -3282.6586 C -659.6842 -3282.6586 -659.5082 -3282.4826 -659.5082 -3282.2586 C -659.5082 -3282.0346 -659.6842 -3281.8586 -659.9082 -3281.8586 Z" fill="#999"/>
          </g>
        </g>
        <g id="Graphic_10143"/>
      </g>
    </g>
  </g>
</svg>
