<?xml version="1.0" encoding="UTF-8" standalone="no"?>
<!DOCTYPE svg PUBLIC "-//W3C//DTD SVG 1.1//EN" "http://www.w3.org/Graphics/SVG/1.1/DTD/svg11.dtd">
<svg xmlns:dc="http://purl.org/dc/elements/1.1/" xmlns:xl="http://www.w3.org/1999/xlink" version="1.1" xmlns="http://www.w3.org/2000/svg" viewBox="-512.2071 -3308.1196 24 18" width="24" height="18">
  <defs/>
  <g id="SOURCES" stroke-dasharray="none" stroke="none" stroke-opacity="1" fill="none" fill-opacity="1">
    <title>SOURCES</title>
    <g id="SOURCES_Calque_2">
      <title>Calque 2</title>
      <g id="Graphic_10145"/>
      <g id="Group_10049">
        <g id="Graphic_10048">
          <path d="M -509.72666 -3304.8794 L -509.76755 -3304.8794 L -511.96175 -3303.5795 L -512.2071 -3304.3666 L -509.6585 -3305.893 L -508.759 -3305.893 L -508.759 -3292.346 L -509.71303 -3292.346 L -509.71303 -3304.8794 Z" fill="#999"/>
        </g>
        <g id="Graphic_10047">
          <path d="M -506.0405 -3293.0497 C -506.0405 -3293.5983 -505.6862 -3293.992 -505.19554 -3293.992 C -504.7049 -3293.992 -504.3642 -3293.5864 -504.3642 -3293.0497 C -504.3642 -3292.549 -504.6913 -3292.1196 -505.2092 -3292.1196 C -505.72706 -3292.1196 -506.05414 -3292.549 -506.0405 -3293.0497 Z" fill="#999"/>
        </g>
        <g id="Graphic_10046">
          <path d="M -495.73674 -3299.3104 C -495.73674 -3294.457 -497.45395 -3292.1196 -500.1388 -3292.1196 C -502.2376 -3292.1196 -504.17286 -3294.1826 -504.2274 -3299.06 C -504.2274 -3303.997 -502.0877 -3306.1196 -499.8253 -3306.1196 C -497.563 -3306.1196 -495.73674 -3303.985 -495.73674 -3299.3104 Z M -503.21886 -3299.036 C -503.21886 -3295.244 -501.93777 -3292.9424 -500.0161 -3292.9424 C -497.78104 -3292.9424 -496.7589 -3295.5182 -496.7589 -3299.203 C -496.7589 -3302.888 -497.7129 -3305.2967 -499.9889 -3305.2967 C -501.82874 -3305.2967 -503.21886 -3303.031 -503.21886 -3299.036 Z" fill="#999"/>
        </g>
      </g>
    </g>
  </g>
</svg>
