<?xml version="1.0" encoding="UTF-8" standalone="no"?>
<!DOCTYPE svg PUBLIC "-//W3C//DTD SVG 1.1//EN" "http://www.w3.org/Graphics/SVG/1.1/DTD/svg11.dtd">
<svg xmlns:dc="http://purl.org/dc/elements/1.1/" xmlns:xl="http://www.w3.org/1999/xlink" version="1.1" xmlns="http://www.w3.org/2000/svg" viewBox="-476.20707 -3308.1196 24 18" width="24" height="18">
  <defs/>
  <g id="SOURCES" stroke-dasharray="none" stroke="none" stroke-opacity="1" fill="none" fill-opacity="1">
    <title>SOURCES</title>
    <g id="SOURCES_Calque_2">
      <title>Calque 2</title>
      <g id="Group_10211">
        <g id="Graphic_10147"/>
        <g id="Group_10070">
          <title>font-size</title>
          <g id="Graphic_10071">
            <path d="M -461.58207 -3298.581 L -461.58207 -3293.1965 L -461.01957 -3293.1965 C -460.70457 -3293.1965 -460.45707 -3292.9596 -460.45707 -3292.658 C -460.45707 -3292.3565 -460.70457 -3292.1196 -461.01957 -3292.1196 L -463.26957 -3292.1196 C -463.58457 -3292.1196 -463.83207 -3292.3565 -463.83207 -3292.658 C -463.83207 -3292.9596 -463.58457 -3293.1965 -463.26957 -3293.1965 L -462.70707 -3293.1965 L -462.70707 -3298.581 L -464.95707 -3298.581 L -464.95707 -3298.0427 C -464.95707 -3297.741 -465.20457 -3297.504 -465.51957 -3297.504 C -465.83457 -3297.504 -466.08207 -3297.741 -466.08207 -3298.0427 L -466.08207 -3299.1196 C -466.08207 -3299.421 -465.83457 -3299.658 -465.51957 -3299.658 L -458.76957 -3299.658 C -458.45457 -3299.658 -458.20707 -3299.421 -458.20707 -3299.1196 L -458.20707 -3298.0427 C -458.20707 -3297.741 -458.45457 -3297.504 -458.76957 -3297.504 C -459.08457 -3297.504 -459.33207 -3297.741 -459.33207 -3298.0427 L -459.33207 -3298.581 Z M -469.45707 -3305.0427 L -469.45707 -3293.1965 L -467.76957 -3293.1965 C -467.45457 -3293.1965 -467.20707 -3292.9596 -467.20707 -3292.658 C -467.20707 -3292.3565 -467.45457 -3292.1196 -467.76957 -3292.1196 L -472.26957 -3292.1196 C -472.58457 -3292.1196 -472.83207 -3292.3565 -472.83207 -3292.658 C -472.83207 -3292.9596 -472.58457 -3293.1965 -472.26957 -3293.1965 L -470.58207 -3293.1965 L -470.58207 -3305.0427 L -475.08207 -3305.0427 L -475.08207 -3303.4273 C -475.08207 -3303.1257 -475.32957 -3302.889 -475.64457 -3302.889 C -475.95957 -3302.889 -476.20707 -3303.1257 -476.20707 -3303.4273 L -476.20707 -3305.581 C -476.20707 -3305.8827 -475.95957 -3306.1196 -475.64457 -3306.1196 L -464.39457 -3306.1196 C -464.07957 -3306.1196 -463.83207 -3305.8827 -463.83207 -3305.581 L -463.83207 -3303.4273 C -463.83207 -3303.1257 -464.07957 -3302.889 -464.39457 -3302.889 C -464.70957 -3302.889 -464.95707 -3303.1257 -464.95707 -3303.4273 L -464.95707 -3305.0427 Z" fill="#999"/>
          </g>
        </g>
      </g>
    </g>
  </g>
</svg>
