<?xml version="1.0" encoding="UTF-8" standalone="no"?>
<!DOCTYPE svg PUBLIC "-//W3C//DTD SVG 1.1//EN" "http://www.w3.org/Graphics/SVG/1.1/DTD/svg11.dtd">
<svg xmlns:dc="http://purl.org/dc/elements/1.1/" xmlns:xl="http://www.w3.org/1999/xlink" version="1.1" xmlns="http://www.w3.org/2000/svg" viewBox="-580.93875 -3294.0586 24 18" width="24" height="18">
  <defs/>
  <g id="SOURCES" stroke-dasharray="none" stroke="none" stroke-opacity="1" fill="none" fill-opacity="1">
    <title>SOURCES</title>
    <g id="SOURCES_Calque_2">
      <title>Calque 2</title>
      <g id="Group_10052">
        <title>shape-polygon</title>
        <g id="Graphic_10053">
          <path d="M -577.94554 -3287.614 C -577.39554 -3287.614 -576.94554 -3288.014 -576.94554 -3288.503 L -576.94554 -3288.5653 L -564.94554 -3290.2097 C -564.90554 -3289.7564 -564.47554 -3289.392 -563.94554 -3289.392 L -563.94554 -3278.7253 C -564.46554 -3278.7253 -564.89554 -3278.3697 -564.94554 -3277.9075 L -576.94554 -3279.552 L -576.94554 -3279.614 C -576.94554 -3280.103 -577.39554 -3280.503 -577.94554 -3280.503 Z M -578.94554 -3287.614 L -578.94554 -3280.503 C -579.49554 -3280.503 -579.94554 -3280.103 -579.94554 -3279.614 L -579.94554 -3278.7253 C -579.94554 -3278.2364 -579.49554 -3277.8364 -578.94554 -3277.8364 L -577.94554 -3277.8364 C -577.42554 -3277.8364 -576.99554 -3278.192 -576.94554 -3278.654 L -564.94554 -3277.0097 L -564.94554 -3276.9475 C -564.94554 -3276.4586 -564.49554 -3276.0586 -563.94554 -3276.0586 L -562.94554 -3276.0586 C -562.39554 -3276.0586 -561.94554 -3276.4586 -561.94554 -3276.9475 L -561.94554 -3277.8364 C -561.94554 -3278.3253 -562.39554 -3278.7253 -562.94554 -3278.7253 L -562.94554 -3289.392 C -562.39554 -3289.392 -561.94554 -3289.792 -561.94554 -3290.281 L -561.94554 -3291.1697 C -561.94554 -3291.6586 -562.39554 -3292.0586 -562.94554 -3292.0586 L -563.94554 -3292.0586 C -564.49554 -3292.0586 -564.94554 -3291.6586 -564.94554 -3291.1697 L -564.94554 -3291.1075 L -576.94554 -3289.463 C -576.98554 -3289.9164 -577.41554 -3290.281 -577.94554 -3290.281 L -578.94554 -3290.281 C -579.49554 -3290.281 -579.94554 -3289.881 -579.94554 -3289.392 L -579.94554 -3288.503 C -579.94554 -3288.014 -579.49554 -3287.614 -578.94554 -3287.614 Z M -563.94554 -3277.401 L -563.94554 -3277.8364 L -562.94554 -3277.8364 L -562.94554 -3276.9475 L -563.94554 -3276.9475 L -563.94554 -3277.383 C -563.94554 -3277.383 -563.94554 -3277.392 -563.94554 -3277.401 Z M -577.94554 -3279.161 L -577.94554 -3278.7253 L -578.94554 -3278.7253 L -578.94554 -3279.614 L -577.94554 -3279.614 L -577.94554 -3279.1786 C -577.94554 -3279.1786 -577.94554 -3279.1697 -577.94554 -3279.161 Z M -563.94554 -3290.734 L -563.94554 -3291.1697 L -562.94554 -3291.1697 L -562.94554 -3290.281 L -563.94554 -3290.281 L -563.94554 -3290.7164 C -563.94554 -3290.7164 -563.94554 -3290.7253 -563.94554 -3290.734 Z M -577.94554 -3288.9386 L -577.94554 -3288.503 L -578.94554 -3288.503 L -578.94554 -3289.392 L -577.94554 -3289.392 L -577.94554 -3288.9564 C -577.94554 -3288.9564 -577.94554 -3288.9475 -577.94554 -3288.9386 Z" fill="#999"/>
        </g>
      </g>
      <g id="Graphic_10149"/>
    </g>
  </g>
</svg>
