<?xml version="1.0" encoding="UTF-8" standalone="no"?>
<!DOCTYPE svg PUBLIC "-//W3C//DTD SVG 1.1//EN" "http://www.w3.org/Graphics/SVG/1.1/DTD/svg11.dtd">
<svg xmlns:dc="http://purl.org/dc/elements/1.1/" xmlns:xl="http://www.w3.org/1999/xlink" version="1.1" xmlns="http://www.w3.org/2000/svg" viewBox="-551.1754 -3292.0586 24 18" width="24" height="18">
  <defs/>
  <g id="SOURCES" stroke-dasharray="none" stroke="none" stroke-opacity="1" fill="none" fill-opacity="1">
    <title>SOURCES</title>
    <g id="SOURCES_Calque_2">
      <title>Calque 2</title>
      <g id="Group_10054">
        <title>git-branch</title>
        <g id="Graphic_10055">
          <path d="M -545.6074 -3277.4586 C -545.7994 -3276.0986 -546.9674 -3275.0586 -548.3754 -3275.0586 C -549.9194 -3275.0586 -551.1754 -3276.3146 -551.1754 -3277.8586 C -551.1754 -3279.2666 -550.1354 -3280.4346 -548.7754 -3280.6266 L -548.7754 -3285.4826 C -550.1354 -3285.6746 -551.1754 -3286.8426 -551.1754 -3288.2506 C -551.1754 -3289.8026 -549.9194 -3291.0586 -548.3754 -3291.0586 C -546.8314 -3291.0586 -545.5754 -3289.8026 -545.5754 -3288.2586 C -545.5754 -3286.8506 -546.6154 -3285.6826 -547.9754 -3285.4906 L -547.9754 -3280.6346 C -546.7514 -3280.4586 -545.7754 -3279.4906 -545.6074 -3278.2666 L -541.9754 -3278.2666 C -540.4314 -3278.2666 -539.1754 -3279.5226 -539.1754 -3281.0666 L -539.1754 -3281.4986 C -540.5354 -3281.6906 -541.5754 -3282.8586 -541.5754 -3284.2666 C -541.5754 -3285.8106 -540.3194 -3287.0666 -538.7754 -3287.0666 C -537.2314 -3287.0666 -535.9754 -3285.8106 -535.9754 -3284.2666 C -535.9754 -3282.8586 -537.0154 -3281.6906 -538.3754 -3281.4986 L -538.3754 -3281.0666 C -538.3754 -3279.0746 -539.9834 -3277.4666 -541.9754 -3277.4666 L -545.6074 -3277.4666 Z M -550.3754 -3277.8586 C -550.3754 -3276.7546 -549.4794 -3275.8586 -548.3754 -3275.8586 C -547.2714 -3275.8586 -546.3754 -3276.7546 -546.3754 -3277.8586 C -546.3754 -3278.9626 -547.2714 -3279.8586 -548.3754 -3279.8586 C -549.4794 -3279.8586 -550.3754 -3278.9626 -550.3754 -3277.8586 Z M -550.3754 -3288.2586 C -550.3754 -3287.1546 -549.4794 -3286.2586 -548.3754 -3286.2586 C -547.2714 -3286.2586 -546.3754 -3287.1546 -546.3754 -3288.2586 C -546.3754 -3289.3626 -547.2714 -3290.2586 -548.3754 -3290.2586 C -549.4794 -3290.2586 -550.3754 -3289.3626 -550.3754 -3288.2586 Z M -538.7754 -3282.2586 C -537.6714 -3282.2586 -536.7754 -3283.1546 -536.7754 -3284.2586 C -536.7754 -3285.3626 -537.6714 -3286.2586 -538.7754 -3286.2586 C -539.8794 -3286.2586 -540.7754 -3285.3626 -540.7754 -3284.2586 C -540.7754 -3283.1546 -539.8794 -3282.2586 -538.7754 -3282.2586 Z" fill="#999"/>
        </g>
      </g>
      <g id="Graphic_10151"/>
    </g>
  </g>
</svg>
