<?xml version="1.0" encoding="UTF-8" standalone="no"?>
<!DOCTYPE svg PUBLIC "-//W3C//DTD SVG 1.1//EN" "http://www.w3.org/Graphics/SVG/1.1/DTD/svg11.dtd">
<svg xmlns:dc="http://purl.org/dc/elements/1.1/" xmlns:xl="http://www.w3.org/1999/xlink" version="1.1" xmlns="http://www.w3.org/2000/svg" viewBox="-521.41203 -3292.0586 24 18" width="24" height="18">
  <defs/>
  <g id="SOURCES" stroke-dasharray="none" stroke="none" stroke-opacity="1" fill="none" fill-opacity="1">
    <title>SOURCES</title>
    <g id="SOURCES_Calque_2">
      <title>Calque 2</title>
      <g id="Group_10135">
        <g id="Group_10137">
          <title>table</title>
          <g id="Graphic_10138">
            <path d="M -509.41203 -3281.0586 L -509.41203 -3285.0586 L -515.41203 -3285.0586 L -515.41203 -3281.0586 Z M -509.41203 -3280.0586 L -515.41203 -3280.0586 L -515.41203 -3276.0586 L -509.41203 -3276.0586 Z M -520.41203 -3281.0586 L -516.41203 -3281.0586 L -516.41203 -3285.0586 L -520.41203 -3285.0586 Z M -520.41203 -3280.0586 L -520.41203 -3277.5586 C -520.41203 -3276.7286 -519.74203 -3276.0586 -518.91203 -3276.0586 L -516.41203 -3276.0586 L -516.41203 -3280.0586 Z M -504.41203 -3281.0586 L -504.41203 -3285.0586 L -508.41203 -3285.0586 L -508.41203 -3281.0586 Z M -504.41203 -3280.0586 L -508.41203 -3280.0586 L -508.41203 -3276.0586 L -505.91203 -3276.0586 C -505.08203 -3276.0586 -504.41203 -3276.7286 -504.41203 -3277.5586 Z M -509.41203 -3286.0586 L -509.41203 -3290.0586 L -515.41203 -3290.0586 L -515.41203 -3286.0586 Z M -520.41203 -3286.0586 L -516.41203 -3286.0586 L -516.41203 -3290.0586 L -518.91203 -3290.0586 C -519.74203 -3290.0586 -520.41203 -3289.3886 -520.41203 -3288.5586 Z M -504.41203 -3286.0586 L -504.41203 -3288.5586 C -504.41203 -3289.3886 -505.08203 -3290.0586 -505.91203 -3290.0586 L -508.41203 -3290.0586 L -508.41203 -3286.0586 Z M -518.91203 -3291.0586 L -505.91203 -3291.0586 C -504.53203 -3291.0586 -503.41203 -3289.9386 -503.41203 -3288.5586 L -503.41203 -3277.5586 C -503.41203 -3276.1786 -504.53203 -3275.0586 -505.91203 -3275.0586 L -518.91203 -3275.0586 C -520.29203 -3275.0586 -521.41203 -3276.1786 -521.41203 -3277.5586 L -521.41203 -3288.5586 C -521.41203 -3289.9386 -520.29203 -3291.0586 -518.91203 -3291.0586 Z" fill="#999"/>
          </g>
        </g>
        <g id="Graphic_10136"/>
      </g>
    </g>
  </g>
</svg>
