<?xml version="1.0" encoding="UTF-8" standalone="no"?>
<!DOCTYPE svg PUBLIC "-//W3C//DTD SVG 1.1//EN" "http://www.w3.org/Graphics/SVG/1.1/DTD/svg11.dtd">
<svg xmlns:dc="http://purl.org/dc/elements/1.1/" xmlns:xl="http://www.w3.org/1999/xlink" version="1.1" xmlns="http://www.w3.org/2000/svg" viewBox="-494.83277 -3293.0586 24 18" width="24" height="18">
  <defs/>
  <g id="SOURCES" stroke-dasharray="none" stroke="none" stroke-opacity="1" fill="none" fill-opacity="1">
    <title>SOURCES</title>
    <g id="SOURCES_Calque_2">
      <title>Calque 2</title>
      <g id="Group_10154">
        <g id="Group_10058">
          <title>play</title>
          <g id="Graphic_10059">
            <path d="M -493.94154 -3290.5857 L -493.94154 -3277.5203 C -493.94154 -3277.1994 -493.6831 -3276.941 -493.36224 -3276.941 C -493.2464 -3276.941 -493.1305 -3276.9766 -493.0414 -3277.039 L -483.54085 -3283.4826 C -483.2289 -3283.6965 -483.1487 -3284.1243 -483.3626 -3284.4362 C -483.40716 -3284.5075 -483.46955 -3284.57 -483.54085 -3284.6145 L -493.0414 -3291.067 C -493.30876 -3291.2452 -493.66525 -3291.174 -493.8435 -3290.9155 C -493.9059 -3290.8174 -493.94154 -3290.7105 -493.94154 -3290.5946 Z M -494.83277 -3290.5857 C -494.83277 -3290.88 -494.74365 -3291.165 -494.5832 -3291.4146 C -494.1198 -3292.083 -493.2107 -3292.2612 -492.5334 -3291.8067 L -483.03285 -3285.363 C -482.8635 -3285.2472 -482.7209 -3285.1046 -482.61397 -3284.9442 C -482.1238 -3284.2223 -482.31095 -3283.242 -483.03285 -3282.7518 L -492.5334 -3276.308 C -492.774 -3276.139 -493.0681 -3276.0586 -493.36224 -3276.0586 C -494.17326 -3276.0586 -494.83277 -3276.718 -494.83277 -3277.529 Z" fill="#999"/>
          </g>
        </g>
        <g id="Graphic_10153"/>
      </g>
    </g>
  </g>
</svg>
