<?xml version="1.0" encoding="UTF-8" standalone="no"?>
<!DOCTYPE svg PUBLIC "-//W3C//DTD SVG 1.1//EN" "http://www.w3.org/Graphics/SVG/1.1/DTD/svg11.dtd">
<svg xmlns:dc="http://purl.org/dc/elements/1.1/" xmlns:xl="http://www.w3.org/1999/xlink" version="1.1" xmlns="http://www.w3.org/2000/svg" viewBox="-470.83277 -3294.0586 24 18" width="24" height="18">
  <defs/>
  <g id="SOURCES" stroke-dasharray="none" stroke="none" stroke-opacity="1" fill="none" fill-opacity="1">
    <title>SOURCES</title>
    <g id="SOURCES_Calque_2">
      <title>Calque 2</title>
      <g id="Group_10158">
        <g id="Group_10060">
          <title>file-import</title>
          <g id="Graphic_10061">
            <path d="M -467.8535 -3280.8586 C -467.6295 -3280.8586 -467.4535 -3280.6826 -467.4535 -3280.4586 L -467.4535 -3278.0586 C -467.4535 -3277.3946 -466.9175 -3276.8586 -466.2535 -3276.8586 L -457.4535 -3276.8586 C -456.7895 -3276.8586 -456.2535 -3277.3946 -456.2535 -3278.0586 L -456.2535 -3288.0586 L -459.0535 -3288.0586 C -459.2775 -3288.0586 -459.4535 -3288.2346 -459.4535 -3288.4586 L -459.4535 -3291.2586 L -466.2535 -3291.2586 C -466.9175 -3291.2586 -467.4535 -3290.7226 -467.4535 -3290.0586 L -467.4535 -3288.4586 C -467.4535 -3288.2346 -467.6295 -3288.0586 -467.8535 -3288.0586 C -468.0775 -3288.0586 -468.2535 -3288.2346 -468.2535 -3288.4586 L -468.2535 -3290.0586 C -468.2535 -3291.1626 -467.3575 -3292.0586 -466.2535 -3292.0586 L -459.0775 -3292.0586 C -458.9735 -3292.0586 -458.8615 -3292.0266 -458.7735 -3291.9386 L -455.5735 -3288.7386 C -455.4855 -3288.6506 -455.4535 -3288.5386 -455.4535 -3288.4346 L -455.4535 -3278.0586 C -455.4535 -3276.9546 -456.3495 -3276.0586 -457.4535 -3276.0586 L -466.2535 -3276.0586 C -467.3575 -3276.0586 -468.2535 -3276.9546 -468.2535 -3278.0586 L -468.2535 -3280.4586 C -468.2535 -3280.6826 -468.0775 -3280.8586 -467.8535 -3280.8586 Z M -458.6535 -3290.6906 L -458.6535 -3288.8586 L -456.8215 -3288.8586 Z M -461.6215 -3284.8586 L -463.3415 -3286.5786 C -463.5015 -3286.7386 -463.5015 -3286.9866 -463.3415 -3287.1466 C -463.1815 -3287.3066 -462.9335 -3287.3066 -462.7735 -3287.1466 L -460.3735 -3284.7466 C -460.2135 -3284.5866 -460.2135 -3284.3386 -460.3735 -3284.1786 L -462.7735 -3281.7786 C -462.9335 -3281.6186 -463.1815 -3281.6186 -463.3415 -3281.7786 C -463.5015 -3281.9386 -463.5015 -3282.1866 -463.3415 -3282.3466 L -461.6215 -3284.0666 L -467.8535 -3284.0666 C -468.0775 -3284.0666 -468.2535 -3284.2426 -468.2535 -3284.4666 C -468.2535 -3284.6906 -468.0775 -3284.8666 -467.8535 -3284.8666 L -461.6215 -3284.8666 Z" fill="#999"/>
          </g>
        </g>
        <g id="Graphic_10155"/>
      </g>
    </g>
  </g>
</svg>
