<?xml version="1.0" encoding="UTF-8" standalone="no"?>
<!DOCTYPE svg PUBLIC "-//W3C//DTD SVG 1.1//EN" "http://www.w3.org/Graphics/SVG/1.1/DTD/svg11.dtd">
<svg xmlns:dc="http://purl.org/dc/elements/1.1/" xmlns:xl="http://www.w3.org/1999/xlink" version="1.1" xmlns="http://www.w3.org/2000/svg" viewBox="-443.14314 -3293.0586 24 18" width="24" height="18">
  <defs/>
  <g id="SOURCES" stroke-dasharray="none" stroke="none" stroke-opacity="1" fill="none" fill-opacity="1">
    <title>SOURCES</title>
    <g id="SOURCES_Calque_2">
      <title>Calque 2</title>
      <g id="Group_10062">
        <title>repository</title>
        <g id="Graphic_10063">
          <path d="M -429.36413 -3292.0586 C -428.13814 -3292.0586 -427.14314 -3291.0636 -427.14314 -3289.8376 L -427.14314 -3278.2796 C -427.14314 -3277.0536 -428.13814 -3276.0586 -429.36413 -3276.0586 L -440.92215 -3276.0586 C -442.14814 -3276.0586 -443.14314 -3277.0536 -443.14314 -3278.2796 L -443.14314 -3289.8376 C -443.14314 -3291.0547 -442.157 -3292.041 -440.9488 -3292.0586 C -440.9488 -3292.0586 -437.0843 -3292.0586 -429.373 -3292.0586 Z M -440.8866 -3291.1702 C -441.65063 -3291.1702 -442.24586 -3290.575 -442.24586 -3289.8376 L -442.24586 -3278.2796 C -442.24586 -3277.5423 -441.6595 -3276.947 -440.92215 -3276.947 L -429.36413 -3276.947 C -428.62676 -3276.947 -428.03153 -3277.5423 -428.03153 -3278.2796 L -428.03153 -3289.8376 C -428.03153 -3290.575 -428.62676 -3291.1702 -429.36413 -3291.1702 Z M -437.0132 -3282.1175 C -436.8622 -3281.922 -436.88884 -3281.6466 -437.0843 -3281.4956 C -437.27973 -3281.3446 -437.55513 -3281.3712 -437.70616 -3281.5667 L -439.48295 -3283.7877 C -439.6162 -3283.9476 -439.6162 -3284.1786 -439.48295 -3284.3385 L -437.70616 -3286.5595 C -437.55513 -3286.755 -437.27085 -3286.7816 -437.0843 -3286.6305 C -436.88884 -3286.4795 -436.8622 -3286.1952 -437.0132 -3286.0087 L -438.5679 -3284.063 Z M -433.2642 -3286.0087 C -433.4152 -3286.204 -433.38856 -3286.4795 -433.1931 -3286.6305 C -432.99766 -3286.7816 -432.72226 -3286.755 -432.57123 -3286.5595 L -430.79444 -3284.3385 C -430.6612 -3284.1786 -430.6612 -3283.9476 -430.79444 -3283.7877 L -432.57123 -3281.5667 C -432.72226 -3281.3712 -433.00655 -3281.3446 -433.1931 -3281.4956 C -433.38856 -3281.6466 -433.4152 -3281.931 -433.2642 -3282.1175 L -431.7095 -3284.063 L -433.2642 -3286.0087 Z" fill="#999"/>
        </g>
      </g>
      <g id="Graphic_10156"/>
    </g>
  </g>
</svg>
