<?xml version="1.0" encoding="UTF-8" standalone="no"?>
<!DOCTYPE svg PUBLIC "-//W3C//DTD SVG 1.1//EN" "http://www.w3.org/Graphics/SVG/1.1/DTD/svg11.dtd">
<svg xmlns:dc="http://purl.org/dc/elements/1.1/" xmlns:xl="http://www.w3.org/1999/xlink" version="1.1" xmlns="http://www.w3.org/2000/svg" viewBox="-800.7898 -3276.765 24 18" width="24" height="18">
  <defs/>
  <g id="SOURCES" stroke-dasharray="none" stroke="none" stroke-opacity="1" fill="none" fill-opacity="1">
    <title>SOURCES</title>
    <g id="SOURCES_Calque_2">
      <title>Calque 2</title>
      <g id="Group_10233">
        <g id="Group_10230">
          <title>eye</title>
          <g id="Graphic_10231">
            <path d="M -800.7523 -3267.9445 C -798.6123 -3273.4545 -792.4223 -3276.1845 -786.9223 -3274.0445 C -784.1223 -3272.9545 -781.9023 -3270.7445 -780.8223 -3267.9445 C -780.7723 -3267.8245 -780.7723 -3267.6945 -780.8223 -3267.5845 C -782.9523 -3262.0845 -789.1523 -3259.3445 -794.6523 -3261.4845 C -797.4523 -3262.5745 -799.6623 -3264.7845 -800.7523 -3267.5845 C -800.8023 -3267.7045 -800.8023 -3267.8345 -800.7523 -3267.9445 Z M -794.2823 -3262.4145 C -789.3523 -3260.5045 -783.8123 -3262.8945 -781.8223 -3267.7645 C -782.8323 -3270.2145 -784.8023 -3272.1545 -787.2823 -3273.1145 C -792.2123 -3275.0245 -797.7423 -3272.6345 -799.7423 -3267.7645 C -798.7323 -3265.3145 -796.7623 -3263.3745 -794.2823 -3262.4145 Z M -790.7823 -3263.7645 C -792.9923 -3263.7645 -794.7823 -3265.5545 -794.7823 -3267.7645 C -794.7823 -3269.9745 -792.9923 -3271.7645 -790.7823 -3271.7645 C -788.5723 -3271.7645 -786.7823 -3269.9745 -786.7823 -3267.7645 C -786.7823 -3265.5545 -788.5723 -3263.7645 -790.7823 -3263.7645 Z M -790.7823 -3264.7645 C -789.1223 -3264.7645 -787.7823 -3266.1045 -787.7823 -3267.7645 C -787.7823 -3269.4245 -789.1223 -3270.7645 -790.7823 -3270.7645 C -792.4423 -3270.7645 -793.7823 -3269.4245 -793.7823 -3267.7645 C -793.7823 -3266.1045 -792.4423 -3264.7645 -790.7823 -3264.7645 Z" fill="#999"/>
          </g>
        </g>
        <g id="Graphic_10232"/>
      </g>
    </g>
  </g>
</svg>
