<?xml version="1.0" encoding="UTF-8" standalone="no"?>
<!DOCTYPE svg PUBLIC "-//W3C//DTD SVG 1.1//EN" "http://www.w3.org/Graphics/SVG/1.1/DTD/svg11.dtd">
<svg xmlns:dc="http://purl.org/dc/elements/1.1/" xmlns:xl="http://www.w3.org/1999/xlink" version="1.1" xmlns="http://www.w3.org/2000/svg" viewBox="-224.20707 -3308.1196 24 18" width="24" height="18">
  <defs/>
  <g id="SOURCES" stroke-dasharray="none" stroke="none" stroke-opacity="1" fill="none" fill-opacity="1">
    <title>SOURCES</title>
    <g id="SOURCES_Calque_2">
      <title>Calque 2</title>
      <g id="Group_10213">
        <g id="Graphic_10171"/>
        <g id="Group_10067">
          <g id="Graphic_10066">
            <path d="M -221.96866 -3304.8715 L -222.0084 -3304.8715 L -223.9819 -3303.5527 L -224.20707 -3304.3534 L -221.91568 -3305.896 L -221.10773 -3305.896 L -221.10773 -3292.143 L -221.96866 -3292.143 Z" fill="#999"/>
          </g>
          <g id="Graphic_10065">
            <path d="M -218.83143 -3292.143 L -218.83143 -3292.767 L -217.71884 -3294.074 C -214.3546 -3297.8185 -212.87116 -3299.7613 -212.87116 -3302.1162 C -212.87116 -3303.6822 -213.45394 -3305.2365 -215.50692 -3305.2365 C -216.65924 -3305.2365 -217.5599 -3304.5536 -218.07646 -3304.0472 L -218.43407 -3304.73 C -217.65262 -3305.5426 -216.59302 -3306.1196 -215.33474 -3306.1196 C -212.81818 -3306.1196 -211.9705 -3303.953 -211.9705 -3302.328 C -211.9705 -3299.62 -213.69235 -3297.4417 -216.72547 -3294.039 L -217.5864 -3293.0262 L -217.5864 -3292.979 L -211.63937 -3292.979 L -211.63937 -3292.1196 L -218.84467 -3292.1196 Z" fill="#999"/>
          </g>
        </g>
      </g>
    </g>
  </g>
</svg>
