<?xml version="1.0" encoding="UTF-8" standalone="no"?>
<!DOCTYPE svg PUBLIC "-//W3C//DTD SVG 1.1//EN" "http://www.w3.org/Graphics/SVG/1.1/DTD/svg11.dtd">
<svg xmlns:dc="http://purl.org/dc/elements/1.1/" xmlns:xl="http://www.w3.org/1999/xlink" version="1.1" xmlns="http://www.w3.org/2000/svg" viewBox="-700 -3230 24 18" width="24" height="18">
  <defs/>
  <g id="SOURCES" stroke-dasharray="none" stroke="none" stroke-opacity="1" fill="none" fill-opacity="1">
    <title>SOURCES</title>
    <g id="SOURCES_Calque_2">
      <title>Calque 2</title>
      <g id="Group_10248">
        <g id="Group_10245">
          <title>layout-4</title>
          <g id="Graphic_10246">
            <path d="M -691.1111 -3213.889 L -686.2222 -3213.889 C -685.48444 -3213.889 -684.8889 -3214.4844 -684.8889 -3215.2222 L -684.8889 -3221.889 L -691.1111 -3221.889 Z M -692 -3213.889 L -692 -3219.2222 L -699.1111 -3219.2222 L -699.1111 -3215.2222 C -699.1111 -3214.4844 -698.51556 -3213.889 -697.7778 -3213.889 Z M -692 -3220.111 L -692 -3228.111 L -697.7778 -3228.111 C -698.51556 -3228.111 -699.1111 -3227.5156 -699.1111 -3226.7778 L -699.1111 -3220.111 Z M -691.1111 -3228.111 L -691.1111 -3222.7778 L -684.8889 -3222.7778 L -684.8889 -3226.7778 C -684.8889 -3227.5156 -685.48444 -3228.111 -686.2222 -3228.111 Z M -700 -3226.7778 C -700 -3228.0044 -699.00444 -3229 -697.7778 -3229 L -686.2222 -3229 C -684.99556 -3229 -684 -3228.0044 -684 -3226.7778 L -684 -3215.2222 C -684 -3213.9956 -684.99556 -3213 -686.2222 -3213 L -697.7778 -3213 C -699.00444 -3213 -700 -3213.9956 -700 -3215.2222 Z" fill="#999"/>
          </g>
        </g>
        <g id="Graphic_10247"/>
      </g>
    </g>
  </g>
</svg>
