<?xml version="1.0" encoding="UTF-8" standalone="no"?>
<!DOCTYPE svg PUBLIC "-//W3C//DTD SVG 1.1//EN" "http://www.w3.org/Graphics/SVG/1.1/DTD/svg11.dtd">
<svg xmlns:dc="http://purl.org/dc/elements/1.1/" xmlns:xl="http://www.w3.org/1999/xlink" version="1.1" xmlns="http://www.w3.org/2000/svg" viewBox="-383.41415 -3293.0586 24 18" width="24" height="18">
  <defs/>
  <g id="SOURCES" stroke-dasharray="none" stroke="none" stroke-opacity="1" fill="none" fill-opacity="1">
    <title>SOURCES</title>
    <g id="SOURCES_Calque_2">
      <title>Calque 2</title>
      <g id="Group_10174">
        <g id="Group_10068">
          <title>list-number</title>
          <g id="Graphic_10069">
            <path d="M -381.27918 -3287.792 L -380.74584 -3287.792 C -380.44718 -3287.792 -380.2125 -3287.5573 -380.2125 -3287.2586 C -380.2125 -3286.96 -380.44718 -3286.7253 -380.74584 -3286.7253 L -382.87918 -3286.7253 C -383.17784 -3286.7253 -383.4125 -3286.96 -383.4125 -3287.2586 C -383.4125 -3287.5573 -383.17784 -3287.792 -382.87918 -3287.792 L -382.34584 -3287.792 L -382.34584 -3290.992 L -382.87918 -3290.992 C -383.17784 -3290.992 -383.4125 -3291.2266 -383.4125 -3291.5253 C -383.4125 -3291.824 -383.17784 -3292.0586 -382.87918 -3292.0586 L -381.8125 -3292.0586 C -381.51384 -3292.0586 -381.27918 -3291.824 -381.27918 -3291.5253 Z M -382.34584 -3284.592 L -382.34584 -3284.0586 C -382.34584 -3283.76 -382.5805 -3283.5253 -382.87918 -3283.5253 C -383.17784 -3283.5253 -383.4125 -3283.76 -383.4125 -3284.0586 L -383.4125 -3285.1253 C -383.4125 -3285.424 -383.17784 -3285.6586 -382.87918 -3285.6586 L -380.74584 -3285.6586 C -380.44718 -3285.6586 -380.2125 -3285.424 -380.2125 -3285.1253 L -380.2125 -3284.0586 C -380.2125 -3283.92 -380.26584 -3283.7813 -380.3725 -3283.6853 L -381.59918 -3282.4586 L -380.7565 -3282.4586 C -380.45784 -3282.4586 -380.22318 -3282.224 -380.22318 -3281.9253 C -380.22318 -3281.6266 -380.45784 -3281.392 -380.7565 -3281.392 L -382.87918 -3281.392 C -383.35918 -3281.392 -383.59384 -3281.968 -383.2525 -3282.2986 L -381.27918 -3284.272 L -381.27918 -3284.5813 L -382.34584 -3284.5813 Z M -382.87918 -3279.2586 C -383.17784 -3279.2586 -383.4125 -3279.4933 -383.4125 -3279.792 C -383.4125 -3280.0906 -383.17784 -3280.3253 -382.87918 -3280.3253 L -380.74584 -3280.3253 C -380.44718 -3280.3253 -380.2125 -3280.0906 -380.2125 -3279.792 L -380.2125 -3278.7253 C -380.2125 -3278.5866 -380.26584 -3278.448 -380.3725 -3278.352 L -380.5325 -3278.192 L -380.3725 -3278.032 C -380.2765 -3277.936 -380.2125 -3277.7973 -380.2125 -3277.6586 L -380.2125 -3276.592 C -380.2125 -3276.2933 -380.44718 -3276.0586 -380.74584 -3276.0586 L -382.87918 -3276.0586 C -383.17784 -3276.0586 -383.4125 -3276.2933 -383.4125 -3276.592 C -383.4125 -3276.8906 -383.17784 -3277.1253 -382.87918 -3277.1253 L -381.27918 -3277.1253 L -381.27918 -3277.4346 L -381.6525 -3277.808 C -381.86584 -3278.0213 -381.86584 -3278.352 -381.6525 -3278.5653 L -381.27918 -3278.9386 L -381.27918 -3279.248 L -382.87918 -3279.248 Z M -377.54584 -3278.192 C -377.8445 -3278.192 -378.07918 -3278.4266 -378.07918 -3278.7253 C -378.07918 -3279.024 -377.8445 -3279.2586 -377.54584 -3279.2586 L -364.74584 -3279.2586 C -364.44718 -3279.2586 -364.2125 -3279.024 -364.2125 -3278.7253 C -364.2125 -3278.4266 -364.44718 -3278.192 -364.74584 -3278.192 Z M -377.54584 -3283.5253 C -377.8445 -3283.5253 -378.07918 -3283.76 -378.07918 -3284.0586 C -378.07918 -3284.3573 -377.8445 -3284.592 -377.54584 -3284.592 L -364.74584 -3284.592 C -364.44718 -3284.592 -364.2125 -3284.3573 -364.2125 -3284.0586 C -364.2125 -3283.76 -364.44718 -3283.5253 -364.74584 -3283.5253 Z M -377.54584 -3288.8586 C -377.8445 -3288.8586 -378.07918 -3289.0933 -378.07918 -3289.392 C -378.07918 -3289.6906 -377.8445 -3289.9253 -377.54584 -3289.9253 L -364.74584 -3289.9253 C -364.44718 -3289.9253 -364.2125 -3289.6906 -364.2125 -3289.392 C -364.2125 -3289.0933 -364.44718 -3288.8586 -364.74584 -3288.8586 Z" fill="#999"/>
          </g>
        </g>
        <g id="Graphic_10173"/>
      </g>
    </g>
  </g>
</svg>
