<?xml version="1.0" encoding="UTF-8" standalone="no"?>
<!DOCTYPE svg PUBLIC "-//W3C//DTD SVG 1.1//EN" "http://www.w3.org/Graphics/SVG/1.1/DTD/svg11.dtd">
<svg xmlns:dc="http://purl.org/dc/elements/1.1/" xmlns:xl="http://www.w3.org/1999/xlink" version="1.1" xmlns="http://www.w3.org/2000/svg" viewBox="-352.72184 -3294.0586 24 18" width="24" height="18">
  <defs/>
  <g id="SOURCES" stroke-dasharray="none" stroke="none" stroke-opacity="1" fill="none" fill-opacity="1">
    <title>SOURCES</title>
    <g id="SOURCES_Calque_2">
      <title>Calque 2</title>
      <g id="Group_10176">
        <g id="Group_10072">
          <title>list-bullet</title>
          <g id="Graphic_10073">
            <path d="M -352.72184 -3290.9817 C -352.72184 -3291.574 -352.23722 -3292.0586 -351.6449 -3292.0586 L -350.568 -3292.0586 C -349.9757 -3292.0586 -349.49107 -3291.574 -349.49107 -3290.9817 L -349.49107 -3289.9048 C -349.49107 -3289.3125 -349.9757 -3288.828 -350.568 -3288.828 L -351.6449 -3288.828 C -352.23722 -3288.828 -352.72184 -3289.3125 -352.72184 -3289.9048 Z M -346.79876 -3289.9048 C -347.1003 -3289.9048 -347.33722 -3290.1417 -347.33722 -3290.4432 C -347.33722 -3290.7448 -347.1003 -3290.9817 -346.79876 -3290.9817 L -333.8757 -3290.9817 C -333.57415 -3290.9817 -333.33722 -3290.7448 -333.33722 -3290.4432 C -333.33722 -3290.1417 -333.57415 -3289.9048 -333.8757 -3289.9048 Z M -352.72184 -3285.597 C -352.72184 -3286.1894 -352.23722 -3286.674 -351.6449 -3286.674 L -350.568 -3286.674 C -349.9757 -3286.674 -349.49107 -3286.1894 -349.49107 -3285.597 L -349.49107 -3284.52 C -349.49107 -3283.928 -349.9757 -3283.4432 -350.568 -3283.4432 L -351.6449 -3283.4432 C -352.23722 -3283.4432 -352.72184 -3283.928 -352.72184 -3284.52 Z M -346.79876 -3284.52 C -347.1003 -3284.52 -347.33722 -3284.757 -347.33722 -3285.0586 C -347.33722 -3285.36 -347.1003 -3285.597 -346.79876 -3285.597 L -333.8757 -3285.597 C -333.57415 -3285.597 -333.33722 -3285.36 -333.33722 -3285.0586 C -333.33722 -3284.757 -333.57415 -3284.52 -333.8757 -3284.52 Z M -352.72184 -3280.2125 C -352.72184 -3280.8048 -352.23722 -3281.2894 -351.6449 -3281.2894 L -350.568 -3281.2894 C -349.9757 -3281.2894 -349.49107 -3280.8048 -349.49107 -3280.2125 L -349.49107 -3279.1356 C -349.49107 -3278.5432 -349.9757 -3278.0586 -350.568 -3278.0586 L -351.6449 -3278.0586 C -352.23722 -3278.0586 -352.72184 -3278.5432 -352.72184 -3279.1356 Z M -351.6449 -3290.9817 L -351.6449 -3289.9048 L -350.568 -3289.9048 L -350.568 -3290.9817 Z M -351.6449 -3285.597 L -351.6449 -3284.52 L -350.568 -3284.52 L -350.568 -3285.597 Z M -351.6449 -3280.2125 L -351.6449 -3279.1356 L -350.568 -3279.1356 L -350.568 -3280.2125 Z M -346.79876 -3279.1356 C -347.1003 -3279.1356 -347.33722 -3279.3725 -347.33722 -3279.674 C -347.33722 -3279.9756 -347.1003 -3280.2125 -346.79876 -3280.2125 L -333.8757 -3280.2125 C -333.57415 -3280.2125 -333.33722 -3279.9756 -333.33722 -3279.674 C -333.33722 -3279.3725 -333.57415 -3279.1356 -333.8757 -3279.1356 Z" fill="#999"/>
          </g>
        </g>
        <g id="Graphic_10175"/>
      </g>
    </g>
  </g>
</svg>
