<?xml version="1.0" encoding="UTF-8" standalone="no"?>
<!DOCTYPE svg PUBLIC "-//W3C//DTD SVG 1.1//EN" "http://www.w3.org/Graphics/SVG/1.1/DTD/svg11.dtd">
<svg xmlns:dc="http://purl.org/dc/elements/1.1/" xmlns:xl="http://www.w3.org/1999/xlink" version="1.1" xmlns="http://www.w3.org/2000/svg" viewBox="-319.99017 -3292.0586 24 18" width="24" height="18">
  <defs/>
  <g id="SOURCES" stroke-dasharray="none" stroke="none" stroke-opacity="1" fill="none" fill-opacity="1">
    <title>SOURCES</title>
    <g id="SOURCES_Calque_2">
      <title>Calque 2</title>
      <g id="Group_10139">
        <g id="Group_10141">
          <title>table</title>
          <g id="Graphic_10142">
            <path d="M -307.99017 -3281.0586 L -307.99017 -3285.0586 L -313.99017 -3285.0586 L -313.99017 -3281.0586 Z M -307.99017 -3280.0586 L -313.99017 -3280.0586 L -313.99017 -3276.0586 L -307.99017 -3276.0586 Z M -318.99017 -3281.0586 L -314.99017 -3281.0586 L -314.99017 -3285.0586 L -318.99017 -3285.0586 Z M -318.99017 -3280.0586 L -318.99017 -3277.5586 C -318.99017 -3276.7286 -318.32017 -3276.0586 -317.49017 -3276.0586 L -314.99017 -3276.0586 L -314.99017 -3280.0586 Z M -302.99017 -3281.0586 L -302.99017 -3285.0586 L -306.99017 -3285.0586 L -306.99017 -3281.0586 Z M -302.99017 -3280.0586 L -306.99017 -3280.0586 L -306.99017 -3276.0586 L -304.49017 -3276.0586 C -303.66017 -3276.0586 -302.99017 -3276.7286 -302.99017 -3277.5586 Z M -307.99017 -3286.0586 L -307.99017 -3290.0586 L -313.99017 -3290.0586 L -313.99017 -3286.0586 Z M -318.99017 -3286.0586 L -314.99017 -3286.0586 L -314.99017 -3290.0586 L -317.49017 -3290.0586 C -318.32017 -3290.0586 -318.99017 -3289.3886 -318.99017 -3288.5586 Z M -302.99017 -3286.0586 L -302.99017 -3288.5586 C -302.99017 -3289.3886 -303.66017 -3290.0586 -304.49017 -3290.0586 L -306.99017 -3290.0586 L -306.99017 -3286.0586 Z M -317.49017 -3291.0586 L -304.49017 -3291.0586 C -303.11017 -3291.0586 -301.99017 -3289.9386 -301.99017 -3288.5586 L -301.99017 -3277.5586 C -301.99017 -3276.1786 -303.11017 -3275.0586 -304.49017 -3275.0586 L -317.49017 -3275.0586 C -318.87017 -3275.0586 -319.99017 -3276.1786 -319.99017 -3277.5586 L -319.99017 -3288.5586 C -319.99017 -3289.9386 -318.87017 -3291.0586 -317.49017 -3291.0586 Z" fill="#999"/>
          </g>
        </g>
        <g id="Graphic_10140"/>
      </g>
    </g>
  </g>
</svg>
