<?xml version="1.0" encoding="UTF-8" standalone="no"?>
<!DOCTYPE svg PUBLIC "-//W3C//DTD SVG 1.1//EN" "http://www.w3.org/Graphics/SVG/1.1/DTD/svg11.dtd">
<svg xmlns:dc="http://purl.org/dc/elements/1.1/" xmlns:xl="http://www.w3.org/1999/xlink" version="1.1" xmlns="http://www.w3.org/2000/svg" viewBox="-292 -3292.0586 24 18" width="24" height="18">
  <defs/>
  <g id="SOURCES" stroke-dasharray="none" stroke="none" stroke-opacity="1" fill="none" fill-opacity="1">
    <title>SOURCES</title>
    <g id="SOURCES_Calque_2">
      <title>Calque 2</title>
      <g id="Group_10076">
        <title>ruler-combined</title>
        <g id="Graphic_10077">
          <path d="M -285.6 -3281.4586 L -278 -3281.4586 C -276.896 -3281.4586 -276 -3280.5626 -276 -3279.4586 L -276 -3277.0586 C -276 -3275.9546 -276.896 -3275.0586 -278 -3275.0586 L -290 -3275.0586 C -291.104 -3275.0586 -292 -3275.9546 -292 -3277.0586 L -292 -3289.0586 C -292 -3290.1626 -291.104 -3291.0586 -290 -3291.0586 L -287.6 -3291.0586 C -286.496 -3291.0586 -285.6 -3290.1626 -285.6 -3289.0586 Z M -286.472 -3276.6586 L -289.2 -3276.6586 C -289.424 -3276.6586 -289.6 -3276.8346 -289.6 -3277.0586 C -289.6 -3277.2826 -289.424 -3277.4586 -289.2 -3277.4586 L -286.4 -3277.4586 L -286.4 -3279.0586 L -288.4 -3279.0586 C -288.624 -3279.0586 -288.8 -3279.2346 -288.8 -3279.4586 C -288.8 -3279.6826 -288.624 -3279.8586 -288.4 -3279.8586 L -286.4 -3279.8586 L -286.4 -3281.4586 L -289.2 -3281.4586 C -289.424 -3281.4586 -289.6 -3281.6346 -289.6 -3281.8586 C -289.6 -3282.0826 -289.424 -3282.2586 -289.2 -3282.2586 L -286.4 -3282.2586 L -286.4 -3283.8586 L -288.4 -3283.8586 C -288.624 -3283.8586 -288.8 -3284.0346 -288.8 -3284.2586 C -288.8 -3284.4826 -288.624 -3284.6586 -288.4 -3284.6586 L -286.4 -3284.6586 L -286.4 -3286.2586 L -289.2 -3286.2586 C -289.424 -3286.2586 -289.6 -3286.4346 -289.6 -3286.6586 C -289.6 -3286.8826 -289.424 -3287.0586 -289.2 -3287.0586 L -286.4 -3287.0586 L -286.4 -3288.6586 L -288.4 -3288.6586 C -288.624 -3288.6586 -288.8 -3288.8346 -288.8 -3289.0586 C -288.8 -3289.2826 -288.624 -3289.4586 -288.4 -3289.4586 L -286.472 -3289.4586 C -286.64 -3289.9226 -287.08 -3290.2586 -287.6 -3290.2586 L -290 -3290.2586 C -290.664 -3290.2586 -291.2 -3289.7226 -291.2 -3289.0586 L -291.2 -3277.0586 C -291.2 -3276.3946 -290.664 -3275.8586 -290 -3275.8586 L -287.6 -3275.8586 C -287.08 -3275.8586 -286.632 -3276.1946 -286.472 -3276.6586 Z M -285.6 -3280.6586 L -285.6 -3277.0586 C -285.6 -3276.6106 -285.752 -3276.1946 -286 -3275.8586 L -278 -3275.8586 C -277.336 -3275.8586 -276.8 -3276.3946 -276.8 -3277.0586 L -276.8 -3279.4586 C -276.8 -3280.1226 -277.336 -3280.6586 -278 -3280.6586 Z M -280 -3279.8586 L -278.4 -3279.8586 C -277.96 -3279.8586 -277.6 -3279.4986 -277.6 -3279.0586 L -277.6 -3277.4586 C -277.6 -3277.0186 -277.96 -3276.6586 -278.4 -3276.6586 L -280 -3276.6586 C -280.44 -3276.6586 -280.8 -3277.0186 -280.8 -3277.4586 L -280.8 -3279.0586 C -280.8 -3279.4986 -280.44 -3279.8586 -280 -3279.8586 Z M -280 -3279.0586 L -280 -3277.4586 L -278.4 -3277.4586 L -278.4 -3279.0586 Z" fill="#999"/>
        </g>
      </g>
      <g id="Graphic_10177"/>
    </g>
  </g>
</svg>
