<?xml version="1.0" encoding="UTF-8" standalone="no"?>
<!DOCTYPE svg PUBLIC "-//W3C//DTD SVG 1.1//EN" "http://www.w3.org/Graphics/SVG/1.1/DTD/svg11.dtd">
<svg xmlns:dc="http://purl.org/dc/elements/1.1/" xmlns:xl="http://www.w3.org/1999/xlink" version="1.1" xmlns="http://www.w3.org/2000/svg" viewBox="-262.9951 -3294.0586 24 18" width="24" height="18">
  <defs/>
  <g id="SOURCES" stroke-dasharray="none" stroke="none" stroke-opacity="1" fill="none" fill-opacity="1">
    <title>SOURCES</title>
    <g id="SOURCES_Calque_2">
      <title>Calque 2</title>
      <g id="Group_10180">
        <g id="Group_10078">
          <title>earth-alt</title>
          <g id="Graphic_10079">
            <path d="M -256.0031 -3292.1866 C -259.5071 -3291.6986 -262.1951 -3288.6906 -262.1951 -3285.0586 C -262.1951 -3281.0826 -258.9711 -3277.8586 -254.9951 -3277.8586 C -251.0191 -3277.8586 -247.7951 -3281.0826 -247.7951 -3285.0586 C -247.7951 -3285.6106 -247.8591 -3286.1466 -247.9711 -3286.6586 L -249.3951 -3286.6586 L -249.3951 -3286.2586 C -249.3951 -3286.0346 -249.5711 -3285.8586 -249.7951 -3285.8586 L -250.9951 -3285.8586 L -250.9951 -3285.6266 L -250.3151 -3284.9466 C -250.1551 -3284.7866 -250.1551 -3284.5386 -250.3151 -3284.3786 L -251.7951 -3282.8986 L -251.7951 -3281.4666 C -251.7951 -3281.4026 -251.8111 -3281.3466 -251.8351 -3281.2906 L -252.6351 -3279.6906 L -252.7071 -3279.5866 L -253.5071 -3278.7866 C -253.6671 -3278.6266 -253.9151 -3278.6266 -254.0751 -3278.7866 L -254.8751 -3279.5866 C -254.9471 -3279.6586 -254.9951 -3279.7626 -254.9951 -3279.8666 L -254.9951 -3282.0986 L -255.6751 -3282.7786 C -255.7471 -3282.8506 -255.7951 -3282.9546 -255.7951 -3283.0586 L -255.7951 -3283.6906 L -256.4351 -3284.3306 L -257.9791 -3285.0986 L -258.0831 -3285.1706 L -258.8831 -3285.9706 C -259.0431 -3286.1306 -259.0431 -3286.3786 -258.8831 -3286.5386 L -258.2031 -3287.2186 L -258.2031 -3287.8506 C -258.2031 -3288.0746 -258.0271 -3288.2506 -257.8031 -3288.2506 L -256.3711 -3288.2506 L -255.6911 -3288.9306 C -255.5311 -3289.0906 -255.2831 -3289.0906 -255.1231 -3288.9306 L -254.3711 -3288.1786 L -252.9151 -3287.4506 L -252.3791 -3287.4506 L -251.8111 -3288.0186 L -251.8111 -3288.4906 L -252.4911 -3289.1706 C -252.5631 -3289.2426 -252.6111 -3289.3466 -252.6111 -3289.4506 L -252.6111 -3289.8506 L -253.4111 -3289.8506 L -253.4111 -3289.4506 C -253.4111 -3289.2266 -253.5871 -3289.0506 -253.8111 -3289.0506 L -254.6111 -3289.0506 C -254.7151 -3289.0506 -254.8191 -3289.0906 -254.8911 -3289.1706 L -255.5711 -3289.8506 L -256.2031 -3289.8506 C -256.5631 -3289.8506 -256.7391 -3290.2826 -256.4831 -3290.5306 L -255.8031 -3291.2106 L -255.8031 -3291.7466 L -256.0111 -3292.1706 Z M -255.1471 -3292.2586 L -255.0351 -3292.0426 C -255.0111 -3291.9866 -254.9951 -3291.9226 -254.9951 -3291.8666 L -254.9951 -3291.0666 C -254.9951 -3290.9626 -255.0351 -3290.8586 -255.1151 -3290.7866 L -255.2591 -3290.6426 C -255.2031 -3290.6266 -255.1551 -3290.5946 -255.1151 -3290.5546 L -254.4351 -3289.8746 L -254.2031 -3289.8746 L -254.2031 -3290.2746 C -254.2031 -3290.4986 -254.0271 -3290.6746 -253.8031 -3290.6746 L -252.2031 -3290.6746 C -251.9791 -3290.6746 -251.8031 -3290.4986 -251.8031 -3290.2746 L -251.8031 -3289.6426 L -251.1231 -3288.9626 C -251.0511 -3288.8906 -251.0031 -3288.7866 -251.0031 -3288.6826 L -251.0031 -3287.8826 C -251.0031 -3287.7786 -251.0431 -3287.6746 -251.1231 -3287.6026 L -251.9231 -3286.8026 C -251.9951 -3286.7306 -252.0991 -3286.6826 -252.2031 -3286.6826 L -253.0031 -3286.6826 C -253.0671 -3286.6826 -253.1231 -3286.6986 -253.1791 -3286.7226 L -254.7791 -3287.5226 L -254.8831 -3287.5946 L -255.4031 -3288.1146 L -255.9231 -3287.5946 C -255.9951 -3287.5226 -256.0991 -3287.4746 -256.2031 -3287.4746 L -257.4031 -3287.4746 L -257.4031 -3287.0746 C -257.4031 -3286.9706 -257.4431 -3286.8666 -257.5231 -3286.7946 L -258.0431 -3286.2746 L -257.5711 -3285.8026 L -256.0271 -3285.0346 L -255.9231 -3284.9626 L -255.1231 -3284.1626 C -255.0511 -3284.0906 -255.0031 -3283.9866 -255.0031 -3283.8826 L -255.0031 -3283.2506 L -254.3231 -3282.5706 C -254.2511 -3282.4986 -254.2031 -3282.3946 -254.2031 -3282.2906 L -254.2031 -3280.0586 L -253.8031 -3279.6586 L -253.3311 -3280.1306 L -252.6031 -3281.5866 L -252.6031 -3283.0906 C -252.6031 -3283.1946 -252.5631 -3283.2986 -252.4831 -3283.3706 L -251.1631 -3284.6906 L -251.6831 -3285.2106 C -251.7551 -3285.2826 -251.8031 -3285.3866 -251.8031 -3285.4906 L -251.8031 -3286.2906 C -251.8031 -3286.5146 -251.6271 -3286.6906 -251.4031 -3286.6906 L -250.2031 -3286.6906 L -250.2031 -3287.0906 C -250.2031 -3287.3146 -250.0271 -3287.4906 -249.8031 -3287.4906 L -248.2111 -3287.4906 C -249.2031 -3290.2906 -251.8671 -3292.2906 -255.0031 -3292.2906 C -255.0511 -3292.2906 -255.1071 -3292.2906 -255.1551 -3292.2906 Z M -254.9951 -3277.0586 C -259.4111 -3277.0586 -262.9951 -3280.6426 -262.9951 -3285.0586 C -262.9951 -3289.4746 -259.4111 -3293.0586 -254.9951 -3293.0586 C -250.5791 -3293.0586 -246.9951 -3289.4746 -246.9951 -3285.0586 C -246.9951 -3280.6426 -250.5791 -3277.0586 -254.9951 -3277.0586 Z" fill="#999"/>
          </g>
        </g>
        <g id="Graphic_10179"/>
      </g>
    </g>
  </g>
</svg>
