<?xml version="1.0" encoding="UTF-8" standalone="no"?>
<!DOCTYPE svg PUBLIC "-//W3C//DTD SVG 1.1//EN" "http://www.w3.org/Graphics/SVG/1.1/DTD/svg11.dtd">
<svg xmlns:dc="http://purl.org/dc/elements/1.1/" xmlns:xl="http://www.w3.org/1999/xlink" version="1.1" xmlns="http://www.w3.org/2000/svg" viewBox="-573.41 -3278.162 24 18" width="24" height="18">
  <defs/>
  <g id="SOURCES" stroke-dasharray="none" stroke="none" stroke-opacity="1" fill="none" fill-opacity="1">
    <title>SOURCES</title>
    <g id="SOURCES_Calque_2">
      <title>Calque 2</title>
      <g id="Group_10268">
        <g id="Group_10264">
          <title>desktop</title>
          <g id="Graphic_10265">
            <path d="M -565.535 -3263.037 L -563.785 -3263.037 L -563.785 -3264.787 L -565.535 -3264.787 Z M -566.41 -3263.037 L -566.41 -3264.787 L -571.2225 -3264.787 C -572.43 -3264.787 -573.41 -3265.767 -573.41 -3266.9743 L -573.41 -3273.9743 C -573.41 -3275.182 -572.43 -3276.162 -571.2225 -3276.162 L -558.0975 -3276.162 C -556.89 -3276.162 -555.91 -3275.182 -555.91 -3273.9743 L -555.91 -3266.9743 C -555.91 -3265.767 -556.89 -3264.787 -558.0975 -3264.787 L -562.91 -3264.787 L -562.91 -3263.037 L -561.5975 -3263.037 C -561.3525 -3263.037 -561.16 -3262.8443 -561.16 -3262.5993 C -561.16 -3262.3543 -561.3525 -3262.162 -561.5975 -3262.162 L -567.7225 -3262.162 C -567.9675 -3262.162 -568.16 -3262.3543 -568.16 -3262.5993 C -568.16 -3262.8443 -567.9675 -3263.037 -567.7225 -3263.037 Z M -571.2225 -3275.287 C -571.94873 -3275.287 -572.535 -3274.7006 -572.535 -3273.9743 L -572.535 -3266.9743 C -572.535 -3266.248 -571.94873 -3265.662 -571.2225 -3265.662 L -558.0975 -3265.662 C -557.37123 -3265.662 -556.785 -3266.248 -556.785 -3266.9743 L -556.785 -3273.9743 C -556.785 -3274.7006 -557.37123 -3275.287 -558.0975 -3275.287 Z" fill="#999"/>
          </g>
        </g>
        <g id="Graphic_10267"/>
      </g>
    </g>
  </g>
</svg>
