<?xml version="1.0" encoding="UTF-8" standalone="no"?>
<!DOCTYPE svg PUBLIC "-//W3C//DTD SVG 1.1//EN" "http://www.w3.org/Graphics/SVG/1.1/DTD/svg11.dtd">
<svg xmlns:dc="http://purl.org/dc/elements/1.1/" xmlns:xl="http://www.w3.org/1999/xlink" version="1.1" xmlns="http://www.w3.org/2000/svg" viewBox="-234.49263 -3292.0586 24 18" width="24" height="18">
  <defs/>
  <g id="SOURCES" stroke-dasharray="none" stroke="none" stroke-opacity="1" fill="none" fill-opacity="1">
    <title>SOURCES</title>
    <g id="SOURCES_Calque_2">
      <title>Calque 2</title>
      <g id="Group_10182">
        <g id="Group_10080">
          <title>desktop-3</title>
          <g id="Graphic_10081">
            <path d="M -219.38152 -3288.392 L -219.38152 -3288.8364 C -219.38152 -3289.574 -219.97707 -3290.1697 -220.71485 -3290.1697 L -232.2704 -3290.1697 C -233.00818 -3290.1697 -233.60374 -3289.574 -233.60374 -3288.8364 L -233.60374 -3288.392 Z M -219.38152 -3287.503 L -233.60374 -3287.503 L -233.60374 -3277.281 C -233.60374 -3276.543 -233.00818 -3275.9475 -232.2704 -3275.9475 L -220.71485 -3275.9475 C -219.97707 -3275.9475 -219.38152 -3276.543 -219.38152 -3277.281 Z M -234.49263 -3288.8364 C -234.49263 -3290.063 -233.49707 -3291.0586 -232.2704 -3291.0586 L -220.71485 -3291.0586 C -219.48818 -3291.0586 -218.49263 -3290.063 -218.49263 -3288.8364 L -218.49263 -3277.281 C -218.49263 -3276.054 -219.48818 -3275.0586 -220.71485 -3275.0586 L -232.2704 -3275.0586 C -233.49707 -3275.0586 -234.49263 -3276.054 -234.49263 -3277.281 Z M -224.71485 -3284.392 C -224.71485 -3285.1297 -224.1193 -3285.7253 -223.38152 -3285.7253 L -222.49263 -3285.7253 C -221.75485 -3285.7253 -221.1593 -3285.1297 -221.1593 -3284.392 L -221.1593 -3279.0586 C -221.1593 -3278.321 -221.75485 -3277.7253 -222.49263 -3277.7253 L -223.38152 -3277.7253 C -224.1193 -3277.7253 -224.71485 -3278.321 -224.71485 -3279.0586 Z M -223.82596 -3284.392 L -223.82596 -3279.0586 C -223.82596 -3278.8097 -223.6304 -3278.614 -223.38152 -3278.614 L -222.49263 -3278.614 C -222.24374 -3278.614 -222.04818 -3278.8097 -222.04818 -3279.0586 L -222.04818 -3284.392 C -222.04818 -3284.641 -222.24374 -3284.8364 -222.49263 -3284.8364 L -223.38152 -3284.8364 C -223.6304 -3284.8364 -223.82596 -3284.641 -223.82596 -3284.392 Z M -231.38152 -3284.8364 C -231.6304 -3284.8364 -231.82596 -3285.032 -231.82596 -3285.281 C -231.82596 -3285.5297 -231.6304 -3285.7253 -231.38152 -3285.7253 L -226.93707 -3285.7253 C -226.68818 -3285.7253 -226.49263 -3285.5297 -226.49263 -3285.281 C -226.49263 -3285.032 -226.68818 -3284.8364 -226.93707 -3284.8364 Z M -231.38152 -3283.0586 C -231.6304 -3283.0586 -231.82596 -3283.254 -231.82596 -3283.503 C -231.82596 -3283.752 -231.6304 -3283.9475 -231.38152 -3283.9475 L -226.93707 -3283.9475 C -226.68818 -3283.9475 -226.49263 -3283.752 -226.49263 -3283.503 C -226.49263 -3283.254 -226.68818 -3283.0586 -226.93707 -3283.0586 Z M -231.38152 -3281.281 C -231.6304 -3281.281 -231.82596 -3281.4764 -231.82596 -3281.7253 C -231.82596 -3281.974 -231.6304 -3282.1697 -231.38152 -3282.1697 L -228.71485 -3282.1697 C -228.46596 -3282.1697 -228.2704 -3281.974 -228.2704 -3281.7253 C -228.2704 -3281.4764 -228.46596 -3281.281 -228.71485 -3281.281 Z M -230.49263 -3280.392 L -227.82596 -3280.392 C -227.08818 -3280.392 -226.49263 -3279.7964 -226.49263 -3279.0586 C -226.49263 -3278.321 -227.08818 -3277.7253 -227.82596 -3277.7253 L -230.49263 -3277.7253 C -231.2304 -3277.7253 -231.82596 -3278.321 -231.82596 -3279.0586 C -231.82596 -3279.7964 -231.2304 -3280.392 -230.49263 -3280.392 Z M -230.49263 -3279.503 C -230.74152 -3279.503 -230.93707 -3279.3075 -230.93707 -3279.0586 C -230.93707 -3278.8097 -230.74152 -3278.614 -230.49263 -3278.614 L -227.82596 -3278.614 C -227.57707 -3278.614 -227.38152 -3278.8097 -227.38152 -3279.0586 C -227.38152 -3279.3075 -227.57707 -3279.503 -227.82596 -3279.503 Z" fill="#999"/>
          </g>
        </g>
        <g id="Graphic_10181"/>
      </g>
    </g>
  </g>
</svg>
