<?xml version="1.0" encoding="UTF-8" standalone="no"?>
<!DOCTYPE svg PUBLIC "-//W3C//DTD SVG 1.1//EN" "http://www.w3.org/Graphics/SVG/1.1/DTD/svg11.dtd">
<svg xmlns:dc="http://purl.org/dc/elements/1.1/" xmlns:xl="http://www.w3.org/1999/xlink" version="1.1" xmlns="http://www.w3.org/2000/svg" viewBox="-205.99017 -3293.0586 24 18" width="24" height="18">
  <defs/>
  <g id="SOURCES" stroke-dasharray="none" stroke="none" stroke-opacity="1" fill="none" fill-opacity="1">
    <title>SOURCES</title>
    <g id="SOURCES_Calque_2">
      <title>Calque 2</title>
      <g id="Group_10188">
        <g id="Group_10082">
          <title>duplicate-alt</title>
          <g id="Graphic_10083">
            <path d="M -195.06573 -3284.0586 L -201.99017 -3284.0586 C -202.23906 -3284.0586 -202.43462 -3284.254 -202.43462 -3284.503 C -202.43462 -3284.752 -202.23906 -3284.9475 -201.99017 -3284.9475 L -195.06573 -3284.9475 L -196.97684 -3286.8586 C -197.15462 -3287.0364 -197.15462 -3287.312 -196.97684 -3287.4897 C -196.79906 -3287.6675 -196.5235 -3287.6675 -196.34573 -3287.4897 L -193.67906 -3284.823 C -193.50128 -3284.6453 -193.50128 -3284.3697 -193.67906 -3284.192 L -196.34573 -3281.5253 C -196.5235 -3281.3475 -196.79906 -3281.3475 -196.97684 -3281.5253 C -197.15462 -3281.703 -197.15462 -3281.9786 -196.97684 -3282.1564 L -195.06573 -3284.0675 Z M -198.87906 -3289.8364 C -198.87906 -3289.5875 -199.07462 -3289.392 -199.3235 -3289.392 C -199.5724 -3289.392 -199.76795 -3289.5875 -199.76795 -3289.8364 C -199.76795 -3291.063 -198.7724 -3292.0586 -197.54573 -3292.0586 L -190.43462 -3292.0586 C -189.20795 -3292.0586 -188.2124 -3291.063 -188.2124 -3289.8364 L -188.2124 -3278.281 C -188.2124 -3277.054 -189.20795 -3276.0586 -190.43462 -3276.0586 L -197.54573 -3276.0586 C -198.7724 -3276.0586 -199.76795 -3277.054 -199.76795 -3278.281 C -199.76795 -3278.5297 -199.5724 -3278.7253 -199.3235 -3278.7253 C -199.07462 -3278.7253 -198.87906 -3278.5297 -198.87906 -3278.281 C -198.87906 -3277.543 -198.2835 -3276.9475 -197.54573 -3276.9475 L -190.43462 -3276.9475 C -189.69684 -3276.9475 -189.10128 -3277.543 -189.10128 -3278.281 L -189.10128 -3289.8364 C -189.10128 -3290.574 -189.69684 -3291.1697 -190.43462 -3291.1697 L -197.54573 -3291.1697 C -198.2835 -3291.1697 -198.87906 -3290.574 -198.87906 -3289.8364 Z M -201.10128 -3276.9475 C -200.8524 -3276.9475 -200.65684 -3276.752 -200.65684 -3276.503 C -200.65684 -3276.254 -200.8524 -3276.0586 -201.10128 -3276.0586 L -203.76795 -3276.0586 C -204.99462 -3276.0586 -205.99017 -3277.054 -205.99017 -3278.281 L -205.99017 -3289.8364 C -205.99017 -3291.063 -204.99462 -3292.0586 -203.76795 -3292.0586 L -201.10128 -3292.0586 C -200.8524 -3292.0586 -200.65684 -3291.863 -200.65684 -3291.614 C -200.65684 -3291.3653 -200.8524 -3291.1697 -201.10128 -3291.1697 L -203.76795 -3291.1697 C -204.50573 -3291.1697 -205.10128 -3290.574 -205.10128 -3289.8364 L -205.10128 -3278.281 C -205.10128 -3277.543 -204.50573 -3276.9475 -203.76795 -3276.9475 Z" fill="#999"/>
          </g>
        </g>
        <g id="Graphic_10187"/>
      </g>
    </g>
  </g>
</svg>
