<?xml version="1.0" encoding="UTF-8" standalone="no"?>
<!DOCTYPE svg PUBLIC "-//W3C//DTD SVG 1.1//EN" "http://www.w3.org/Graphics/SVG/1.1/DTD/svg11.dtd">
<svg xmlns:dc="http://purl.org/dc/elements/1.1/" xmlns:xl="http://www.w3.org/1999/xlink" version="1.1" xmlns="http://www.w3.org/2000/svg" viewBox="-177.48771 -3294.0586 24 18" width="24" height="18">
  <defs/>
  <g id="SOURCES" stroke-dasharray="none" stroke="none" stroke-opacity="1" fill="none" fill-opacity="1">
    <title>SOURCES</title>
    <g id="SOURCES_Calque_2">
      <title>Calque 2</title>
      <g id="Group_10190">
        <g id="Group_10084">
          <title>slider-rectangle-h</title>
          <g id="Graphic_10085">
            <path d="M -172.80935 -3279.2196 L -177.01988 -3279.2196 C -177.28187 -3279.2196 -177.48771 -3279.454 -177.48771 -3279.752 C -177.48771 -3280.05 -177.28187 -3280.284 -177.01988 -3280.284 L -172.80935 -3280.284 L -172.80935 -3281.3487 C -172.80935 -3281.9342 -172.3883 -3282.4133 -171.87368 -3282.4133 L -170.00233 -3282.4133 C -169.48771 -3282.4133 -169.06666 -3281.9342 -169.06666 -3281.3487 L -169.06666 -3280.284 L -161.11344 -3280.284 C -160.85146 -3280.284 -160.6456 -3280.05 -160.6456 -3279.752 C -160.6456 -3279.454 -160.85146 -3279.2196 -161.11344 -3279.2196 L -169.06666 -3279.2196 L -169.06666 -3278.123 C -169.06666 -3277.5377 -169.48771 -3277.0586 -170.00233 -3277.0586 L -171.87368 -3277.0586 C -172.3883 -3277.0586 -172.80935 -3277.5377 -172.80935 -3278.123 Z M -167.19532 -3284.5423 L -177.01988 -3284.5423 C -177.28187 -3284.5423 -177.48771 -3284.7765 -177.48771 -3285.0746 C -177.48771 -3285.3727 -177.28187 -3285.607 -177.01988 -3285.607 L -167.19532 -3285.607 L -167.19532 -3286.6714 C -167.19532 -3287.257 -166.77426 -3287.736 -166.25964 -3287.736 L -164.3883 -3287.736 C -163.87368 -3287.736 -163.45263 -3287.257 -163.45263 -3286.6714 L -163.45263 -3285.607 L -161.11344 -3285.607 C -160.85146 -3285.607 -160.6456 -3285.3727 -160.6456 -3285.0746 C -160.6456 -3284.7765 -160.85146 -3284.5423 -161.11344 -3284.5423 L -163.45263 -3284.5423 L -163.45263 -3283.446 C -163.45263 -3282.8604 -163.87368 -3282.3813 -164.3883 -3282.3813 L -166.25964 -3282.3813 C -166.77426 -3282.3813 -167.19532 -3282.8604 -167.19532 -3283.446 L -167.19532 -3284.5423 Z M -175.61637 -3289.865 L -177.01988 -3289.865 C -177.28187 -3289.865 -177.48771 -3290.0992 -177.48771 -3290.3973 C -177.48771 -3290.6954 -177.28187 -3290.9296 -177.01988 -3290.9296 L -175.61637 -3290.9296 L -175.61637 -3291.994 C -175.61637 -3292.5796 -175.19532 -3293.0586 -174.6807 -3293.0586 L -172.80935 -3293.0586 C -172.29473 -3293.0586 -171.87368 -3292.5796 -171.87368 -3291.994 L -171.87368 -3290.9296 L -161.11344 -3290.9296 C -160.85146 -3290.9296 -160.6456 -3290.6954 -160.6456 -3290.3973 C -160.6456 -3290.0992 -160.85146 -3289.865 -161.11344 -3289.865 L -171.87368 -3289.865 L -171.87368 -3288.7685 C -171.87368 -3288.183 -172.29473 -3287.704 -172.80935 -3287.704 L -174.6807 -3287.704 C -175.19532 -3287.704 -175.61637 -3288.183 -175.61637 -3288.7685 Z M -174.6807 -3291.994 L -174.6807 -3288.7685 L -172.80935 -3288.7685 L -172.80935 -3291.994 Z M -166.25964 -3286.6714 L -166.25964 -3283.446 L -164.3883 -3283.446 L -164.3883 -3286.6714 L -166.25964 -3286.6714 Z M -171.87368 -3281.3487 L -171.87368 -3278.123 L -170.00233 -3278.123 L -170.00233 -3281.3487 Z" fill="#999"/>
          </g>
        </g>
        <g id="Graphic_10189"/>
      </g>
    </g>
  </g>
</svg>
