<?xml version="1.0" encoding="UTF-8" standalone="no"?>
<!DOCTYPE svg PUBLIC "-//W3C//DTD SVG 1.1//EN" "http://www.w3.org/Graphics/SVG/1.1/DTD/svg11.dtd">
<svg xmlns:dc="http://purl.org/dc/elements/1.1/" xmlns:xl="http://www.w3.org/1999/xlink" version="1.1" xmlns="http://www.w3.org/2000/svg" viewBox="101.8416 -3308.1196 24 18" width="24" height="18">
  <defs/>
  <g id="SOURCES" stroke-dasharray="none" stroke="none" stroke-opacity="1" fill="none" fill-opacity="1">
    <title>SOURCES</title>
    <g id="SOURCES_Calque_2">
      <title>Calque 2</title>
      <g id="Group_10216">
        <g id="Group_10090">
          <title>user-journey</title>
          <g id="Graphic_10091">
            <path d="M 111.13003 -3293.7217 C 111.29845 -3292.7196 112.16582 -3291.9617 113.21003 -3291.9617 L 114.05213 -3291.9617 C 115.6774 -3291.9617 116.9995 -3293.2838 116.9995 -3294.909 L 116.9995 -3304.5933 C 116.53634 -3304.5933 116.1574 -3304.9722 116.1574 -3305.4354 L 116.1574 -3306.2775 C 116.1574 -3306.7406 116.53634 -3307.1196 116.9995 -3307.1196 L 117.8416 -3307.1196 C 118.30476 -3307.1196 118.68371 -3306.7406 118.68371 -3306.2775 L 118.68371 -3305.4354 C 118.68371 -3304.9722 118.30476 -3304.5933 117.8416 -3304.5933 L 117.8416 -3294.909 C 117.8416 -3292.8122 116.14897 -3291.1196 114.05213 -3291.1196 L 113.21003 -3291.1196 C 111.72792 -3291.1196 110.49845 -3292.2143 110.29634 -3293.646 C 110.28792 -3293.646 110.2795 -3293.646 110.26266 -3293.646 C 107.47529 -3293.646 105.21003 -3295.911 105.21003 -3298.6985 C 105.21003 -3301.191 107.02055 -3303.271 109.40371 -3303.6754 C 109.23529 -3305.1406 107.98897 -3306.2775 106.47318 -3306.2775 C 104.84792 -3306.2775 103.52582 -3304.9554 103.52582 -3303.33 L 103.52582 -3293.646 C 103.98897 -3293.646 104.36792 -3293.267 104.36792 -3292.8038 L 104.36792 -3291.9617 C 104.36792 -3291.4985 103.98897 -3291.1196 103.52582 -3291.1196 L 102.68371 -3291.1196 C 102.22055 -3291.1196 101.8416 -3291.4985 101.8416 -3291.9617 L 101.8416 -3292.8038 C 101.8416 -3293.267 102.22055 -3293.646 102.68371 -3293.646 L 102.68371 -3303.33 C 102.68371 -3305.427 104.37634 -3307.1196 106.47318 -3307.1196 C 108.42687 -3307.1196 110.02687 -3305.646 110.2374 -3303.751 C 110.2374 -3303.751 110.25424 -3303.751 110.26266 -3303.751 C 113.05003 -3303.751 115.31529 -3301.486 115.31529 -3298.6985 C 115.31529 -3296.206 113.50476 -3294.1343 111.13003 -3293.7217 Z M 113.55529 -3296.071 C 113.45424 -3296.3406 113.26897 -3296.568 113.01634 -3296.7196 L 111.73634 -3297.486 C 111.32371 -3297.1827 110.81003 -3297.006 110.26266 -3297.006 C 109.71529 -3297.006 109.2016 -3297.1827 108.78897 -3297.486 L 107.50897 -3296.7196 C 107.25634 -3296.568 107.07108 -3296.3406 106.97003 -3296.071 C 107.74476 -3295.1027 108.93213 -3294.488 110.26266 -3294.488 C 111.59318 -3294.488 112.78055 -3295.1027 113.55529 -3296.071 Z M 114.06055 -3296.888 C 114.3216 -3297.4354 114.47318 -3298.05 114.47318 -3298.6985 C 114.47318 -3301.0227 112.58687 -3302.909 110.26266 -3302.909 C 107.93845 -3302.909 106.05213 -3301.0227 106.05213 -3298.6985 C 106.05213 -3298.05 106.19529 -3297.4354 106.46476 -3296.888 C 106.62476 -3297.107 106.83529 -3297.3006 107.0795 -3297.4438 L 108.18266 -3298.109 C 107.90476 -3298.5133 107.73634 -3299.01 107.73634 -3299.5406 C 107.73634 -3300.9385 108.86476 -3302.067 110.26266 -3302.067 C 111.66055 -3302.067 112.78897 -3300.9385 112.78897 -3299.5406 C 112.78897 -3299.01 112.62897 -3298.5133 112.34266 -3298.109 L 113.44582 -3297.4438 C 113.69003 -3297.3006 113.89213 -3297.107 114.06055 -3296.888 Z M 110.26266 -3297.8564 C 111.18897 -3297.8564 111.94687 -3298.6143 111.94687 -3299.5406 C 111.94687 -3300.467 111.18897 -3301.225 110.26266 -3301.225 C 109.33634 -3301.225 108.57845 -3300.467 108.57845 -3299.5406 C 108.57845 -3298.6143 109.33634 -3297.8564 110.26266 -3297.8564 Z M 102.68371 -3292.8038 L 102.68371 -3291.9617 L 103.52582 -3291.9617 L 103.52582 -3292.8038 Z M 116.9995 -3306.2775 L 116.9995 -3305.4354 L 117.8416 -3305.4354 L 117.8416 -3306.2775 Z" fill="#999"/>
          </g>
        </g>
        <g id="Graphic_10191"/>
      </g>
    </g>
  </g>
</svg>
