<?xml version="1.0" encoding="UTF-8" standalone="no"?>
<!DOCTYPE svg PUBLIC "-//W3C//DTD SVG 1.1//EN" "http://www.w3.org/Graphics/SVG/1.1/DTD/svg11.dtd">
<svg xmlns:dc="http://purl.org/dc/elements/1.1/" xmlns:xl="http://www.w3.org/1999/xlink" version="1.1" xmlns="http://www.w3.org/2000/svg" viewBox="-804 -3243.9914 24 18" width="24" height="18">
  <defs/>
  <g id="SOURCES" stroke-dasharray="none" stroke="none" stroke-opacity="1" fill="none" fill-opacity="1">
    <title>SOURCES</title>
    <g id="SOURCES_Calque_2">
      <title>Calque 2</title>
      <g id="Group_10233">
        <g id="Group_10230">
          <title>eye</title>
          <g id="Graphic_10231">
            <path d="M -803.9625 -3235.171 C -801.8225 -3240.681 -795.6325 -3243.411 -790.1325 -3241.271 C -787.3325 -3240.181 -785.1125 -3237.971 -784.0325 -3235.171 C -783.9825 -3235.051 -783.9825 -3234.921 -784.0325 -3234.811 C -786.1625 -3229.311 -792.3625 -3226.571 -797.8625 -3228.711 C -800.6625 -3229.801 -802.8725 -3232.011 -803.9625 -3234.811 C -804.0125 -3234.931 -804.0125 -3235.061 -803.9625 -3235.171 Z M -797.4925 -3229.641 C -792.5625 -3227.731 -787.0225 -3230.121 -785.0325 -3234.991 C -786.0425 -3237.441 -788.0125 -3239.381 -790.4925 -3240.341 C -795.4225 -3242.251 -800.9525 -3239.861 -802.9525 -3234.991 C -801.9425 -3232.541 -799.9725 -3230.601 -797.4925 -3229.641 Z M -793.9925 -3230.991 C -796.2025 -3230.991 -797.9925 -3232.781 -797.9925 -3234.991 C -797.9925 -3237.201 -796.2025 -3238.991 -793.9925 -3238.991 C -791.7825 -3238.991 -789.9925 -3237.201 -789.9925 -3234.991 C -789.9925 -3232.781 -791.7825 -3230.991 -793.9925 -3230.991 Z M -793.9925 -3231.991 C -792.3325 -3231.991 -790.9925 -3233.331 -790.9925 -3234.991 C -790.9925 -3236.651 -792.3325 -3237.991 -793.9925 -3237.991 C -795.6525 -3237.991 -796.9925 -3236.651 -796.9925 -3234.991 C -796.9925 -3233.331 -795.6525 -3231.991 -793.9925 -3231.991 Z" fill="#999"/>
          </g>
        </g>
        <g id="Graphic_10232"/>
      </g>
    </g>
  </g>
</svg>
