<?xml version="1.0" encoding="UTF-8" standalone="no"?>
<!DOCTYPE svg PUBLIC "-//W3C//DTD SVG 1.1//EN" "http://www.w3.org/Graphics/SVG/1.1/DTD/svg11.dtd">
<svg xmlns:dc="http://purl.org/dc/elements/1.1/" xmlns:xl="http://www.w3.org/1999/xlink" version="1.1" xmlns="http://www.w3.org/2000/svg" viewBox="-120.20861 -3294.297 24 18" width="24" height="18">
  <defs/>
  <g id="SOURCES" stroke-dasharray="none" stroke="none" stroke-opacity="1" fill="none" fill-opacity="1">
    <title>SOURCES</title>
    <g id="SOURCES_Calque_2">
      <title>Calque 2</title>
      <g id="Group_10183">
        <g id="Group_10185">
          <title>desktop-3</title>
          <g id="Graphic_10186">
            <path d="M -105.0975 -3290.6304 L -105.0975 -3291.075 C -105.0975 -3291.8126 -105.69306 -3292.408 -106.43083 -3292.408 L -117.98639 -3292.408 C -118.72417 -3292.408 -119.31972 -3291.8126 -119.31972 -3291.075 L -119.31972 -3290.6304 Z M -105.0975 -3289.7415 L -119.31972 -3289.7415 L -119.31972 -3279.5193 C -119.31972 -3278.7815 -118.72417 -3278.186 -117.98639 -3278.186 L -106.43083 -3278.186 C -105.69306 -3278.186 -105.0975 -3278.7815 -105.0975 -3279.5193 Z M -120.20861 -3291.075 C -120.20861 -3292.3015 -119.21306 -3293.297 -117.98639 -3293.297 L -106.43083 -3293.297 C -105.20417 -3293.297 -104.20861 -3292.3015 -104.20861 -3291.075 L -104.20861 -3279.5193 C -104.20861 -3278.2926 -105.20417 -3277.297 -106.43083 -3277.297 L -117.98639 -3277.297 C -119.21306 -3277.297 -120.20861 -3278.2926 -120.20861 -3279.5193 Z M -110.43083 -3286.6304 C -110.43083 -3287.368 -109.83528 -3287.9637 -109.0975 -3287.9637 L -108.20861 -3287.9637 C -107.47083 -3287.9637 -106.87528 -3287.368 -106.87528 -3286.6304 L -106.87528 -3281.297 C -106.87528 -3280.5593 -107.47083 -3279.9637 -108.20861 -3279.9637 L -109.0975 -3279.9637 C -109.83528 -3279.9637 -110.43083 -3280.5593 -110.43083 -3281.297 Z M -109.54194 -3286.6304 L -109.54194 -3281.297 C -109.54194 -3281.048 -109.34639 -3280.8526 -109.0975 -3280.8526 L -108.20861 -3280.8526 C -107.95972 -3280.8526 -107.76417 -3281.048 -107.76417 -3281.297 L -107.76417 -3286.6304 C -107.76417 -3286.8793 -107.95972 -3287.075 -108.20861 -3287.075 L -109.0975 -3287.075 C -109.34639 -3287.075 -109.54194 -3286.8793 -109.54194 -3286.6304 Z M -117.0975 -3287.075 C -117.34639 -3287.075 -117.54194 -3287.2704 -117.54194 -3287.5193 C -117.54194 -3287.768 -117.34639 -3287.9637 -117.0975 -3287.9637 L -112.65306 -3287.9637 C -112.40417 -3287.9637 -112.20861 -3287.768 -112.20861 -3287.5193 C -112.20861 -3287.2704 -112.40417 -3287.075 -112.65306 -3287.075 Z M -117.0975 -3285.297 C -117.34639 -3285.297 -117.54194 -3285.4926 -117.54194 -3285.7415 C -117.54194 -3285.9904 -117.34639 -3286.186 -117.0975 -3286.186 L -112.65306 -3286.186 C -112.40417 -3286.186 -112.20861 -3285.9904 -112.20861 -3285.7415 C -112.20861 -3285.4926 -112.40417 -3285.297 -112.65306 -3285.297 Z M -117.0975 -3283.5193 C -117.34639 -3283.5193 -117.54194 -3283.715 -117.54194 -3283.9637 C -117.54194 -3284.2126 -117.34639 -3284.408 -117.0975 -3284.408 L -114.43083 -3284.408 C -114.18194 -3284.408 -113.98639 -3284.2126 -113.98639 -3283.9637 C -113.98639 -3283.715 -114.18194 -3283.5193 -114.43083 -3283.5193 Z M -116.20861 -3282.6304 L -113.54194 -3282.6304 C -112.80417 -3282.6304 -112.20861 -3282.035 -112.20861 -3281.297 C -112.20861 -3280.5593 -112.80417 -3279.9637 -113.54194 -3279.9637 L -116.20861 -3279.9637 C -116.94639 -3279.9637 -117.54194 -3280.5593 -117.54194 -3281.297 C -117.54194 -3282.035 -116.94639 -3282.6304 -116.20861 -3282.6304 Z M -116.20861 -3281.7415 C -116.4575 -3281.7415 -116.65306 -3281.546 -116.65306 -3281.297 C -116.65306 -3281.048 -116.4575 -3280.8526 -116.20861 -3280.8526 L -113.54194 -3280.8526 C -113.29306 -3280.8526 -113.0975 -3281.048 -113.0975 -3281.297 C -113.0975 -3281.546 -113.29306 -3281.7415 -113.54194 -3281.7415 Z" fill="#999"/>
          </g>
        </g>
        <g id="Graphic_10184"/>
      </g>
    </g>
  </g>
</svg>
