<?xml version="1.0" encoding="UTF-8" standalone="no"?>
<!DOCTYPE svg PUBLIC "-//W3C//DTD SVG 1.1//EN" "http://www.w3.org/Graphics/SVG/1.1/DTD/svg11.dtd">
<svg xmlns:dc="http://purl.org/dc/elements/1.1/" xmlns:xl="http://www.w3.org/1999/xlink" version="1.1" xmlns="http://www.w3.org/2000/svg" viewBox="171.79293 -3308.1196 24 18" width="24" height="18">
  <defs/>
  <g id="SOURCES" stroke-dasharray="none" stroke="none" stroke-opacity="1" fill="none" fill-opacity="1">
    <title>SOURCES</title>
    <g id="SOURCES_Calque_2">
      <title>Calque 2</title>
      <g id="Group_10194">
        <g id="Group_10092">
          <title>my-location</title>
          <g id="Graphic_10093">
            <path d="M 186.39467 -3298.7717 C 186.22076 -3295.398 183.51467 -3292.6917 180.14076 -3292.518 L 180.14076 -3291.4674 C 180.14076 -3291.2726 179.98771 -3291.1196 179.79293 -3291.1196 C 179.59815 -3291.1196 179.4451 -3291.2726 179.4451 -3291.4674 L 179.4451 -3292.518 C 176.0712 -3292.6917 173.3651 -3295.398 173.1912 -3298.7717 L 172.14076 -3298.7717 C 171.94597 -3298.7717 171.79293 -3298.9248 171.79293 -3299.1196 C 171.79293 -3299.3144 171.94597 -3299.4674 172.14076 -3299.4674 L 173.1912 -3299.4674 C 173.3651 -3302.8413 176.0712 -3305.5474 179.4451 -3305.7213 L 179.4451 -3306.7717 C 179.4451 -3306.9665 179.59815 -3307.1196 179.79293 -3307.1196 C 179.98771 -3307.1196 180.14076 -3306.9665 180.14076 -3306.7717 L 180.14076 -3305.7213 C 183.51467 -3305.5474 186.22076 -3302.8413 186.39467 -3299.4674 L 187.4451 -3299.4674 C 187.63989 -3299.4674 187.79293 -3299.3144 187.79293 -3299.1196 C 187.79293 -3298.9248 187.63989 -3298.7717 187.4451 -3298.7717 Z M 179.79293 -3293.2065 C 183.05554 -3293.2065 185.70597 -3295.857 185.70597 -3299.1196 C 185.70597 -3302.382 183.05554 -3305.0326 179.79293 -3305.0326 C 176.53032 -3305.0326 173.87989 -3302.382 173.87989 -3299.1196 C 173.87989 -3295.857 176.53032 -3293.2065 179.79293 -3293.2065 Z M 179.79293 -3295.989 C 178.06076 -3295.989 176.6625 -3297.3874 176.6625 -3299.1196 C 176.6625 -3300.8517 178.06076 -3302.25 179.79293 -3302.25 C 181.5251 -3302.25 182.92337 -3300.8517 182.92337 -3299.1196 C 182.92337 -3297.3874 181.5251 -3295.989 179.79293 -3295.989 Z M 179.79293 -3296.6848 C 181.13554 -3296.6848 182.22771 -3297.777 182.22771 -3299.1196 C 182.22771 -3300.462 181.13554 -3301.5544 179.79293 -3301.5544 C 178.45032 -3301.5544 177.35815 -3300.462 177.35815 -3299.1196 C 177.35815 -3297.777 178.45032 -3296.6848 179.79293 -3296.6848 Z" fill="#999"/>
          </g>
        </g>
        <g id="Graphic_10193"/>
      </g>
    </g>
  </g>
</svg>
