<?xml version="1.0" encoding="UTF-8" standalone="no"?>
<!DOCTYPE svg PUBLIC "-//W3C//DTD SVG 1.1//EN" "http://www.w3.org/Graphics/SVG/1.1/DTD/svg11.dtd">
<svg xmlns:dc="http://purl.org/dc/elements/1.1/" xmlns:xl="http://www.w3.org/1999/xlink" version="1.1" xmlns="http://www.w3.org/2000/svg" viewBox="-715 -3260.162 24 18" width="24" height="18">
  <defs/>
  <g id="SOURCES" stroke-dasharray="none" stroke="none" stroke-opacity="1" fill="none" fill-opacity="1">
    <title>SOURCES</title>
    <g id="SOURCES_Calque_2">
      <title>Calque 2</title>
      <g id="Group_10244">
        <g id="Group_10241">
          <title>git-pull</title>
          <g id="Graphic_10242">
            <path d="M -706.4277 -3256.7606 L -705.7954 -3256.7606 C -703.8024 -3256.7606 -702.1936 -3255.152 -702.1936 -3253.159 L -702.1936 -3252.7266 C -700.8329 -3252.5345 -699.7924 -3251.366 -699.7924 -3249.9572 C -699.7924 -3248.4124 -701.049 -3247.156 -702.5938 -3247.156 C -704.1386 -3247.156 -705.3952 -3248.4124 -705.3952 -3249.9572 C -705.3952 -3251.366 -704.3547 -3252.5345 -702.994 -3252.7266 L -702.994 -3253.159 C -702.994 -3254.7036 -704.2506 -3255.9602 -705.7954 -3255.9602 L -706.4277 -3255.9602 L -705.50725 -3255.0398 C -705.3472 -3254.8797 -705.3472 -3254.6315 -705.50725 -3254.4715 C -705.6673 -3254.3114 -705.91546 -3254.3114 -706.0755 -3254.4715 L -707.6763 -3256.0723 C -707.8364 -3256.2323 -707.8364 -3256.4805 -707.6763 -3256.6406 L -706.0755 -3258.2414 C -705.91546 -3258.4014 -705.6673 -3258.4014 -705.50725 -3258.2414 C -705.3472 -3258.0813 -705.3472 -3257.833 -705.50725 -3257.673 L -706.4277 -3256.7526 Z M -712.5988 -3248.7246 L -712.5988 -3253.583 C -713.9595 -3253.775 -715 -3254.9437 -715 -3256.3524 C -715 -3257.905 -713.7434 -3259.162 -712.1986 -3259.162 C -710.6538 -3259.162 -709.3972 -3257.905 -709.3972 -3256.3604 C -709.3972 -3254.9517 -710.4377 -3253.783 -711.7984 -3253.591 L -711.7984 -3248.7326 C -710.4377 -3248.5405 -709.3972 -3247.372 -709.3972 -3245.9632 C -709.3972 -3244.4184 -710.6538 -3243.162 -712.1986 -3243.162 C -713.7434 -3243.162 -715 -3244.4184 -715 -3245.9632 C -715 -3247.372 -713.9595 -3248.5405 -712.5988 -3248.7326 Z M -714.1996 -3245.9552 C -714.1996 -3244.8507 -713.30315 -3243.9542 -712.1986 -3243.9542 C -711.09405 -3243.9542 -710.1976 -3244.8507 -710.1976 -3245.9552 C -710.1976 -3247.0598 -711.09405 -3247.9562 -712.1986 -3247.9562 C -713.30315 -3247.9562 -714.1996 -3247.0598 -714.1996 -3245.9552 Z M -714.1996 -3256.3604 C -714.1996 -3255.256 -713.30315 -3254.3594 -712.1986 -3254.3594 C -711.09405 -3254.3594 -710.1976 -3255.256 -710.1976 -3256.3604 C -710.1976 -3257.465 -711.09405 -3258.3614 -712.1986 -3258.3614 C -713.30315 -3258.3614 -714.1996 -3257.465 -714.1996 -3256.3604 Z M -702.5938 -3247.9562 C -701.48924 -3247.9562 -700.5928 -3248.8527 -700.5928 -3249.9572 C -700.5928 -3251.0618 -701.48924 -3251.9582 -702.5938 -3251.9582 C -703.69835 -3251.9582 -704.5948 -3251.0618 -704.5948 -3249.9572 C -704.5948 -3248.8527 -703.69835 -3247.9562 -702.5938 -3247.9562 Z" fill="#999"/>
          </g>
        </g>
        <g id="Graphic_10243"/>
      </g>
    </g>
  </g>
</svg>
