<?xml version="1.0" encoding="UTF-8" standalone="no"?>
<!DOCTYPE svg PUBLIC "-//W3C//DTD SVG 1.1//EN" "http://www.w3.org/Graphics/SVG/1.1/DTD/svg11.dtd">
<svg xmlns:dc="http://purl.org/dc/elements/1.1/" xmlns:xl="http://www.w3.org/1999/xlink" version="1.1" xmlns="http://www.w3.org/2000/svg" viewBox="-65.80861 -3293.0586 24 18" width="24" height="18">
  <defs/>
  <g id="SOURCES" stroke-dasharray="none" stroke="none" stroke-opacity="1" fill="none" fill-opacity="1">
    <title>SOURCES</title>
    <g id="SOURCES_Calque_2">
      <title>Calque 2</title>
      <g id="Group_10159">
        <g id="Group_10161">
          <title>repository</title>
          <g id="Graphic_10162">
            <path d="M -52.0296 -3292.0586 C -50.803614 -3292.0586 -49.80861 -3291.0636 -49.80861 -3289.8376 L -49.80861 -3278.2796 C -49.80861 -3277.0536 -50.803614 -3276.0586 -52.0296 -3276.0586 L -63.58762 -3276.0586 C -64.81361 -3276.0586 -65.80861 -3277.0536 -65.80861 -3278.2796 L -65.80861 -3289.8376 C -65.80861 -3291.0547 -64.82249 -3292.041 -63.614275 -3292.0586 C -63.614275 -3292.0586 -59.749755 -3292.0586 -52.038483 -3292.0586 Z M -63.55209 -3291.1702 C -64.31611 -3291.1702 -64.91133 -3290.575 -64.91133 -3289.8376 L -64.91133 -3278.2796 C -64.91133 -3277.5423 -64.32499 -3276.947 -63.58762 -3276.947 L -52.0296 -3276.947 C -51.29223 -3276.947 -50.697007 -3277.5423 -50.697007 -3278.2796 L -50.697007 -3289.8376 C -50.697007 -3290.575 -51.29223 -3291.1702 -52.0296 -3291.1702 Z M -59.67868 -3282.1175 C -59.527656 -3281.922 -59.55431 -3281.6466 -59.749755 -3281.4956 C -59.9452 -3281.3446 -60.220605 -3281.3712 -60.37163 -3281.5667 L -62.14842 -3283.7877 C -62.28168 -3283.9476 -62.28168 -3284.1786 -62.14842 -3284.3385 L -60.37163 -3286.5595 C -60.220605 -3286.755 -59.93632 -3286.7816 -59.749755 -3286.6305 C -59.55431 -3286.4795 -59.527656 -3286.1952 -59.67868 -3286.0087 L -61.233375 -3284.063 Z M -55.929655 -3286.0087 C -56.08068 -3286.204 -56.05403 -3286.4795 -55.858583 -3286.6305 C -55.663136 -3286.7816 -55.387734 -3286.755 -55.236707 -3286.5595 L -53.459916 -3284.3385 C -53.326657 -3284.1786 -53.326657 -3283.9476 -53.459916 -3283.7877 L -55.236707 -3281.5667 C -55.387734 -3281.3712 -55.67202 -3281.3446 -55.858583 -3281.4956 C -56.05403 -3281.6466 -56.08068 -3281.931 -55.929655 -3282.1175 L -54.37496 -3284.063 L -55.929655 -3286.0087 Z" fill="#999"/>
          </g>
        </g>
        <g id="Graphic_10160"/>
      </g>
    </g>
  </g>
</svg>
