<?xml version="1.0" encoding="UTF-8" standalone="no"?>
<!DOCTYPE svg PUBLIC "-//W3C//DTD SVG 1.1//EN" "http://www.w3.org/Graphics/SVG/1.1/DTD/svg11.dtd">
<svg xmlns:dc="http://purl.org/dc/elements/1.1/" xmlns:xl="http://www.w3.org/1999/xlink" version="1.1" xmlns="http://www.w3.org/2000/svg" viewBox="-34.42705 -3292.0586 24 18" width="24" height="18">
  <defs/>
  <g id="SOURCES" stroke-dasharray="none" stroke="none" stroke-opacity="1" fill="none" fill-opacity="1">
    <title>SOURCES</title>
    <g id="SOURCES_Calque_2">
      <title>Calque 2</title>
      <g id="Group_10196">
        <g id="Group_10096">
          <title>file-download</title>
          <g id="Graphic_10097">
            <path d="M -21.627051 -3287.4346 L -21.627051 -3277.0586 C -21.627051 -3275.9546 -22.523051 -3275.0586 -23.627051 -3275.0586 L -32.42705 -3275.0586 C -33.53105 -3275.0586 -34.42705 -3275.9546 -34.42705 -3277.0586 L -34.42705 -3289.0586 C -34.42705 -3290.1626 -33.53105 -3291.0586 -32.42705 -3291.0586 L -25.25105 -3291.0586 C -25.14705 -3291.0586 -25.03505 -3291.0266 -24.947051 -3290.9386 L -21.747051 -3287.7386 C -21.659051 -3287.6506 -21.627051 -3287.5386 -21.627051 -3287.4346 Z M -25.62705 -3290.2586 L -32.42705 -3290.2586 C -33.09105 -3290.2586 -33.62705 -3289.7226 -33.62705 -3289.0586 L -33.62705 -3277.0586 C -33.62705 -3276.3946 -33.09105 -3275.8586 -32.42705 -3275.8586 L -23.627051 -3275.8586 C -22.963051 -3275.8586 -22.427051 -3276.3946 -22.427051 -3277.0586 L -22.427051 -3287.0586 L -25.22705 -3287.0586 C -25.45105 -3287.0586 -25.62705 -3287.2346 -25.62705 -3287.4586 Z M -24.827051 -3289.6906 L -24.827051 -3287.8586 L -22.995051 -3287.8586 Z M -28.02705 -3279.6266 L -26.30705 -3281.3466 C -26.14705 -3281.5066 -25.89905 -3281.5066 -25.73905 -3281.3466 C -25.57905 -3281.1866 -25.57905 -3280.9386 -25.73905 -3280.7786 L -28.08305 -3278.4346 C -28.15505 -3278.3226 -28.27505 -3278.2506 -28.41905 -3278.2506 C -28.56305 -3278.2506 -28.68305 -3278.3226 -28.75505 -3278.4346 L -31.09905 -3280.7786 C -31.25905 -3280.9386 -31.25905 -3281.1866 -31.09905 -3281.3466 C -30.93905 -3281.5066 -30.69105 -3281.5066 -30.53105 -3281.3466 L -28.81105 -3279.6266 L -28.81105 -3285.0586 C -28.81105 -3285.2826 -28.63505 -3285.4586 -28.41105 -3285.4586 C -28.18705 -3285.4586 -28.01105 -3285.2826 -28.01105 -3285.0586 L -28.01105 -3279.6266 Z" fill="#999"/>
          </g>
        </g>
        <g id="Graphic_10195"/>
      </g>
    </g>
  </g>
</svg>
