<?xml version="1.0" encoding="UTF-8" standalone="no"?>
<!DOCTYPE svg PUBLIC "-//W3C//DTD SVG 1.1//EN" "http://www.w3.org/Graphics/SVG/1.1/DTD/svg11.dtd">
<svg xmlns:dc="http://purl.org/dc/elements/1.1/" xmlns:xl="http://www.w3.org/1999/xlink" version="1.1" xmlns="http://www.w3.org/2000/svg" viewBox="-7.408611 -3292.0586 24 18" width="24" height="18">
  <defs/>
  <g id="SOURCES" stroke-dasharray="none" stroke="none" stroke-opacity="1" fill="none" fill-opacity="1">
    <title>SOURCES</title>
    <g id="SOURCES_Calque_2">
      <title>Calque 2</title>
      <g id="Group_10198">
        <g id="Group_10098">
          <title>palette</title>
          <g id="Graphic_10099">
            <path d="M .5913888 -3290.2586 C -3.384611 -3290.2586 -6.608611 -3287.0346 -6.608611 -3283.0586 C -6.608611 -3279.0826 -3.384611 -3275.8586 .5913888 -3275.8586 L .9913888 -3275.8586 C 1.2793888 -3275.8586 1.5273888 -3276.0506 1.5993888 -3276.3306 C 1.7033888 -3276.7306 1.6073888 -3277.1386 1.3593888 -3277.4346 L -.11261118 -3279.2026 C -.30461118 -3279.4346 -.18461118 -3279.7946 .11938882 -3279.8506 L 4.983389 -3280.8266 C 6.623389 -3281.1546 7.799389 -3282.5946 7.799389 -3284.2586 C 7.799389 -3287.5706 5.111389 -3290.2586 1.7993888 -3290.2586 L .5993888 -3290.2586 Z M .9273888 -3279.1946 L 1.9673888 -3277.9466 C 2.3833888 -3277.4506 2.5353888 -3276.7866 2.3753888 -3276.1626 C 2.2073888 -3275.5066 1.6393888 -3275.0586 .9833888 -3275.0586 L .5833888 -3275.0586 C -3.824611 -3275.0586 -7.408611 -3278.6426 -7.408611 -3283.0586 C -7.408611 -3287.4746 -3.824611 -3291.0586 .5913888 -3291.0586 L 1.7913888 -3291.0586 C 5.543389 -3291.0586 8.591389 -3288.0106 8.591389 -3284.2586 C 8.591389 -3282.2106 7.143389 -3280.4426 5.135389 -3280.0426 L .9353888 -3279.2026 Z M 5.391389 -3284.6586 C 5.831389 -3284.6586 6.191389 -3285.0186 6.191389 -3285.4586 C 6.191389 -3285.8986 5.831389 -3286.2586 5.391389 -3286.2586 C 4.951389 -3286.2586 4.591389 -3285.8986 4.591389 -3285.4586 C 4.591389 -3285.0186 4.951389 -3284.6586 5.391389 -3284.6586 Z M 2.1913888 -3287.0586 C 2.6313888 -3287.0586 2.991389 -3287.4186 2.991389 -3287.8586 C 2.991389 -3288.2986 2.6313888 -3288.6586 2.1913888 -3288.6586 C 1.7513888 -3288.6586 1.3913888 -3288.2986 1.3913888 -3287.8586 C 1.3913888 -3287.4186 1.7513888 -3287.0586 2.1913888 -3287.0586 Z M -1.8086112 -3286.2586 C -1.3686112 -3286.2586 -1.0086112 -3286.6186 -1.0086112 -3287.0586 C -1.0086112 -3287.4986 -1.3686112 -3287.8586 -1.8086112 -3287.8586 C -2.2486112 -3287.8586 -2.6086112 -3287.4986 -2.6086112 -3287.0586 C -2.6086112 -3286.6186 -2.2486112 -3286.2586 -1.8086112 -3286.2586 Z M -4.208611 -3283.0586 C -3.768611 -3283.0586 -3.408611 -3283.4186 -3.408611 -3283.8586 C -3.408611 -3284.2986 -3.768611 -3284.6586 -4.208611 -3284.6586 C -4.648611 -3284.6586 -5.008611 -3284.2986 -5.008611 -3283.8586 C -5.008611 -3283.4186 -4.648611 -3283.0586 -4.208611 -3283.0586 Z" fill="#999"/>
          </g>
        </g>
        <g id="Graphic_10197"/>
      </g>
    </g>
  </g>
</svg>
