<?xml version="1.0" encoding="UTF-8" standalone="no"?>
<!DOCTYPE svg PUBLIC "-//W3C//DTD SVG 1.1//EN" "http://www.w3.org/Graphics/SVG/1.1/DTD/svg11.dtd">
<svg xmlns:dc="http://purl.org/dc/elements/1.1/" xmlns:xl="http://www.w3.org/1999/xlink" version="1.1" xmlns="http://www.w3.org/2000/svg" viewBox="-764.2071 -3278.162 24 18" width="24" height="18">
  <defs/>
  <g id="SOURCES" stroke-dasharray="none" stroke="none" stroke-opacity="1" fill="none" fill-opacity="1">
    <title>SOURCES</title>
    <g id="SOURCES_Calque_2">
      <title>Calque 2</title>
      <g id="Group_10234">
        <g id="Group_10236">
          <title>repository</title>
          <g id="Graphic_10237">
            <path d="M -750.4281 -3277.162 C -749.2021 -3277.162 -748.2071 -3276.167 -748.2071 -3274.941 L -748.2071 -3263.3828 C -748.2071 -3262.157 -749.2021 -3261.162 -750.4281 -3261.162 L -761.9861 -3261.162 C -763.2121 -3261.162 -764.2071 -3262.157 -764.2071 -3263.3828 L -764.2071 -3274.941 C -764.2071 -3276.158 -763.22095 -3277.144 -762.0127 -3277.162 C -762.0127 -3277.162 -758.1482 -3277.162 -750.4369 -3277.162 Z M -761.9505 -3276.2734 C -762.7146 -3276.2734 -763.3098 -3275.678 -763.3098 -3274.941 L -763.3098 -3263.3828 C -763.3098 -3262.6454 -762.72345 -3262.0502 -761.9861 -3262.0502 L -750.4281 -3262.0502 C -749.6907 -3262.0502 -749.0955 -3262.6454 -749.0955 -3263.3828 L -749.0955 -3274.941 C -749.0955 -3275.678 -749.6907 -3276.2734 -750.4281 -3276.2734 Z M -758.0771 -3267.2207 C -757.9261 -3267.0252 -757.9528 -3266.75 -758.1482 -3266.5988 C -758.3437 -3266.4478 -758.6191 -3266.4744 -758.7701 -3266.67 L -760.5469 -3268.891 C -760.6801 -3269.0508 -760.6801 -3269.2817 -760.5469 -3269.4417 L -758.7701 -3271.6626 C -758.6191 -3271.858 -758.3348 -3271.8847 -758.1482 -3271.7337 C -757.9528 -3271.5827 -757.9261 -3271.2984 -758.0771 -3271.112 L -759.6318 -3269.1663 Z M -754.3281 -3271.112 C -754.4791 -3271.3073 -754.4525 -3271.5827 -754.257 -3271.7337 C -754.0616 -3271.8847 -753.7862 -3271.858 -753.6352 -3271.6626 L -751.8584 -3269.4417 C -751.7251 -3269.2817 -751.7251 -3269.0508 -751.8584 -3268.891 L -753.6352 -3266.67 C -753.7862 -3266.4744 -754.0705 -3266.4478 -754.257 -3266.5988 C -754.4525 -3266.75 -754.4791 -3267.034 -754.3281 -3267.2207 L -752.7734 -3269.1663 L -754.3281 -3271.112 Z" fill="#999"/>
          </g>
        </g>
        <g id="Graphic_10235"/>
      </g>
    </g>
  </g>
</svg>
