<?xml version="1.0" encoding="UTF-8" standalone="no"?>
<!DOCTYPE svg PUBLIC "-//W3C//DTD SVG 1.1//EN" "http://www.w3.org/Graphics/SVG/1.1/DTD/svg11.dtd">
<svg xmlns:dc="http://purl.org/dc/elements/1.1/" xmlns:xl="http://www.w3.org/1999/xlink" version="1.1" xmlns="http://www.w3.org/2000/svg" viewBox="26 -3253 24 18" width="24" height="18">
  <defs/>
  <g id="SOURCES" stroke-dasharray="none" stroke="none" stroke-opacity="1" fill="none" fill-opacity="1">
    <title>SOURCES</title>
    <g id="SOURCES_Calque_2">
      <title>Calque 2</title>
      <g id="Group_10200">
        <g id="Group_10100">
          <title>users</title>
          <g id="Graphic_10101">
            <path d="M 30.696 -3244.56 L 27.448 -3242.888 C 27.048 -3242.68 26.8 -3242.272 26.8 -3241.824 L 26.8 -3241.2 C 26.8 -3240.536 27.336 -3240 28 -3240 C 28.224 -3240 28.4 -3239.824 28.4 -3239.6 C 28.4 -3239.376 28.224 -3239.2 28 -3239.2 C 26.896 -3239.2 26 -3240.096 26 -3241.2 L 26 -3241.824 C 26 -3242.576 26.416 -3243.256 27.088 -3243.6 L 29.776 -3244.984 C 28.92 -3245.728 28.408 -3246.824 28.408 -3248 C 28.4 -3250.208 30.192 -3252 32.4 -3252 C 33.744 -3252 34.968 -3251.336 35.712 -3250.248 C 35.84 -3250.064 35.792 -3249.816 35.608 -3249.696 C 35.424 -3249.568 35.176 -3249.616 35.056 -3249.8 C 34.464 -3250.672 33.48 -3251.2 32.408 -3251.2 C 30.64 -3251.2 29.208 -3249.768 29.208 -3248 C 29.208 -3246.872 29.8 -3245.84 30.744 -3245.264 C 30.936 -3245.152 30.992 -3244.904 30.88 -3244.712 C 30.84 -3244.64 30.776 -3244.592 30.704 -3244.56 Z M 33.968 -3241.144 L 30.704 -3239.656 C 30.272 -3239.464 30 -3239.032 30 -3238.56 L 30 -3237.992 C 30 -3237.328 30.536 -3236.792 31.2 -3236.792 L 40 -3236.792 C 40.664 -3236.792 41.2 -3237.328 41.2 -3237.992 L 41.2 -3238.56 C 41.2 -3239.032 40.928 -3239.456 40.496 -3239.656 L 37.232 -3241.144 C 36.736 -3240.92 36.184 -3240.8 35.6 -3240.8 C 35.016 -3240.8 34.464 -3240.92 33.968 -3241.144 Z M 33.136 -3241.648 C 32.2 -3242.384 31.6 -3243.52 31.6 -3244.8 C 31.6 -3247.008 33.392 -3248.8 35.6 -3248.8 C 37.808 -3248.8 39.6 -3247.008 39.6 -3244.8 C 39.6 -3243.52 39 -3242.376 38.064 -3241.648 L 40.832 -3240.392 C 41.544 -3240.064 42.008 -3239.352 42.008 -3238.568 L 42.008 -3238 C 42.008 -3236.896 41.112 -3236 40.008 -3236 L 31.2 -3236 C 30.096 -3236 29.2 -3236.896 29.2 -3238 L 29.2 -3238.568 C 29.2 -3239.352 29.656 -3240.064 30.376 -3240.392 L 33.144 -3241.648 Z M 35.6 -3241.6 C 37.368 -3241.6 38.8 -3243.032 38.8 -3244.8 C 38.8 -3246.568 37.368 -3248 35.6 -3248 C 33.832 -3248 32.4 -3246.568 32.4 -3244.8 C 32.4 -3243.032 33.832 -3241.6 35.6 -3241.6 Z" fill="#999"/>
          </g>
        </g>
        <g id="Graphic_10199"/>
      </g>
    </g>
  </g>
</svg>
