<?xml version="1.0" encoding="UTF-8" standalone="no"?>
<!DOCTYPE svg PUBLIC "-//W3C//DTD SVG 1.1//EN" "http://www.w3.org/Graphics/SVG/1.1/DTD/svg11.dtd">
<svg xmlns:dc="http://purl.org/dc/elements/1.1/" xmlns:xl="http://www.w3.org/1999/xlink" version="1.1" xmlns="http://www.w3.org/2000/svg" viewBox="44 -3293 24 18" width="24" height="18">
  <defs/>
  <g id="SOURCES" stroke-dasharray="none" stroke="none" stroke-opacity="1" fill="none" fill-opacity="1">
    <title>SOURCES</title>
    <g id="SOURCES_Calque_2">
      <title>Calque 2</title>
      <g id="Group_10163">
        <g id="Group_10165">
          <title>repository</title>
          <g id="Graphic_10166">
            <path d="M 57.77901 -3292 C 59.005 -3292 60 -3291.005 60 -3289.779 L 60 -3278.221 C 60 -3276.995 59.005 -3276 57.77901 -3276 L 46.22099 -3276 C 44.995003 -3276 44 -3276.995 44 -3278.221 L 44 -3289.779 C 44 -3290.996 44.98612 -3291.9822 46.194336 -3292 C 46.194336 -3292 50.058856 -3292 57.77013 -3292 Z M 46.256524 -3291.1116 C 45.492504 -3291.1116 44.89728 -3290.5164 44.89728 -3289.779 L 44.89728 -3278.221 C 44.89728 -3277.4836 45.48362 -3276.8884 46.22099 -3276.8884 L 57.77901 -3276.8884 C 58.51638 -3276.8884 59.111605 -3277.4836 59.111605 -3278.221 L 59.111605 -3289.779 C 59.111605 -3290.5164 58.51638 -3291.1116 57.77901 -3291.1116 Z M 50.12993 -3282.059 C 50.280955 -3281.8634 50.254303 -3281.588 50.058856 -3281.437 C 49.86341 -3281.286 49.588007 -3281.3126 49.43698 -3281.508 L 47.66019 -3283.729 C 47.52693 -3283.889 47.52693 -3284.12 47.66019 -3284.28 L 49.43698 -3286.501 C 49.588007 -3286.6963 49.872293 -3286.723 50.058856 -3286.572 C 50.254303 -3286.421 50.280955 -3286.1366 50.12993 -3285.95 L 48.575236 -3284.0044 Z M 53.878956 -3285.95 C 53.72793 -3286.1455 53.75458 -3286.421 53.95003 -3286.572 C 54.145475 -3286.723 54.42088 -3286.6963 54.571904 -3286.501 L 56.348695 -3284.28 C 56.481954 -3284.12 56.481954 -3283.889 56.348695 -3283.729 L 54.571904 -3281.508 C 54.42088 -3281.3126 54.13659 -3281.286 53.95003 -3281.437 C 53.75458 -3281.588 53.72793 -3281.8723 53.878956 -3282.059 L 55.43365 -3284.0044 L 53.878956 -3285.95 Z" fill="#999"/>
          </g>
        </g>
        <g id="Graphic_10164"/>
      </g>
    </g>
  </g>
</svg>
