<?xml version="1.0" encoding="UTF-8" standalone="no"?>
<!DOCTYPE svg PUBLIC "-//W3C//DTD SVG 1.1//EN" "http://www.w3.org/Graphics/SVG/1.1/DTD/svg11.dtd">
<svg xmlns:dc="http://purl.org/dc/elements/1.1/" xmlns:xl="http://www.w3.org/1999/xlink" version="1.1" xmlns="http://www.w3.org/2000/svg" viewBox="387.79293 -3308.1196 24 18" width="24" height="18">
  <defs/>
  <g id="SOURCES" stroke-dasharray="none" stroke="none" stroke-opacity="1" fill="none" fill-opacity="1">
    <title>SOURCES</title>
    <g id="SOURCES_Calque_2">
      <title>Calque 2</title>
      <g id="Group_10214">
        <g id="Graphic_10201"/>
        <g id="Group_10104">
          <title>text</title>
          <g id="Graphic_10105">
            <path d="M 390.63075 -3298.12 L 394.85996 -3298.12 L 392.74536 -3304.23 Z M 390.2888 -3297.12 L 388.6691 -3292.44 C 388.57913 -3292.18 388.3182 -3292.05 388.0842 -3292.15 C 387.85026 -3292.25 387.7333 -3292.54 387.82327 -3292.8 L 392.32243 -3305.8 C 392.4664 -3306.23 393.0153 -3306.23 393.1593 -3305.8 L 397.65844 -3292.8 C 397.74843 -3292.54 397.63145 -3292.25 397.3975 -3292.15 C 397.16353 -3292.05 396.9026 -3292.18 396.8126 -3292.44 L 395.1929 -3297.12 L 390.2888 -3297.12 Z M 404.8571 -3299.32 C 404.8841 -3299.26 404.8931 -3299.19 404.8931 -3299.12 C 404.8931 -3299.05 404.8931 -3298.99 404.8931 -3298.92 C 404.8931 -3298.82 404.8931 -3298.72 404.8931 -3298.62 L 404.8931 -3293.62 C 404.8931 -3293.34 405.09106 -3293.12 405.343 -3293.12 C 405.59497 -3293.12 405.79293 -3292.9 405.79293 -3292.62 C 405.79293 -3292.34 405.59497 -3292.12 405.343 -3292.12 C 404.8661 -3292.12 404.4432 -3292.4 404.20023 -3292.82 C 403.7953 -3292.39 403.2464 -3292.12 402.6435 -3292.12 L 400.84385 -3292.12 C 399.11617 -3292.12 398.14435 -3292.98 398.14435 -3294.62 C 398.14435 -3296.26 399.0352 -3296.84 401.44674 -3297.35 C 401.50673 -3297.3635 401.5697 -3297.377 401.6357 -3297.39 C 402.03163 -3297.48 402.2836 -3297.53 402.53554 -3297.6 C 403.47136 -3297.86 403.9213 -3298.29 403.98427 -3298.94 C 403.9033 -3300.44 403.1924 -3301.12 401.7437 -3301.12 C 400.16 -3301.12 399.4941 -3300.62 399.4941 -3299.62 C 399.4941 -3299.34 399.29614 -3299.12 399.0442 -3299.12 C 398.79223 -3299.12 398.59427 -3299.34 398.59427 -3299.62 C 398.59427 -3301.28 399.72806 -3302.12 401.7437 -3302.12 C 403.57034 -3302.12 404.64114 -3301.15 404.8571 -3299.32 Z M 403.99326 -3294.62 L 403.99326 -3297.22 C 403.66033 -3296.97 403.2464 -3296.77 402.7515 -3296.63 C 402.48155 -3296.56 402.2206 -3296.49 401.80667 -3296.4 C 401.7467 -3296.387 401.6837 -3296.3735 401.6177 -3296.36 C 399.62908 -3295.94 399.0442 -3295.59 399.0442 -3294.61 C 399.0442 -3293.63 399.5751 -3293.11 400.84385 -3293.11 L 402.6435 -3293.11 C 403.3904 -3293.11 403.99326 -3293.78 403.99326 -3294.61 Z" fill="#999"/>
          </g>
        </g>
      </g>
    </g>
  </g>
</svg>
