<?xml version="1.0" encoding="UTF-8" standalone="no"?>
<!DOCTYPE svg PUBLIC "-//W3C//DTD SVG 1.1//EN" "http://www.w3.org/Graphics/SVG/1.1/DTD/svg11.dtd">
<svg xmlns:dc="http://purl.org/dc/elements/1.1/" xmlns:xl="http://www.w3.org/1999/xlink" version="1.1" xmlns="http://www.w3.org/2000/svg" viewBox="105.4335 -3293.0586 24 18" width="24" height="18">
  <defs/>
  <g id="SOURCES" stroke-dasharray="none" stroke="none" stroke-opacity="1" fill="none" fill-opacity="1">
    <title>SOURCES</title>
    <g id="SOURCES_Calque_2">
      <title>Calque 2</title>
      <g id="Group_10167">
        <g id="Group_10169">
          <title>repository</title>
          <g id="Graphic_10170">
            <path d="M 119.2125 -3292.0586 C 120.43849 -3292.0586 121.4335 -3291.0636 121.4335 -3289.8376 L 121.4335 -3278.2796 C 121.4335 -3277.0536 120.43849 -3276.0586 119.2125 -3276.0586 L 107.65448 -3276.0586 C 106.4285 -3276.0586 105.4335 -3277.0536 105.4335 -3278.2796 L 105.4335 -3289.8376 C 105.4335 -3291.0547 106.41961 -3292.041 107.62783 -3292.0586 C 107.62783 -3292.0586 111.49235 -3292.0586 119.20362 -3292.0586 Z M 107.69002 -3291.1702 C 106.926 -3291.1702 106.33077 -3290.575 106.33077 -3289.8376 L 106.33077 -3278.2796 C 106.33077 -3277.5423 106.91711 -3276.947 107.65448 -3276.947 L 119.2125 -3276.947 C 119.94987 -3276.947 120.5451 -3277.5423 120.5451 -3278.2796 L 120.5451 -3289.8376 C 120.5451 -3290.575 119.94987 -3291.1702 119.2125 -3291.1702 Z M 111.56342 -3282.1175 C 111.71445 -3281.922 111.6878 -3281.6466 111.49235 -3281.4956 C 111.2969 -3281.3446 111.0215 -3281.3712 110.87047 -3281.5667 L 109.09368 -3283.7877 C 108.96042 -3283.9476 108.96042 -3284.1786 109.09368 -3284.3385 L 110.87047 -3286.5595 C 111.0215 -3286.755 111.30579 -3286.7816 111.49235 -3286.6305 C 111.6878 -3286.4795 111.71445 -3286.1952 111.56342 -3286.0087 L 110.00873 -3284.063 Z M 115.31245 -3286.0087 C 115.16142 -3286.204 115.18807 -3286.4795 115.38352 -3286.6305 C 115.57897 -3286.7816 115.85437 -3286.755 116.0054 -3286.5595 L 117.78219 -3284.3385 C 117.91545 -3284.1786 117.91545 -3283.9476 117.78219 -3283.7877 L 116.0054 -3281.5667 C 115.85437 -3281.3712 115.57008 -3281.3446 115.38352 -3281.4956 C 115.18807 -3281.6466 115.16142 -3281.931 115.31245 -3282.1175 L 116.86714 -3284.063 L 115.31245 -3286.0087 Z" fill="#999"/>
          </g>
        </g>
        <g id="Graphic_10168"/>
      </g>
    </g>
  </g>
</svg>
