<?xml version="1.0" encoding="UTF-8" standalone="no"?>
<!DOCTYPE svg PUBLIC "-//W3C//DTD SVG 1.1//EN" "http://www.w3.org/Graphics/SVG/1.1/DTD/svg11.dtd">
<svg xmlns:dc="http://purl.org/dc/elements/1.1/" xmlns:xl="http://www.w3.org/1999/xlink" version="1.1" xmlns="http://www.w3.org/2000/svg" viewBox="-914.1811 -3284.1073 24 18" width="24" height="18">
  <defs/>
  <g id="SOURCES" stroke-dasharray="none" stroke="none" stroke-opacity="1" fill="none" fill-opacity="1">
    <title>SOURCES</title>
    <g id="SOURCES_Calque_2">
      <title>Calque 2</title>
      <g id="Group_10220">
        <g id="Group_10217">
          <title>text-align-justify</title>
          <g id="Graphic_10218">
            <path d="M -913.6811 -3280.6073 C -913.9611 -3280.6073 -914.1811 -3280.8273 -914.1811 -3281.1073 C -914.1811 -3281.3873 -913.9611 -3281.6073 -913.6811 -3281.6073 L -898.6811 -3281.6073 C -898.4011 -3281.6073 -898.1811 -3281.3873 -898.1811 -3281.1073 C -898.1811 -3280.8273 -898.4011 -3280.6073 -898.6811 -3280.6073 Z M -913.6811 -3276.6073 C -913.9611 -3276.6073 -914.1811 -3276.8273 -914.1811 -3277.1073 C -914.1811 -3277.3873 -913.9611 -3277.6073 -913.6811 -3277.6073 L -898.6811 -3277.6073 C -898.4011 -3277.6073 -898.1811 -3277.3873 -898.1811 -3277.1073 C -898.1811 -3276.8273 -898.4011 -3276.6073 -898.6811 -3276.6073 Z M -913.6811 -3272.6073 C -913.9611 -3272.6073 -914.1811 -3272.8273 -914.1811 -3273.1073 C -914.1811 -3273.3873 -913.9611 -3273.6073 -913.6811 -3273.6073 L -898.6811 -3273.6073 C -898.4011 -3273.6073 -898.1811 -3273.3873 -898.1811 -3273.1073 C -898.1811 -3272.8273 -898.4011 -3272.6073 -898.6811 -3272.6073 Z M -913.6811 -3268.6073 C -913.9611 -3268.6073 -914.1811 -3268.8273 -914.1811 -3269.1073 C -914.1811 -3269.3873 -913.9611 -3269.6073 -913.6811 -3269.6073 L -904.6811 -3269.6073 C -904.4011 -3269.6073 -904.1811 -3269.3873 -904.1811 -3269.1073 C -904.1811 -3268.8273 -904.4011 -3268.6073 -904.6811 -3268.6073 Z" fill="#999"/>
          </g>
        </g>
        <g id="Graphic_10219"/>
      </g>
    </g>
  </g>
</svg>
