<?xml version="1.0" encoding="UTF-8" standalone="no"?>
<!DOCTYPE svg PUBLIC "-//W3C//DTD SVG 1.1//EN" "http://www.w3.org/Graphics/SVG/1.1/DTD/svg11.dtd">
<svg xmlns:dc="http://purl.org/dc/elements/1.1/" xmlns:xl="http://www.w3.org/1999/xlink" version="1.1" xmlns="http://www.w3.org/2000/svg" viewBox="162.6705 -3294.297 24 18" width="24" height="18">
  <defs/>
  <g id="SOURCES" stroke-dasharray="none" stroke="none" stroke-opacity="1" fill="none" fill-opacity="1">
    <title>SOURCES</title>
    <g id="SOURCES_Calque_2">
      <title>Calque 2</title>
      <g id="Group_10206">
        <g id="Group_10110">
          <title>compass</title>
          <g id="Graphic_10111">
            <path d="M 172.2465 -3283.953 C 172.2305 -3283.905 172.1985 -3283.849 172.1585 -3283.809 C 172.1185 -3283.769 172.0705 -3283.737 172.0145 -3283.721 L 168.0225 -3282.121 C 167.6945 -3281.993 167.3745 -3282.313 167.5025 -3282.641 L 169.1025 -3286.633 C 169.1185 -3286.681 169.1505 -3286.737 169.1905 -3286.777 C 169.2305 -3286.817 169.2785 -3286.849 169.3345 -3286.865 L 173.3265 -3288.465 C 173.6545 -3288.593 173.9745 -3288.273 173.8465 -3287.945 Z M 170.1825 -3286.353 L 171.7265 -3284.809 L 172.7585 -3287.377 L 170.1905 -3286.345 Z M 171.1585 -3284.241 L 169.6145 -3285.785 L 168.5825 -3283.217 L 171.1505 -3284.249 Z M 170.6705 -3277.297 C 166.2545 -3277.297 162.6705 -3280.881 162.6705 -3285.297 C 162.6705 -3289.713 166.2545 -3293.297 170.6705 -3293.297 C 175.0865 -3293.297 178.6705 -3289.713 178.6705 -3285.297 C 178.6705 -3280.881 175.0865 -3277.297 170.6705 -3277.297 Z M 170.6705 -3278.097 C 174.6465 -3278.097 177.8705 -3281.321 177.8705 -3285.297 C 177.8705 -3289.273 174.6465 -3292.497 170.6705 -3292.497 C 166.6945 -3292.497 163.4705 -3289.273 163.4705 -3285.297 C 163.4705 -3281.321 166.6945 -3278.097 170.6705 -3278.097 Z" fill="#999"/>
          </g>
        </g>
        <g id="Graphic_10205"/>
      </g>
    </g>
  </g>
</svg>
