<?xml version="1.0" encoding="UTF-8" standalone="no"?>
<!DOCTYPE svg PUBLIC "-//W3C//DTD SVG 1.1//EN" "http://www.w3.org/Graphics/SVG/1.1/DTD/svg11.dtd">
<svg xmlns:dc="http://purl.org/dc/elements/1.1/" xmlns:xl="http://www.w3.org/1999/xlink" version="1.1" xmlns="http://www.w3.org/2000/svg" viewBox="531.5429 -3308.1196 24.25 18" width="24.25" height="18">
  <defs/>
  <g id="SOURCES" stroke-dasharray="none" stroke="none" stroke-opacity="1" fill="none" fill-opacity="1">
    <title>SOURCES</title>
    <g id="SOURCES_Calque_2">
      <title>Calque 2</title>
      <g id="Group_10215">
        <g id="Graphic_10207"/>
        <g id="Graphic_10112">
          <path d="M 534.1887 -3295.9165 L 534.0897 -3296.5353 C 533.9313 -3297.6226 534.5253 -3298.8436 535.85186 -3300.0646 C 537.23784 -3301.3024 537.7526 -3302.172 537.7526 -3303.109 C 537.7526 -3304.2964 536.88144 -3305.233 534.9411 -3305.233 C 533.9907 -3305.233 532.9215 -3304.9655 532.2681 -3304.514 L 531.7929 -3305.2164 C 532.7235 -3305.8352 534.1689 -3306.1196 535.1589 -3306.1196 C 537.812 -3306.1196 539 -3304.6142 539 -3303.1757 C 539 -3302.0383 538.3268 -3301.0682 536.86164 -3299.73 C 535.57467 -3298.5258 535.1193 -3297.5724 535.1985 -3296.6357 L 535.2381 -3295.9165 L 534.1689 -3295.9165 Z M 533.7333 -3293.0395 C 533.7333 -3293.5748 534.1689 -3293.9762 534.7629 -3293.9762 C 535.3569 -3293.9762 535.75286 -3293.5748 535.75286 -3293.0395 C 535.75286 -3292.5545 535.3569 -3292.1196 534.7233 -3292.1196 C 534.0897 -3292.1196 533.6937 -3292.5545 533.7333 -3293.0395 Z" fill="#999"/>
          <path d="M 534.1887 -3295.9165 L 534.0897 -3296.5353 C 533.9313 -3297.6226 534.5253 -3298.8436 535.85186 -3300.0646 C 537.23784 -3301.3024 537.7526 -3302.172 537.7526 -3303.109 C 537.7526 -3304.2964 536.88144 -3305.233 534.9411 -3305.233 C 533.9907 -3305.233 532.9215 -3304.9655 532.2681 -3304.514 L 531.7929 -3305.2164 C 532.7235 -3305.8352 534.1689 -3306.1196 535.1589 -3306.1196 C 537.812 -3306.1196 539 -3304.6142 539 -3303.1757 C 539 -3302.0383 538.3268 -3301.0682 536.86164 -3299.73 C 535.57467 -3298.5258 535.1193 -3297.5724 535.1985 -3296.6357 L 535.2381 -3295.9165 L 534.1689 -3295.9165 Z M 533.7333 -3293.0395 C 533.7333 -3293.5748 534.1689 -3293.9762 534.7629 -3293.9762 C 535.3569 -3293.9762 535.75286 -3293.5748 535.75286 -3293.0395 C 535.75286 -3292.5545 535.3569 -3292.1196 534.7233 -3292.1196 C 534.0897 -3292.1196 533.6937 -3292.5545 533.7333 -3293.0395 Z" stroke="#999" stroke-linecap="butt" stroke-linejoin="round" stroke-width=".5"/>
        </g>
      </g>
    </g>
  </g>
</svg>
