<?xml version="1.0" encoding="UTF-8" standalone="no"?>
<!DOCTYPE svg PUBLIC "-//W3C//DTD SVG 1.1//EN" "http://www.w3.org/Graphics/SVG/1.1/DTD/svg11.dtd">
<svg xmlns:dc="http://purl.org/dc/elements/1.1/" xmlns:xl="http://www.w3.org/1999/xlink" version="1.1" xmlns="http://www.w3.org/2000/svg" viewBox="211.5613 -3293.0586 24 18" width="24" height="18">
  <defs/>
  <g id="SOURCES" stroke-dasharray="none" stroke="none" stroke-opacity="1" fill="none" fill-opacity="1">
    <title>SOURCES</title>
    <g id="SOURCES_Calque_2">
      <title>Calque 2</title>
      <g id="Group_10210">
        <g id="Group_10113">
          <title>tray-plus</title>
          <g id="Graphic_10114">
            <path d="M 225.7835 -3290.281 L 227.11685 -3290.281 C 227.36573 -3290.281 227.5613 -3290.0853 227.5613 -3289.8364 C 227.5613 -3289.5875 227.36573 -3289.392 227.11685 -3289.392 L 225.7835 -3289.392 L 225.7835 -3288.0586 C 225.7835 -3287.8097 225.58796 -3287.614 225.33907 -3287.614 C 225.09018 -3287.614 224.89462 -3287.8097 224.89462 -3288.0586 L 224.89462 -3289.392 L 223.5613 -3289.392 C 223.3124 -3289.392 223.11685 -3289.5875 223.11685 -3289.8364 C 223.11685 -3290.0853 223.3124 -3290.281 223.5613 -3290.281 L 224.89462 -3290.281 L 224.89462 -3291.614 C 224.89462 -3291.863 225.09018 -3292.0586 225.33907 -3292.0586 C 225.58796 -3292.0586 225.7835 -3291.863 225.7835 -3291.614 Z M 212.45018 -3281.392 L 217.33907 -3281.392 C 217.58796 -3281.392 217.7835 -3281.1964 217.7835 -3280.9475 C 217.7835 -3280.2097 218.37907 -3279.614 219.11685 -3279.614 L 220.00573 -3279.614 C 220.7435 -3279.614 221.33907 -3280.2097 221.33907 -3280.9475 C 221.33907 -3281.1964 221.53462 -3281.392 221.7835 -3281.392 L 226.6724 -3281.392 L 226.6724 -3286.281 C 226.6724 -3286.5297 226.86796 -3286.7253 227.11685 -3286.7253 C 227.36573 -3286.7253 227.5613 -3286.5297 227.5613 -3286.281 L 227.5613 -3278.281 C 227.5613 -3277.054 226.56573 -3276.0586 225.33907 -3276.0586 L 213.7835 -3276.0586 C 212.55685 -3276.0586 211.5613 -3277.054 211.5613 -3278.281 L 211.5613 -3289.8364 C 211.5613 -3291.063 212.55685 -3292.0586 213.7835 -3292.0586 L 221.7835 -3292.0586 C 222.0324 -3292.0586 222.22796 -3291.863 222.22796 -3291.614 C 222.22796 -3291.3653 222.0324 -3291.1697 221.7835 -3291.1697 L 213.7835 -3291.1697 C 213.04573 -3291.1697 212.45018 -3290.574 212.45018 -3289.8364 Z M 212.45018 -3280.503 L 212.45018 -3278.281 C 212.45018 -3277.543 213.04573 -3276.9475 213.7835 -3276.9475 L 225.33907 -3276.9475 C 226.07685 -3276.9475 226.6724 -3277.543 226.6724 -3278.281 L 226.6724 -3280.503 L 222.1835 -3280.503 C 221.97907 -3279.4897 221.0813 -3278.7253 220.00573 -3278.7253 L 219.11685 -3278.7253 C 218.0413 -3278.7253 217.1435 -3279.4897 216.93907 -3280.503 Z" fill="#999"/>
          </g>
        </g>
        <g id="Graphic_10209"/>
      </g>
    </g>
  </g>
</svg>
