<?xml version="1.0" encoding="UTF-8" standalone="no"?>
<!DOCTYPE svg PUBLIC "-//W3C//DTD SVG 1.1//EN" "http://www.w3.org/Graphics/SVG/1.1/DTD/svg11.dtd">
<svg xmlns:dc="http://purl.org/dc/elements/1.1/" xmlns:xl="http://www.w3.org/1999/xlink" version="1.1" xmlns="http://www.w3.org/2000/svg" viewBox="-805.1169 -3270.5816 24 18" width="24" height="18">
  <defs/>
  <g id="SOURCES" stroke-dasharray="none" stroke="none" stroke-opacity="1" fill="none" fill-opacity="1">
    <title>SOURCES</title>
    <g id="SOURCES_Calque_2">
      <title>Calque 2</title>
      <g id="Group_10229">
        <g id="Graphic_10227"/>
        <g id="Group_10225">
          <title>user-interview</title>
          <g id="Graphic_10226">
            <path d="M -795.4261 -3260.7564 L -792.3999 -3259.3833 C -791.6215 -3259.0247 -791.1142 -3258.2462 -791.1142 -3257.389 L -791.1142 -3256.768 C -791.1142 -3255.561 -792.0938 -3254.5816 -793.3008 -3254.5816 L -802.9304 -3254.5816 C -804.1374 -3254.5816 -805.1169 -3255.561 -805.1169 -3256.768 L -805.1169 -3257.389 C -805.1169 -3258.2462 -804.6184 -3259.0247 -803.83125 -3259.3833 L -800.8051 -3260.7564 C -801.8284 -3261.561 -802.4843 -3262.803 -802.4843 -3264.2024 C -802.4931 -3266.6164 -800.5339 -3268.5756 -798.12 -3268.5756 C -795.706 -3268.5756 -793.74685 -3266.6164 -793.74685 -3264.2024 C -793.74685 -3262.803 -794.4028 -3261.5523 -795.4261 -3260.7564 Z M -799.9042 -3260.2054 L -803.4727 -3258.5786 C -803.94495 -3258.3687 -804.2423 -3257.8964 -804.2423 -3257.3804 L -804.2423 -3256.7594 C -804.2423 -3256.0334 -803.6563 -3255.4474 -802.9304 -3255.4474 L -793.3095 -3255.4474 C -792.5836 -3255.4474 -791.9976 -3256.0334 -791.9976 -3256.7594 L -791.9976 -3257.3804 C -791.9976 -3257.8964 -792.295 -3258.36 -792.7673 -3258.5786 L -796.3357 -3260.2054 C -796.878 -3259.9605 -797.4815 -3259.8293 -798.12 -3259.8293 C -798.7584 -3259.8293 -799.3619 -3259.9605 -799.9042 -3260.2054 Z M -798.12 -3260.704 C -796.187 -3260.704 -794.6215 -3262.2695 -794.6215 -3264.2024 C -794.6215 -3266.1354 -796.187 -3267.701 -798.12 -3267.701 C -800.0529 -3267.701 -801.6185 -3266.1354 -801.6185 -3264.2024 C -801.6185 -3262.2695 -800.0529 -3260.704 -798.12 -3260.704 Z M -791.8752 -3266.083 C -792.0413 -3266.258 -792.0413 -3266.529 -791.8752 -3266.704 C -791.7002 -3266.87 -791.4291 -3266.87 -791.2542 -3266.704 C -789.8985 -3265.322 -789.8985 -3263.1004 -791.2542 -3261.7185 C -791.42035 -3261.5436 -791.7002 -3261.5436 -791.8752 -3261.7185 C -792.0501 -3261.8847 -792.0501 -3262.1646 -791.8752 -3262.3395 C -790.85185 -3263.3803 -790.85185 -3265.0596 -791.8752 -3266.1004 Z M -790.0997 -3267.8147 C -790.2833 -3267.972 -790.2921 -3268.252 -790.1347 -3268.4356 C -789.9772 -3268.6193 -789.6973 -3268.628 -789.5137 -3268.4706 C -787.1609 -3266.354 -786.9685 -3262.7243 -789.0939 -3260.3716 C -789.22505 -3260.223 -789.365 -3260.083 -789.5137 -3259.9518 C -789.6973 -3259.7943 -789.9685 -3259.803 -790.1347 -3259.9868 C -790.3008 -3260.1704 -790.2833 -3260.4416 -790.0997 -3260.6077 C -789.9772 -3260.7214 -789.8548 -3260.835 -789.7411 -3260.9663 C -787.9394 -3262.9605 -788.1055 -3266.0304 -790.0997 -3267.832 Z" fill="#999"/>
          </g>
        </g>
      </g>
    </g>
  </g>
</svg>
